<svg width="527" height="283" viewBox="0 0 527 283" fill="none" xmlns="http://www.w3.org/2000/svg">
<g clip-path="url(#clip0_498_1464)">
<path fill-rule="evenodd" clip-rule="evenodd" d="M285.826 129.877L287.011 124.311H262.415L259.155 139.62L256.389 151.948H281.677L282.961 146.083H268.935L270.219 140.117H282.072L283.356 134.55H271.502L272.49 129.877H285.826Z" fill="#B32541" stroke="#B32541" stroke-width="0.6211" stroke-miterlimit="2.6131"/>
<path fill-rule="evenodd" clip-rule="evenodd" d="M306.468 140.117H315.062C315.366 138.32 315.931 135.639 316.05 133.456C316.187 130.901 315.185 129.02 312.988 127.789C309.84 126.033 305.202 126.127 301.727 126C296.963 125.826 291.294 126.444 288.293 130.672C286.745 132.853 285.874 136.232 285.532 138.874C285.109 142.098 283.492 147.508 286.416 150.156C288.59 152.129 293.454 152.785 296.282 152.746C299.162 152.705 301.958 152.516 304.789 151.947L312.197 160.992H323.754L306.468 140.117ZM305.184 140.316C304.239 144.602 302.952 148.208 297.973 148.169C292.974 148.132 294.633 142.754 295.109 139.621C295.782 135.169 297.492 130.5 302.616 130.872C307.803 131.25 305.972 136.752 305.184 140.316Z" fill="#B32541"/>
<path fill-rule="evenodd" clip-rule="evenodd" d="M352.6 127.392L349.933 139.62L347.266 151.948H357.341L362.774 127.392H352.6Z" fill="#B32541"/>
<path fill-rule="evenodd" clip-rule="evenodd" d="M387.468 132.263L388.653 127.392H366.625L361.291 151.948H371.466L373.737 141.409H383.714L384.109 139.62L384.702 136.836H374.824L375.812 132.263H387.468Z" fill="#B32541"/>
<path fill-rule="evenodd" clip-rule="evenodd" d="M320.199 127.392H330.472L326.62 144.79C326.149 146.917 328.133 148.026 329.834 148.173C332.022 148.364 333.985 146.989 334.522 144.691L338.572 127.393H348.746L344.696 145.785C342.962 150.58 338.945 152.463 334.51 152.933C331.76 153.226 328.849 152.978 326.224 152.544L317.137 141.608L320.199 127.392Z" fill="#B32541"/>
<path fill-rule="evenodd" clip-rule="evenodd" d="M410.286 127.392H423.226L427.177 133.755L433.597 127.392H443.475L430.536 138.824L439.031 151.948H426.387L422.238 144.491L415.127 151.948H400.014L399.421 146.579H388.95L385.296 151.948H378.184L395.371 127.392H407.718L410.089 147.274L418.287 139.719L410.286 127.392ZM392.309 141.31L397.84 132.959L398.828 141.31H392.309Z" fill="#B32541"/>
</g>
<path d="M77.4659 201H76.1359L75.3099 198.928H70.6619L69.8359 201H68.5059L72.2579 191.662H73.6999L77.4659 201ZM74.9599 197.892L72.9859 192.866L70.9979 197.892H74.9599ZM84.5947 201H83.2507L80.8147 197.962L79.6947 199.068V201H78.6447V194.238H79.6947V197.836L83.2507 194.238H84.5807L81.5847 197.304L84.5947 201ZM91.1981 202.722V201H85.8361V194.238H86.8861V200.076H90.4141V194.238H91.4641V200.076H92.2481V202.722H91.1981ZM94.6918 201H93.6838V194.238H94.7338V199.404L98.2758 194.238H99.3118V201H98.2618V195.736L94.6918 201ZM106.784 200.146C106.178 200.827 105.37 201.168 104.362 201.168C103.354 201.168 102.542 200.827 101.926 200.146C101.32 199.465 101.016 198.62 101.016 197.612C101.016 196.604 101.32 195.764 101.926 195.092C102.542 194.411 103.354 194.07 104.362 194.07C105.37 194.07 106.178 194.411 106.784 195.092C107.4 195.764 107.708 196.604 107.708 197.612C107.708 198.62 107.4 199.465 106.784 200.146ZM102.71 199.474C103.121 199.978 103.672 200.23 104.362 200.23C105.053 200.23 105.599 199.978 106 199.474C106.402 198.961 106.602 198.34 106.602 197.612C106.602 196.884 106.402 196.268 106 195.764C105.599 195.26 105.053 195.008 104.362 195.008C103.672 195.008 103.121 195.265 102.71 195.778C102.309 196.282 102.108 196.893 102.108 197.612C102.108 198.34 102.309 198.961 102.71 199.474ZM110.47 201H109.42V194.238H110.47V197.052H113.998V194.238H115.048V201H113.998V197.976H110.47V201ZM120.197 201.168C119.189 201.168 118.363 200.841 117.719 200.188C117.075 199.525 116.753 198.667 116.753 197.612C116.753 196.623 117.07 195.787 117.705 195.106C118.339 194.415 119.133 194.07 120.085 194.07C121.083 194.07 121.872 194.415 122.451 195.106C123.039 195.787 123.333 196.651 123.333 197.696V197.962H117.859C117.905 198.625 118.148 199.18 118.587 199.628C119.025 200.076 119.595 200.3 120.295 200.3C121.135 200.3 121.83 200.015 122.381 199.446L122.885 200.132C122.194 200.823 121.298 201.168 120.197 201.168ZM122.297 197.192C122.287 196.613 122.091 196.095 121.709 195.638C121.326 195.171 120.78 194.938 120.071 194.938C119.399 194.938 118.867 195.167 118.475 195.624C118.092 196.081 117.887 196.604 117.859 197.192H122.297ZM128.365 201.168C127.413 201.168 126.653 200.771 126.083 199.978V203.576H125.033V194.238H126.083V195.246C126.335 194.891 126.662 194.607 127.063 194.392C127.465 194.177 127.899 194.07 128.365 194.07C129.261 194.07 129.985 194.392 130.535 195.036C131.095 195.671 131.375 196.529 131.375 197.612C131.375 198.695 131.095 199.558 130.535 200.202C129.985 200.846 129.261 201.168 128.365 201.168ZM128.099 200.23C128.762 200.23 129.289 199.987 129.681 199.502C130.073 199.007 130.269 198.377 130.269 197.612C130.269 196.847 130.073 196.221 129.681 195.736C129.289 195.251 128.762 195.008 128.099 195.008C127.698 195.008 127.306 195.115 126.923 195.33C126.55 195.535 126.27 195.787 126.083 196.086V199.138C126.27 199.446 126.55 199.707 126.923 199.922C127.306 200.127 127.698 200.23 128.099 200.23ZM134.095 201H133.045V194.238H134.095V197.052H137.623V194.238H138.673V201H137.623V197.976H134.095V201ZM146.146 200.146C145.539 200.827 144.732 201.168 143.724 201.168C142.716 201.168 141.904 200.827 141.288 200.146C140.681 199.465 140.378 198.62 140.378 197.612C140.378 196.604 140.681 195.764 141.288 195.092C141.904 194.411 142.716 194.07 143.724 194.07C144.732 194.07 145.539 194.411 146.146 195.092C146.762 195.764 147.07 196.604 147.07 197.612C147.07 198.62 146.762 199.465 146.146 200.146ZM142.072 199.474C142.482 199.978 143.033 200.23 143.724 200.23C144.414 200.23 144.96 199.978 145.362 199.474C145.763 198.961 145.964 198.34 145.964 197.612C145.964 196.884 145.763 196.268 145.362 195.764C144.96 195.26 144.414 195.008 143.724 195.008C143.033 195.008 142.482 195.265 142.072 195.778C141.67 196.282 141.47 196.893 141.47 197.612C141.47 198.34 141.67 198.961 142.072 199.474ZM151.833 201.168C150.825 201.168 149.999 200.841 149.355 200.188C148.711 199.525 148.389 198.667 148.389 197.612C148.389 196.623 148.707 195.787 149.341 195.106C149.976 194.415 150.769 194.07 151.721 194.07C152.72 194.07 153.509 194.415 154.087 195.106C154.675 195.787 154.969 196.651 154.969 197.696V197.962H149.495C149.542 198.625 149.785 199.18 150.223 199.628C150.662 200.076 151.231 200.3 151.931 200.3C152.771 200.3 153.467 200.015 154.017 199.446L154.521 200.132C153.831 200.823 152.935 201.168 151.833 201.168ZM153.933 197.192C153.924 196.613 153.728 196.095 153.345 195.638C152.963 195.171 152.417 194.938 151.707 194.938C151.035 194.938 150.503 195.167 150.111 195.624C149.729 196.081 149.523 196.604 149.495 197.192H153.933ZM71.217 217.146C70.6103 217.827 69.803 218.168 68.795 218.168C67.787 218.168 66.975 217.827 66.359 217.146C65.7523 216.465 65.449 215.62 65.449 214.612C65.449 213.604 65.7523 212.764 66.359 212.092C66.975 211.411 67.787 211.07 68.795 211.07C69.803 211.07 70.6103 211.411 71.217 212.092C71.833 212.764 72.141 213.604 72.141 214.612C72.141 215.62 71.833 216.465 71.217 217.146ZM67.143 216.474C67.5537 216.978 68.1043 217.23 68.795 217.23C69.4857 217.23 70.0317 216.978 70.433 216.474C70.8343 215.961 71.035 215.34 71.035 214.612C71.035 213.884 70.8343 213.268 70.433 212.764C70.0317 212.26 69.4857 212.008 68.795 212.008C68.1043 212.008 67.5537 212.265 67.143 212.778C66.7417 213.282 66.541 213.893 66.541 214.612C66.541 215.34 66.7417 215.961 67.143 216.474ZM75.1547 216.474C75.5654 216.978 76.1161 217.23 76.8067 217.23C77.4974 217.23 78.0434 216.978 78.4447 216.474C78.8461 215.961 79.0467 215.335 79.0467 214.598C79.0467 213.879 78.8461 213.268 78.4447 212.764C78.0434 212.26 77.4974 212.008 76.8067 212.008C76.1161 212.008 75.5654 212.26 75.1547 212.764C74.7534 213.268 74.5527 213.879 74.5527 214.598C74.5527 215.335 74.7534 215.961 75.1547 216.474ZM76.8067 218.168C75.7894 218.168 74.9774 217.809 74.3707 217.09C73.7641 216.371 73.4607 215.443 73.4607 214.304C73.4607 212.699 73.7501 211.513 74.3287 210.748C74.9074 209.973 75.7987 209.507 77.0027 209.348C77.7214 209.236 78.2161 209.129 78.4867 209.026C78.7667 208.923 78.9067 208.802 78.9067 208.662H79.9287C79.9287 208.923 79.8494 209.152 79.6907 209.348C79.5321 209.535 79.3034 209.684 79.0047 209.796C78.7154 209.908 78.4401 209.997 78.1787 210.062C77.9267 210.118 77.6234 210.169 77.2687 210.216C76.3354 210.347 75.6587 210.603 75.2387 210.986C74.8281 211.369 74.5574 211.877 74.4267 212.512C75.0427 211.551 75.8921 211.07 76.9747 211.07C77.9081 211.07 78.6687 211.411 79.2567 212.092C79.8447 212.773 80.1387 213.609 80.1387 214.598C80.1387 215.606 79.8354 216.455 79.2287 217.146C78.6221 217.827 77.8147 218.168 76.8067 218.168ZM89.7448 211.238H90.7948V217.076H91.6628V219.722H90.6128V218H81.9328V211.238H82.9828V217.076H85.8388V211.238H86.8888V217.076H89.7448V211.238ZM96.1547 218.168C95.1467 218.168 94.3207 217.841 93.6767 217.188C93.0327 216.525 92.7107 215.667 92.7107 214.612C92.7107 213.623 93.0281 212.787 93.6627 212.106C94.2974 211.415 95.0907 211.07 96.0427 211.07C97.0414 211.07 97.8301 211.415 98.4087 212.106C98.9967 212.787 99.2907 213.651 99.2907 214.696V214.962H93.8167C93.8634 215.625 94.1061 216.18 94.5447 216.628C94.9834 217.076 95.5527 217.3 96.2527 217.3C97.0927 217.3 97.7881 217.015 98.3387 216.446L98.8427 217.132C98.1521 217.823 97.2561 218.168 96.1547 218.168ZM98.2547 214.192C98.2454 213.613 98.0494 213.095 97.6667 212.638C97.2841 212.171 96.7381 211.938 96.0287 211.938C95.3567 211.938 94.8247 212.167 94.4327 212.624C94.0501 213.081 93.8447 213.604 93.8167 214.192H98.2547ZM103.973 218.168C102.975 218.168 102.163 217.832 101.537 217.16C100.912 216.479 100.599 215.629 100.599 214.612C100.599 213.595 100.912 212.75 101.537 212.078C102.163 211.406 102.975 211.07 103.973 211.07C105.019 211.07 105.845 211.462 106.451 212.246L105.751 212.89C105.322 212.302 104.748 212.008 104.029 212.008C103.32 212.008 102.751 212.251 102.321 212.736C101.901 213.221 101.691 213.847 101.691 214.612C101.691 215.377 101.901 216.007 102.321 216.502C102.751 216.987 103.32 217.23 104.029 217.23C104.739 217.23 105.313 216.936 105.751 216.348L106.451 216.992C105.845 217.776 105.019 218.168 103.973 218.168ZM110.205 218H109.155V212.162H107.195V211.238H112.179V212.162H110.205V218ZM117.35 218H113.556V211.238H117.28C117.868 211.238 118.33 211.397 118.666 211.714C119.011 212.031 119.184 212.451 119.184 212.974C119.184 213.357 119.077 213.688 118.862 213.968C118.657 214.239 118.4 214.421 118.092 214.514C118.437 214.598 118.727 214.799 118.96 215.116C119.203 215.433 119.324 215.783 119.324 216.166C119.324 216.717 119.147 217.16 118.792 217.496C118.447 217.832 117.966 218 117.35 218ZM117.14 217.076C117.476 217.076 117.742 216.983 117.938 216.796C118.134 216.609 118.232 216.357 118.232 216.04C118.232 215.751 118.134 215.503 117.938 215.298C117.742 215.093 117.476 214.99 117.14 214.99H114.606V217.076H117.14ZM117.098 214.066C117.415 214.066 117.663 213.982 117.84 213.814C118.017 213.637 118.106 213.408 118.106 213.128C118.106 212.829 118.017 212.596 117.84 212.428C117.663 212.251 117.415 212.162 117.098 212.162H114.606V214.066H117.098ZM126.684 217.146C126.077 217.827 125.27 218.168 124.262 218.168C123.254 218.168 122.442 217.827 121.826 217.146C121.219 216.465 120.916 215.62 120.916 214.612C120.916 213.604 121.219 212.764 121.826 212.092C122.442 211.411 123.254 211.07 124.262 211.07C125.27 211.07 126.077 211.411 126.684 212.092C127.3 212.764 127.608 213.604 127.608 214.612C127.608 215.62 127.3 216.465 126.684 217.146ZM122.61 216.474C123.02 216.978 123.571 217.23 124.262 217.23C124.952 217.23 125.498 216.978 125.9 216.474C126.301 215.961 126.502 215.34 126.502 214.612C126.502 213.884 126.301 213.268 125.9 212.764C125.498 212.26 124.952 212.008 124.262 212.008C123.571 212.008 123.02 212.265 122.61 212.778C122.208 213.282 122.008 213.893 122.008 214.612C122.008 215.34 122.208 215.961 122.61 216.474ZM137.227 218.168C135.855 218.168 134.74 217.711 133.881 216.796C133.022 215.881 132.593 214.729 132.593 213.338C132.593 211.947 133.022 210.795 133.881 209.88C134.74 208.965 135.855 208.508 137.227 208.508C138.59 208.508 139.7 208.965 140.559 209.88C141.427 210.795 141.861 211.947 141.861 213.338C141.861 214.729 141.427 215.881 140.559 216.796C139.7 217.711 138.59 218.168 137.227 218.168ZM137.227 217.132C138.254 217.132 139.08 216.777 139.705 216.068C140.34 215.349 140.657 214.439 140.657 213.338C140.657 212.227 140.34 211.317 139.705 210.608C139.08 209.899 138.254 209.544 137.227 209.544C136.191 209.544 135.36 209.899 134.735 210.608C134.11 211.317 133.797 212.227 133.797 213.338C133.797 214.439 134.11 215.349 134.735 216.068C135.36 216.777 136.191 217.132 137.227 217.132ZM150.76 218H149.318L145.776 213.8L144.838 214.864V218H143.676V208.662H144.838V213.492L148.968 208.662H150.424L146.532 213.1L150.76 218ZM152.084 208.662H158.146V209.698H153.246V212.372H155.836C156.732 212.372 157.442 212.643 157.964 213.184C158.496 213.725 158.762 214.393 158.762 215.186C158.762 215.979 158.501 216.647 157.978 217.188C157.456 217.729 156.742 218 155.836 218H152.084V208.662ZM155.696 213.408H153.246V216.964H155.696C156.247 216.964 156.695 216.801 157.04 216.474C157.386 216.138 157.558 215.709 157.558 215.186C157.558 214.663 157.386 214.239 157.04 213.912C156.695 213.576 156.247 213.408 155.696 213.408Z" fill="#5B5B5B"/>
<path d="M232.907 201H231.465L227.923 196.8L226.985 197.864V201H225.823V191.662H226.985V196.492L231.115 191.662H232.571L228.679 196.1L232.907 201ZM237.522 201.168C236.57 201.168 235.809 200.771 235.24 199.978V203.576H234.19V194.238H235.24V195.246C235.492 194.891 235.818 194.607 236.22 194.392C236.621 194.177 237.055 194.07 237.522 194.07C238.418 194.07 239.141 194.392 239.692 195.036C240.252 195.671 240.532 196.529 240.532 197.612C240.532 198.695 240.252 199.558 239.692 200.202C239.141 200.846 238.418 201.168 237.522 201.168ZM237.256 200.23C237.918 200.23 238.446 199.987 238.838 199.502C239.23 199.007 239.426 198.377 239.426 197.612C239.426 196.847 239.23 196.221 238.838 195.736C238.446 195.251 237.918 195.008 237.256 195.008C236.854 195.008 236.462 195.115 236.08 195.33C235.706 195.535 235.426 195.787 235.24 196.086V199.138C235.426 199.446 235.706 199.707 236.08 199.922C236.462 200.127 236.854 200.23 237.256 200.23ZM241.823 203.646L241.991 202.694C242.159 202.769 242.351 202.806 242.565 202.806C242.808 202.806 243.009 202.755 243.167 202.652C243.326 202.549 243.461 202.363 243.573 202.092L244.021 201.07L241.193 194.238H242.327L244.581 199.782L246.821 194.238H247.969L244.581 202.372C244.208 203.268 243.545 203.725 242.593 203.744C242.313 203.744 242.057 203.711 241.823 203.646ZM254.693 201H253.643V195.162H250.115V201H249.065V194.238H254.693V201ZM257.839 201H256.789V194.238H257.839V197.052H261.367V194.238H262.417V201H261.367V197.976H257.839V201ZM267.566 201.168C266.558 201.168 265.732 200.841 265.088 200.188C264.444 199.525 264.122 198.667 264.122 197.612C264.122 196.623 264.439 195.787 265.074 195.106C265.709 194.415 266.502 194.07 267.454 194.07C268.453 194.07 269.241 194.415 269.82 195.106C270.408 195.787 270.702 196.651 270.702 197.696V197.962H265.228C265.275 198.625 265.517 199.18 265.956 199.628C266.395 200.076 266.964 200.3 267.664 200.3C268.504 200.3 269.199 200.015 269.75 199.446L270.254 200.132C269.563 200.823 268.667 201.168 267.566 201.168ZM269.666 197.192C269.657 196.613 269.461 196.095 269.078 195.638C268.695 195.171 268.149 194.938 267.44 194.938C266.768 194.938 266.236 195.167 265.844 195.624C265.461 196.081 265.256 196.604 265.228 197.192H269.666ZM273.411 201H272.403V194.238H273.453V199.404L276.995 194.238H278.031V201H276.981V195.736L273.411 201ZM277.667 192.236C277.06 193.057 276.243 193.468 275.217 193.468C274.199 193.468 273.378 193.057 272.753 192.236L273.271 191.788C273.756 192.46 274.405 192.796 275.217 192.796C276.038 192.796 276.682 192.46 277.149 191.788L277.667 192.236ZM287.939 194.238H288.989V201H280.127V194.238H281.177V200.076H284.033V194.238H285.083V200.076H287.939V194.238ZM294.144 201.168C293.136 201.168 292.31 200.841 291.666 200.188C291.022 199.525 290.7 198.667 290.7 197.612C290.7 196.623 291.017 195.787 291.652 195.106C292.287 194.415 293.08 194.07 294.032 194.07C295.031 194.07 295.819 194.415 296.398 195.106C296.986 195.787 297.28 196.651 297.28 197.696V197.962H291.806C291.853 198.625 292.095 199.18 292.534 199.628C292.973 200.076 293.542 200.3 294.242 200.3C295.082 200.3 295.777 200.015 296.328 199.446L296.832 200.132C296.141 200.823 295.245 201.168 294.144 201.168ZM296.244 197.192C296.235 196.613 296.039 196.095 295.656 195.638C295.273 195.171 294.727 194.938 294.018 194.938C293.346 194.938 292.814 195.167 292.422 195.624C292.039 196.081 291.834 196.604 291.806 197.192H296.244ZM302.033 201.168C301.025 201.168 300.199 200.841 299.555 200.188C298.911 199.525 298.589 198.667 298.589 197.612C298.589 196.623 298.906 195.787 299.541 195.106C300.175 194.415 300.969 194.07 301.921 194.07C302.919 194.07 303.708 194.415 304.287 195.106C304.875 195.787 305.169 196.651 305.169 197.696V197.962H299.695C299.741 198.625 299.984 199.18 300.423 199.628C300.861 200.076 301.431 200.3 302.131 200.3C302.971 200.3 303.666 200.015 304.217 199.446L304.721 200.132C304.03 200.823 303.134 201.168 302.033 201.168ZM304.133 197.192C304.123 196.613 303.927 196.095 303.545 195.638C303.162 195.171 302.616 194.938 301.907 194.938C301.235 194.938 300.703 195.167 300.311 195.624C299.928 196.081 299.723 196.604 299.695 197.192H304.133ZM311.781 199.474C312.191 199.978 312.742 200.23 313.433 200.23C314.123 200.23 314.669 199.978 315.071 199.474C315.472 198.961 315.673 198.335 315.673 197.598C315.673 196.879 315.472 196.268 315.071 195.764C314.669 195.26 314.123 195.008 313.433 195.008C312.742 195.008 312.191 195.26 311.781 195.764C311.379 196.268 311.179 196.879 311.179 197.598C311.179 198.335 311.379 198.961 311.781 199.474ZM313.433 201.168C312.415 201.168 311.603 200.809 310.997 200.09C310.39 199.371 310.087 198.443 310.087 197.304C310.087 195.699 310.376 194.513 310.955 193.748C311.533 192.973 312.425 192.507 313.629 192.348C314.347 192.236 314.842 192.129 315.113 192.026C315.393 191.923 315.533 191.802 315.533 191.662H316.555C316.555 191.923 316.475 192.152 316.317 192.348C316.158 192.535 315.929 192.684 315.631 192.796C315.341 192.908 315.066 192.997 314.805 193.062C314.553 193.118 314.249 193.169 313.895 193.216C312.961 193.347 312.285 193.603 311.865 193.986C311.454 194.369 311.183 194.877 311.053 195.512C311.669 194.551 312.518 194.07 313.601 194.07C314.534 194.07 315.295 194.411 315.883 195.092C316.471 195.773 316.765 196.609 316.765 197.598C316.765 198.606 316.461 199.455 315.855 200.146C315.248 200.827 314.441 201.168 313.433 201.168ZM324.229 201.168C323.295 201.168 322.525 200.869 321.919 200.272C321.321 199.665 320.985 198.9 320.911 197.976H319.609V201H318.559V194.238H319.609V197.052H320.925C321.037 196.184 321.387 195.47 321.975 194.91C322.572 194.35 323.323 194.07 324.229 194.07C325.237 194.07 326.049 194.411 326.665 195.092C327.281 195.764 327.589 196.604 327.589 197.612C327.589 198.62 327.281 199.465 326.665 200.146C326.049 200.827 325.237 201.168 324.229 201.168ZM324.229 200.23C324.929 200.23 325.479 199.978 325.881 199.474C326.282 198.961 326.483 198.34 326.483 197.612C326.483 196.884 326.282 196.268 325.881 195.764C325.479 195.26 324.929 195.008 324.229 195.008C323.547 195.008 323.001 195.265 322.591 195.778C322.189 196.282 321.989 196.893 321.989 197.612C321.989 198.34 322.189 198.961 322.591 199.474C322.992 199.978 323.538 200.23 324.229 200.23ZM332.623 201.168C331.671 201.168 330.911 200.771 330.341 199.978V203.576H329.291V194.238H330.341V195.246C330.593 194.891 330.92 194.607 331.321 194.392C331.723 194.177 332.157 194.07 332.623 194.07C333.519 194.07 334.243 194.392 334.793 195.036C335.353 195.671 335.633 196.529 335.633 197.612C335.633 198.695 335.353 199.558 334.793 200.202C334.243 200.846 333.519 201.168 332.623 201.168ZM332.357 200.23C333.02 200.23 333.547 199.987 333.939 199.502C334.331 199.007 334.527 198.377 334.527 197.612C334.527 196.847 334.331 196.221 333.939 195.736C333.547 195.251 333.02 195.008 332.357 195.008C331.956 195.008 331.564 195.115 331.181 195.33C330.808 195.535 330.528 195.787 330.341 196.086V199.138C330.528 199.446 330.808 199.707 331.181 199.922C331.564 200.127 331.956 200.23 332.357 200.23ZM342.679 200.146C342.072 200.827 341.265 201.168 340.257 201.168C339.249 201.168 338.437 200.827 337.821 200.146C337.214 199.465 336.911 198.62 336.911 197.612C336.911 196.604 337.214 195.764 337.821 195.092C338.437 194.411 339.249 194.07 340.257 194.07C341.265 194.07 342.072 194.411 342.679 195.092C343.295 195.764 343.603 196.604 343.603 197.612C343.603 198.62 343.295 199.465 342.679 200.146ZM338.605 199.474C339.016 199.978 339.566 200.23 340.257 200.23C340.948 200.23 341.494 199.978 341.895 199.474C342.296 198.961 342.497 198.34 342.497 197.612C342.497 196.884 342.296 196.268 341.895 195.764C341.494 195.26 340.948 195.008 340.257 195.008C339.566 195.008 339.016 195.265 338.605 195.778C338.204 196.282 338.003 196.893 338.003 197.612C338.003 198.34 338.204 198.961 338.605 199.474ZM354.874 201H353.53L351.094 197.962L349.974 199.068V201H348.924V194.238H349.974V197.836L353.53 194.238H354.86L351.864 197.304L354.874 201ZM359.447 201.168C358.495 201.168 357.735 200.771 357.165 199.978V203.576H356.115V194.238H357.165V195.246C357.417 194.891 357.744 194.607 358.145 194.392C358.547 194.177 358.981 194.07 359.447 194.07C360.343 194.07 361.067 194.392 361.617 195.036C362.177 195.671 362.457 196.529 362.457 197.612C362.457 198.695 362.177 199.558 361.617 200.202C361.067 200.846 360.343 201.168 359.447 201.168ZM359.181 200.23C359.844 200.23 360.371 199.987 360.763 199.502C361.155 199.007 361.351 198.377 361.351 197.612C361.351 196.847 361.155 196.221 360.763 195.736C360.371 195.251 359.844 195.008 359.181 195.008C358.78 195.008 358.388 195.115 358.005 195.33C357.632 195.535 357.352 195.787 357.165 196.086V199.138C357.352 199.446 357.632 199.707 358.005 199.922C358.388 200.127 358.78 200.23 359.181 200.23ZM367.179 201.168C366.171 201.168 365.345 200.841 364.701 200.188C364.057 199.525 363.735 198.667 363.735 197.612C363.735 196.623 364.052 195.787 364.687 195.106C365.322 194.415 366.115 194.07 367.067 194.07C368.066 194.07 368.854 194.415 369.433 195.106C370.021 195.787 370.315 196.651 370.315 197.696V197.962H364.841C364.888 198.625 365.13 199.18 365.569 199.628C366.008 200.076 366.577 200.3 367.277 200.3C368.117 200.3 368.812 200.015 369.363 199.446L369.867 200.132C369.176 200.823 368.28 201.168 367.179 201.168ZM369.279 197.192C369.27 196.613 369.074 196.095 368.691 195.638C368.308 195.171 367.762 194.938 367.053 194.938C366.381 194.938 365.849 195.167 365.457 195.624C365.074 196.081 364.869 196.604 364.841 197.192H369.279ZM371.218 202.722V200.132C371.563 200.067 371.834 199.861 372.03 199.516C372.226 199.161 372.384 198.513 372.506 197.57L372.94 194.238H377.644V200.076H378.428V202.722H377.378V201H372.268V202.722H371.218ZM373.864 195.162L373.556 197.696C373.397 198.881 373.07 199.675 372.576 200.076H376.594V195.162H373.864ZM380.871 201H379.863V194.238H380.913V199.404L384.455 194.238H385.491V201H384.441V195.736L380.871 201ZM389.87 201H388.82V195.162H386.86V194.238H391.844V195.162H389.87V201ZM394.271 201H393.221V194.238H394.271V197.052H397.799V194.238H398.849V201H397.799V197.976H394.271V201ZM400.946 194.238H401.996V196.856H404.53C405.202 196.856 405.724 197.057 406.098 197.458C406.471 197.85 406.658 198.34 406.658 198.928C406.658 199.516 406.466 200.011 406.084 200.412C405.71 200.804 405.192 201 404.53 201H400.946V194.238ZM404.418 197.78H401.996V200.076H404.418C404.791 200.076 405.076 199.973 405.272 199.768C405.477 199.553 405.58 199.273 405.58 198.928C405.58 198.583 405.477 198.307 405.272 198.102C405.076 197.887 404.791 197.78 404.418 197.78ZM408.814 201H407.764V194.238H408.814V201ZM416.512 201H415.294L413.264 198.228L411.234 201H410.03L412.62 197.528L410.17 194.238H411.388L413.264 196.814L415.14 194.238H416.358L413.908 197.528L416.512 201ZM422.338 201H421.33V194.238H422.38V199.404L425.922 194.238H426.958V201H425.908V195.736L422.338 201ZM432.037 201.168C431.038 201.168 430.226 200.832 429.601 200.16C428.976 199.479 428.663 198.629 428.663 197.612C428.663 196.595 428.976 195.75 429.601 195.078C430.226 194.406 431.038 194.07 432.037 194.07C433.082 194.07 433.908 194.462 434.515 195.246L433.815 195.89C433.386 195.302 432.812 195.008 432.093 195.008C431.384 195.008 430.814 195.251 430.385 195.736C429.965 196.221 429.755 196.847 429.755 197.612C429.755 198.377 429.965 199.007 430.385 199.502C430.814 199.987 431.384 200.23 432.093 200.23C432.802 200.23 433.376 199.936 433.815 199.348L434.515 199.992C433.908 200.776 433.082 201.168 432.037 201.168ZM438.269 201H437.219V195.162H435.259V194.238H440.243V195.162H438.269V201ZM446.995 200.146C446.389 200.827 445.581 201.168 444.573 201.168C443.565 201.168 442.753 200.827 442.137 200.146C441.531 199.465 441.227 198.62 441.227 197.612C441.227 196.604 441.531 195.764 442.137 195.092C442.753 194.411 443.565 194.07 444.573 194.07C445.581 194.07 446.389 194.411 446.995 195.092C447.611 195.764 447.919 196.604 447.919 197.612C447.919 198.62 447.611 199.465 446.995 200.146ZM442.921 199.474C443.332 199.978 443.883 200.23 444.573 200.23C445.264 200.23 445.81 199.978 446.211 199.474C446.613 198.961 446.813 198.34 446.813 197.612C446.813 196.884 446.613 196.268 446.211 195.764C445.81 195.26 445.264 195.008 444.573 195.008C443.883 195.008 443.332 195.265 442.921 195.778C442.52 196.282 442.319 196.893 442.319 197.612C442.319 198.34 442.52 198.961 442.921 199.474ZM452.963 201.168C452.011 201.168 451.25 200.771 450.681 199.978V203.576H449.631V194.238H450.681V195.246C450.933 194.891 451.26 194.607 451.661 194.392C452.062 194.177 452.496 194.07 452.963 194.07C453.859 194.07 454.582 194.392 455.133 195.036C455.693 195.671 455.973 196.529 455.973 197.612C455.973 198.695 455.693 199.558 455.133 200.202C454.582 200.846 453.859 201.168 452.963 201.168ZM452.697 200.23C453.36 200.23 453.887 199.987 454.279 199.502C454.671 199.007 454.867 198.377 454.867 197.612C454.867 196.847 454.671 196.221 454.279 195.736C453.887 195.251 453.36 195.008 452.697 195.008C452.296 195.008 451.904 195.115 451.521 195.33C451.148 195.535 450.868 195.787 450.681 196.086V199.138C450.868 199.446 451.148 199.707 451.521 199.922C451.904 200.127 452.296 200.23 452.697 200.23ZM458.651 201H457.643V194.238H458.693V199.404L462.235 194.238H463.271V201H462.221V195.736L458.651 201ZM466.375 201H465.367V194.238H466.417V199.404L469.959 194.238H470.995V201H469.945V195.736L466.375 201ZM470.631 192.236C470.025 193.057 469.208 193.468 468.181 193.468C467.164 193.468 466.343 193.057 465.717 192.236L466.235 191.788C466.721 192.46 467.369 192.796 468.181 192.796C469.003 192.796 469.647 192.46 470.113 191.788L470.631 192.236ZM474.506 200.664C474.506 201.075 474.399 201.467 474.184 201.84C473.969 202.223 473.694 202.535 473.358 202.778L472.84 202.344C473.073 202.195 473.274 201.994 473.442 201.742C473.619 201.499 473.722 201.266 473.75 201.042C473.713 201.061 473.647 201.07 473.554 201.07C473.358 201.07 473.195 201.005 473.064 200.874C472.943 200.734 472.882 200.561 472.882 200.356C472.882 200.151 472.952 199.973 473.092 199.824C473.241 199.675 473.419 199.6 473.624 199.6C473.867 199.6 474.072 199.698 474.24 199.894C474.417 200.081 474.506 200.337 474.506 200.664ZM249.502 218H245.708V211.238H249.432C250.02 211.238 250.482 211.397 250.818 211.714C251.164 212.031 251.336 212.451 251.336 212.974C251.336 213.357 251.229 213.688 251.014 213.968C250.809 214.239 250.552 214.421 250.244 214.514C250.59 214.598 250.879 214.799 251.112 215.116C251.355 215.433 251.476 215.783 251.476 216.166C251.476 216.717 251.299 217.16 250.944 217.496C250.599 217.832 250.118 218 249.502 218ZM249.292 217.076C249.628 217.076 249.894 216.983 250.09 216.796C250.286 216.609 250.384 216.357 250.384 216.04C250.384 215.751 250.286 215.503 250.09 215.298C249.894 215.093 249.628 214.99 249.292 214.99H246.758V217.076H249.292ZM249.25 214.066C249.568 214.066 249.815 213.982 249.992 213.814C250.17 213.637 250.258 213.408 250.258 213.128C250.258 212.829 250.17 212.596 249.992 212.428C249.815 212.251 249.568 212.162 249.25 212.162H246.758V214.066H249.25ZM258.836 217.146C258.229 217.827 257.422 218.168 256.414 218.168C255.406 218.168 254.594 217.827 253.978 217.146C253.371 216.465 253.068 215.62 253.068 214.612C253.068 213.604 253.371 212.764 253.978 212.092C254.594 211.411 255.406 211.07 256.414 211.07C257.422 211.07 258.229 211.411 258.836 212.092C259.452 212.764 259.76 213.604 259.76 214.612C259.76 215.62 259.452 216.465 258.836 217.146ZM254.762 216.474C255.173 216.978 255.723 217.23 256.414 217.23C257.105 217.23 257.651 216.978 258.052 216.474C258.453 215.961 258.654 215.34 258.654 214.612C258.654 213.884 258.453 213.268 258.052 212.764C257.651 212.26 257.105 212.008 256.414 212.008C255.723 212.008 255.173 212.265 254.762 212.778C254.361 213.282 254.16 213.893 254.16 214.612C254.16 215.34 254.361 215.961 254.762 216.474ZM263.866 218.168C262.569 218.168 261.551 217.799 260.814 217.062L261.332 216.39C261.967 216.997 262.811 217.3 263.866 217.3C264.473 217.3 264.953 217.193 265.308 216.978C265.672 216.763 265.854 216.479 265.854 216.124C265.854 215.377 265.145 215.004 263.726 215.004H262.214V214.15H263.726C264.314 214.15 264.795 214.057 265.168 213.87C265.541 213.674 265.728 213.389 265.728 213.016C265.728 212.699 265.541 212.442 265.168 212.246C264.795 212.041 264.323 211.938 263.754 211.938C262.811 211.938 262.055 212.227 261.486 212.806L260.94 212.162C261.64 211.443 262.564 211.084 263.712 211.084C264.636 211.075 265.383 211.233 265.952 211.56C266.531 211.877 266.82 212.321 266.82 212.89C266.82 213.357 266.629 213.735 266.246 214.024C265.873 214.313 265.457 214.486 265 214.542C265.476 214.579 265.919 214.738 266.33 215.018C266.75 215.298 266.96 215.69 266.96 216.194C266.96 216.773 266.68 217.249 266.12 217.622C265.569 217.986 264.818 218.168 263.866 218.168ZM273.395 211.238V212.162H269.713V218H268.663V211.238H273.395ZM273.361 218.168V217.3C273.679 217.3 273.94 217.09 274.145 216.67C274.351 216.25 274.519 215.55 274.649 214.57L275.083 211.238H279.787V218H278.737V212.162H276.007L275.699 214.696C275.55 215.937 275.289 216.829 274.915 217.37C274.542 217.902 274.024 218.168 273.361 218.168ZM287.162 218H286.112V217.23C285.543 217.855 284.796 218.168 283.872 218.168C283.247 218.168 282.696 217.967 282.22 217.566C281.744 217.165 281.506 216.619 281.506 215.928C281.506 215.219 281.739 214.673 282.206 214.29C282.682 213.898 283.237 213.702 283.872 213.702C284.833 213.702 285.58 214.01 286.112 214.626V213.408C286.112 212.96 285.953 212.61 285.636 212.358C285.319 212.106 284.908 211.98 284.404 211.98C283.611 211.98 282.92 212.293 282.332 212.918L281.842 212.19C282.561 211.443 283.461 211.07 284.544 211.07C285.319 211.07 285.949 211.257 286.434 211.63C286.919 212.003 287.162 212.577 287.162 213.352V218ZM284.25 217.412C285.09 217.412 285.711 217.132 286.112 216.572V215.298C285.711 214.738 285.09 214.458 284.25 214.458C283.765 214.458 283.363 214.598 283.046 214.878C282.738 215.149 282.584 215.503 282.584 215.942C282.584 216.371 282.738 216.726 283.046 217.006C283.363 217.277 283.765 217.412 284.25 217.412ZM293.061 218H289.267V211.238H292.991C293.579 211.238 294.041 211.397 294.377 211.714C294.722 212.031 294.895 212.451 294.895 212.974C294.895 213.357 294.787 213.688 294.573 213.968C294.367 214.239 294.111 214.421 293.803 214.514C294.148 214.598 294.437 214.799 294.671 215.116C294.913 215.433 295.035 215.783 295.035 216.166C295.035 216.717 294.857 217.16 294.503 217.496C294.157 217.832 293.677 218 293.061 218ZM292.851 217.076C293.187 217.076 293.453 216.983 293.649 216.796C293.845 216.609 293.943 216.357 293.943 216.04C293.943 215.751 293.845 215.503 293.649 215.298C293.453 215.093 293.187 214.99 292.851 214.99H290.317V217.076H292.851ZM292.809 214.066C293.126 214.066 293.373 213.982 293.551 213.814C293.728 213.637 293.817 213.408 293.817 213.128C293.817 212.829 293.728 212.596 293.551 212.428C293.373 212.251 293.126 212.162 292.809 212.162H290.317V214.066H292.809ZM296.221 218.168V217.3C296.538 217.3 296.799 217.09 297.005 216.67C297.21 216.25 297.378 215.55 297.509 214.57L297.943 211.238H302.647V218H301.597V212.162H298.867L298.559 214.696C298.409 215.937 298.148 216.829 297.775 217.37C297.401 217.902 296.883 218.168 296.221 218.168ZM305.751 218H304.519L306.325 215.34C305.812 215.275 305.392 215.06 305.065 214.696C304.748 214.332 304.589 213.87 304.589 213.31C304.589 212.713 304.781 212.218 305.163 211.826C305.546 211.434 306.069 211.238 306.731 211.238H310.301V218H309.251V215.382H307.403L305.751 218ZM306.843 214.458H309.251V212.162H306.843C306.479 212.162 306.19 212.269 305.975 212.484C305.77 212.689 305.667 212.965 305.667 213.31C305.667 213.655 305.77 213.935 305.975 214.15C306.181 214.355 306.47 214.458 306.843 214.458ZM315.452 218.168C314.444 218.168 313.618 217.841 312.974 217.188C312.33 216.525 312.008 215.667 312.008 214.612C312.008 213.623 312.325 212.787 312.96 212.106C313.594 211.415 314.388 211.07 315.34 211.07C316.338 211.07 317.127 211.415 317.706 212.106C318.294 212.787 318.588 213.651 318.588 214.696V214.962H313.114C313.16 215.625 313.403 216.18 313.842 216.628C314.28 217.076 314.85 217.3 315.55 217.3C316.39 217.3 317.085 217.015 317.636 216.446L318.14 217.132C317.449 217.823 316.553 218.168 315.452 218.168ZM317.552 214.192C317.542 213.613 317.346 213.095 316.964 212.638C316.581 212.171 316.035 211.938 315.326 211.938C314.654 211.938 314.122 212.167 313.73 212.624C313.347 213.081 313.142 213.604 313.114 214.192H317.552ZM322.57 218H321.52V212.162H319.56V211.238H324.544V212.162H322.57V218ZM332.512 218.168C331.514 218.168 330.702 217.832 330.076 217.16C329.451 216.479 329.138 215.629 329.138 214.612C329.138 213.595 329.451 212.75 330.076 212.078C330.702 211.406 331.514 211.07 332.512 211.07C333.558 211.07 334.384 211.462 334.99 212.246L334.29 212.89C333.861 212.302 333.287 212.008 332.568 212.008C331.859 212.008 331.29 212.251 330.86 212.736C330.44 213.221 330.23 213.847 330.23 214.612C330.23 215.377 330.44 216.007 330.86 216.502C331.29 216.987 331.859 217.23 332.568 217.23C333.278 217.23 333.852 216.936 334.29 216.348L334.99 216.992C334.384 217.776 333.558 218.168 332.512 218.168ZM342.09 218H341.04V212.162H337.512V218H336.462V211.238H342.09V218ZM345.195 218H344.187V211.238H345.237V216.404L348.779 211.238H349.815V218H348.765V212.736L345.195 218ZM354.893 218.168C353.895 218.168 353.083 217.832 352.457 217.16C351.832 216.479 351.519 215.629 351.519 214.612C351.519 213.595 351.832 212.75 352.457 212.078C353.083 211.406 353.895 211.07 354.893 211.07C355.939 211.07 356.765 211.462 357.371 212.246L356.671 212.89C356.242 212.302 355.668 212.008 354.949 212.008C354.24 212.008 353.671 212.251 353.241 212.736C352.821 213.221 352.611 213.847 352.611 214.612C352.611 215.377 352.821 216.007 353.241 216.502C353.671 216.987 354.24 217.23 354.949 217.23C355.659 217.23 356.233 216.936 356.671 216.348L357.371 216.992C356.765 217.776 355.939 218.168 354.893 218.168ZM364.219 217.146C363.612 217.827 362.805 218.168 361.797 218.168C360.789 218.168 359.977 217.827 359.361 217.146C358.754 216.465 358.451 215.62 358.451 214.612C358.451 213.604 358.754 212.764 359.361 212.092C359.977 211.411 360.789 211.07 361.797 211.07C362.805 211.07 363.612 211.411 364.219 212.092C364.835 212.764 365.143 213.604 365.143 214.612C365.143 215.62 364.835 216.465 364.219 217.146ZM360.145 216.474C360.556 216.978 361.106 217.23 361.797 217.23C362.488 217.23 363.034 216.978 363.435 216.474C363.836 215.961 364.037 215.34 364.037 214.612C364.037 213.884 363.836 213.268 363.435 212.764C363.034 212.26 362.488 212.008 361.797 212.008C361.106 212.008 360.556 212.265 360.145 212.778C359.744 213.282 359.543 213.893 359.543 214.612C359.543 215.34 359.744 215.961 360.145 216.474ZM372.805 218H371.461L369.025 214.962L367.905 216.068V218H366.855V211.238H367.905V214.836L371.461 211.238H372.791L369.795 214.304L372.805 218ZM377.697 208.662H383.759V209.698H378.859V212.372H381.449C382.345 212.372 383.055 212.643 383.577 213.184C384.109 213.725 384.375 214.393 384.375 215.186C384.375 215.979 384.114 216.647 383.591 217.188C383.069 217.729 382.355 218 381.449 218H377.697V208.662ZM381.309 213.408H378.859V216.964H381.309C381.86 216.964 382.308 216.801 382.653 216.474C382.999 216.138 383.171 215.709 383.171 215.186C383.171 214.663 382.999 214.239 382.653 213.912C382.308 213.576 381.86 213.408 381.309 213.408ZM392.998 218H391.556L388.014 213.8L387.076 214.864V218H385.914V208.662H387.076V213.492L391.206 208.662H392.662L388.77 213.1L392.998 218ZM395.442 218H394.322V208.662H395.484V215.956L400.86 208.662H402.05V218H400.888V210.552L395.442 218ZM409.006 218H407.844V208.662H411.596C412.501 208.662 413.215 208.933 413.738 209.474C414.261 210.015 414.522 210.683 414.522 211.476C414.522 212.269 414.256 212.937 413.724 213.478C413.201 214.019 412.492 214.29 411.596 214.29H409.006V218ZM411.456 213.254C412.007 213.254 412.455 213.091 412.8 212.764C413.145 212.428 413.318 211.999 413.318 211.476C413.318 210.953 413.145 210.529 412.8 210.202C412.455 209.866 412.007 209.698 411.456 209.698H409.006V213.254H411.456ZM421.217 217.146C420.61 217.827 419.803 218.168 418.795 218.168C417.787 218.168 416.975 217.827 416.359 217.146C415.752 216.465 415.449 215.62 415.449 214.612C415.449 213.604 415.752 212.764 416.359 212.092C416.975 211.411 417.787 211.07 418.795 211.07C419.803 211.07 420.61 211.411 421.217 212.092C421.833 212.764 422.141 213.604 422.141 214.612C422.141 215.62 421.833 216.465 421.217 217.146ZM417.143 216.474C417.554 216.978 418.104 217.23 418.795 217.23C419.486 217.23 420.032 216.978 420.433 216.474C420.834 215.961 421.035 215.34 421.035 214.612C421.035 213.884 420.834 213.268 420.433 212.764C420.032 212.26 419.486 212.008 418.795 212.008C418.104 212.008 417.554 212.265 417.143 212.778C416.742 213.282 416.541 213.893 416.541 214.612C416.541 215.34 416.742 215.961 417.143 216.474ZM426.835 218.168C425.836 218.168 425.024 217.832 424.399 217.16C423.773 216.479 423.461 215.629 423.461 214.612C423.461 213.595 423.773 212.75 424.399 212.078C425.024 211.406 425.836 211.07 426.835 211.07C427.88 211.07 428.706 211.462 429.313 212.246L428.613 212.89C428.183 212.302 427.609 212.008 426.891 212.008C426.181 212.008 425.612 212.251 425.183 212.736C424.763 213.221 424.553 213.847 424.553 214.612C424.553 215.377 424.763 216.007 425.183 216.502C425.612 216.987 426.181 217.23 426.891 217.23C427.6 217.23 428.174 216.936 428.613 216.348L429.313 216.992C428.706 217.776 427.88 218.168 426.835 218.168ZM433.766 218.168C432.768 218.168 431.956 217.832 431.33 217.16C430.705 216.479 430.392 215.629 430.392 214.612C430.392 213.595 430.705 212.75 431.33 212.078C431.956 211.406 432.768 211.07 433.766 211.07C434.812 211.07 435.638 211.462 436.244 212.246L435.544 212.89C435.115 212.302 434.541 212.008 433.822 212.008C433.113 212.008 432.544 212.251 432.114 212.736C431.694 213.221 431.484 213.847 431.484 214.612C431.484 215.377 431.694 216.007 432.114 216.502C432.544 216.987 433.113 217.23 433.822 217.23C434.532 217.23 435.106 216.936 435.544 216.348L436.244 216.992C435.638 217.776 434.812 218.168 433.766 218.168ZM438.724 218H437.716V211.238H438.766V216.404L442.308 211.238H443.344V218H442.294V212.736L438.724 218ZM446.449 218H445.441V211.238H446.491V216.404L450.033 211.238H451.069V218H450.019V212.736L446.449 218ZM454.271 217.916C454.122 218.065 453.94 218.14 453.725 218.14C453.511 218.14 453.329 218.065 453.179 217.916C453.03 217.767 452.955 217.585 452.955 217.37C452.955 217.155 453.03 216.973 453.179 216.824C453.329 216.675 453.511 216.6 453.725 216.6C453.94 216.6 454.122 216.675 454.271 216.824C454.421 216.973 454.495 217.155 454.495 217.37C454.495 217.585 454.421 217.767 454.271 217.916Z" fill="#5B5B5B"/>
<g clip-path="url(#clip1_498_1464)">
<path opacity="0.99" d="M112.656 114.195H115.113V123.816H112.779V118.016L108.816 123.854L106.559 123.848V114.228H108.816V119.655L112.656 114.195Z" fill="#005850"/>
<path opacity="0.99" d="M98.3402 133.047H100.797V142.668H98.4602V136.868L94.4912 142.706L92.2402 142.695V133.08H94.4912V138.507L98.3402 133.047Z" fill="#005850"/>
<path opacity="0.99" d="M73.2098 123.848V116.406H71.0098V114.228H75.5048V116.848C75.5048 116.848 78.3338 116.837 79.0048 116.937C79.7964 117.047 80.5135 117.462 81.0027 118.094C81.4919 118.726 81.7145 119.525 81.6228 120.319C81.6849 121.096 81.4671 121.869 81.0086 122.499C80.55 123.13 79.8811 123.575 79.1228 123.756C78.2458 123.955 73.2098 123.848 73.2098 123.848ZM75.5388 121.737L77.8228 121.731C78.0199 121.756 78.2202 121.738 78.4097 121.678C78.5992 121.618 78.7733 121.518 78.9199 121.384C79.0666 121.249 79.1822 121.085 79.2586 120.901C79.3351 120.718 79.3707 120.52 79.3628 120.322C79.3673 120.124 79.3294 119.928 79.2518 119.746C79.1742 119.564 79.0586 119.401 78.9127 119.267C78.7669 119.134 78.5941 119.033 78.4061 118.972C78.2181 118.911 78.0192 118.891 77.8228 118.913L75.5388 118.907V121.737Z" fill="#005850"/>
<path opacity="0.99" d="M123.821 123.827V119.927H119.897V123.827H117.529V114.227H119.875V117.586H123.81V114.229H126.161V123.829L123.821 123.827Z" fill="#005850"/>
<path opacity="0.99" d="M145.716 123.821V119.921H141.792V123.821H139.424V114.221H141.77V117.58H145.705V114.223H148.062V123.823L145.716 123.821Z" fill="#005850"/>
<path opacity="0.99" d="M118.327 142.68V138.78H114.397V142.68H112.027V133.07H114.373V136.435H118.308V133.081H120.665V142.681L118.327 142.68Z" fill="#005850"/>
<path opacity="0.99" d="M156.776 123.827V119.933H152.846V123.827H150.479V114.227H152.825V117.592H156.76V114.234H159.117V123.827H156.776Z" fill="#005850"/>
<path opacity="0.99" d="M135.924 109.671V111.994H133.717V109.671H135.924Z" fill="#005850"/>
<path opacity="0.99" d="M131.838 112.006H129.658V109.677H131.838V112.006Z" fill="#005850"/>
<path opacity="0.99" d="M68.6961 115.66C68.247 115.2 67.7074 114.838 67.1113 114.597C66.5153 114.356 65.8757 114.241 65.2331 114.26C64.1359 114.234 63.073 114.643 62.2761 115.398C62.3768 114.561 62.7612 113.785 63.3651 113.198C64.076 112.547 64.9881 112.159 65.9501 112.098C67.0731 112.003 68.9741 111.936 68.9741 111.936L68.9681 109.636C68.9681 109.636 66.8451 109.669 65.4551 109.809C64.626 109.874 63.8209 110.118 63.0957 110.525C62.3704 110.932 61.7424 111.492 61.2551 112.166C60.214 113.786 59.723 115.698 59.8551 117.62V118.378C59.7878 119.866 60.2585 121.328 61.1811 122.498C61.6454 123.016 62.2185 123.425 62.8594 123.695C63.5003 123.966 64.193 124.091 64.8881 124.063C65.5576 124.071 66.222 123.944 66.8419 123.691C67.4619 123.438 68.025 123.064 68.4979 122.59C68.9709 122.116 69.3442 121.552 69.5958 120.931C69.8475 120.311 69.9723 119.646 69.9631 118.977C69.9809 117.75 69.5274 116.562 68.6961 115.66ZM64.8881 121.933C64.416 121.932 63.9516 121.814 63.5371 121.588C63.4093 121.52 63.2884 121.439 63.1761 121.348C62.6515 120.942 62.2879 120.363 62.1501 119.715C62.0122 119.066 62.109 118.39 62.4233 117.806C62.7376 117.222 63.2489 116.768 63.8662 116.526C64.4835 116.284 65.1668 116.269 65.7943 116.483C66.4218 116.698 66.9528 117.128 67.2928 117.697C67.6328 118.266 67.7597 118.938 67.651 119.592C67.5422 120.246 67.2048 120.84 66.6988 121.269C66.1929 121.698 65.5512 121.933 64.8881 121.933Z" fill="#005850"/>
<path opacity="0.99" d="M166.037 113.994C165.041 113.992 164.066 114.285 163.236 114.838C162.407 115.39 161.76 116.175 161.377 117.095C160.994 118.015 160.893 119.028 161.086 120.006C161.279 120.983 161.757 121.882 162.461 122.587C163.165 123.293 164.063 123.773 165.04 123.969C166.017 124.164 167.03 124.065 167.951 123.684C168.872 123.303 169.659 122.658 170.213 121.829C170.767 121.001 171.062 120.027 171.062 119.03C171.063 117.696 170.535 116.416 169.592 115.472C168.65 114.528 167.371 113.996 166.037 113.994ZM166.037 121.771C165.495 121.772 164.964 121.613 164.513 121.312C164.061 121.012 163.709 120.584 163.501 120.083C163.292 119.583 163.237 119.031 163.342 118.499C163.447 117.967 163.708 117.478 164.091 117.094C164.474 116.71 164.962 116.449 165.494 116.342C166.026 116.236 166.578 116.29 167.079 116.497C167.58 116.705 168.008 117.056 168.31 117.507C168.611 117.958 168.772 118.488 168.772 119.03C168.773 119.39 168.703 119.746 168.566 120.078C168.428 120.411 168.227 120.713 167.973 120.968C167.719 121.222 167.417 121.424 167.085 121.562C166.753 121.7 166.397 121.771 166.037 121.771Z" fill="#005850"/>
<path opacity="0.99" d="M127.586 132.83C126.59 132.828 125.615 133.121 124.785 133.673C123.956 134.225 123.308 135.011 122.926 135.931C122.543 136.851 122.441 137.864 122.634 138.842C122.828 139.819 123.306 140.718 124.01 141.423C124.714 142.129 125.611 142.609 126.589 142.805C127.566 143 128.579 142.901 129.5 142.52C130.421 142.139 131.208 141.493 131.762 140.665C132.315 139.837 132.611 138.863 132.611 137.866C132.612 136.532 132.083 135.252 131.141 134.308C130.199 133.363 128.92 132.832 127.586 132.83ZM127.586 140.607C127.044 140.608 126.513 140.449 126.062 140.148C125.61 139.848 125.258 139.42 125.049 138.919C124.841 138.418 124.786 137.867 124.891 137.335C124.996 136.803 125.257 136.314 125.64 135.93C126.023 135.546 126.511 135.284 127.043 135.178C127.575 135.072 128.126 135.126 128.628 135.333C129.129 135.54 129.557 135.892 129.859 136.343C130.16 136.794 130.321 137.324 130.321 137.866C130.322 138.226 130.251 138.582 130.114 138.914C129.977 139.247 129.776 139.549 129.522 139.804C129.268 140.058 128.966 140.26 128.634 140.398C128.302 140.536 127.946 140.607 127.586 140.607Z" fill="#005850"/>
<path opacity="0.99" d="M87.6779 153.911C86.6814 153.909 85.7066 154.202 84.877 154.755C84.0474 155.307 83.4002 156.092 83.0174 157.012C82.6345 157.932 82.5332 158.945 82.7263 159.923C82.9194 160.9 83.3981 161.799 84.102 162.504C84.8058 163.21 85.7032 163.69 86.6803 163.886C87.6575 164.081 88.6707 163.982 89.5915 163.601C90.5124 163.22 91.2995 162.575 91.8534 161.746C92.4072 160.918 92.7029 159.944 92.7029 158.947C92.7039 157.613 92.1752 156.333 91.2329 155.389C90.2906 154.445 89.0119 153.913 87.6779 153.911ZM87.6779 161.688C87.1355 161.689 86.605 161.53 86.1534 161.229C85.7019 160.929 85.3496 160.501 85.1412 160C84.9329 159.5 84.8777 158.948 84.9828 158.416C85.0879 157.884 85.3485 157.395 85.7316 157.011C86.1147 156.627 86.603 156.366 87.1349 156.259C87.6668 156.153 88.2182 156.207 88.7194 156.414C89.2206 156.622 89.6491 156.973 89.9505 157.424C90.252 157.875 90.4129 158.405 90.4129 158.947C90.4135 159.307 90.3433 159.663 90.2061 159.995C90.069 160.328 89.8676 160.63 89.6136 160.885C89.3596 161.139 89.0579 161.341 88.7257 161.479C88.3936 161.617 88.0375 161.688 87.6779 161.688Z" fill="#005850"/>
<path opacity="0.99" d="M95.4419 114.24H103.129V121.733H104.585V126.201H102.385V123.901H95.4979V126.191H93.2969V121.733C93.5639 121.733 93.7469 121.744 94.0079 121.727C94.8359 121.727 94.8639 121.058 94.9859 119.855C95.1309 118.412 95.2359 116.964 95.3529 115.515C95.3969 115.092 95.4149 114.669 95.4419 114.24ZM97.4709 116.346C97.4709 116.346 97.1369 120.402 97.0539 121.716H100.839V116.346H97.4709Z" fill="#005850"/>
<path opacity="0.99" d="M81.2173 133.265H88.9043V140.758H90.3623V145.226H88.1623V142.926H81.2793V145.215H79.0723V140.758C79.3393 140.758 79.5223 140.769 79.7833 140.752C80.6113 140.752 80.6393 140.083 80.7613 138.88C80.9063 137.437 81.0113 135.989 81.1283 134.54C81.1623 134.115 81.1843 133.694 81.2173 133.265ZM83.2463 135.371C83.2463 135.371 82.9133 139.427 82.8293 140.741H86.6143V135.371H83.2463Z" fill="#005850"/>
<path opacity="0.99" d="M107.62 142.679H105.213V135.103H102.379V133.047H110.433V135.108L107.621 135.102L107.62 142.679Z" fill="#005850"/>
<path opacity="0.99" d="M58.2304 160.005V163.765H56.0684V154.122H58.2254V157.871H59.5814L59.6094 157.76C59.8056 156.893 60.2431 156.099 60.8714 155.47C61.6995 154.597 62.814 154.051 64.0114 153.932C65.0496 153.819 66.0969 154.04 67.0014 154.562C67.805 155.021 68.4694 155.689 68.9244 156.495C69.4111 157.37 69.6258 158.37 69.5412 159.368C69.4566 160.365 69.0764 161.315 68.4493 162.096C67.8221 162.876 66.9765 163.452 66.0205 163.749C65.0645 164.046 64.0415 164.052 63.0824 163.765C62.439 163.58 61.8399 163.266 61.3212 162.843C60.8025 162.42 60.3749 161.896 60.0644 161.303C59.8802 160.934 59.7312 160.548 59.6194 160.15C59.5804 160.027 59.5754 160.005 59.5754 160.005H58.2304ZM64.5054 156.072C63.7557 156.084 63.0409 156.39 62.5156 156.925C61.9903 157.46 61.6967 158.18 61.6984 158.93C61.7098 159.481 61.8835 160.016 62.1977 160.469C62.5119 160.921 62.9527 161.271 63.4648 161.475C63.9769 161.678 64.5377 161.726 65.0767 161.612C65.6158 161.498 66.1093 161.227 66.4954 160.834C66.8815 160.441 67.143 159.943 67.2472 159.402C67.3514 158.861 67.2937 158.301 67.0812 157.792C66.8688 157.284 66.5111 156.85 66.0529 156.544C65.5947 156.238 65.0564 156.074 64.5054 156.072Z" fill="#005850"/>
<path opacity="0.99" d="M44.4062 128.368H46.9183V134.24L52.8713 128.351L56.3172 128.357L49.3802 135.538L56.1662 142.713H52.8162L46.9243 136.858V142.696H44.4123C44.4063 142.708 44.4062 133.159 44.4062 128.368Z" fill="#005850"/>
<path opacity="0.99" d="M46.9147 151.666V155.298H49.5877C52.6167 155.298 54.0787 157.237 54.0787 159.51C54.0831 160.411 53.8032 161.291 53.2787 162.023C52.8832 162.584 52.3533 163.036 51.7377 163.339C51.122 163.642 50.4402 163.785 49.7547 163.756C48.0547 163.762 44.5547 163.75 44.5547 163.75V149.443H53.0547V151.666H46.9147ZM46.9147 161.192C46.9147 161.192 48.9487 161.214 49.9387 161.17C50.1669 161.172 50.3932 161.129 50.6044 161.043C50.8156 160.956 51.0075 160.829 51.1689 160.667C51.3303 160.506 51.458 160.314 51.5445 160.103C51.631 159.892 51.6746 159.666 51.6727 159.437C51.6822 159.207 51.6439 158.976 51.5603 158.761C51.4767 158.546 51.3494 158.35 51.1866 158.187C51.0238 158.023 50.8289 157.895 50.6142 157.81C50.3994 157.725 50.1695 157.685 49.9387 157.693C48.9937 157.671 46.9147 157.676 46.9147 157.676V161.192Z" fill="#005850"/>
<path opacity="0.99" d="M50.6649 109.304V111.895C51.6149 111.892 52.5443 112.171 53.3355 112.697C54.1267 113.223 54.7441 113.971 55.1095 114.848C55.475 115.725 55.572 116.691 55.3884 117.623C55.2048 118.555 54.7487 119.411 54.078 120.084C53.4073 120.757 52.552 121.215 51.6205 121.401C50.689 121.588 49.7232 121.494 48.8453 121.131C47.9674 120.768 47.2169 120.153 46.6889 119.363C46.1608 118.573 45.8789 117.645 45.8789 116.695H43.2949C43.2983 118.152 43.7334 119.575 44.5452 120.785C45.3571 121.994 46.5093 122.936 47.8563 123.492C49.2033 124.047 50.6846 124.19 52.1131 123.904C53.5416 123.618 54.8533 122.914 55.8823 121.883C56.9113 120.852 57.6115 119.538 57.8945 118.109C58.1775 116.68 58.0306 115.199 57.4723 113.853C56.914 112.508 55.9693 111.358 54.7577 110.549C53.5461 109.74 52.1218 109.308 50.6649 109.308V109.304Z" fill="#005850"/>
<path d="M49.37 110.591V108C47.4133 108.003 45.5378 108.783 44.1558 110.168C42.7738 111.553 41.9984 113.43 42 115.387H44.585C44.5837 114.117 45.087 112.898 45.9844 111.998C46.8817 111.099 48.0995 110.593 49.37 110.591Z" fill="url(#paint0_linear_498_1464)"/>
<path opacity="0.99" d="M92.2849 120.981L90.0389 120.903C89.7836 121.283 89.4276 121.586 89.0107 121.777C88.5937 121.968 88.1321 122.039 87.6769 121.984C87.6489 121.984 87.5989 121.978 87.5989 121.978C86.9071 121.954 86.2466 121.683 85.7369 121.215C85.3576 120.848 85.1012 120.373 85.0029 119.855H92.0789C92.1172 119.156 92.0668 118.456 91.9289 117.771C91.7388 116.949 91.3536 116.184 90.8059 115.543C90.2212 114.866 89.4404 114.389 88.5719 114.178C87.8661 114.007 87.1309 113.997 86.4209 114.15C85.6877 114.297 85.0033 114.626 84.4309 115.108C83.6347 115.769 83.0735 116.669 82.8309 117.676C82.6105 118.535 82.6009 119.435 82.8029 120.3C82.912 120.78 83.0999 121.239 83.3589 121.659C83.6732 122.163 84.076 122.606 84.5479 122.968C85.1681 123.438 85.8856 123.764 86.6479 123.921C86.9404 123.987 87.2377 124.029 87.5369 124.049H87.7039C88.6909 124.073 89.6612 123.791 90.4815 123.242C91.3017 122.692 91.9318 121.903 92.2849 120.981ZM87.4439 116.134C87.9752 116.115 88.4962 116.282 88.9173 116.607C89.3385 116.931 89.6332 117.392 89.7509 117.911H85.0429C85.1723 117.38 85.4833 116.912 85.9219 116.588C86.3606 116.263 86.8991 116.102 87.4439 116.134Z" fill="#005850"/>
<path opacity="0.99" d="M77.9834 139.8L75.7374 139.722C75.482 140.103 75.1261 140.405 74.7092 140.596C74.2922 140.787 73.8305 140.859 73.3754 140.803C73.3474 140.803 73.2974 140.797 73.2974 140.797C72.6043 140.774 71.9423 140.504 71.4314 140.035C71.0504 139.669 70.7922 139.194 70.6924 138.676H77.7684C77.8066 137.978 77.7562 137.277 77.6184 136.592C77.4282 135.77 77.043 135.006 76.4954 134.364C75.9107 133.688 75.1298 133.211 74.2614 132.999C73.5556 132.828 72.8204 132.819 72.1104 132.971C71.3771 133.118 70.6927 133.448 70.1204 133.929C69.3241 134.59 68.7629 135.491 68.5204 136.497C68.3 137.357 68.2904 138.257 68.4924 139.121C68.6015 139.601 68.7893 140.061 69.0484 140.48C69.3627 140.984 69.7655 141.428 70.2374 141.789C70.8575 142.259 71.575 142.585 72.3374 142.742C72.6299 142.808 72.9271 142.851 73.2264 142.87H73.3934C74.3814 142.893 75.3525 142.61 76.174 142.061C76.9956 141.512 77.6274 140.722 77.9834 139.8ZM73.1424 134.948C73.6736 134.929 74.1947 135.097 74.6158 135.421C75.0369 135.745 75.3317 136.207 75.4494 136.725H70.7414C70.8717 136.195 71.183 135.728 71.6214 135.403C72.0597 135.078 72.5977 134.918 73.1424 134.948Z" fill="#005850"/>
<path opacity="0.99" d="M143.559 139.8L141.313 139.722C141.058 140.103 140.702 140.405 140.285 140.596C139.868 140.787 139.407 140.859 138.951 140.803C138.923 140.803 138.873 140.797 138.873 140.797C138.182 140.773 137.521 140.502 137.011 140.034C136.63 139.668 136.372 139.193 136.272 138.675H143.348C143.387 137.977 143.336 137.276 143.198 136.591C143.008 135.769 142.623 135.005 142.075 134.363C141.491 133.687 140.71 133.21 139.841 132.998C139.136 132.827 138.4 132.818 137.69 132.97C136.957 133.117 136.273 133.447 135.7 133.928C134.904 134.589 134.343 135.49 134.1 136.496C133.88 137.356 133.87 138.256 134.072 139.12C134.182 139.6 134.369 140.06 134.628 140.479C134.943 140.983 135.346 141.427 135.817 141.788C136.438 142.258 137.155 142.584 137.917 142.741C138.21 142.807 138.507 142.85 138.806 142.869H138.973C139.961 142.891 140.931 142.609 141.752 142.059C142.572 141.51 143.204 140.721 143.559 139.8ZM138.718 134.948C139.25 134.929 139.771 135.096 140.193 135.42C140.614 135.744 140.91 136.205 141.027 136.724H136.317C136.447 136.194 136.758 135.726 137.197 135.402C137.636 135.077 138.174 134.917 138.718 134.948Z" fill="#005850"/>
<path opacity="0.99" d="M137.724 120.981L135.478 120.903C135.222 121.283 134.866 121.586 134.449 121.777C134.032 121.968 133.571 122.039 133.116 121.984C133.088 121.984 133.038 121.978 133.038 121.978C132.346 121.954 131.685 121.683 131.176 121.215C130.795 120.849 130.536 120.374 130.437 119.856H137.513C137.551 119.157 137.5 118.457 137.363 117.772C137.172 116.95 136.787 116.185 136.24 115.544C135.655 114.867 134.874 114.39 134.006 114.179C133.3 114.008 132.565 113.998 131.855 114.151C131.121 114.298 130.437 114.627 129.865 115.109C129.068 115.77 128.507 116.67 128.265 117.677C128.044 118.536 128.034 119.436 128.237 120.301C128.346 120.781 128.533 121.24 128.793 121.66C129.107 122.164 129.51 122.607 129.982 122.969C130.602 123.439 131.319 123.765 132.082 123.922C132.374 123.988 132.671 124.03 132.971 124.05H133.138C134.125 124.074 135.096 123.792 135.918 123.243C136.739 122.693 137.37 121.903 137.724 120.981ZM132.883 116.134C133.414 116.115 133.935 116.282 134.356 116.607C134.777 116.931 135.072 117.392 135.19 117.911H130.482C130.61 117.38 130.921 116.911 131.36 116.587C131.799 116.262 132.338 116.102 132.883 116.134Z" fill="#005850"/>
<path opacity="0.99" d="M182.001 120.981L179.755 120.903C179.5 121.283 179.144 121.586 178.727 121.777C178.31 121.968 177.848 122.039 177.393 121.984C177.365 121.984 177.315 121.978 177.315 121.978C176.623 121.954 175.963 121.683 175.453 121.215C175.072 120.849 174.814 120.374 174.714 119.856H181.79C181.828 119.157 181.778 118.457 181.64 117.772C181.45 116.95 181.065 116.185 180.517 115.544C179.932 114.867 179.151 114.39 178.283 114.179C177.577 114.008 176.842 113.998 176.132 114.151C175.399 114.298 174.714 114.627 174.142 115.109C173.346 115.77 172.784 116.67 172.542 117.677C172.321 118.534 172.309 119.433 172.509 120.296C172.618 120.776 172.806 121.235 173.065 121.655C173.379 122.159 173.782 122.602 174.254 122.964C174.874 123.434 175.592 123.76 176.354 123.917C176.646 123.983 176.944 124.025 177.243 124.045H177.41C178.398 124.07 179.369 123.789 180.191 123.24C181.013 122.692 181.645 121.902 182.001 120.981ZM177.16 116.134C177.691 116.115 178.212 116.282 178.633 116.607C179.054 116.931 179.349 117.392 179.467 117.911H174.759C174.887 117.38 175.198 116.911 175.637 116.586C176.075 116.261 176.615 116.101 177.16 116.134Z" fill="#005850"/>
<path opacity="0.99" d="M66.084 134.752C65.6394 134.185 65.0677 133.73 64.4151 133.425C63.7626 133.119 63.0473 132.971 62.327 132.992C61.349 132.996 60.3996 133.323 59.627 133.922V133.047H57.252V147.014H59.652V141.832C59.9409 142.039 60.2522 142.213 60.58 142.35C61.4578 142.686 62.409 142.784 63.337 142.634C64.0019 142.53 64.6336 142.273 65.1825 141.884C65.7313 141.494 66.1823 140.983 66.5 140.389C67.0005 139.515 67.2284 138.512 67.1543 137.507C67.0801 136.503 66.7074 135.543 66.084 134.752ZM63.449 140.401C63.1033 140.564 62.7247 140.644 62.343 140.635H62.302C61.8515 140.637 61.4075 140.529 61.0079 140.321C60.6084 140.113 60.2652 139.811 60.0078 139.441C59.7504 139.072 59.5865 138.645 59.5301 138.198C59.4737 137.751 59.5265 137.297 59.6839 136.875C59.8414 136.453 60.0988 136.076 60.4342 135.775C60.7695 135.474 61.1728 135.259 61.6094 135.149C62.046 135.038 62.503 135.035 62.9411 135.139C63.3792 135.244 63.7854 135.453 64.125 135.749C64.136 135.76 64.147 135.766 64.153 135.777C64.176 135.795 64.1965 135.815 64.214 135.838L64.247 135.871C64.6862 136.304 64.9696 136.87 65.053 137.481C65.1448 138.077 65.0374 138.686 64.7473 139.214C64.4572 139.742 64.0008 140.159 63.449 140.401Z" fill="#005850"/>
<path opacity="0.99" d="M80.3457 155.738C79.9011 155.17 79.3294 154.716 78.6769 154.41C78.0243 154.104 77.309 153.956 76.5887 153.978C75.6107 153.981 74.6613 154.308 73.8887 154.908V154.033H71.5137V168H73.9137V162.819C74.2026 163.026 74.5139 163.199 74.8417 163.337C75.7196 163.673 76.6707 163.771 77.5987 163.621C78.2636 163.517 78.8953 163.26 79.4442 162.87C79.993 162.481 80.444 161.969 80.7617 161.376C81.2627 160.502 81.4909 159.498 81.4167 158.493C81.3426 157.488 80.9696 156.529 80.3457 155.738ZM77.7167 161.387C77.371 161.549 76.9925 161.629 76.6107 161.621H76.5667C76.1162 161.622 75.6722 161.514 75.2727 161.306C74.8731 161.098 74.5299 160.796 74.2725 160.427C74.0152 160.057 73.8512 159.63 73.7948 159.184C73.7384 158.737 73.7912 158.283 73.9487 157.861C74.1061 157.439 74.3635 157.061 74.6989 156.76C75.0342 156.46 75.4375 156.245 75.8741 156.134C76.3107 156.023 76.7677 156.02 77.2058 156.125C77.6439 156.229 78.0501 156.439 78.3897 156.735C78.4007 156.746 78.4117 156.752 78.4177 156.763C78.4407 156.78 78.4612 156.801 78.4787 156.824L78.5117 156.857C78.9509 157.289 79.2343 157.856 79.3177 158.467C79.4074 159.061 79.2993 159.669 79.0101 160.197C78.7209 160.724 78.2665 161.142 77.7167 161.387Z" fill="#005850"/>
</g>
<path d="M279.732 101.443C279.976 101.315 280.071 101.013 279.943 100.768L277.858 96.7806C277.73 96.5359 277.428 96.4413 277.183 96.5693C276.938 96.6972 276.844 96.9993 276.972 97.244L278.825 100.789L275.281 102.642C275.036 102.77 274.941 103.072 275.069 103.317C275.197 103.562 275.499 103.656 275.744 103.528L279.732 101.443ZM232.503 42.054C236.531 79.1155 265.398 97.1063 279.351 101.477L279.649 100.523C265.936 96.227 237.469 78.4845 233.497 41.946L232.503 42.054Z" fill="#5B5B5B"/>
<path d="M165.768 96.4431C165.524 96.3151 165.429 96.013 165.557 95.7683L167.642 91.7806C167.77 91.5359 168.072 91.4413 168.317 91.5693C168.562 91.6972 168.656 91.9993 168.528 92.244L166.675 95.7886L170.219 97.6422C170.464 97.7702 170.559 98.0723 170.431 98.317C170.303 98.5617 170.001 98.6563 169.756 98.5284L165.768 96.4431ZM212.997 37.054C208.969 74.1155 180.102 92.1063 166.149 96.4771L165.851 95.5229C179.564 91.227 208.031 73.4845 212.003 36.946L212.997 37.054Z" fill="#5B5B5B"/>
<defs>
<linearGradient id="paint0_linear_498_1464" x1="55.0154" y1="175.052" x2="41.3696" y2="160.486" gradientUnits="userSpaceOnUse">
<stop offset="0.202" stop-color="#FFF44F"/>
<stop offset="0.317" stop-color="#DFEF58"/>
<stop offset="0.502" stop-color="#B3E765"/>
<stop offset="0.668" stop-color="#92E26F"/>
<stop offset="0.806" stop-color="#7EDE75"/>
<stop offset="0.899" stop-color="#77DD77"/>
</linearGradient>
<clipPath id="clip0_498_1464">
<rect width="187.475" height="36.993" fill="white" transform="translate(256 124)"/>
</clipPath>
<clipPath id="clip1_498_1464">
<rect width="140" height="60" fill="white" transform="translate(42 108)"/>
</clipPath>
</defs>
</svg>
