<svg width="527" height="283" viewBox="0 0 527 283" fill="none" xmlns="http://www.w3.org/2000/svg">
<g clip-path="url(#clip0_498_1465)">
<path d="M246.411 115.142V167.965H237.528V144.881H211.055V167.965H202.172V115.142H211.055V136.597H237.528V115.142H246.411Z" fill="black"/>
<path d="M282.153 135.924C293.715 135.924 300.236 141.836 300.236 151.891C300.236 161.946 293.715 167.929 282.153 167.929H258.359V115.142H295.865V123.214H267.242V135.924H282.153ZM280.602 160.105C288.533 160.105 291.283 156.989 291.283 151.679C291.283 146.439 288.392 143.323 280.602 143.323H267.242V160.105H280.602Z" fill="black"/>
<path d="M309.014 115.142H317.897V136.738H332.208L342.36 115.142H351.56L339.716 140.81L352.23 167.965H343.03L332.208 144.81H317.897V167.965H309.014V115.142Z" fill="black"/>
<path d="M368.763 115.142V156.281H370.525L392.38 115.142H405V167.965H396.54V126.825H394.777L372.887 167.965H360.303V115.142H368.763Z" fill="black"/>
<path d="M132.659 164.141C135.549 164.105 137.84 161.733 137.84 158.866C137.805 155.962 135.443 153.661 132.588 153.661C129.733 153.697 127.406 156.033 127.406 158.901C127.406 161.804 129.733 164.141 132.659 164.141ZM132.659 154.511C135.056 154.546 136.994 156.493 136.959 158.901C136.924 161.308 134.985 163.256 132.588 163.22C130.191 163.185 128.288 161.238 128.288 158.866C128.288 156.458 130.226 154.511 132.659 154.511Z" fill="#4563FF"/>
<path d="M140.977 115H127.829C125.15 115 123 117.16 123 119.85V163.008C123 165.699 125.15 167.858 127.829 167.858H158.532V115H140.977ZM140.977 166.973H127.829C125.644 166.973 123.881 165.203 123.881 163.008V119.85C123.881 117.655 125.644 115.885 127.829 115.885H140.977V166.973ZM149.755 164.318C146.864 164.318 144.502 161.946 144.502 159.043C144.502 156.14 146.864 153.768 149.755 153.768C152.645 153.768 155.007 156.14 155.007 159.043C155.007 161.946 152.645 164.318 149.755 164.318Z" fill="#4563FF"/>
<path d="M171.68 115H158.531V167.823H171.68C174.112 167.823 176.05 165.84 176.05 163.433V119.39C176.05 116.983 174.077 115 171.68 115ZM167.273 164.318C164.383 164.318 162.021 161.946 162.021 159.043C162.021 156.14 164.383 153.768 167.273 153.768C170.164 153.768 172.525 156.14 172.525 159.043C172.525 161.946 170.199 164.318 167.273 164.318Z" fill="#FF0026"/>
</g>
<path d="M142.412 211H141.25V206.716H135.79V211H134.628V201.662H135.79V205.68H141.25V201.662H142.412V211ZM149.831 211H148.781V210.23C148.212 210.855 147.465 211.168 146.541 211.168C145.916 211.168 145.365 210.967 144.889 210.566C144.413 210.165 144.175 209.619 144.175 208.928C144.175 208.219 144.408 207.673 144.875 207.29C145.351 206.898 145.906 206.702 146.541 206.702C147.502 206.702 148.249 207.01 148.781 207.626V206.408C148.781 205.96 148.622 205.61 148.305 205.358C147.988 205.106 147.577 204.98 147.073 204.98C146.28 204.98 145.589 205.293 145.001 205.918L144.511 205.19C145.23 204.443 146.13 204.07 147.213 204.07C147.988 204.07 148.618 204.257 149.103 204.63C149.588 205.003 149.831 205.577 149.831 206.352V211ZM146.919 210.412C147.759 210.412 148.38 210.132 148.781 209.572V208.298C148.38 207.738 147.759 207.458 146.919 207.458C146.434 207.458 146.032 207.598 145.715 207.878C145.407 208.149 145.253 208.503 145.253 208.942C145.253 209.371 145.407 209.726 145.715 210.006C146.032 210.277 146.434 210.412 146.919 210.412ZM157.298 212.722V211H151.936V204.238H152.986V210.076H156.514V204.238H157.564V210.076H158.348V212.722H157.298ZM160.791 211H159.783V204.238H160.833V209.404L164.375 204.238H165.411V211H164.361V205.736L160.791 211ZM172.884 210.146C172.277 210.827 171.47 211.168 170.462 211.168C169.454 211.168 168.642 210.827 168.026 210.146C167.419 209.465 167.116 208.62 167.116 207.612C167.116 206.604 167.419 205.764 168.026 205.092C168.642 204.411 169.454 204.07 170.462 204.07C171.47 204.07 172.277 204.411 172.884 205.092C173.5 205.764 173.808 206.604 173.808 207.612C173.808 208.62 173.5 209.465 172.884 210.146ZM168.81 209.474C169.221 209.978 169.771 210.23 170.462 210.23C171.153 210.23 171.699 209.978 172.1 209.474C172.501 208.961 172.702 208.34 172.702 207.612C172.702 206.884 172.501 206.268 172.1 205.764C171.699 205.26 171.153 205.008 170.462 205.008C169.771 205.008 169.221 205.265 168.81 205.778C168.409 206.282 168.208 206.893 168.208 207.612C168.208 208.34 168.409 208.961 168.81 209.474ZM176.57 211H175.52V204.238H176.57V207.052H180.098V204.238H181.148V211H180.098V207.976H176.57V211ZM188.522 211H187.472V210.23C186.903 210.855 186.156 211.168 185.232 211.168C184.607 211.168 184.056 210.967 183.58 210.566C183.104 210.165 182.866 209.619 182.866 208.928C182.866 208.219 183.1 207.673 183.566 207.29C184.042 206.898 184.598 206.702 185.232 206.702C186.194 206.702 186.94 207.01 187.472 207.626V206.408C187.472 205.96 187.314 205.61 186.996 205.358C186.679 205.106 186.268 204.98 185.764 204.98C184.971 204.98 184.28 205.293 183.692 205.918L183.202 205.19C183.921 204.443 184.822 204.07 185.904 204.07C186.679 204.07 187.309 204.257 187.794 204.63C188.28 205.003 188.522 205.577 188.522 206.352V211ZM185.61 210.412C186.45 210.412 187.071 210.132 187.472 209.572V208.298C187.071 207.738 186.45 207.458 185.61 207.458C185.125 207.458 184.724 207.598 184.406 207.878C184.098 208.149 183.944 208.503 183.944 208.942C183.944 209.371 184.098 209.726 184.406 210.006C184.724 210.277 185.125 210.412 185.61 210.412ZM189.829 211.168V210.3C190.146 210.3 190.408 210.09 190.613 209.67C190.818 209.25 190.986 208.55 191.117 207.57L191.551 204.238H196.255V211H195.205V205.162H192.475L192.167 207.696C192.018 208.937 191.756 209.829 191.383 210.37C191.01 210.902 190.492 211.168 189.829 211.168ZM198.352 204.238H199.402V206.856H201.936C202.608 206.856 203.13 207.057 203.504 207.458C203.877 207.85 204.064 208.34 204.064 208.928C204.064 209.516 203.872 210.011 203.49 210.412C203.116 210.804 202.598 211 201.936 211H198.352V204.238ZM201.824 207.78H199.402V210.076H201.824C202.197 210.076 202.482 209.973 202.678 209.768C202.883 209.553 202.986 209.273 202.986 208.928C202.986 208.583 202.883 208.307 202.678 208.102C202.482 207.887 202.197 207.78 201.824 207.78ZM206.716 211H205.666V204.238H206.716V207.052H210.244V204.238H211.294V211H210.244V207.976H206.716V211ZM218.767 210.146C218.16 210.827 217.353 211.168 216.345 211.168C215.337 211.168 214.525 210.827 213.909 210.146C213.302 209.465 212.999 208.62 212.999 207.612C212.999 206.604 213.302 205.764 213.909 205.092C214.525 204.411 215.337 204.07 216.345 204.07C217.353 204.07 218.16 204.411 218.767 205.092C219.383 205.764 219.691 206.604 219.691 207.612C219.691 208.62 219.383 209.465 218.767 210.146ZM214.693 209.474C215.103 209.978 215.654 210.23 216.345 210.23C217.035 210.23 217.581 209.978 217.983 209.474C218.384 208.961 218.585 208.34 218.585 207.612C218.585 206.884 218.384 206.268 217.983 205.764C217.581 205.26 217.035 205.008 216.345 205.008C215.654 205.008 215.103 205.265 214.693 205.778C214.291 206.282 214.091 206.893 214.091 207.612C214.091 208.34 214.291 208.961 214.693 209.474ZM224.455 211.168C223.447 211.168 222.621 210.841 221.977 210.188C221.333 209.525 221.011 208.667 221.011 207.612C221.011 206.623 221.328 205.787 221.963 205.106C222.597 204.415 223.391 204.07 224.343 204.07C225.341 204.07 226.13 204.415 226.709 205.106C227.297 205.787 227.591 206.651 227.591 207.696V207.962H222.117C222.163 208.625 222.406 209.18 222.845 209.628C223.283 210.076 223.853 210.3 224.553 210.3C225.393 210.3 226.088 210.015 226.639 209.446L227.143 210.132C226.452 210.823 225.556 211.168 224.455 211.168ZM226.555 207.192C226.545 206.613 226.349 206.095 225.967 205.638C225.584 205.171 225.038 204.938 224.329 204.938C223.657 204.938 223.125 205.167 222.733 205.624C222.35 206.081 222.145 206.604 222.117 207.192H226.555ZM234.203 209.474C234.613 209.978 235.164 210.23 235.855 210.23C236.545 210.23 237.091 209.978 237.493 209.474C237.894 208.961 238.095 208.335 238.095 207.598C238.095 206.879 237.894 206.268 237.493 205.764C237.091 205.26 236.545 205.008 235.855 205.008C235.164 205.008 234.613 205.26 234.203 205.764C233.801 206.268 233.601 206.879 233.601 207.598C233.601 208.335 233.801 208.961 234.203 209.474ZM235.855 211.168C234.837 211.168 234.025 210.809 233.419 210.09C232.812 209.371 232.509 208.443 232.509 207.304C232.509 205.699 232.798 204.513 233.377 203.748C233.955 202.973 234.847 202.507 236.051 202.348C236.769 202.236 237.264 202.129 237.535 202.026C237.815 201.923 237.955 201.802 237.955 201.662H238.977C238.977 201.923 238.897 202.152 238.739 202.348C238.58 202.535 238.351 202.684 238.053 202.796C237.763 202.908 237.488 202.997 237.227 203.062C236.975 203.118 236.671 203.169 236.317 203.216C235.383 203.347 234.707 203.603 234.287 203.986C233.876 204.369 233.605 204.877 233.475 205.512C234.091 204.551 234.94 204.07 236.023 204.07C236.956 204.07 237.717 204.411 238.305 205.092C238.893 205.773 239.187 206.609 239.187 207.598C239.187 208.606 238.883 209.455 238.277 210.146C237.67 210.827 236.863 211.168 235.855 211.168ZM246.651 211.168C245.717 211.168 244.947 210.869 244.341 210.272C243.743 209.665 243.407 208.9 243.333 207.976H242.031V211H240.981V204.238H242.031V207.052H243.347C243.459 206.184 243.809 205.47 244.397 204.91C244.994 204.35 245.745 204.07 246.651 204.07C247.659 204.07 248.471 204.411 249.087 205.092C249.703 205.764 250.011 206.604 250.011 207.612C250.011 208.62 249.703 209.465 249.087 210.146C248.471 210.827 247.659 211.168 246.651 211.168ZM246.651 210.23C247.351 210.23 247.901 209.978 248.303 209.474C248.704 208.961 248.905 208.34 248.905 207.612C248.905 206.884 248.704 206.268 248.303 205.764C247.901 205.26 247.351 205.008 246.651 205.008C245.969 205.008 245.423 205.265 245.013 205.778C244.611 206.282 244.411 206.893 244.411 207.612C244.411 208.34 244.611 208.961 245.013 209.474C245.414 209.978 245.96 210.23 246.651 210.23ZM255.045 211.168C254.093 211.168 253.332 210.771 252.763 209.978V213.576H251.713V204.238H252.763V205.246C253.015 204.891 253.342 204.607 253.743 204.392C254.144 204.177 254.578 204.07 255.045 204.07C255.941 204.07 256.664 204.392 257.215 205.036C257.775 205.671 258.055 206.529 258.055 207.612C258.055 208.695 257.775 209.558 257.215 210.202C256.664 210.846 255.941 211.168 255.045 211.168ZM254.779 210.23C255.442 210.23 255.969 209.987 256.361 209.502C256.753 209.007 256.949 208.377 256.949 207.612C256.949 206.847 256.753 206.221 256.361 205.736C255.969 205.251 255.442 205.008 254.779 205.008C254.378 205.008 253.986 205.115 253.603 205.33C253.23 205.535 252.95 205.787 252.763 206.086V209.138C252.95 209.446 253.23 209.707 253.603 209.922C253.986 210.127 254.378 210.23 254.779 210.23ZM265.101 210.146C264.494 210.827 263.687 211.168 262.679 211.168C261.671 211.168 260.859 210.827 260.243 210.146C259.636 209.465 259.333 208.62 259.333 207.612C259.333 206.604 259.636 205.764 260.243 205.092C260.859 204.411 261.671 204.07 262.679 204.07C263.687 204.07 264.494 204.411 265.101 205.092C265.717 205.764 266.025 206.604 266.025 207.612C266.025 208.62 265.717 209.465 265.101 210.146ZM261.027 209.474C261.437 209.978 261.988 210.23 262.679 210.23C263.369 210.23 263.915 209.978 264.317 209.474C264.718 208.961 264.919 208.34 264.919 207.612C264.919 206.884 264.718 206.268 264.317 205.764C263.915 205.26 263.369 205.008 262.679 205.008C261.988 205.008 261.437 205.265 261.027 205.778C260.625 206.282 260.425 206.893 260.425 207.612C260.425 208.34 260.625 208.961 261.027 209.474ZM277.296 211H275.952L273.516 207.962L272.396 209.068V211H271.346V204.238H272.396V207.836L275.952 204.238H277.282L274.286 207.304L277.296 211ZM281.869 211.168C280.917 211.168 280.157 210.771 279.587 209.978V213.576H278.537V204.238H279.587V205.246C279.839 204.891 280.166 204.607 280.567 204.392C280.969 204.177 281.403 204.07 281.869 204.07C282.765 204.07 283.489 204.392 284.039 205.036C284.599 205.671 284.879 206.529 284.879 207.612C284.879 208.695 284.599 209.558 284.039 210.202C283.489 210.846 282.765 211.168 281.869 211.168ZM281.603 210.23C282.266 210.23 282.793 209.987 283.185 209.502C283.577 209.007 283.773 208.377 283.773 207.612C283.773 206.847 283.577 206.221 283.185 205.736C282.793 205.251 282.266 205.008 281.603 205.008C281.202 205.008 280.81 205.115 280.427 205.33C280.054 205.535 279.774 205.787 279.587 206.086V209.138C279.774 209.446 280.054 209.707 280.427 209.922C280.81 210.127 281.202 210.23 281.603 210.23ZM289.601 211.168C288.593 211.168 287.767 210.841 287.123 210.188C286.479 209.525 286.157 208.667 286.157 207.612C286.157 206.623 286.474 205.787 287.109 205.106C287.744 204.415 288.537 204.07 289.489 204.07C290.488 204.07 291.276 204.415 291.855 205.106C292.443 205.787 292.737 206.651 292.737 207.696V207.962H287.263C287.31 208.625 287.552 209.18 287.991 209.628C288.43 210.076 288.999 210.3 289.699 210.3C290.539 210.3 291.234 210.015 291.785 209.446L292.289 210.132C291.598 210.823 290.702 211.168 289.601 211.168ZM291.701 207.192C291.692 206.613 291.496 206.095 291.113 205.638C290.73 205.171 290.184 204.938 289.475 204.938C288.803 204.938 288.271 205.167 287.879 205.624C287.496 206.081 287.291 206.604 287.263 207.192H291.701ZM293.64 212.722V210.132C293.985 210.067 294.256 209.861 294.452 209.516C294.648 209.161 294.806 208.513 294.928 207.57L295.362 204.238H300.066V210.076H300.85V212.722H299.8V211H294.69V212.722H293.64ZM296.286 205.162L295.978 207.696C295.819 208.881 295.492 209.675 294.998 210.076H299.016V205.162H296.286ZM303.293 211H302.285V204.238H303.335V209.404L306.877 204.238H307.913V211H306.863V205.736L303.293 211ZM312.292 211H311.242V205.162H309.282V204.238H314.266V205.162H312.292V211ZM316.693 211H315.643V204.238H316.693V207.052H320.221V204.238H321.271V211H320.221V207.976H316.693V211ZM323.367 204.238H324.417V206.856H326.951C327.623 206.856 328.146 207.057 328.519 207.458C328.893 207.85 329.079 208.34 329.079 208.928C329.079 209.516 328.888 210.011 328.505 210.412C328.132 210.804 327.614 211 326.951 211H323.367V204.238ZM326.839 207.78H324.417V210.076H326.839C327.213 210.076 327.497 209.973 327.693 209.768C327.899 209.553 328.001 209.273 328.001 208.928C328.001 208.583 327.899 208.307 327.693 208.102C327.497 207.887 327.213 207.78 326.839 207.78ZM331.235 211H330.185V204.238H331.235V211ZM338.934 211H337.716L335.686 208.228L333.656 211H332.452L335.042 207.528L332.592 204.238H333.81L335.686 206.814L337.562 204.238H338.78L336.33 207.528L338.934 211ZM344.76 211H343.752V204.238H344.802V209.404L348.344 204.238H349.38V211H348.33V205.736L344.76 211ZM354.459 211.168C353.46 211.168 352.648 210.832 352.023 210.16C351.397 209.479 351.085 208.629 351.085 207.612C351.085 206.595 351.397 205.75 352.023 205.078C352.648 204.406 353.46 204.07 354.459 204.07C355.504 204.07 356.33 204.462 356.937 205.246L356.237 205.89C355.807 205.302 355.233 205.008 354.515 205.008C353.805 205.008 353.236 205.251 352.807 205.736C352.387 206.221 352.177 206.847 352.177 207.612C352.177 208.377 352.387 209.007 352.807 209.502C353.236 209.987 353.805 210.23 354.515 210.23C355.224 210.23 355.798 209.936 356.237 209.348L356.937 209.992C356.33 210.776 355.504 211.168 354.459 211.168ZM360.69 211H359.64V205.162H357.68V204.238H362.664V205.162H360.69V211ZM369.417 210.146C368.811 210.827 368.003 211.168 366.995 211.168C365.987 211.168 365.175 210.827 364.559 210.146C363.953 209.465 363.649 208.62 363.649 207.612C363.649 206.604 363.953 205.764 364.559 205.092C365.175 204.411 365.987 204.07 366.995 204.07C368.003 204.07 368.811 204.411 369.417 205.092C370.033 205.764 370.341 206.604 370.341 207.612C370.341 208.62 370.033 209.465 369.417 210.146ZM365.343 209.474C365.754 209.978 366.305 210.23 366.995 210.23C367.686 210.23 368.232 209.978 368.633 209.474C369.035 208.961 369.235 208.34 369.235 207.612C369.235 206.884 369.035 206.268 368.633 205.764C368.232 205.26 367.686 205.008 366.995 205.008C366.305 205.008 365.754 205.265 365.343 205.778C364.942 206.282 364.741 206.893 364.741 207.612C364.741 208.34 364.942 208.961 365.343 209.474ZM375.385 211.168C374.433 211.168 373.672 210.771 373.103 209.978V213.576H372.053V204.238H373.103V205.246C373.355 204.891 373.682 204.607 374.083 204.392C374.484 204.177 374.918 204.07 375.385 204.07C376.281 204.07 377.004 204.392 377.555 205.036C378.115 205.671 378.395 206.529 378.395 207.612C378.395 208.695 378.115 209.558 377.555 210.202C377.004 210.846 376.281 211.168 375.385 211.168ZM375.119 210.23C375.782 210.23 376.309 209.987 376.701 209.502C377.093 209.007 377.289 208.377 377.289 207.612C377.289 206.847 377.093 206.221 376.701 205.736C376.309 205.251 375.782 205.008 375.119 205.008C374.718 205.008 374.326 205.115 373.943 205.33C373.57 205.535 373.29 205.787 373.103 206.086V209.138C373.29 209.446 373.57 209.707 373.943 209.922C374.326 210.127 374.718 210.23 375.119 210.23ZM381.073 211H380.065V204.238H381.115V209.404L384.657 204.238H385.693V211H384.643V205.736L381.073 211ZM388.797 211H387.789V204.238H388.839V209.404L392.381 204.238H393.417V211H392.367V205.736L388.797 211ZM393.053 202.236C392.447 203.057 391.63 203.468 390.603 203.468C389.586 203.468 388.765 203.057 388.139 202.236L388.657 201.788C389.143 202.46 389.791 202.796 390.603 202.796C391.425 202.796 392.069 202.46 392.535 201.788L393.053 202.236Z" fill="#5B5B5B"/>
<defs>
<clipPath id="clip0_498_1465">
<rect width="282" height="53" fill="white" transform="translate(123 115)"/>
</clipPath>
</defs>
</svg>
