<svg width="19" height="9" viewBox="0 0 19 9" fill="none" xmlns="http://www.w3.org/2000/svg">
<path d="M9.98681 8.92392C10.1193 8.91019 10.2446 8.85592 10.3467 8.76852L18.7619 1.53126L18.7618 1.5311C18.8974 1.41515 18.9822 1.24887 18.9975 1.06888C19.0128 0.888886 18.9573 0.709974 18.8432 0.571921C18.7292 0.43388 18.5659 0.347744 18.3896 0.332913C18.2134 0.317926 18.0385 0.375194 17.9037 0.492251L9.91753 7.362L1.93139 0.49225C1.79654 0.375193 1.62168 0.317925 1.44542 0.332912C1.26917 0.347741 1.10589 0.433878 0.991881 0.57192C0.877726 0.70996 0.822268 0.88886 0.837563 1.06888C0.85286 1.24889 0.937659 1.41516 1.07329 1.5311L9.48849 8.76836C9.62706 8.88731 9.80698 8.94348 9.98681 8.92392Z" fill="white"/>
</svg>
