<svg width="19" height="16" viewBox="0 0 19 16" fill="none" xmlns="http://www.w3.org/2000/svg">
<g clip-path="url(#clip0_242_1359)">
<g clip-path="url(#clip1_242_1359)">
<path d="M7.004 6.96977C7.004 7.23993 6.77197 7.45897 6.48568 7.45897C6.1994 7.45897 5.96725 7.23992 5.96725 6.96977C5.96725 6.69951 6.1994 6.48047 6.48568 6.48047C6.77197 6.48047 7.004 6.69952 7.004 6.96977Z" fill="#35C759"/>
<path d="M9.51829 6.96977C9.51829 7.23993 9.28626 7.45897 8.99997 7.45897C8.71369 7.45897 8.48166 7.23992 8.48166 6.96977C8.48166 6.69951 8.71369 6.48047 8.99997 6.48047C9.28626 6.48047 9.51829 6.69952 9.51829 6.96977Z" fill="#35C759"/>
<path d="M12.0326 6.96977C12.0326 7.23993 11.8004 7.45897 11.5141 7.45897C11.2279 7.45897 10.9958 7.23992 10.9958 6.96977C10.9958 6.69951 11.2279 6.48047 11.5141 6.48047C11.8004 6.48047 12.0326 6.69952 12.0326 6.96977Z" fill="#35C759"/>
<path d="M7.004 9.82036C7.004 10.0905 6.77197 10.3096 6.48568 10.3096C6.1994 10.3096 5.96725 10.0905 5.96725 9.82036C5.96725 9.5501 6.1994 9.33105 6.48568 9.33105C6.77197 9.33105 7.004 9.55011 7.004 9.82036Z" fill="#35C759"/>
<path d="M9.51829 9.82036C9.51829 10.0905 9.28626 10.3096 8.99997 10.3096C8.71369 10.3096 8.48166 10.0905 8.48166 9.82036C8.48166 9.5501 8.71369 9.33105 8.99997 9.33105C9.28626 9.33105 9.51829 9.55011 9.51829 9.82036Z" fill="#35C759"/>
<path d="M12.0326 9.82036C12.0326 10.0905 11.8004 10.3096 11.5141 10.3096C11.2279 10.3096 10.9958 10.0905 10.9958 9.82036C10.9958 9.5501 11.2279 9.33105 11.5141 9.33105C11.8004 9.33105 12.0326 9.55011 12.0326 9.82036Z" fill="#35C759"/>
<path d="M7.004 12.67C7.004 12.9401 6.77197 13.1592 6.48568 13.1592C6.1994 13.1592 5.96725 12.9401 5.96725 12.67C5.96725 12.3997 6.1994 12.1807 6.48568 12.1807C6.77197 12.1807 7.004 12.3997 7.004 12.67Z" fill="#35C759"/>
<path d="M9.51829 12.67C9.51829 12.9401 9.28626 13.1592 8.99997 13.1592C8.71369 13.1592 8.48166 12.9401 8.48166 12.67C8.48166 12.3997 8.71369 12.1807 8.99997 12.1807C9.28626 12.1807 9.51829 12.3997 9.51829 12.67Z" fill="#35C759"/>
<path d="M12.0326 12.67C12.0326 12.9401 11.8004 13.1592 11.5141 13.1592C11.2279 13.1592 10.9958 12.9401 10.9958 12.67C10.9958 12.3997 11.2279 12.1807 11.5141 12.1807C11.8004 12.1807 12.0326 12.3997 12.0326 12.67Z" fill="#35C759"/>
<path d="M14.4601 13.6169C14.4601 14.3136 13.86 14.8837 13.1267 14.8837L4.87408 14.8836C4.1407 14.8836 3.54068 14.3135 3.54068 13.6168V1.58314C3.54068 0.886422 4.1407 0.316406 4.87408 0.316406H13.1267C13.86 0.316406 14.4601 0.886422 14.4601 1.58314V13.6169Z" stroke="#35C759" stroke-miterlimit="10" stroke-linecap="round" stroke-linejoin="round"/>
<path d="M5.7778 3.45996H12.2223" stroke="#35C759" stroke-miterlimit="10" stroke-linecap="round" stroke-linejoin="round"/>
</g>
</g>
<defs>
<clipPath id="clip0_242_1359">
<rect width="19" height="16" fill="white"/>
</clipPath>
<clipPath id="clip1_242_1359">
<rect width="20" height="19" fill="white" transform="translate(-1)"/>
</clipPath>
</defs>
</svg>
