<svg width="2341" height="358" viewBox="0 0 2341 358" fill="none" xmlns="http://www.w3.org/2000/svg">
<path d="M1637.47 344H1657.68V225.536H1762.74V207.126H1637.47V344Z" fill="black"/>
<path d="M1637.47 344H1635.8V345.676H1637.47V344ZM1657.68 344V345.676H1659.36V344H1657.68ZM1657.68 225.536V223.86H1656.01V225.536H1657.68ZM1762.74 225.536V227.212H1764.42V225.536H1762.74ZM1762.74 207.126H1764.42V205.45H1762.74V207.126ZM1637.47 207.126V205.45H1635.8V207.126H1637.47ZM1637.47 345.676H1657.68V342.324H1637.47V345.676ZM1659.36 344V225.536H1656.01V344H1659.36ZM1657.68 227.212H1762.74V223.86H1657.68V227.212ZM1764.42 225.536V207.126H1761.06V225.536H1764.42ZM1762.74 205.45H1637.47V208.802H1762.74V205.45ZM1635.8 207.126V344H1639.15V207.126H1635.8Z" fill="black"/>
<path d="M815.305 331.041H821.234C824.693 331.041 827.361 328.175 829.238 322.443C831.511 315.526 832.648 304.014 832.648 287.906V285.535V283.459V281.829C832.648 280.05 832.598 278.321 832.499 276.641C832.499 274.862 832.499 273.182 832.499 271.601V243.29H936.111V344.678H920.992V256.927H847.619V276.048V282.866C847.619 292.254 847.322 300.456 846.729 307.472C845.84 318.441 844.259 326.94 841.986 332.968C839.12 340.774 835.118 344.678 829.98 344.678H815.305V331.041ZM963.793 243.29H978.912V280.347H1045.76C1054.95 280.347 1062.07 282.866 1067.11 287.906C1072.54 293.341 1075.26 301.494 1075.26 312.364C1075.26 323.333 1072.74 331.485 1067.7 336.822C1062.76 342.059 1055.69 344.678 1046.5 344.678H963.793V243.29ZM978.912 294.132V331.041H1045.76C1050.21 331.041 1053.72 329.558 1056.29 326.594C1058.86 323.53 1060.14 318.787 1060.14 312.364C1060.14 306.04 1058.86 301.444 1056.29 298.579C1053.82 295.614 1050.36 294.132 1045.91 294.132H978.912ZM1100.12 243.29H1217.52V344.678H1202.4V256.927H1115.24V344.678H1100.12V243.29ZM1366.48 243.29H1344.39L1257.38 332.227V243.29H1242.26V344.678H1265.09L1351.36 256.63V344.678H1366.48V243.29ZM1393 344.678V243.29H1408.12V284.349H1423.23L1484.6 243.29H1510.54L1439.39 291.019L1515.14 344.678H1490.23L1423.23 297.986H1408.12V344.678H1393Z" fill="black"/>
<path d="M815.305 331.041V326.778H811.042V331.041H815.305ZM829.238 322.443L825.188 321.113L825.187 321.116L829.238 322.443ZM832.499 276.641H828.236V276.766L828.244 276.891L832.499 276.641ZM832.499 243.29V239.026H828.236V243.29H832.499ZM936.111 243.29H940.374V239.026H936.111V243.29ZM936.111 344.678V348.941H940.374V344.678H936.111ZM920.992 344.678H916.729V348.941H920.992V344.678ZM920.992 256.927H925.255V252.663H920.992V256.927ZM847.619 256.927V252.663H843.356V256.927H847.619ZM846.729 307.472L842.481 307.113L842.481 307.121L842.48 307.128L846.729 307.472ZM841.986 332.968L837.997 331.464L837.99 331.481L837.984 331.499L841.986 332.968ZM815.305 344.678H811.042V348.941H815.305V344.678ZM815.305 335.304H821.234V326.778H815.305V335.304ZM821.234 335.304C827.707 335.304 831.316 329.795 833.29 323.771L825.187 321.116C824.347 323.681 823.456 325.184 822.709 325.986C822.064 326.679 821.618 326.778 821.234 326.778V335.304ZM833.289 323.774C835.791 316.16 836.911 304.053 836.911 287.906H828.384C828.384 303.974 827.232 314.892 825.188 321.113L833.289 323.774ZM836.911 287.906V285.535H828.384V287.906H836.911ZM836.911 285.535V283.459H828.384V285.535H836.911ZM836.911 283.459V281.829H828.384V283.459H836.911ZM836.911 281.829C836.911 279.971 836.859 278.158 836.755 276.391L828.244 276.891C828.337 278.483 828.384 280.129 828.384 281.829H836.911ZM836.763 276.641C836.763 276.637 836.763 276.634 836.763 276.63C836.763 276.627 836.763 276.624 836.763 276.62C836.763 276.617 836.763 276.613 836.763 276.61C836.763 276.606 836.763 276.603 836.763 276.599C836.763 276.596 836.763 276.592 836.763 276.589C836.763 276.585 836.763 276.582 836.763 276.578C836.763 276.575 836.763 276.571 836.763 276.568C836.763 276.565 836.763 276.561 836.763 276.558C836.763 276.554 836.763 276.551 836.763 276.547C836.763 276.544 836.763 276.54 836.763 276.537C836.763 276.533 836.763 276.53 836.763 276.526C836.763 276.523 836.763 276.519 836.763 276.516C836.763 276.513 836.763 276.509 836.763 276.506C836.763 276.502 836.763 276.499 836.763 276.495C836.763 276.492 836.763 276.488 836.763 276.485C836.763 276.481 836.763 276.478 836.763 276.474C836.763 276.471 836.763 276.468 836.763 276.464C836.763 276.461 836.763 276.457 836.763 276.454C836.763 276.45 836.763 276.447 836.763 276.443C836.763 276.44 836.763 276.436 836.763 276.433C836.763 276.429 836.763 276.426 836.763 276.423C836.763 276.419 836.763 276.416 836.763 276.412C836.763 276.409 836.763 276.405 836.763 276.402C836.763 276.398 836.763 276.395 836.763 276.391C836.763 276.388 836.763 276.384 836.763 276.381C836.763 276.378 836.763 276.374 836.763 276.371C836.763 276.367 836.763 276.364 836.763 276.36C836.763 276.357 836.763 276.353 836.763 276.35C836.763 276.347 836.763 276.343 836.763 276.34C836.763 276.336 836.763 276.333 836.763 276.329C836.763 276.326 836.763 276.322 836.763 276.319C836.763 276.315 836.763 276.312 836.763 276.309C836.763 276.305 836.763 276.302 836.763 276.298C836.763 276.295 836.763 276.291 836.763 276.288C836.763 276.284 836.763 276.281 836.763 276.277C836.763 276.274 836.763 276.271 836.763 276.267C836.763 276.264 836.763 276.26 836.763 276.257C836.763 276.253 836.763 276.25 836.763 276.246C836.763 276.243 836.763 276.24 836.763 276.236C836.763 276.233 836.763 276.229 836.763 276.226C836.763 276.222 836.763 276.219 836.763 276.215C836.763 276.212 836.763 276.209 836.763 276.205C836.763 276.202 836.763 276.198 836.763 276.195C836.763 276.191 836.763 276.188 836.763 276.184C836.763 276.181 836.763 276.178 836.763 276.174C836.763 276.171 836.763 276.167 836.763 276.164C836.763 276.16 836.763 276.157 836.763 276.154C836.763 276.15 836.763 276.147 836.763 276.143C836.763 276.14 836.763 276.136 836.763 276.133C836.763 276.129 836.763 276.126 836.763 276.123C836.763 276.119 836.763 276.116 836.763 276.112C836.763 276.109 836.763 276.105 836.763 276.102C836.763 276.099 836.763 276.095 836.763 276.092C836.763 276.088 836.763 276.085 836.763 276.081C836.763 276.078 836.763 276.075 836.763 276.071C836.763 276.068 836.763 276.064 836.763 276.061C836.763 276.057 836.763 276.054 836.763 276.05C836.763 276.047 836.763 276.044 836.763 276.04C836.763 276.037 836.763 276.033 836.763 276.03C836.763 276.026 836.763 276.023 836.763 276.02C836.763 276.016 836.763 276.013 836.763 276.009C836.763 276.006 836.763 276.002 836.763 275.999C836.763 275.996 836.763 275.992 836.763 275.989C836.763 275.985 836.763 275.982 836.763 275.978C836.763 275.975 836.763 275.972 836.763 275.968C836.763 275.965 836.763 275.961 836.763 275.958C836.763 275.955 836.763 275.951 836.763 275.948C836.763 275.944 836.763 275.941 836.763 275.937C836.763 275.934 836.763 275.931 836.763 275.927C836.763 275.924 836.763 275.92 836.763 275.917C836.763 275.913 836.763 275.91 836.763 275.907C836.763 275.903 836.763 275.9 836.763 275.896C836.763 275.893 836.763 275.89 836.763 275.886C836.763 275.883 836.763 275.879 836.763 275.876C836.763 275.872 836.763 275.869 836.763 275.866C836.763 275.862 836.763 275.859 836.763 275.855C836.763 275.852 836.763 275.848 836.763 275.845C836.763 275.842 836.763 275.838 836.763 275.835C836.763 275.831 836.763 275.828 836.763 275.825C836.763 275.821 836.763 275.818 836.763 275.814C836.763 275.811 836.763 275.808 836.763 275.804C836.763 275.801 836.763 275.797 836.763 275.794C836.763 275.79 836.763 275.787 836.763 275.784C836.763 275.78 836.763 275.777 836.763 275.773C836.763 275.77 836.763 275.767 836.763 275.763C836.763 275.76 836.763 275.756 836.763 275.753C836.763 275.75 836.763 275.746 836.763 275.743C836.763 275.739 836.763 275.736 836.763 275.732C836.763 275.729 836.763 275.726 836.763 275.722C836.763 275.719 836.763 275.715 836.763 275.712C836.763 275.709 836.763 275.705 836.763 275.702C836.763 275.698 836.763 275.695 836.763 275.692C836.763 275.688 836.763 275.685 836.763 275.681C836.763 275.678 836.763 275.675 836.763 275.671C836.763 275.668 836.763 275.664 836.763 275.661C836.763 275.658 836.763 275.654 836.763 275.651C836.763 275.647 836.763 275.644 836.763 275.641C836.763 275.637 836.763 275.634 836.763 275.63C836.763 275.627 836.763 275.624 836.763 275.62C836.763 275.617 836.763 275.613 836.763 275.61C836.763 275.607 836.763 275.603 836.763 275.6C836.763 275.596 836.763 275.593 836.763 275.59C836.763 275.586 836.763 275.583 836.763 275.579C836.763 275.576 836.763 275.573 836.763 275.569C836.763 275.566 836.763 275.562 836.763 275.559C836.763 275.556 836.763 275.552 836.763 275.549C836.763 275.545 836.763 275.542 836.763 275.539C836.763 275.535 836.763 275.532 836.763 275.528C836.763 275.525 836.763 275.522 836.763 275.518C836.763 275.515 836.763 275.512 836.763 275.508C836.763 275.505 836.763 275.501 836.763 275.498C836.763 275.495 836.763 275.491 836.763 275.488C836.763 275.484 836.763 275.481 836.763 275.478C836.763 275.474 836.763 275.471 836.763 275.467C836.763 275.464 836.763 275.461 836.763 275.457C836.763 275.454 836.763 275.451 836.763 275.447C836.763 275.444 836.763 275.44 836.763 275.437C836.763 275.434 836.763 275.43 836.763 275.427C836.763 275.423 836.763 275.42 836.763 275.417C836.763 275.413 836.763 275.41 836.763 275.406C836.763 275.403 836.763 275.4 836.763 275.396C836.763 275.393 836.763 275.39 836.763 275.386C836.763 275.383 836.763 275.379 836.763 275.376C836.763 275.373 836.763 275.369 836.763 275.366C836.763 275.363 836.763 275.359 836.763 275.356C836.763 275.352 836.763 275.349 836.763 275.346C836.763 275.342 836.763 275.339 836.763 275.335C836.763 275.332 836.763 275.329 836.763 275.325C836.763 275.322 836.763 275.319 836.763 275.315C836.763 275.312 836.763 275.308 836.763 275.305C836.763 275.302 836.763 275.298 836.763 275.295C836.763 275.292 836.763 275.288 836.763 275.285C836.763 275.281 836.763 275.278 836.763 275.275C836.763 275.271 836.763 275.268 836.763 275.265C836.763 275.261 836.763 275.258 836.763 275.254C836.763 275.251 836.763 275.248 836.763 275.244C836.763 275.241 836.763 275.238 836.763 275.234C836.763 275.231 836.763 275.228 836.763 275.224C836.763 275.221 836.763 275.217 836.763 275.214C836.763 275.211 836.763 275.207 836.763 275.204C836.763 275.201 836.763 275.197 836.763 275.194C836.763 275.19 836.763 275.187 836.763 275.184C836.763 275.18 836.763 275.177 836.763 275.174C836.763 275.17 836.763 275.167 836.763 275.164C836.763 275.16 836.763 275.157 836.763 275.153C836.763 275.15 836.763 275.147 836.763 275.143C836.763 275.14 836.763 275.137 836.763 275.133C836.763 275.13 836.763 275.127 836.763 275.123C836.763 275.12 836.763 275.116 836.763 275.113C836.763 275.11 836.763 275.106 836.763 275.103C836.763 275.1 836.763 275.096 836.763 275.093C836.763 275.09 836.763 275.086 836.763 275.083C836.763 275.079 836.763 275.076 836.763 275.073C836.763 275.069 836.763 275.066 836.763 275.063C836.763 275.059 836.763 275.056 836.763 275.053C836.763 275.049 836.763 275.046 836.763 275.043C836.763 275.039 836.763 275.036 836.763 275.032C836.763 275.029 836.763 275.026 836.763 275.022C836.763 275.019 836.763 275.016 836.763 275.012C836.763 275.009 836.763 275.006 836.763 275.002C836.763 274.999 836.763 274.996 836.763 274.992C836.763 274.989 836.763 274.986 836.763 274.982C836.763 274.979 836.763 274.975 836.763 274.972C836.763 274.969 836.763 274.965 836.763 274.962C836.763 274.959 836.763 274.955 836.763 274.952C836.763 274.949 836.763 274.945 836.763 274.942C836.763 274.939 836.763 274.935 836.763 274.932C836.763 274.929 836.763 274.925 836.763 274.922C836.763 274.919 836.763 274.915 836.763 274.912C836.763 274.908 836.763 274.905 836.763 274.902C836.763 274.898 836.763 274.895 836.763 274.892C836.763 274.888 836.763 274.885 836.763 274.882C836.763 274.878 836.763 274.875 836.763 274.872C836.763 274.868 836.763 274.865 836.763 274.862C836.763 274.858 836.763 274.855 836.763 274.852C836.763 274.848 836.763 274.845 836.763 274.842C836.763 274.838 836.763 274.835 836.763 274.832C836.763 274.828 836.763 274.825 836.763 274.822C836.763 274.818 836.763 274.815 836.763 274.812C836.763 274.808 836.763 274.805 836.763 274.802C836.763 274.798 836.763 274.795 836.763 274.792C836.763 274.788 836.763 274.785 836.763 274.781C836.763 274.778 836.763 274.775 836.763 274.771C836.763 274.768 836.763 274.765 836.763 274.761C836.763 274.758 836.763 274.755 836.763 274.751C836.763 274.748 836.763 274.745 836.763 274.741C836.763 274.738 836.763 274.735 836.763 274.731C836.763 274.728 836.763 274.725 836.763 274.721C836.763 274.718 836.763 274.715 836.763 274.711C836.763 274.708 836.763 274.705 836.763 274.701C836.763 274.698 836.763 274.695 836.763 274.691C836.763 274.688 836.763 274.685 836.763 274.681C836.763 274.678 836.763 274.675 836.763 274.672C836.763 274.668 836.763 274.665 836.763 274.662C836.763 274.658 836.763 274.655 836.763 274.652C836.763 274.648 836.763 274.645 836.763 274.642C836.763 274.638 836.763 274.635 836.763 274.632C836.763 274.628 836.763 274.625 836.763 274.622C836.763 274.618 836.763 274.615 836.763 274.612C836.763 274.608 836.763 274.605 836.763 274.602C836.763 274.598 836.763 274.595 836.763 274.592C836.763 274.588 836.763 274.585 836.763 274.582C836.763 274.578 836.763 274.575 836.763 274.572C836.763 274.568 836.763 274.565 836.763 274.562C836.763 274.558 836.763 274.555 836.763 274.552C836.763 274.549 836.763 274.545 836.763 274.542C836.763 274.539 836.763 274.535 836.763 274.532C836.763 274.529 836.763 274.525 836.763 274.522C836.763 274.519 836.763 274.515 836.763 274.512C836.763 274.509 836.763 274.505 836.763 274.502C836.763 274.499 836.763 274.495 836.763 274.492C836.763 274.489 836.763 274.486 836.763 274.482C836.763 274.479 836.763 274.476 836.763 274.472C836.763 274.469 836.763 274.466 836.763 274.462C836.763 274.459 836.763 274.456 836.763 274.452C836.763 274.449 836.763 274.446 836.763 274.442C836.763 274.439 836.763 274.436 836.763 274.433C836.763 274.429 836.763 274.426 836.763 274.423C836.763 274.419 836.763 274.416 836.763 274.413C836.763 274.409 836.763 274.406 836.763 274.403C836.763 274.399 836.763 274.396 836.763 274.393C836.763 274.389 836.763 274.386 836.763 274.383C836.763 274.38 836.763 274.376 836.763 274.373C836.763 274.37 836.763 274.366 836.763 274.363C836.763 274.36 836.763 274.356 836.763 274.353C836.763 274.35 836.763 274.347 836.763 274.343C836.763 274.34 836.763 274.337 836.763 274.333C836.763 274.33 836.763 274.327 836.763 274.323C836.763 274.32 836.763 274.317 836.763 274.313C836.763 274.31 836.763 274.307 836.763 274.304C836.763 274.3 836.763 274.297 836.763 274.294C836.763 274.29 836.763 274.287 836.763 274.284C836.763 274.28 836.763 274.277 836.763 274.274C836.763 274.271 836.763 274.267 836.763 274.264C836.763 274.261 836.763 274.257 836.763 274.254C836.763 274.251 836.763 274.248 836.763 274.244C836.763 274.241 836.763 274.238 836.763 274.234C836.763 274.231 836.763 274.228 836.763 274.224C836.763 274.221 836.763 274.218 836.763 274.215C836.763 274.211 836.763 274.208 836.763 274.205C836.763 274.201 836.763 274.198 836.763 274.195C836.763 274.192 836.763 274.188 836.763 274.185C836.763 274.182 836.763 274.178 836.763 274.175C836.763 274.172 836.763 274.168 836.763 274.165C836.763 274.162 836.763 274.159 836.763 274.155C836.763 274.152 836.763 274.149 836.763 274.145C836.763 274.142 836.763 274.139 836.763 274.136C836.763 274.132 836.763 274.129 836.763 274.126C836.763 274.122 836.763 274.119 836.763 274.116C836.763 274.113 836.763 274.109 836.763 274.106C836.763 274.103 836.763 274.099 836.763 274.096C836.763 274.093 836.763 274.09 836.763 274.086C836.763 274.083 836.763 274.08 836.763 274.076C836.763 274.073 836.763 274.07 836.763 274.067C836.763 274.063 836.763 274.06 836.763 274.057C836.763 274.053 836.763 274.05 836.763 274.047C836.763 274.044 836.763 274.04 836.763 274.037C836.763 274.034 836.763 274.03 836.763 274.027C836.763 274.024 836.763 274.021 836.763 274.017C836.763 274.014 836.763 274.011 836.763 274.008C836.763 274.004 836.763 274.001 836.763 273.998C836.763 273.994 836.763 273.991 836.763 273.988C836.763 273.985 836.763 273.981 836.763 273.978C836.763 273.975 836.763 273.971 836.763 273.968C836.763 273.965 836.763 273.962 836.763 273.958C836.763 273.955 836.763 273.952 836.763 273.949C836.763 273.945 836.763 273.942 836.763 273.939C836.763 273.935 836.763 273.932 836.763 273.929C836.763 273.926 836.763 273.922 836.763 273.919C836.763 273.916 836.763 273.913 836.763 273.909C836.763 273.906 836.763 273.903 836.763 273.899C836.763 273.896 836.763 273.893 836.763 273.89C836.763 273.886 836.763 273.883 836.763 273.88C836.763 273.877 836.763 273.873 836.763 273.87C836.763 273.867 836.763 273.864 836.763 273.86C836.763 273.857 836.763 273.854 836.763 273.85C836.763 273.847 836.763 273.844 836.763 273.841C836.763 273.837 836.763 273.834 836.763 273.831C836.763 273.828 836.763 273.824 836.763 273.821C836.763 273.818 836.763 273.815 836.763 273.811C836.763 273.808 836.763 273.805 836.763 273.802C836.763 273.798 836.763 273.795 836.763 273.792C836.763 273.788 836.763 273.785 836.763 273.782C836.763 273.779 836.763 273.775 836.763 273.772C836.763 273.769 836.763 273.766 836.763 273.762C836.763 273.759 836.763 273.756 836.763 273.753C836.763 273.749 836.763 273.746 836.763 273.743C836.763 273.74 836.763 273.736 836.763 273.733C836.763 273.73 836.763 273.727 836.763 273.723C836.763 273.72 836.763 273.717 836.763 273.714C836.763 273.71 836.763 273.707 836.763 273.704C836.763 273.701 836.763 273.697 836.763 273.694C836.763 273.691 836.763 273.687 836.763 273.684C836.763 273.681 836.763 273.678 836.763 273.674C836.763 273.671 836.763 273.668 836.763 273.665C836.763 273.661 836.763 273.658 836.763 273.655C836.763 273.652 836.763 273.648 836.763 273.645C836.763 273.642 836.763 273.639 836.763 273.635C836.763 273.632 836.763 273.629 836.763 273.626C836.763 273.622 836.763 273.619 836.763 273.616C836.763 273.613 836.763 273.609 836.763 273.606C836.763 273.603 836.763 273.6 836.763 273.596C836.763 273.593 836.763 273.59 836.763 273.587C836.763 273.584 836.763 273.58 836.763 273.577C836.763 273.574 836.763 273.571 836.763 273.567C836.763 273.564 836.763 273.561 836.763 273.558C836.763 273.554 836.763 273.551 836.763 273.548C836.763 273.545 836.763 273.541 836.763 273.538C836.763 273.535 836.763 273.532 836.763 273.528C836.763 273.525 836.763 273.522 836.763 273.519C836.763 273.515 836.763 273.512 836.763 273.509C836.763 273.506 836.763 273.502 836.763 273.499C836.763 273.496 836.763 273.493 836.763 273.49C836.763 273.486 836.763 273.483 836.763 273.48C836.763 273.477 836.763 273.473 836.763 273.47C836.763 273.467 836.763 273.464 836.763 273.46C836.763 273.457 836.763 273.454 836.763 273.451C836.763 273.447 836.763 273.444 836.763 273.441C836.763 273.438 836.763 273.434 836.763 273.431C836.763 273.428 836.763 273.425 836.763 273.422C836.763 273.418 836.763 273.415 836.763 273.412C836.763 273.409 836.763 273.405 836.763 273.402C836.763 273.399 836.763 273.396 836.763 273.392C836.763 273.389 836.763 273.386 836.763 273.383C836.763 273.38 836.763 273.376 836.763 273.373C836.763 273.37 836.763 273.367 836.763 273.363C836.763 273.36 836.763 273.357 836.763 273.354C836.763 273.35 836.763 273.347 836.763 273.344C836.763 273.341 836.763 273.338 836.763 273.334C836.763 273.331 836.763 273.328 836.763 273.325C836.763 273.321 836.763 273.318 836.763 273.315C836.763 273.312 836.763 273.309 836.763 273.305C836.763 273.302 836.763 273.299 836.763 273.296C836.763 273.292 836.763 273.289 836.763 273.286C836.763 273.283 836.763 273.28 836.763 273.276C836.763 273.273 836.763 273.27 836.763 273.267C836.763 273.263 836.763 273.26 836.763 273.257C836.763 273.254 836.763 273.251 836.763 273.247C836.763 273.244 836.763 273.241 836.763 273.238C836.763 273.234 836.763 273.231 836.763 273.228C836.763 273.225 836.763 273.222 836.763 273.218C836.763 273.215 836.763 273.212 836.763 273.209C836.763 273.206 836.763 273.202 836.763 273.199C836.763 273.196 836.763 273.193 836.763 273.189C836.763 273.186 836.763 273.183 836.763 273.18C836.763 273.177 836.763 273.173 836.763 273.17C836.763 273.167 836.763 273.164 836.763 273.161C836.763 273.157 836.763 273.154 836.763 273.151C836.763 273.148 836.763 273.144 836.763 273.141C836.763 273.138 836.763 273.135 836.763 273.132C836.763 273.128 836.763 273.125 836.763 273.122C836.763 273.119 836.763 273.116 836.763 273.112C836.763 273.109 836.763 273.106 836.763 273.103C836.763 273.1 836.763 273.096 836.763 273.093C836.763 273.09 836.763 273.087 836.763 273.083C836.763 273.08 836.763 273.077 836.763 273.074C836.763 273.071 836.763 273.067 836.763 273.064C836.763 273.061 836.763 273.058 836.763 273.055C836.763 273.051 836.763 273.048 836.763 273.045C836.763 273.042 836.763 273.039 836.763 273.035C836.763 273.032 836.763 273.029 836.763 273.026C836.763 273.023 836.763 273.019 836.763 273.016C836.763 273.013 836.763 273.01 836.763 273.007C836.763 273.003 836.763 273 836.763 272.997C836.763 272.994 836.763 272.991 836.763 272.987C836.763 272.984 836.763 272.981 836.763 272.978C836.763 272.975 836.763 272.971 836.763 272.968C836.763 272.965 836.763 272.962 836.763 272.959C836.763 272.955 836.763 272.952 836.763 272.949C836.763 272.946 836.763 272.943 836.763 272.939C836.763 272.936 836.763 272.933 836.763 272.93C836.763 272.927 836.763 272.923 836.763 272.92C836.763 272.917 836.763 272.914 836.763 272.911C836.763 272.908 836.763 272.904 836.763 272.901C836.763 272.898 836.763 272.895 836.763 272.892C836.763 272.888 836.763 272.885 836.763 272.882C836.763 272.879 836.763 272.876 836.763 272.872C836.763 272.869 836.763 272.866 836.763 272.863C836.763 272.86 836.763 272.856 836.763 272.853C836.763 272.85 836.763 272.847 836.763 272.844C836.763 272.841 836.763 272.837 836.763 272.834C836.763 272.831 836.763 272.828 836.763 272.825C836.763 272.821 836.763 272.818 836.763 272.815C836.763 272.812 836.763 272.809 836.763 272.805C836.763 272.802 836.763 272.799 836.763 272.796C836.763 272.793 836.763 272.79 836.763 272.786C836.763 272.783 836.763 272.78 836.763 272.777C836.763 272.774 836.763 272.77 836.763 272.767C836.763 272.764 836.763 272.761 836.763 272.758C836.763 272.755 836.763 272.751 836.763 272.748C836.763 272.745 836.763 272.742 836.763 272.739C836.763 272.735 836.763 272.732 836.763 272.729C836.763 272.726 836.763 272.723 836.763 272.72C836.763 272.716 836.763 272.713 836.763 272.71C836.763 272.707 836.763 272.704 836.763 272.701C836.763 272.697 836.763 272.694 836.763 272.691C836.763 272.688 836.763 272.685 836.763 272.681C836.763 272.678 836.763 272.675 836.763 272.672C836.763 272.669 836.763 272.666 836.763 272.662C836.763 272.659 836.763 272.656 836.763 272.653C836.763 272.65 836.763 272.647 836.763 272.643C836.763 272.64 836.763 272.637 836.763 272.634C836.763 272.631 836.763 272.628 836.763 272.624C836.763 272.621 836.763 272.618 836.763 272.615C836.763 272.612 836.763 272.609 836.763 272.605C836.763 272.602 836.763 272.599 836.763 272.596C836.763 272.593 836.763 272.59 836.763 272.586C836.763 272.583 836.763 272.58 836.763 272.577C836.763 272.574 836.763 272.571 836.763 272.567C836.763 272.564 836.763 272.561 836.763 272.558C836.763 272.555 836.763 272.552 836.763 272.548C836.763 272.545 836.763 272.542 836.763 272.539C836.763 272.536 836.763 272.533 836.763 272.529C836.763 272.526 836.763 272.523 836.763 272.52C836.763 272.517 836.763 272.514 836.763 272.51C836.763 272.507 836.763 272.504 836.763 272.501C836.763 272.498 836.763 272.495 836.763 272.491C836.763 272.488 836.763 272.485 836.763 272.482C836.763 272.479 836.763 272.476 836.763 272.472C836.763 272.469 836.763 272.466 836.763 272.463C836.763 272.46 836.763 272.457 836.763 272.454C836.763 272.45 836.763 272.447 836.763 272.444C836.763 272.441 836.763 272.438 836.763 272.435C836.763 272.431 836.763 272.428 836.763 272.425C836.763 272.422 836.763 272.419 836.763 272.416C836.763 272.413 836.763 272.409 836.763 272.406C836.763 272.403 836.763 272.4 836.763 272.397C836.763 272.394 836.763 272.39 836.763 272.387C836.763 272.384 836.763 272.381 836.763 272.378C836.763 272.375 836.763 272.372 836.763 272.368C836.763 272.365 836.763 272.362 836.763 272.359C836.763 272.356 836.763 272.353 836.763 272.35C836.763 272.346 836.763 272.343 836.763 272.34C836.763 272.337 836.763 272.334 836.763 272.331C836.763 272.327 836.763 272.324 836.763 272.321C836.763 272.318 836.763 272.315 836.763 272.312C836.763 272.309 836.763 272.305 836.763 272.302C836.763 272.299 836.763 272.296 836.763 272.293C836.763 272.29 836.763 272.287 836.763 272.283C836.763 272.28 836.763 272.277 836.763 272.274C836.763 272.271 836.763 272.268 836.763 272.265C836.763 272.261 836.763 272.258 836.763 272.255C836.763 272.252 836.763 272.249 836.763 272.246C836.763 272.243 836.763 272.239 836.763 272.236C836.763 272.233 836.763 272.23 836.763 272.227C836.763 272.224 836.763 272.221 836.763 272.217C836.763 272.214 836.763 272.211 836.763 272.208C836.763 272.205 836.763 272.202 836.763 272.199C836.763 272.196 836.763 272.192 836.763 272.189C836.763 272.186 836.763 272.183 836.763 272.18C836.763 272.177 836.763 272.174 836.763 272.17C836.763 272.167 836.763 272.164 836.763 272.161C836.763 272.158 836.763 272.155 836.763 272.152C836.763 272.149 836.763 272.145 836.763 272.142C836.763 272.139 836.763 272.136 836.763 272.133C836.763 272.13 836.763 272.127 836.763 272.123C836.763 272.12 836.763 272.117 836.763 272.114C836.763 272.111 836.763 272.108 836.763 272.105C836.763 272.102 836.763 272.098 836.763 272.095C836.763 272.092 836.763 272.089 836.763 272.086C836.763 272.083 836.763 272.08 836.763 272.077C836.763 272.073 836.763 272.07 836.763 272.067C836.763 272.064 836.763 272.061 836.763 272.058C836.763 272.055 836.763 272.052 836.763 272.048C836.763 272.045 836.763 272.042 836.763 272.039C836.763 272.036 836.763 272.033 836.763 272.03C836.763 272.027 836.763 272.023 836.763 272.02C836.763 272.017 836.763 272.014 836.763 272.011C836.763 272.008 836.763 272.005 836.763 272.002C836.763 271.998 836.763 271.995 836.763 271.992C836.763 271.989 836.763 271.986 836.763 271.983C836.763 271.98 836.763 271.977 836.763 271.974C836.763 271.97 836.763 271.967 836.763 271.964C836.763 271.961 836.763 271.958 836.763 271.955C836.763 271.952 836.763 271.949 836.763 271.945C836.763 271.942 836.763 271.939 836.763 271.936C836.763 271.933 836.763 271.93 836.763 271.927C836.763 271.924 836.763 271.921 836.763 271.917C836.763 271.914 836.763 271.911 836.763 271.908C836.763 271.905 836.763 271.902 836.763 271.899C836.763 271.896 836.763 271.893 836.763 271.889C836.763 271.886 836.763 271.883 836.763 271.88C836.763 271.877 836.763 271.874 836.763 271.871C836.763 271.868 836.763 271.865 836.763 271.861C836.763 271.858 836.763 271.855 836.763 271.852C836.763 271.849 836.763 271.846 836.763 271.843C836.763 271.84 836.763 271.837 836.763 271.833C836.763 271.83 836.763 271.827 836.763 271.824C836.763 271.821 836.763 271.818 836.763 271.815C836.763 271.812 836.763 271.809 836.763 271.805C836.763 271.802 836.763 271.799 836.763 271.796C836.763 271.793 836.763 271.79 836.763 271.787C836.763 271.784 836.763 271.781 836.763 271.778C836.763 271.774 836.763 271.771 836.763 271.768C836.763 271.765 836.763 271.762 836.763 271.759C836.763 271.756 836.763 271.753 836.763 271.75C836.763 271.747 836.763 271.743 836.763 271.74C836.763 271.737 836.763 271.734 836.763 271.731C836.763 271.728 836.763 271.725 836.763 271.722C836.763 271.719 836.763 271.716 836.763 271.712C836.763 271.709 836.763 271.706 836.763 271.703C836.763 271.7 836.763 271.697 836.763 271.694C836.763 271.691 836.763 271.688 836.763 271.685C836.763 271.681 836.763 271.678 836.763 271.675C836.763 271.672 836.763 271.669 836.763 271.666C836.763 271.663 836.763 271.66 836.763 271.657C836.763 271.654 836.763 271.651 836.763 271.647C836.763 271.644 836.763 271.641 836.763 271.638C836.763 271.635 836.763 271.632 836.763 271.629C836.763 271.626 836.763 271.623 836.763 271.62C836.763 271.617 836.763 271.613 836.763 271.61C836.763 271.607 836.763 271.604 836.763 271.601H828.236C828.236 271.604 828.236 271.607 828.236 271.61C828.236 271.613 828.236 271.617 828.236 271.62C828.236 271.623 828.236 271.626 828.236 271.629C828.236 271.632 828.236 271.635 828.236 271.638C828.236 271.641 828.236 271.644 828.236 271.647C828.236 271.651 828.236 271.654 828.236 271.657C828.236 271.66 828.236 271.663 828.236 271.666C828.236 271.669 828.236 271.672 828.236 271.675C828.236 271.678 828.236 271.681 828.236 271.685C828.236 271.688 828.236 271.691 828.236 271.694C828.236 271.697 828.236 271.7 828.236 271.703C828.236 271.706 828.236 271.709 828.236 271.712C828.236 271.716 828.236 271.719 828.236 271.722C828.236 271.725 828.236 271.728 828.236 271.731C828.236 271.734 828.236 271.737 828.236 271.74C828.236 271.743 828.236 271.747 828.236 271.75C828.236 271.753 828.236 271.756 828.236 271.759C828.236 271.762 828.236 271.765 828.236 271.768C828.236 271.771 828.236 271.774 828.236 271.778C828.236 271.781 828.236 271.784 828.236 271.787C828.236 271.79 828.236 271.793 828.236 271.796C828.236 271.799 828.236 271.802 828.236 271.805C828.236 271.809 828.236 271.812 828.236 271.815C828.236 271.818 828.236 271.821 828.236 271.824C828.236 271.827 828.236 271.83 828.236 271.833C828.236 271.837 828.236 271.84 828.236 271.843C828.236 271.846 828.236 271.849 828.236 271.852C828.236 271.855 828.236 271.858 828.236 271.861C828.236 271.865 828.236 271.868 828.236 271.871C828.236 271.874 828.236 271.877 828.236 271.88C828.236 271.883 828.236 271.886 828.236 271.889C828.236 271.893 828.236 271.896 828.236 271.899C828.236 271.902 828.236 271.905 828.236 271.908C828.236 271.911 828.236 271.914 828.236 271.917C828.236 271.921 828.236 271.924 828.236 271.927C828.236 271.93 828.236 271.933 828.236 271.936C828.236 271.939 828.236 271.942 828.236 271.945C828.236 271.949 828.236 271.952 828.236 271.955C828.236 271.958 828.236 271.961 828.236 271.964C828.236 271.967 828.236 271.97 828.236 271.974C828.236 271.977 828.236 271.98 828.236 271.983C828.236 271.986 828.236 271.989 828.236 271.992C828.236 271.995 828.236 271.998 828.236 272.002C828.236 272.005 828.236 272.008 828.236 272.011C828.236 272.014 828.236 272.017 828.236 272.02C828.236 272.023 828.236 272.027 828.236 272.03C828.236 272.033 828.236 272.036 828.236 272.039C828.236 272.042 828.236 272.045 828.236 272.048C828.236 272.052 828.236 272.055 828.236 272.058C828.236 272.061 828.236 272.064 828.236 272.067C828.236 272.07 828.236 272.073 828.236 272.077C828.236 272.08 828.236 272.083 828.236 272.086C828.236 272.089 828.236 272.092 828.236 272.095C828.236 272.098 828.236 272.102 828.236 272.105C828.236 272.108 828.236 272.111 828.236 272.114C828.236 272.117 828.236 272.12 828.236 272.123C828.236 272.127 828.236 272.13 828.236 272.133C828.236 272.136 828.236 272.139 828.236 272.142C828.236 272.145 828.236 272.149 828.236 272.152C828.236 272.155 828.236 272.158 828.236 272.161C828.236 272.164 828.236 272.167 828.236 272.17C828.236 272.174 828.236 272.177 828.236 272.18C828.236 272.183 828.236 272.186 828.236 272.189C828.236 272.192 828.236 272.196 828.236 272.199C828.236 272.202 828.236 272.205 828.236 272.208C828.236 272.211 828.236 272.214 828.236 272.217C828.236 272.221 828.236 272.224 828.236 272.227C828.236 272.23 828.236 272.233 828.236 272.236C828.236 272.239 828.236 272.243 828.236 272.246C828.236 272.249 828.236 272.252 828.236 272.255C828.236 272.258 828.236 272.261 828.236 272.265C828.236 272.268 828.236 272.271 828.236 272.274C828.236 272.277 828.236 272.28 828.236 272.283C828.236 272.287 828.236 272.29 828.236 272.293C828.236 272.296 828.236 272.299 828.236 272.302C828.236 272.305 828.236 272.309 828.236 272.312C828.236 272.315 828.236 272.318 828.236 272.321C828.236 272.324 828.236 272.327 828.236 272.331C828.236 272.334 828.236 272.337 828.236 272.34C828.236 272.343 828.236 272.346 828.236 272.35C828.236 272.353 828.236 272.356 828.236 272.359C828.236 272.362 828.236 272.365 828.236 272.368C828.236 272.372 828.236 272.375 828.236 272.378C828.236 272.381 828.236 272.384 828.236 272.387C828.236 272.39 828.236 272.394 828.236 272.397C828.236 272.4 828.236 272.403 828.236 272.406C828.236 272.409 828.236 272.413 828.236 272.416C828.236 272.419 828.236 272.422 828.236 272.425C828.236 272.428 828.236 272.431 828.236 272.435C828.236 272.438 828.236 272.441 828.236 272.444C828.236 272.447 828.236 272.45 828.236 272.454C828.236 272.457 828.236 272.46 828.236 272.463C828.236 272.466 828.236 272.469 828.236 272.472C828.236 272.476 828.236 272.479 828.236 272.482C828.236 272.485 828.236 272.488 828.236 272.491C828.236 272.495 828.236 272.498 828.236 272.501C828.236 272.504 828.236 272.507 828.236 272.51C828.236 272.514 828.236 272.517 828.236 272.52C828.236 272.523 828.236 272.526 828.236 272.529C828.236 272.533 828.236 272.536 828.236 272.539C828.236 272.542 828.236 272.545 828.236 272.548C828.236 272.552 828.236 272.555 828.236 272.558C828.236 272.561 828.236 272.564 828.236 272.567C828.236 272.571 828.236 272.574 828.236 272.577C828.236 272.58 828.236 272.583 828.236 272.586C828.236 272.59 828.236 272.593 828.236 272.596C828.236 272.599 828.236 272.602 828.236 272.605C828.236 272.609 828.236 272.612 828.236 272.615C828.236 272.618 828.236 272.621 828.236 272.624C828.236 272.628 828.236 272.631 828.236 272.634C828.236 272.637 828.236 272.64 828.236 272.643C828.236 272.647 828.236 272.65 828.236 272.653C828.236 272.656 828.236 272.659 828.236 272.662C828.236 272.666 828.236 272.669 828.236 272.672C828.236 272.675 828.236 272.678 828.236 272.681C828.236 272.685 828.236 272.688 828.236 272.691C828.236 272.694 828.236 272.697 828.236 272.701C828.236 272.704 828.236 272.707 828.236 272.71C828.236 272.713 828.236 272.716 828.236 272.72C828.236 272.723 828.236 272.726 828.236 272.729C828.236 272.732 828.236 272.735 828.236 272.739C828.236 272.742 828.236 272.745 828.236 272.748C828.236 272.751 828.236 272.755 828.236 272.758C828.236 272.761 828.236 272.764 828.236 272.767C828.236 272.77 828.236 272.774 828.236 272.777C828.236 272.78 828.236 272.783 828.236 272.786C828.236 272.79 828.236 272.793 828.236 272.796C828.236 272.799 828.236 272.802 828.236 272.805C828.236 272.809 828.236 272.812 828.236 272.815C828.236 272.818 828.236 272.821 828.236 272.825C828.236 272.828 828.236 272.831 828.236 272.834C828.236 272.837 828.236 272.841 828.236 272.844C828.236 272.847 828.236 272.85 828.236 272.853C828.236 272.856 828.236 272.86 828.236 272.863C828.236 272.866 828.236 272.869 828.236 272.872C828.236 272.876 828.236 272.879 828.236 272.882C828.236 272.885 828.236 272.888 828.236 272.892C828.236 272.895 828.236 272.898 828.236 272.901C828.236 272.904 828.236 272.908 828.236 272.911C828.236 272.914 828.236 272.917 828.236 272.92C828.236 272.923 828.236 272.927 828.236 272.93C828.236 272.933 828.236 272.936 828.236 272.939C828.236 272.943 828.236 272.946 828.236 272.949C828.236 272.952 828.236 272.955 828.236 272.959C828.236 272.962 828.236 272.965 828.236 272.968C828.236 272.971 828.236 272.975 828.236 272.978C828.236 272.981 828.236 272.984 828.236 272.987C828.236 272.991 828.236 272.994 828.236 272.997C828.236 273 828.236 273.003 828.236 273.007C828.236 273.01 828.236 273.013 828.236 273.016C828.236 273.019 828.236 273.023 828.236 273.026C828.236 273.029 828.236 273.032 828.236 273.035C828.236 273.039 828.236 273.042 828.236 273.045C828.236 273.048 828.236 273.051 828.236 273.055C828.236 273.058 828.236 273.061 828.236 273.064C828.236 273.067 828.236 273.071 828.236 273.074C828.236 273.077 828.236 273.08 828.236 273.083C828.236 273.087 828.236 273.09 828.236 273.093C828.236 273.096 828.236 273.1 828.236 273.103C828.236 273.106 828.236 273.109 828.236 273.112C828.236 273.116 828.236 273.119 828.236 273.122C828.236 273.125 828.236 273.128 828.236 273.132C828.236 273.135 828.236 273.138 828.236 273.141C828.236 273.144 828.236 273.148 828.236 273.151C828.236 273.154 828.236 273.157 828.236 273.161C828.236 273.164 828.236 273.167 828.236 273.17C828.236 273.173 828.236 273.177 828.236 273.18C828.236 273.183 828.236 273.186 828.236 273.189C828.236 273.193 828.236 273.196 828.236 273.199C828.236 273.202 828.236 273.206 828.236 273.209C828.236 273.212 828.236 273.215 828.236 273.218C828.236 273.222 828.236 273.225 828.236 273.228C828.236 273.231 828.236 273.234 828.236 273.238C828.236 273.241 828.236 273.244 828.236 273.247C828.236 273.251 828.236 273.254 828.236 273.257C828.236 273.26 828.236 273.263 828.236 273.267C828.236 273.27 828.236 273.273 828.236 273.276C828.236 273.28 828.236 273.283 828.236 273.286C828.236 273.289 828.236 273.292 828.236 273.296C828.236 273.299 828.236 273.302 828.236 273.305C828.236 273.309 828.236 273.312 828.236 273.315C828.236 273.318 828.236 273.321 828.236 273.325C828.236 273.328 828.236 273.331 828.236 273.334C828.236 273.338 828.236 273.341 828.236 273.344C828.236 273.347 828.236 273.35 828.236 273.354C828.236 273.357 828.236 273.36 828.236 273.363C828.236 273.367 828.236 273.37 828.236 273.373C828.236 273.376 828.236 273.38 828.236 273.383C828.236 273.386 828.236 273.389 828.236 273.392C828.236 273.396 828.236 273.399 828.236 273.402C828.236 273.405 828.236 273.409 828.236 273.412C828.236 273.415 828.236 273.418 828.236 273.422C828.236 273.425 828.236 273.428 828.236 273.431C828.236 273.434 828.236 273.438 828.236 273.441C828.236 273.444 828.236 273.447 828.236 273.451C828.236 273.454 828.236 273.457 828.236 273.46C828.236 273.464 828.236 273.467 828.236 273.47C828.236 273.473 828.236 273.477 828.236 273.48C828.236 273.483 828.236 273.486 828.236 273.49C828.236 273.493 828.236 273.496 828.236 273.499C828.236 273.502 828.236 273.506 828.236 273.509C828.236 273.512 828.236 273.515 828.236 273.519C828.236 273.522 828.236 273.525 828.236 273.528C828.236 273.532 828.236 273.535 828.236 273.538C828.236 273.541 828.236 273.545 828.236 273.548C828.236 273.551 828.236 273.554 828.236 273.558C828.236 273.561 828.236 273.564 828.236 273.567C828.236 273.571 828.236 273.574 828.236 273.577C828.236 273.58 828.236 273.584 828.236 273.587C828.236 273.59 828.236 273.593 828.236 273.596C828.236 273.6 828.236 273.603 828.236 273.606C828.236 273.609 828.236 273.613 828.236 273.616C828.236 273.619 828.236 273.622 828.236 273.626C828.236 273.629 828.236 273.632 828.236 273.635C828.236 273.639 828.236 273.642 828.236 273.645C828.236 273.648 828.236 273.652 828.236 273.655C828.236 273.658 828.236 273.661 828.236 273.665C828.236 273.668 828.236 273.671 828.236 273.674C828.236 273.678 828.236 273.681 828.236 273.684C828.236 273.687 828.236 273.691 828.236 273.694C828.236 273.697 828.236 273.701 828.236 273.704C828.236 273.707 828.236 273.71 828.236 273.714C828.236 273.717 828.236 273.72 828.236 273.723C828.236 273.727 828.236 273.73 828.236 273.733C828.236 273.736 828.236 273.74 828.236 273.743C828.236 273.746 828.236 273.749 828.236 273.753C828.236 273.756 828.236 273.759 828.236 273.762C828.236 273.766 828.236 273.769 828.236 273.772C828.236 273.775 828.236 273.779 828.236 273.782C828.236 273.785 828.236 273.788 828.236 273.792C828.236 273.795 828.236 273.798 828.236 273.802C828.236 273.805 828.236 273.808 828.236 273.811C828.236 273.815 828.236 273.818 828.236 273.821C828.236 273.824 828.236 273.828 828.236 273.831C828.236 273.834 828.236 273.837 828.236 273.841C828.236 273.844 828.236 273.847 828.236 273.85C828.236 273.854 828.236 273.857 828.236 273.86C828.236 273.864 828.236 273.867 828.236 273.87C828.236 273.873 828.236 273.877 828.236 273.88C828.236 273.883 828.236 273.886 828.236 273.89C828.236 273.893 828.236 273.896 828.236 273.899C828.236 273.903 828.236 273.906 828.236 273.909C828.236 273.913 828.236 273.916 828.236 273.919C828.236 273.922 828.236 273.926 828.236 273.929C828.236 273.932 828.236 273.935 828.236 273.939C828.236 273.942 828.236 273.945 828.236 273.949C828.236 273.952 828.236 273.955 828.236 273.958C828.236 273.962 828.236 273.965 828.236 273.968C828.236 273.971 828.236 273.975 828.236 273.978C828.236 273.981 828.236 273.985 828.236 273.988C828.236 273.991 828.236 273.994 828.236 273.998C828.236 274.001 828.236 274.004 828.236 274.008C828.236 274.011 828.236 274.014 828.236 274.017C828.236 274.021 828.236 274.024 828.236 274.027C828.236 274.03 828.236 274.034 828.236 274.037C828.236 274.04 828.236 274.044 828.236 274.047C828.236 274.05 828.236 274.053 828.236 274.057C828.236 274.06 828.236 274.063 828.236 274.067C828.236 274.07 828.236 274.073 828.236 274.076C828.236 274.08 828.236 274.083 828.236 274.086C828.236 274.09 828.236 274.093 828.236 274.096C828.236 274.099 828.236 274.103 828.236 274.106C828.236 274.109 828.236 274.113 828.236 274.116C828.236 274.119 828.236 274.122 828.236 274.126C828.236 274.129 828.236 274.132 828.236 274.136C828.236 274.139 828.236 274.142 828.236 274.145C828.236 274.149 828.236 274.152 828.236 274.155C828.236 274.159 828.236 274.162 828.236 274.165C828.236 274.168 828.236 274.172 828.236 274.175C828.236 274.178 828.236 274.182 828.236 274.185C828.236 274.188 828.236 274.192 828.236 274.195C828.236 274.198 828.236 274.201 828.236 274.205C828.236 274.208 828.236 274.211 828.236 274.215C828.236 274.218 828.236 274.221 828.236 274.224C828.236 274.228 828.236 274.231 828.236 274.234C828.236 274.238 828.236 274.241 828.236 274.244C828.236 274.248 828.236 274.251 828.236 274.254C828.236 274.257 828.236 274.261 828.236 274.264C828.236 274.267 828.236 274.271 828.236 274.274C828.236 274.277 828.236 274.28 828.236 274.284C828.236 274.287 828.236 274.29 828.236 274.294C828.236 274.297 828.236 274.3 828.236 274.304C828.236 274.307 828.236 274.31 828.236 274.313C828.236 274.317 828.236 274.32 828.236 274.323C828.236 274.327 828.236 274.33 828.236 274.333C828.236 274.337 828.236 274.34 828.236 274.343C828.236 274.347 828.236 274.35 828.236 274.353C828.236 274.356 828.236 274.36 828.236 274.363C828.236 274.366 828.236 274.37 828.236 274.373C828.236 274.376 828.236 274.38 828.236 274.383C828.236 274.386 828.236 274.389 828.236 274.393C828.236 274.396 828.236 274.399 828.236 274.403C828.236 274.406 828.236 274.409 828.236 274.413C828.236 274.416 828.236 274.419 828.236 274.423C828.236 274.426 828.236 274.429 828.236 274.433C828.236 274.436 828.236 274.439 828.236 274.442C828.236 274.446 828.236 274.449 828.236 274.452C828.236 274.456 828.236 274.459 828.236 274.462C828.236 274.466 828.236 274.469 828.236 274.472C828.236 274.476 828.236 274.479 828.236 274.482C828.236 274.486 828.236 274.489 828.236 274.492C828.236 274.495 828.236 274.499 828.236 274.502C828.236 274.505 828.236 274.509 828.236 274.512C828.236 274.515 828.236 274.519 828.236 274.522C828.236 274.525 828.236 274.529 828.236 274.532C828.236 274.535 828.236 274.539 828.236 274.542C828.236 274.545 828.236 274.549 828.236 274.552C828.236 274.555 828.236 274.558 828.236 274.562C828.236 274.565 828.236 274.568 828.236 274.572C828.236 274.575 828.236 274.578 828.236 274.582C828.236 274.585 828.236 274.588 828.236 274.592C828.236 274.595 828.236 274.598 828.236 274.602C828.236 274.605 828.236 274.608 828.236 274.612C828.236 274.615 828.236 274.618 828.236 274.622C828.236 274.625 828.236 274.628 828.236 274.632C828.236 274.635 828.236 274.638 828.236 274.642C828.236 274.645 828.236 274.648 828.236 274.652C828.236 274.655 828.236 274.658 828.236 274.662C828.236 274.665 828.236 274.668 828.236 274.672C828.236 274.675 828.236 274.678 828.236 274.681C828.236 274.685 828.236 274.688 828.236 274.691C828.236 274.695 828.236 274.698 828.236 274.701C828.236 274.705 828.236 274.708 828.236 274.711C828.236 274.715 828.236 274.718 828.236 274.721C828.236 274.725 828.236 274.728 828.236 274.731C828.236 274.735 828.236 274.738 828.236 274.741C828.236 274.745 828.236 274.748 828.236 274.751C828.236 274.755 828.236 274.758 828.236 274.761C828.236 274.765 828.236 274.768 828.236 274.771C828.236 274.775 828.236 274.778 828.236 274.781C828.236 274.785 828.236 274.788 828.236 274.792C828.236 274.795 828.236 274.798 828.236 274.802C828.236 274.805 828.236 274.808 828.236 274.812C828.236 274.815 828.236 274.818 828.236 274.822C828.236 274.825 828.236 274.828 828.236 274.832C828.236 274.835 828.236 274.838 828.236 274.842C828.236 274.845 828.236 274.848 828.236 274.852C828.236 274.855 828.236 274.858 828.236 274.862C828.236 274.865 828.236 274.868 828.236 274.872C828.236 274.875 828.236 274.878 828.236 274.882C828.236 274.885 828.236 274.888 828.236 274.892C828.236 274.895 828.236 274.898 828.236 274.902C828.236 274.905 828.236 274.908 828.236 274.912C828.236 274.915 828.236 274.919 828.236 274.922C828.236 274.925 828.236 274.929 828.236 274.932C828.236 274.935 828.236 274.939 828.236 274.942C828.236 274.945 828.236 274.949 828.236 274.952C828.236 274.955 828.236 274.959 828.236 274.962C828.236 274.965 828.236 274.969 828.236 274.972C828.236 274.975 828.236 274.979 828.236 274.982C828.236 274.986 828.236 274.989 828.236 274.992C828.236 274.996 828.236 274.999 828.236 275.002C828.236 275.006 828.236 275.009 828.236 275.012C828.236 275.016 828.236 275.019 828.236 275.022C828.236 275.026 828.236 275.029 828.236 275.032C828.236 275.036 828.236 275.039 828.236 275.043C828.236 275.046 828.236 275.049 828.236 275.053C828.236 275.056 828.236 275.059 828.236 275.063C828.236 275.066 828.236 275.069 828.236 275.073C828.236 275.076 828.236 275.079 828.236 275.083C828.236 275.086 828.236 275.09 828.236 275.093C828.236 275.096 828.236 275.1 828.236 275.103C828.236 275.106 828.236 275.11 828.236 275.113C828.236 275.116 828.236 275.12 828.236 275.123C828.236 275.127 828.236 275.13 828.236 275.133C828.236 275.137 828.236 275.14 828.236 275.143C828.236 275.147 828.236 275.15 828.236 275.153C828.236 275.157 828.236 275.16 828.236 275.164C828.236 275.167 828.236 275.17 828.236 275.174C828.236 275.177 828.236 275.18 828.236 275.184C828.236 275.187 828.236 275.19 828.236 275.194C828.236 275.197 828.236 275.201 828.236 275.204C828.236 275.207 828.236 275.211 828.236 275.214C828.236 275.217 828.236 275.221 828.236 275.224C828.236 275.228 828.236 275.231 828.236 275.234C828.236 275.238 828.236 275.241 828.236 275.244C828.236 275.248 828.236 275.251 828.236 275.254C828.236 275.258 828.236 275.261 828.236 275.265C828.236 275.268 828.236 275.271 828.236 275.275C828.236 275.278 828.236 275.281 828.236 275.285C828.236 275.288 828.236 275.292 828.236 275.295C828.236 275.298 828.236 275.302 828.236 275.305C828.236 275.308 828.236 275.312 828.236 275.315C828.236 275.319 828.236 275.322 828.236 275.325C828.236 275.329 828.236 275.332 828.236 275.335C828.236 275.339 828.236 275.342 828.236 275.346C828.236 275.349 828.236 275.352 828.236 275.356C828.236 275.359 828.236 275.363 828.236 275.366C828.236 275.369 828.236 275.373 828.236 275.376C828.236 275.379 828.236 275.383 828.236 275.386C828.236 275.39 828.236 275.393 828.236 275.396C828.236 275.4 828.236 275.403 828.236 275.406C828.236 275.41 828.236 275.413 828.236 275.417C828.236 275.42 828.236 275.423 828.236 275.427C828.236 275.43 828.236 275.434 828.236 275.437C828.236 275.44 828.236 275.444 828.236 275.447C828.236 275.451 828.236 275.454 828.236 275.457C828.236 275.461 828.236 275.464 828.236 275.467C828.236 275.471 828.236 275.474 828.236 275.478C828.236 275.481 828.236 275.484 828.236 275.488C828.236 275.491 828.236 275.495 828.236 275.498C828.236 275.501 828.236 275.505 828.236 275.508C828.236 275.512 828.236 275.515 828.236 275.518C828.236 275.522 828.236 275.525 828.236 275.528C828.236 275.532 828.236 275.535 828.236 275.539C828.236 275.542 828.236 275.545 828.236 275.549C828.236 275.552 828.236 275.556 828.236 275.559C828.236 275.562 828.236 275.566 828.236 275.569C828.236 275.573 828.236 275.576 828.236 275.579C828.236 275.583 828.236 275.586 828.236 275.59C828.236 275.593 828.236 275.596 828.236 275.6C828.236 275.603 828.236 275.607 828.236 275.61C828.236 275.613 828.236 275.617 828.236 275.62C828.236 275.624 828.236 275.627 828.236 275.63C828.236 275.634 828.236 275.637 828.236 275.641C828.236 275.644 828.236 275.647 828.236 275.651C828.236 275.654 828.236 275.658 828.236 275.661C828.236 275.664 828.236 275.668 828.236 275.671C828.236 275.675 828.236 275.678 828.236 275.681C828.236 275.685 828.236 275.688 828.236 275.692C828.236 275.695 828.236 275.698 828.236 275.702C828.236 275.705 828.236 275.709 828.236 275.712C828.236 275.715 828.236 275.719 828.236 275.722C828.236 275.726 828.236 275.729 828.236 275.732C828.236 275.736 828.236 275.739 828.236 275.743C828.236 275.746 828.236 275.75 828.236 275.753C828.236 275.756 828.236 275.76 828.236 275.763C828.236 275.767 828.236 275.77 828.236 275.773C828.236 275.777 828.236 275.78 828.236 275.784C828.236 275.787 828.236 275.79 828.236 275.794C828.236 275.797 828.236 275.801 828.236 275.804C828.236 275.808 828.236 275.811 828.236 275.814C828.236 275.818 828.236 275.821 828.236 275.825C828.236 275.828 828.236 275.831 828.236 275.835C828.236 275.838 828.236 275.842 828.236 275.845C828.236 275.848 828.236 275.852 828.236 275.855C828.236 275.859 828.236 275.862 828.236 275.866C828.236 275.869 828.236 275.872 828.236 275.876C828.236 275.879 828.236 275.883 828.236 275.886C828.236 275.89 828.236 275.893 828.236 275.896C828.236 275.9 828.236 275.903 828.236 275.907C828.236 275.91 828.236 275.913 828.236 275.917C828.236 275.92 828.236 275.924 828.236 275.927C828.236 275.931 828.236 275.934 828.236 275.937C828.236 275.941 828.236 275.944 828.236 275.948C828.236 275.951 828.236 275.955 828.236 275.958C828.236 275.961 828.236 275.965 828.236 275.968C828.236 275.972 828.236 275.975 828.236 275.978C828.236 275.982 828.236 275.985 828.236 275.989C828.236 275.992 828.236 275.996 828.236 275.999C828.236 276.002 828.236 276.006 828.236 276.009C828.236 276.013 828.236 276.016 828.236 276.02C828.236 276.023 828.236 276.026 828.236 276.03C828.236 276.033 828.236 276.037 828.236 276.04C828.236 276.044 828.236 276.047 828.236 276.05C828.236 276.054 828.236 276.057 828.236 276.061C828.236 276.064 828.236 276.068 828.236 276.071C828.236 276.075 828.236 276.078 828.236 276.081C828.236 276.085 828.236 276.088 828.236 276.092C828.236 276.095 828.236 276.099 828.236 276.102C828.236 276.105 828.236 276.109 828.236 276.112C828.236 276.116 828.236 276.119 828.236 276.123C828.236 276.126 828.236 276.129 828.236 276.133C828.236 276.136 828.236 276.14 828.236 276.143C828.236 276.147 828.236 276.15 828.236 276.154C828.236 276.157 828.236 276.16 828.236 276.164C828.236 276.167 828.236 276.171 828.236 276.174C828.236 276.178 828.236 276.181 828.236 276.184C828.236 276.188 828.236 276.191 828.236 276.195C828.236 276.198 828.236 276.202 828.236 276.205C828.236 276.209 828.236 276.212 828.236 276.215C828.236 276.219 828.236 276.222 828.236 276.226C828.236 276.229 828.236 276.233 828.236 276.236C828.236 276.24 828.236 276.243 828.236 276.246C828.236 276.25 828.236 276.253 828.236 276.257C828.236 276.26 828.236 276.264 828.236 276.267C828.236 276.271 828.236 276.274 828.236 276.277C828.236 276.281 828.236 276.284 828.236 276.288C828.236 276.291 828.236 276.295 828.236 276.298C828.236 276.302 828.236 276.305 828.236 276.309C828.236 276.312 828.236 276.315 828.236 276.319C828.236 276.322 828.236 276.326 828.236 276.329C828.236 276.333 828.236 276.336 828.236 276.34C828.236 276.343 828.236 276.347 828.236 276.35C828.236 276.353 828.236 276.357 828.236 276.36C828.236 276.364 828.236 276.367 828.236 276.371C828.236 276.374 828.236 276.378 828.236 276.381C828.236 276.384 828.236 276.388 828.236 276.391C828.236 276.395 828.236 276.398 828.236 276.402C828.236 276.405 828.236 276.409 828.236 276.412C828.236 276.416 828.236 276.419 828.236 276.423C828.236 276.426 828.236 276.429 828.236 276.433C828.236 276.436 828.236 276.44 828.236 276.443C828.236 276.447 828.236 276.45 828.236 276.454C828.236 276.457 828.236 276.461 828.236 276.464C828.236 276.468 828.236 276.471 828.236 276.474C828.236 276.478 828.236 276.481 828.236 276.485C828.236 276.488 828.236 276.492 828.236 276.495C828.236 276.499 828.236 276.502 828.236 276.506C828.236 276.509 828.236 276.513 828.236 276.516C828.236 276.519 828.236 276.523 828.236 276.526C828.236 276.53 828.236 276.533 828.236 276.537C828.236 276.54 828.236 276.544 828.236 276.547C828.236 276.551 828.236 276.554 828.236 276.558C828.236 276.561 828.236 276.565 828.236 276.568C828.236 276.571 828.236 276.575 828.236 276.578C828.236 276.582 828.236 276.585 828.236 276.589C828.236 276.592 828.236 276.596 828.236 276.599C828.236 276.603 828.236 276.606 828.236 276.61C828.236 276.613 828.236 276.617 828.236 276.62C828.236 276.624 828.236 276.627 828.236 276.63C828.236 276.634 828.236 276.637 828.236 276.641H836.763ZM836.763 271.601V243.29H828.236V271.601H836.763ZM832.499 247.553H936.111V239.026H832.499V247.553ZM931.848 243.29V344.678H940.374V243.29H931.848ZM936.111 340.415H920.992V348.941H936.111V340.415ZM925.255 344.678V256.927H916.729V344.678H925.255ZM920.992 252.663H847.619V261.19H920.992V252.663ZM843.356 256.927V276.048H851.882V256.927H843.356ZM843.356 276.048V282.866H851.882V276.048H843.356ZM843.356 282.866C843.356 292.171 843.061 300.248 842.481 307.113L850.977 307.831C851.583 300.664 851.882 292.337 851.882 282.866H843.356ZM842.48 307.128C841.604 317.938 840.065 325.98 837.997 331.464L845.975 334.472C848.453 327.9 850.076 318.945 850.979 307.817L842.48 307.128ZM837.984 331.499C835.3 338.81 832.335 340.415 829.98 340.415V348.941C837.902 348.941 842.941 342.739 845.988 334.437L837.984 331.499ZM829.98 340.415H815.305V348.941H829.98V340.415ZM819.568 344.678V331.041H811.042V344.678H819.568ZM963.793 243.29V239.026H959.53V243.29H963.793ZM978.912 243.29H983.175V239.026H978.912V243.29ZM978.912 280.347H974.649V284.61H978.912V280.347ZM1067.7 336.822L1064.6 333.894L1064.6 333.896L1067.7 336.822ZM963.793 344.678H959.53V348.941H963.793V344.678ZM978.912 294.132V289.869H974.649V294.132H978.912ZM978.912 331.041H974.649V335.304H978.912V331.041ZM1056.29 326.594L1059.51 329.386L1059.53 329.36L1059.55 329.333L1056.29 326.594ZM1056.29 298.579L1053.01 301.308L1053.06 301.367L1053.11 301.425L1056.29 298.579ZM963.793 247.553H978.912V239.026H963.793V247.553ZM974.649 243.29V280.347H983.175V243.29H974.649ZM978.912 284.61H1045.76V276.083H978.912V284.61ZM1045.76 284.61C1054.16 284.61 1060.07 286.894 1064.09 290.921L1070.12 284.892C1064.07 278.839 1055.74 276.083 1045.76 276.083V284.61ZM1064.09 290.921C1068.45 295.274 1071 302.151 1071 312.364H1079.52C1079.52 300.837 1076.64 291.408 1070.12 284.892L1064.09 290.921ZM1071 312.364C1071 322.772 1068.6 329.664 1064.6 333.894L1070.8 339.749C1076.88 333.306 1079.52 323.893 1079.52 312.364H1071ZM1064.6 333.896C1060.67 338.059 1054.86 340.415 1046.5 340.415V348.941C1056.52 348.941 1064.85 346.06 1070.8 339.747L1064.6 333.896ZM1046.5 340.415H963.793V348.941H1046.5V340.415ZM968.056 344.678V243.29H959.53V344.678H968.056ZM974.649 294.132V331.041H983.175V294.132H974.649ZM978.912 335.304H1045.76V326.778H978.912V335.304ZM1045.76 335.304C1051.26 335.304 1056.02 333.416 1059.51 329.386L1053.07 323.802C1051.42 325.701 1049.16 326.778 1045.76 326.778V335.304ZM1059.55 329.333C1063.06 325.157 1064.4 319.22 1064.4 312.364H1055.88C1055.88 318.355 1054.66 321.904 1053.02 323.854L1059.55 329.333ZM1064.4 312.364C1064.4 305.622 1063.06 299.75 1059.46 295.733L1053.11 301.425C1054.65 303.139 1055.88 306.457 1055.88 312.364H1064.4ZM1059.56 295.849C1056.15 291.759 1051.41 289.869 1045.91 289.869V298.395C1049.31 298.395 1051.48 299.469 1053.01 301.308L1059.56 295.849ZM1045.91 289.869H978.912V298.395H1045.91V289.869ZM1100.12 243.29V239.026H1095.86V243.29H1100.12ZM1217.52 243.29H1221.78V239.026H1217.52V243.29ZM1217.52 344.678V348.941H1221.78V344.678H1217.52ZM1202.4 344.678H1198.13V348.941H1202.4V344.678ZM1202.4 256.927H1206.66V252.663H1202.4V256.927ZM1115.24 256.927V252.663H1110.98V256.927H1115.24ZM1115.24 344.678V348.941H1119.5V344.678H1115.24ZM1100.12 344.678H1095.86V348.941H1100.12V344.678ZM1100.12 247.553H1217.52V239.026H1100.12V247.553ZM1213.25 243.29V344.678H1221.78V243.29H1213.25ZM1217.52 340.415H1202.4V348.941H1217.52V340.415ZM1206.66 344.678V256.927H1198.13V344.678H1206.66ZM1202.4 252.663H1115.24V261.19H1202.4V252.663ZM1110.98 256.927V344.678H1119.5V256.927H1110.98ZM1115.24 340.415H1100.12V348.941H1115.24V340.415ZM1104.38 344.678V243.29H1095.86V344.678H1104.38ZM1366.48 243.29H1370.74V239.026H1366.48V243.29ZM1344.39 243.29V239.026H1342.6L1341.34 240.308L1344.39 243.29ZM1257.38 332.227H1253.12V342.68L1260.43 335.208L1257.38 332.227ZM1257.38 243.29H1261.64V239.026H1257.38V243.29ZM1242.26 243.29V239.026H1238V243.29H1242.26ZM1242.26 344.678H1238V348.941H1242.26V344.678ZM1265.09 344.678V348.941H1266.88L1268.13 347.661L1265.09 344.678ZM1351.36 256.63H1355.62V246.187L1348.31 253.646L1351.36 256.63ZM1351.36 344.678H1347.09V348.941H1351.36V344.678ZM1366.48 344.678V348.941H1370.74V344.678H1366.48ZM1366.48 239.026H1344.39V247.553H1366.48V239.026ZM1341.34 240.308L1254.33 329.245L1260.43 335.208L1347.44 246.271L1341.34 240.308ZM1261.64 332.227V243.29H1253.12V332.227H1261.64ZM1257.38 239.026H1242.26V247.553H1257.38V239.026ZM1238 243.29V344.678H1246.53V243.29H1238ZM1242.26 348.941H1265.09V340.415H1242.26V348.941ZM1268.13 347.661L1354.4 259.614L1348.31 253.646L1262.04 341.694L1268.13 347.661ZM1347.09 256.63V344.678H1355.62V256.63H1347.09ZM1351.36 348.941H1366.48V340.415H1351.36V348.941ZM1370.74 344.678V243.29H1362.21V344.678H1370.74ZM1393 344.678H1388.73V348.941H1393V344.678ZM1393 243.29V239.026H1388.73V243.29H1393ZM1408.12 243.29H1412.38V239.026H1408.12V243.29ZM1408.12 284.349H1403.85V288.612H1408.12V284.349ZM1423.23 284.349V288.612H1424.53L1425.61 287.892L1423.23 284.349ZM1484.6 243.29V239.026H1483.31L1482.23 239.746L1484.6 243.29ZM1510.54 243.29L1512.92 246.83L1524.55 239.026H1510.54V243.29ZM1439.39 291.019L1437.02 287.479L1431.88 290.923L1436.93 294.498L1439.39 291.019ZM1515.14 344.678V348.941H1528.53L1517.6 341.199L1515.14 344.678ZM1490.23 344.678L1487.8 348.175L1488.9 348.941H1490.23V344.678ZM1423.23 297.986L1425.67 294.488L1424.57 293.723H1423.23V297.986ZM1408.12 297.986V293.723H1403.85V297.986H1408.12ZM1408.12 344.678V348.941H1412.38V344.678H1408.12ZM1397.26 344.678V243.29H1388.73V344.678H1397.26ZM1393 247.553H1408.12V239.026H1393V247.553ZM1403.85 243.29V284.349H1412.38V243.29H1403.85ZM1408.12 288.612H1423.23V280.086H1408.12V288.612ZM1425.61 287.892L1486.97 246.833L1482.23 239.746L1420.86 280.806L1425.61 287.892ZM1484.6 247.553H1510.54V239.026H1484.6V247.553ZM1508.17 239.749L1437.02 287.479L1441.77 294.559L1512.92 246.83L1508.17 239.749ZM1436.93 294.498L1512.67 348.156L1517.6 341.199L1441.86 287.54L1436.93 294.498ZM1515.14 340.415H1490.23V348.941H1515.14V340.415ZM1492.67 341.18L1425.67 294.488L1420.8 301.483L1487.8 348.175L1492.67 341.18ZM1423.23 293.723H1408.12V302.249H1423.23V293.723ZM1403.85 297.986V344.678H1412.38V297.986H1403.85ZM1408.12 340.415H1393V348.941H1408.12V340.415Z" fill="black"/>
<path d="M1778.32 342.896V241.508H1861.04C1870.03 241.508 1877.04 244.176 1882.08 249.513C1887.22 254.849 1889.79 262.952 1889.79 273.822C1889.79 284.692 1887.17 292.795 1881.94 298.132C1876.8 303.369 1869.63 305.988 1860.44 305.988H1793.44V342.896H1778.32ZM1793.44 292.351H1860.44C1864.79 292.351 1868.25 290.868 1870.82 287.904C1873.39 284.939 1874.67 280.245 1874.67 273.822C1874.67 267.399 1873.39 262.705 1870.82 259.74C1868.35 256.677 1864.84 255.145 1860.29 255.145H1793.44V292.351ZM1964.4 329.259C1968.55 329.259 1972.01 328.667 1974.78 327.481C1977.64 326.295 1979.92 324.17 1981.6 321.107L1907.78 241.508H1928.53L1989.9 308.952L2028.29 241.508H2045.48L1997.75 324.961C1994.2 331.088 1989.75 335.633 1984.41 338.598C1979.08 341.464 1972.21 342.896 1963.81 342.896H1930.61V329.259H1964.4ZM2062.79 241.508H2180.18V342.896H2165.07V255.145H2077.91V342.896H2062.79V241.508ZM2205.23 241.508H2322.62V342.896H2307.5V255.145H2220.35V342.896H2205.23V241.508Z" fill="black"/>
<path d="M1778.32 342.896H1774.06V347.16H1778.32V342.896ZM1778.32 241.508V237.245H1774.06V241.508H1778.32ZM1882.08 249.513L1878.99 252.44L1879 252.455L1879.01 252.47L1882.08 249.513ZM1881.94 298.132L1878.89 295.145L1878.89 295.146L1881.94 298.132ZM1793.44 305.988V301.724H1789.18V305.988H1793.44ZM1793.44 342.896V347.16H1797.71V342.896H1793.44ZM1793.44 292.351H1789.18V296.614H1793.44V292.351ZM1870.82 259.74L1867.5 262.417L1867.55 262.475L1867.6 262.532L1870.82 259.74ZM1793.44 255.145V250.882H1789.18V255.145H1793.44ZM1782.59 342.896V241.508H1774.06V342.896H1782.59ZM1778.32 245.771H1861.04V237.245H1778.32V245.771ZM1861.04 245.771C1869.14 245.771 1874.93 248.142 1878.99 252.44L1885.18 246.585C1879.16 240.21 1870.92 237.245 1861.04 237.245V245.771ZM1879.01 252.47C1883.09 256.707 1885.53 263.544 1885.53 273.822H1894.06C1894.06 262.36 1891.35 252.99 1885.16 246.555L1879.01 252.47ZM1885.53 273.822C1885.53 284.081 1883.05 290.906 1878.89 295.145L1884.98 301.118C1891.29 294.685 1894.06 285.303 1894.06 273.822H1885.53ZM1878.89 295.146C1874.75 299.371 1868.79 301.724 1860.44 301.724V310.251C1870.47 310.251 1878.85 307.367 1884.98 301.117L1878.89 295.146ZM1860.44 301.724H1793.44V310.251H1860.44V301.724ZM1789.18 305.988V342.896H1797.71V305.988H1789.18ZM1793.44 338.633H1778.32V347.16H1793.44V338.633ZM1793.44 296.614H1860.44V288.087H1793.44V296.614ZM1860.44 296.614C1865.88 296.614 1870.57 294.703 1874.04 290.696L1867.6 285.112C1865.93 287.034 1863.71 288.087 1860.44 288.087V296.614ZM1874.04 290.696C1877.6 286.594 1878.94 280.661 1878.94 273.822H1870.41C1870.41 279.83 1869.18 283.284 1867.6 285.112L1874.04 290.696ZM1878.94 273.822C1878.94 266.983 1877.6 261.05 1874.04 256.948L1867.6 262.532C1869.18 264.36 1870.41 267.814 1870.41 273.822H1878.94ZM1874.14 257.064C1870.73 252.835 1865.91 250.882 1860.29 250.882V259.408C1863.78 259.408 1865.97 260.519 1867.5 262.417L1874.14 257.064ZM1860.29 250.882H1793.44V259.408H1860.29V250.882ZM1789.18 255.145V292.351H1797.71V255.145H1789.18ZM1974.78 327.481L1973.15 323.541L1973.12 323.552L1973.1 323.562L1974.78 327.481ZM1981.6 321.107L1985.33 323.157L1986.81 320.462L1984.72 318.208L1981.6 321.107ZM1907.78 241.508V237.245H1898.01L1904.65 244.407L1907.78 241.508ZM1928.53 241.508L1931.68 238.639L1930.42 237.245H1928.53V241.508ZM1989.9 308.952L1986.74 311.821L1990.7 316.165L1993.6 311.061L1989.9 308.952ZM2028.29 241.508V237.245H2025.81L2024.58 239.399L2028.29 241.508ZM2045.48 241.508L2049.18 243.625L2052.83 237.245H2045.48V241.508ZM1997.75 324.961L2001.44 327.102L2001.45 327.09L2001.45 327.077L1997.75 324.961ZM1984.41 338.598L1986.43 342.354L1986.46 342.339L1986.48 342.325L1984.41 338.598ZM1930.61 342.896H1926.34V347.16H1930.61V342.896ZM1930.61 329.259V324.996H1926.34V329.259H1930.61ZM1964.4 333.523C1968.93 333.523 1973 332.881 1976.46 331.399L1973.1 323.562C1971.02 324.452 1968.18 324.996 1964.4 324.996V333.523ZM1976.41 331.42C1980.28 329.816 1983.25 326.958 1985.33 323.157L1977.86 319.057C1976.58 321.383 1975 322.774 1973.15 323.541L1976.41 331.42ZM1984.72 318.208L1910.9 238.609L1904.65 244.407L1978.47 324.006L1984.72 318.208ZM1907.78 245.771H1928.53V237.245H1907.78V245.771ZM1925.38 244.377L1986.74 311.821L1993.05 306.083L1931.68 238.639L1925.38 244.377ZM1993.6 311.061L2031.99 243.617L2024.58 239.399L1986.19 306.843L1993.6 311.061ZM2028.29 245.771H2045.48V237.245H2028.29V245.771ZM2041.78 239.392L1994.05 322.844L2001.45 327.077L2049.18 243.625L2041.78 239.392ZM1994.07 322.82C1990.83 328.39 1986.91 332.336 1982.34 334.871L1986.48 342.325C1992.59 338.93 1997.56 333.785 2001.44 327.102L1994.07 322.82ZM1982.4 334.842C1977.87 337.271 1971.76 338.633 1963.81 338.633V347.16C1972.65 347.16 1980.28 345.656 1986.43 342.354L1982.4 334.842ZM1963.81 338.633H1930.61V347.16H1963.81V338.633ZM1934.87 342.896V329.259H1926.34V342.896H1934.87ZM1930.61 333.523H1964.4V324.996H1930.61V333.523ZM2062.79 241.508V237.245H2058.52V241.508H2062.79ZM2180.18 241.508H2184.45V237.245H2180.18V241.508ZM2180.18 342.896V347.16H2184.45V342.896H2180.18ZM2165.07 342.896H2160.8V347.16H2165.07V342.896ZM2165.07 255.145H2169.33V250.882H2165.07V255.145ZM2077.91 255.145V250.882H2073.64V255.145H2077.91ZM2077.91 342.896V347.16H2082.17V342.896H2077.91ZM2062.79 342.896H2058.52V347.16H2062.79V342.896ZM2062.79 245.771H2180.18V237.245H2062.79V245.771ZM2175.92 241.508V342.896H2184.45V241.508H2175.92ZM2180.18 338.633H2165.07V347.16H2180.18V338.633ZM2169.33 342.896V255.145H2160.8V342.896H2169.33ZM2165.07 250.882H2077.91V259.408H2165.07V250.882ZM2073.64 255.145V342.896H2082.17V255.145H2073.64ZM2077.91 338.633H2062.79V347.16H2077.91V338.633ZM2067.05 342.896V241.508H2058.52V342.896H2067.05ZM2205.23 241.508V237.245H2200.96V241.508H2205.23ZM2322.62 241.508H2326.89V237.245H2322.62V241.508ZM2322.62 342.896V347.16H2326.89V342.896H2322.62ZM2307.5 342.896H2303.24V347.16H2307.5V342.896ZM2307.5 255.145H2311.77V250.882H2307.5V255.145ZM2220.35 255.145V250.882H2216.08V255.145H2220.35ZM2220.35 342.896V347.16H2224.61V342.896H2220.35ZM2205.23 342.896H2200.96V347.16H2205.23V342.896ZM2205.23 245.771H2322.62V237.245H2205.23V245.771ZM2318.36 241.508V342.896H2326.89V241.508H2318.36ZM2322.62 338.633H2307.5V347.16H2322.62V338.633ZM2311.77 342.896V255.145H2303.24V342.896H2311.77ZM2307.5 250.882H2220.35V259.408H2307.5V250.882ZM2216.08 255.145V342.896H2224.61V255.145H2216.08ZM2220.35 338.633H2205.23V347.16H2220.35V338.633ZM2209.49 342.896V241.508H2200.96V342.896H2209.49Z" fill="black"/>
<path d="M708.891 195.26L790.126 349.606H764.176L745.898 315.307H635.78L617.727 349.606H591.777L673.012 195.26H708.891ZM735.969 294.773L693.998 213.763H688.131L646.16 294.773H735.969Z" fill="black"/>
<path d="M666.191 1.80469H451.191L240.191 215.506L349.191 326.506L666.191 1.80469Z" fill="black" stroke="black" strokeWidth="0.871836"/>
<path fillRule="evenodd" clipRule="evenodd" d="M706.46 8.61429L697.467 0L688.718 8.86286L361.996 339.863L379.99 357.624L697.964 35.487L787.576 121.323H824.126L706.46 8.61429Z" fill="#70BC24"/>
<path fillRule="evenodd" clipRule="evenodd" d="M35.4316 161.787H-0.00115204L106.885 52.9238L124.926 70.6372L35.4316 161.787Z" fill="#70BC24"/>
<path d="M374.191 52.3711L227.691 202.506L93.1914 67.5059L107.639 52.3711H374.191Z" fill="#70BC24"/>
<path d="M698.297 61.6973L759.691 121.007H639.691L698.297 61.6973Z" fill="black"/>
<path d="M111.041 112.506L161.691 162.006H62.6914L111.041 112.506Z" fill="black"/>
</svg>
