<svg width="32" height="32" viewBox="0 0 32 32" fill="none" xmlns="http://www.w3.org/2000/svg">
<g clip-path="url(#clip0_784_2384)">
<path d="M16 0C19.1645 0 22.2579 0.938384 24.8891 2.69649C27.5203 4.45459 29.5711 6.95345 30.7821 9.87706C31.9931 12.8007 32.3099 16.0177 31.6926 19.1214C31.0752 22.2251 29.5513 25.0761 27.3137 27.3137C25.0761 29.5513 22.2251 31.0752 19.1214 31.6926C16.0177 32.3099 12.8007 31.9931 9.87706 30.7821C6.95344 29.5711 4.45458 27.5203 2.69648 24.8891C0.938375 22.2579 -7.62939e-06 19.1645 -7.62939e-06 16C0.00462532 11.758 1.69182 7.69099 4.6914 4.69141C7.69098 1.69183 11.7579 0.00463214 16 0V0ZM16 30.5C18.8678 30.5 21.6712 29.6496 24.0558 28.0563C26.4403 26.463 28.2988 24.1984 29.3962 21.5489C30.4937 18.8994 30.7809 15.9839 30.2214 13.1712C29.6619 10.3585 28.2809 7.77481 26.253 5.74695C24.2252 3.71909 21.6415 2.3381 18.8288 1.77861C16.0161 1.21913 13.1006 1.50628 10.4511 2.60375C7.80155 3.70122 5.53696 5.55972 3.94368 7.94423C2.3504 10.3287 1.49999 13.1322 1.49999 16C1.50462 19.8442 3.03379 23.5297 5.75206 26.2479C8.47033 28.9662 12.1558 30.4954 16 30.5Z" fill="#70BC24"/>
<path d="M17.4669 8.97082C17.6091 8.83834 17.7971 8.76622 17.9914 8.76965C18.1857 8.77308 18.3711 8.85179 18.5085 8.9892C18.646 9.12662 18.7247 9.312 18.7281 9.5063C18.7315 9.7006 18.6594 9.88865 18.5269 10.0308L12.5569 16.0008L18.5269 21.9708C18.6006 22.0395 18.6597 22.1223 18.7007 22.2143C18.7417 22.3063 18.7637 22.4056 18.7655 22.5063C18.7673 22.607 18.7488 22.707 18.711 22.8004C18.6733 22.8938 18.6172 22.9786 18.546 23.0499C18.4747 23.1211 18.3899 23.1772 18.2965 23.2149C18.2031 23.2527 18.1031 23.2712 18.0024 23.2694C17.9017 23.2676 17.8024 23.2456 17.7104 23.2046C17.6184 23.1636 17.5356 23.1045 17.4669 23.0308L10.9669 16.5308C10.8265 16.3902 10.7476 16.1996 10.7476 16.0008C10.7476 15.8021 10.8265 15.6114 10.9669 15.4708L17.4669 8.97082Z" fill="#70BC24"/>
</g>
<defs>
<clipPath id="clip0_784_2384">
<rect width="32" height="32" fill="white" transform="matrix(-1 0 0 1 32 0)"/>
</clipPath>
</defs>
</svg>
