<svg width="32" height="32" viewBox="0 0 32 32" fill="none" xmlns="http://www.w3.org/2000/svg">
<g clip-path="url(#clip0_784_2381)">
<path d="M16 0C12.8355 0 9.74207 0.938384 7.11088 2.69649C4.4797 4.45459 2.42894 6.95345 1.21793 9.87706C0.0069325 12.8007 -0.309921 16.0177 0.307443 19.1214C0.924806 22.2251 2.44866 25.0761 4.6863 27.3137C6.92394 29.5513 9.77487 31.0752 12.8786 31.6926C15.9823 32.3099 19.1993 31.9931 22.1229 30.7821C25.0466 29.5711 27.5454 27.5203 29.3035 24.8891C31.0616 22.2579 32 19.1645 32 16C31.9954 11.758 30.3082 7.69099 27.3086 4.69141C24.309 1.69183 20.242 0.00463214 16 0V0ZM16 30.5C13.1322 30.5 10.3288 29.6496 7.94424 28.0563C5.55973 26.463 3.70122 24.1984 2.60375 21.5489C1.50628 18.8994 1.21913 15.9839 1.77862 13.1712C2.33811 10.3585 3.7191 7.77481 5.74696 5.74695C7.77482 3.71909 10.3585 2.3381 13.1712 1.77861C15.9839 1.21913 18.8994 1.50628 21.5489 2.60375C24.1984 3.70122 26.463 5.55972 28.0563 7.94423C29.6496 10.3287 30.5 13.1322 30.5 16C30.4954 19.8442 28.9662 23.5297 26.2479 26.2479C23.5297 28.9662 19.8442 30.4954 16 30.5Z" fill="#70BC24"/>
<path d="M14.5331 8.97082C14.3909 8.83834 14.2029 8.76622 14.0086 8.76965C13.8143 8.77308 13.6289 8.85179 13.4915 8.9892C13.354 9.12662 13.2753 9.312 13.2719 9.5063C13.2685 9.7006 13.3406 9.88865 13.4731 10.0308L19.4431 16.0008L13.4731 21.9708C13.3994 22.0395 13.3403 22.1223 13.2993 22.2143C13.2583 22.3063 13.2363 22.4056 13.2345 22.5063C13.2327 22.607 13.2512 22.707 13.289 22.8004C13.3267 22.8938 13.3828 22.9786 13.454 23.0499C13.5253 23.1211 13.6101 23.1772 13.7035 23.2149C13.7969 23.2527 13.8969 23.2712 13.9976 23.2694C14.0983 23.2676 14.1976 23.2456 14.2896 23.2046C14.3816 23.1636 14.4644 23.1045 14.5331 23.0308L21.0331 16.5308C21.1735 16.3902 21.2524 16.1996 21.2524 16.0008C21.2524 15.8021 21.1735 15.6114 21.0331 15.4708L14.5331 8.97082Z" fill="#70BC24"/>
</g>
<defs>
<clipPath id="clip0_784_2381">
<rect width="32" height="32" fill="white"/>
</clipPath>
</defs>
</svg>
