<svg width="21" height="21" viewBox="0 0 21 21" fill="none" xmlns="http://www.w3.org/2000/svg">
<path d="M15.8443 6.27479C16.4792 6.27479 16.9939 5.76009 16.9939 5.12519C16.9939 4.49028 16.4792 3.97559 15.8443 3.97559C15.2094 3.97559 14.6947 4.49028 14.6947 5.12519C14.6947 5.76009 15.2094 6.27479 15.8443 6.27479Z" fill="#35C759"/>
<path d="M10.7331 5.44922C9.77794 5.44922 8.84417 5.73247 8.04995 6.26315C7.25573 6.79384 6.63671 7.54812 6.27117 8.43061C5.90562 9.3131 5.80999 10.2842 5.99634 11.221C6.18269 12.1579 6.64266 13.0184 7.31809 13.6939C7.99352 14.3693 8.85408 14.8293 9.79093 15.0156C10.7278 15.202 11.6989 15.1063 12.5813 14.7408C13.4638 14.3752 14.2181 13.7562 14.7488 12.962C15.2795 12.1678 15.5627 11.234 15.5627 10.2788C15.5613 8.99838 15.0519 7.77082 14.1465 6.86541C13.2411 5.96001 12.0136 5.4507 10.7331 5.44922ZM10.7331 13.3692C10.1213 13.3692 9.52317 13.1878 9.01443 12.8479C8.50569 12.5079 8.10917 12.0248 7.87502 11.4595C7.64088 10.8942 7.57962 10.2722 7.69899 9.67209C7.81835 9.07199 8.11298 8.52076 8.54563 8.08811C8.97828 7.65547 9.5295 7.36083 10.1296 7.24146C10.7297 7.12209 11.3517 7.18336 11.917 7.4175C12.4823 7.65165 12.9654 8.04817 13.3054 8.55691C13.6453 9.06565 13.8267 9.66376 13.8267 10.2756C13.8267 11.0964 13.5009 11.8836 12.9208 12.4643C12.3408 13.0449 11.5539 13.3716 10.7331 13.3724V13.3692Z" fill="#35C759"/>
<path d="M14.5675 20.084H6.73874C5.17702 20.0823 3.67976 19.4612 2.57547 18.3569C1.47117 17.2526 0.850037 15.7553 0.848343 14.1936V6.36403C0.850037 4.80232 1.47117 3.30506 2.57547 2.20076C3.67976 1.09646 5.17702 0.475327 6.73874 0.473633H14.5675C16.1293 0.475327 17.6265 1.09646 18.7308 2.20076C19.8351 3.30506 20.4562 4.80232 20.4579 6.36403V14.1928C20.4565 15.7547 19.8354 17.2521 18.7311 18.3566C17.6268 19.4611 16.1294 20.0823 14.5675 20.084ZM6.73874 2.31843C5.66617 2.3197 4.63789 2.74634 3.87947 3.50477C3.12105 4.26319 2.69441 5.29146 2.69314 6.36403V14.1928C2.69441 15.2654 3.12105 16.2937 3.87947 17.0521C4.63789 17.8105 5.66617 18.2372 6.73874 18.2384H14.5675C15.6401 18.2372 16.6684 17.8105 17.4268 17.0521C18.1852 16.2937 18.6119 15.2654 18.6131 14.1928V6.36403C18.6119 5.29146 18.1852 4.26319 17.4268 3.50477C16.6684 2.74634 15.6401 2.3197 14.5675 2.31843H6.73874Z" fill="#35C759"/>
</svg>
