<svg width="20" height="13" viewBox="0 0 20 13" fill="none" xmlns="http://www.w3.org/2000/svg">
<path d="M19.4155 1.46849C19.5499 1.01329 19.4156 0.678088 18.7675 0.678088H16.6235C16.4231 0.663878 16.2236 0.715603 16.0553 0.825376C15.887 0.935149 15.7593 1.09694 15.6915 1.28609C15.0267 2.86679 14.1391 4.34417 13.0556 5.67329C12.5572 6.17169 12.3275 6.33249 12.0547 6.33249C11.9203 6.33249 11.7123 6.17249 11.7123 5.71729V1.46849C11.7123 0.922088 11.5595 0.678088 11.1083 0.678088H7.73715C7.66896 0.674205 7.60068 0.683855 7.53624 0.706482C7.4718 0.729109 7.41247 0.764265 7.36168 0.809926C7.31089 0.855586 7.26964 0.910847 7.2403 0.972523C7.21096 1.0342 7.19412 1.10107 7.19075 1.16929C7.19075 1.68609 7.96275 1.80929 8.04275 3.26289V6.42289C8.04275 7.11489 7.91875 7.24209 7.64275 7.24209C6.91475 7.24209 5.14515 4.57009 4.09715 1.51169C3.88595 0.918088 3.67875 0.678088 3.12915 0.678088H0.98755C0.37635 0.678088 0.25235 0.966088 0.25235 1.28609C0.25235 1.85409 0.98035 4.67569 3.64195 8.40609C5.41475 10.9485 7.91155 12.3277 10.1835 12.3277C11.5483 12.3277 11.7163 12.0221 11.7163 11.4941C11.7163 9.06209 11.5923 8.83249 12.2763 8.83249C12.5963 8.83249 13.1387 8.99249 14.4131 10.2197C15.8691 11.6757 16.11 12.3277 16.9251 12.3277H19.0691C19.6803 12.3277 19.99 12.0221 19.8116 11.4173C19.4051 10.1469 16.6491 7.53329 16.5292 7.35889C16.2091 6.95089 16.3035 6.76929 16.5292 6.40529C16.5292 6.40129 19.1467 2.71649 19.4155 1.46849Z" fill="white"/>
</svg>
