<svg width="19" height="19" viewBox="0 0 19 19" fill="none" xmlns="http://www.w3.org/2000/svg">
<path d="M1.53057 13.7922C0.785247 12.4514 0.39336 10.943 0.39151 9.40898C0.394263 7.00357 1.35117 4.69737 3.05206 2.99648C4.75294 1.2956 7.05876 0.33869 9.46417 0.335938C11.8696 0.33869 14.1758 1.2956 15.8767 2.99648C17.5776 4.69737 18.5345 7.00357 18.5372 9.40898C18.5345 11.8144 17.5776 14.1206 15.8767 15.8215C14.1758 17.5224 11.8696 18.4789 9.46417 18.4816C7.9575 18.4802 6.47542 18.1018 5.15245 17.3809L0.213776 18.7066L1.53057 13.7922ZM5.70909 15.7266C6.84444 16.4048 8.14166 16.764 9.46417 16.7664C11.4158 16.7651 13.2873 15.9894 14.6673 14.6094C16.0473 13.2294 16.8231 11.3582 16.8243 9.40664C16.8231 7.45504 16.0473 5.58351 14.6673 4.20352C13.2873 2.82352 11.4158 2.04776 9.46417 2.04648C7.51256 2.04776 5.64142 2.82352 4.26143 4.20352C2.88144 5.58351 2.10567 7.45504 2.1044 9.40664C2.10583 10.7527 2.47762 12.0724 3.1794 13.2211L3.37081 13.5352L2.63487 16.2801L5.39307 15.5395L5.70909 15.7266ZM10.3306 13.1227C9.78467 12.9373 9.26238 12.6887 8.77393 12.3824C7.7992 11.7785 6.95133 10.9905 6.27784 10.0625C6.06987 9.78187 5.8778 9.49014 5.70206 9.18828C5.45649 8.79441 5.27076 8.36598 5.15089 7.91758C5.10457 7.72905 5.08038 7.53593 5.0794 7.3418C5.06716 6.99991 5.13191 6.65959 5.26885 6.34609C5.4058 6.0326 5.61166 5.7538 5.87081 5.53047C6.02195 5.3958 6.20925 5.30836 6.40948 5.27852C6.60971 5.24867 6.81391 5.27776 6.99776 5.3625C7.35352 5.66247 7.6157 6.05833 7.75245 6.50313C7.92862 6.81453 8.01175 7.17009 7.99229 7.52734C7.89224 7.85826 7.70815 8.15755 7.45792 8.39609C7.38915 8.45639 7.34609 8.54057 7.3376 8.63164C7.32912 8.72271 7.35576 8.81359 7.41221 8.88555C8.08006 10.0307 9.11473 10.9174 10.3485 11.4023C10.4177 11.4403 10.498 11.4521 10.5751 11.4352C10.6522 11.4182 10.7207 11.374 10.7677 11.3105C10.9845 11.0409 11.2004 10.5106 11.538 10.3746C11.7627 10.3221 11.9961 10.3209 12.2212 10.3715C12.4463 10.4221 12.6573 10.5229 12.838 10.6664C13.186 10.876 13.7675 11.1289 13.8595 11.5609C13.8999 11.7718 13.8736 11.9898 13.7837 12.1848C13.6298 12.5064 13.3996 12.7857 13.1134 12.9984C12.8272 13.2112 12.4935 13.3512 12.1411 13.4059C12.0092 13.4309 11.8753 13.4436 11.7411 13.4441C11.2566 13.4148 10.78 13.3062 10.3306 13.1227Z" fill="white"/>
</svg>
