<svg width="210" height="130" viewBox="0 0 210 130" fill="none" xmlns="http://www.w3.org/2000/svg">
<g clip-path="url(#clip0_404_10506)">
<path d="M105.516 81.4706C118.416 81.4706 128.935 70.5687 128.935 57.2441C128.935 43.8859 118.416 33.0176 105.516 33.0176C92.6149 33.0176 82.0958 43.8859 82.0958 57.2441C82.0627 70.5687 92.5818 81.4706 105.516 81.4706Z" fill="#008952"/>
<path d="M105.516 32.6475C92.4169 32.6475 81.7324 43.684 81.7324 57.2441C81.7324 70.7706 92.4169 81.8407 105.516 81.8407C118.615 81.8407 129.3 70.7706 129.3 57.2441C129.3 43.684 118.615 32.6475 105.516 32.6475ZM101.15 73.597V80.6631C100.323 80.4948 99.5289 80.2929 98.735 80.0574V58.691H102.175C103.068 58.691 103.697 58.8928 104.061 59.2293C104.425 59.5658 104.59 60.2051 104.59 61.1136V71.1743C104.59 72.0828 104.425 72.7221 104.061 73.0586C103.498 73.6306 102.506 73.6306 101.679 73.6306C101.481 73.597 101.315 73.597 101.15 73.597ZM105.516 81.1005C104.391 81.1005 103.267 80.9995 102.208 80.8649V74.6401C103.796 74.6401 104.855 74.1017 105.318 72.9913V79.1826C105.318 79.9565 105.417 80.5958 105.682 81.1005C105.615 81.1005 105.549 81.1005 105.516 81.1005ZM112.066 66.4636H109.684V60.9454H108.659V79.5527H109.684V67.5067H112.066V79.1826C112.066 79.5527 112.033 79.8555 112 80.1247C110.346 80.6294 108.592 80.9659 106.773 81.0668C106.376 80.5621 106.31 79.8219 106.31 79.1826V61.2819C106.31 60.3397 106.509 59.7004 106.839 59.3303C107.17 58.9601 107.799 58.7583 108.692 58.7583C109.585 58.7583 110.908 58.6237 111.57 59.3303C111.9 59.7004 112.066 60.3397 112.066 61.2819V66.4636ZM119.674 76.0533C118.88 76.6926 118.02 77.2983 117.127 77.8366V67.6077H116.035V78.4423C115.208 78.8797 114.381 79.2835 113.488 79.62V67.9105C113.488 66.8338 113.753 66.0262 114.811 65.6561L113.62 59.0274H116.002L116.399 66.2617H116.697L117.094 59.0274H119.608L118.252 65.6561C119.376 66.0599 119.608 66.7665 119.608 67.9105L119.674 76.0533ZM113.091 65.6224V61.5174L113.819 65.2187C113.521 65.286 113.29 65.4542 113.091 65.6224ZM120.501 66.2954C120.302 65.8243 119.972 65.4205 119.376 65.185L120.501 59.2293V66.2954ZM128.341 60.5752C128.341 60.6762 128.307 60.7771 128.307 60.9117H124.437V61.8875H125.033C126.157 61.8539 127.381 61.8539 128.01 62.6614C127.514 64.9158 126.687 67.0356 125.628 68.9872V63.8391H124.47V70.9052C123.676 72.0492 122.816 73.1596 121.857 74.1354C121.824 74.169 121.758 74.2363 121.725 74.27V58.9938H128.407V60.5752H128.341ZM112.43 57.9844L112.661 59.1957C112.132 58.2199 111.173 57.7488 109.717 57.7488H108.692C106.939 57.7488 105.88 58.4554 105.483 59.8686C105.119 58.3881 103.995 57.6815 102.175 57.6815H97.6764V79.7546C94.4678 78.5432 91.5568 76.6253 89.1752 74.169C85.0072 69.8284 82.394 63.8727 82.394 57.3114C82.394 50.75 84.9742 44.7607 89.1752 40.4538C93.3431 36.1468 99.1319 33.455 105.483 33.455C111.834 33.455 117.59 36.1468 121.791 40.4538C125.959 44.7607 128.572 50.75 128.572 57.3114C128.572 57.5469 128.572 57.8161 128.572 58.0516L112.43 57.9844ZM101.15 71.5108H102.175V60.7435H101.15V71.5108Z" fill="white"/>
<path d="M85.6366 44.29L85.6697 45.0639L85.7689 45.8042L85.9674 46.5108L86.1659 47.2174L86.4305 47.8567L86.7282 48.496L87.059 49.1017L87.4559 49.6737L87.8529 50.2457L88.316 50.7841L89.2753 51.8608L90.2676 52.8703L91.2931 53.8797L92.3185 54.8891L93.344 55.8986L94.2702 56.9753L94.7333 57.5137L95.1633 58.0857L95.5272 58.6577L95.858 59.2634L96.1888 59.9027L96.4534 60.5756L96.6519 61.2486L96.8503 61.9552L96.9165 62.6955L96.9827 63.4694L96.9496 69.9971L96.9165 69.1895L96.7842 68.4493L96.6188 67.7426L96.4203 67.0697L96.1557 66.4304L95.8249 65.7574L95.4941 65.1854L95.1302 64.5797L94.7333 64.0077L94.2702 63.4694L93.3109 62.3926L92.3185 61.3832L91.2931 60.3737L90.2346 59.398L89.2091 58.3549L88.2829 57.2781L87.8198 56.7398L87.4229 56.1678L87.059 55.5621L86.7282 54.9564L86.3974 54.3171L86.1328 53.6778L85.9343 53.0049L85.7689 52.2982L85.6366 51.558L85.6035 50.7841L85.6366 44.29Z" fill="white"/>
<path d="M84.578 52.5332L84.6111 53.3744L84.7434 54.1483L84.9419 54.8886L85.1403 55.5952L85.4711 56.3018L85.8019 56.9747L86.1658 57.614L86.5627 58.2534L87.0258 58.8254L87.522 59.431L88.5475 60.5414L89.6391 61.6181L90.7968 62.6949L91.9215 63.7716L93.0131 64.8483L94.0386 65.9587L94.5347 66.5644L94.9648 67.1701L95.3948 67.7757L95.7587 68.415L96.1225 69.088L96.3872 69.7946L96.6187 70.5012L96.8172 71.2751L96.9164 72.049L96.9826 72.8565L96.9495 79.7544L96.8833 78.9468L96.7841 78.1729L96.5856 77.399L96.3541 76.6924L96.0894 75.9858L95.7256 75.3128L95.3617 74.6735L94.9648 74.0679L94.5017 73.4622L94.0055 72.8565L92.98 71.7462L91.8554 70.6358L90.7638 69.5927L89.6391 68.516L88.5144 67.4392L87.4889 66.2952L86.9928 65.7232L86.5297 65.1175L86.1327 64.4782L85.7688 63.8726L85.4381 63.1659L85.1073 62.493L84.9088 61.7527L84.7103 61.0125L84.6111 60.2386L84.5449 59.3974L84.578 52.5332Z" fill="white"/>
<path d="M128.274 48.7644H113.29C113.157 48.3943 112.893 48.1251 112.661 48.1251C112.397 48.1251 112.165 48.3606 112.033 48.7644H111.503C111.371 48.3943 111.107 48.1251 110.875 48.1251C110.61 48.1251 110.379 48.3606 110.246 48.7644H109.816C110.147 48.327 110.313 47.7886 110.313 47.2166C110.313 45.6688 109.221 44.4238 107.6 44.4238C105.946 44.4238 104.623 45.6688 104.623 47.2166C104.623 47.9232 105.152 48.5625 105.318 49.0336C105.053 49.1009 104.855 49.3364 104.855 49.6393C104.855 49.9421 105.086 50.2113 105.384 50.2449C105.218 50.8506 104.623 51.288 104.623 52.2301C104.623 53.778 105.946 55.0229 107.6 55.0229C109.254 55.0229 110.313 53.778 110.313 52.2301C110.313 51.6581 110.114 51.1198 109.816 50.6823H110.246C110.379 51.0525 110.643 51.3217 110.875 51.3217C111.14 51.3217 111.371 51.0861 111.503 50.6823H112.033C112.165 51.0525 112.43 51.3217 112.661 51.3217C112.926 51.3217 113.157 51.0861 113.29 50.6823H124.305V51.3217H123.776V52.5666H124.305L124.801 53.2396L123.809 53.105V54.7874H124.801V54.0135H126.29V54.7874H127.282V53.105L126.29 53.2396L126.786 52.5666H127.315V51.3217H126.786V50.6823H128.308C128.704 50.6823 129.002 50.3459 129.002 49.9421V49.5047C129.002 49.1009 128.671 48.7644 128.274 48.7644ZM108.03 48.5625C108.493 48.5625 108.89 49.0672 108.89 49.6729C108.89 50.2786 108.526 50.7833 108.03 50.7833L107.766 51.3889C108.427 51.3889 109.155 51.4899 109.155 52.2638C109.155 53.2059 108.559 53.9798 107.501 53.9798C106.442 53.9798 105.615 53.2059 105.615 52.2638C105.615 51.5235 105.88 51.4226 106.608 51.1871L106.409 50.7496L106.872 50.3122C106.608 50.2113 106.442 49.9421 106.442 49.6393C106.442 49.3364 106.641 49.0672 106.872 48.9663L106.475 48.6635L106.608 48.226C105.88 47.9905 105.615 47.8896 105.615 47.1493C105.615 46.2072 106.475 45.4333 107.501 45.4333C108.559 45.4333 109.155 46.2072 109.155 47.1493C109.155 47.9232 108.526 48.0242 107.766 48.0242L108.03 48.5625Z" fill="#FFCA38"/>
<path d="M104.459 52.231C104.459 51.3225 104.988 50.8177 105.154 50.3467C104.856 50.2457 104.657 49.9765 104.657 49.6401C104.657 49.3372 104.823 49.068 105.087 48.9671C104.889 48.5297 104.426 47.924 104.426 47.2174C104.426 45.6023 105.815 44.29 107.535 44.29C109.255 44.29 110.38 45.6023 110.38 47.2174C110.38 47.7221 110.248 48.2268 109.983 48.6306H110.082C110.248 48.2605 110.479 48.025 110.81 47.9913C111.141 47.9913 111.372 48.2605 111.538 48.6306H111.902C112.067 48.2605 112.299 48.025 112.629 47.9913C112.96 47.9913 113.192 48.2605 113.357 48.6306H128.276V48.7652V48.8998H113.192L113.159 48.8325C113.026 48.4624 112.795 48.2941 112.629 48.2941C112.464 48.2941 112.232 48.4624 112.1 48.8325L112.067 48.8998H111.339L111.306 48.8325C111.174 48.4624 110.942 48.2941 110.777 48.2941C110.612 48.2941 110.38 48.4624 110.248 48.8325L110.215 48.8998H109.52L109.652 48.6979C109.95 48.2605 110.148 47.7558 110.148 47.2174C110.148 45.7369 109.123 44.5592 107.568 44.5592C105.98 44.5592 104.723 45.7705 104.723 47.2174C104.723 47.8567 105.22 48.496 105.418 49.0008L105.484 49.1353L105.352 49.169C105.12 49.2026 104.988 49.4045 104.988 49.6401C104.988 49.8756 105.187 50.1111 105.418 50.1111L105.55 50.1448L105.517 50.2794C105.319 50.9187 104.757 51.3225 104.79 52.231C104.79 53.6778 106.047 54.8891 107.634 54.8891C109.222 54.8891 110.215 53.7115 110.215 52.231C110.215 51.6926 110.049 51.1879 109.718 50.7504L109.586 50.5486H110.347L110.38 50.6158C110.512 50.986 110.744 51.1542 110.909 51.1542C111.075 51.1542 111.306 50.986 111.439 50.6158L111.472 50.5486H112.166L112.199 50.6158C112.332 50.986 112.563 51.1542 112.729 51.1542C112.894 51.1542 113.126 50.986 113.258 50.6158L113.291 50.5486H124.505V51.4234H123.975V52.4328H124.439L125.133 53.4086L123.975 53.2404V54.6536H124.736V53.8797H126.489V54.6536H127.25V53.2404L126.092 53.4086L126.787 52.4328H127.25V51.4234H126.721V50.5486H128.375C128.706 50.5486 128.937 50.2794 128.97 49.9429V49.5055C128.97 49.169 128.706 48.8998 128.408 48.8998V48.7652V48.6306C128.871 48.6306 129.235 49.0344 129.235 49.5055V49.9429C129.235 50.414 128.871 50.8177 128.408 50.8177H127.019V51.1879H127.548V52.702H126.986L126.721 53.0721L127.581 52.9376V54.8891H126.324V54.1152H125.1V54.8891H123.843V52.9376L124.703 53.0721L124.439 52.702H123.876V51.1879H124.405V50.8177H113.589C113.423 51.1879 113.192 51.4234 112.861 51.457C112.53 51.457 112.299 51.1879 112.133 50.8177H111.769C111.604 51.1879 111.372 51.4234 111.042 51.457C110.711 51.457 110.479 51.1879 110.314 50.8177H110.215C110.479 51.2552 110.612 51.7262 110.612 52.231C110.612 53.8461 109.487 55.1583 107.767 55.1583C105.848 55.1247 104.459 53.8461 104.459 52.231ZM107.535 54.1152C106.444 54.1152 105.517 53.3077 105.517 52.2982C105.517 51.9281 105.584 51.6589 105.782 51.4907C105.947 51.3225 106.179 51.2552 106.444 51.1542L106.245 50.7504L106.642 50.3803C106.411 50.2121 106.278 49.9765 106.278 49.6737C106.278 49.4045 106.411 49.1353 106.609 48.9671L106.278 48.7316L106.411 48.3278C106.113 48.2268 105.881 48.1596 105.716 47.9913C105.517 47.8231 105.451 47.5539 105.451 47.1838C105.451 46.1743 106.377 45.3668 107.469 45.3668C108.031 45.3668 108.461 45.5687 108.759 45.9051C109.057 46.2416 109.222 46.7127 109.222 47.1838C109.222 47.6212 109.024 47.8904 108.726 48.025C108.494 48.1259 108.197 48.1596 107.899 48.1596L108.031 48.4624C108.561 48.5297 108.925 49.068 108.925 49.7074C108.925 50.3467 108.561 50.885 108.031 50.9523L107.866 51.3225C108.131 51.3225 108.428 51.3561 108.66 51.457C108.958 51.5916 109.189 51.8608 109.189 52.2982C109.189 52.803 109.024 53.2404 108.726 53.5769C108.561 53.9133 108.098 54.1152 107.535 54.1152ZM105.782 47.1501C105.782 47.5202 105.848 47.6548 105.98 47.7894C106.113 47.924 106.344 47.9913 106.708 48.1259L106.841 48.1596L106.675 48.6306L107.171 49.0344L106.973 49.1353C106.741 49.2363 106.609 49.4382 106.609 49.7074C106.609 49.9765 106.774 50.1784 106.973 50.2794L107.171 50.3467L106.642 50.8514L106.874 51.3225L106.741 51.3561C106.377 51.457 106.146 51.558 106.014 51.6926C105.881 51.7935 105.848 51.9618 105.815 52.3319C105.815 53.1731 106.609 53.9133 107.568 53.9133C108.528 53.9133 109.057 53.2404 109.09 52.3319C109.09 51.9954 108.958 51.8272 108.726 51.7262C108.494 51.6253 108.164 51.5916 107.833 51.5916H107.634L107.998 50.7168H108.064C108.428 50.7168 108.792 50.2794 108.792 49.7074C108.792 49.1353 108.461 48.7316 108.064 48.6979H107.998L107.634 47.8904H107.833C108.197 47.8904 108.561 47.8567 108.759 47.7558C108.991 47.6548 109.09 47.4866 109.09 47.1501C109.09 46.2753 108.561 45.5687 107.568 45.5687C106.543 45.5687 105.782 46.2753 105.782 47.1501Z" fill="white"/>
<path d="M97.3457 53.2062V57.0421L102.936 51.4565V47.6543L97.3457 53.2062Z" fill="#FFCA38"/>
<path d="M97.2461 53.2063V53.139L103.101 47.3516V51.4903L97.2461 57.3113V53.2063ZM97.4776 56.7393L102.803 51.423V47.9572L97.4776 53.2736V56.7393Z" fill="white"/>
<path d="M97.3457 39.2765V43.0787L102.936 37.4932V33.7246L97.3457 39.2765Z" fill="#FFCA38"/>
<path d="M97.246 39.2766V39.2093L103.068 33.4219V37.5606L97.2129 43.3817V39.2766H97.246ZM97.4775 42.776L102.803 37.4596V34.0275L97.4775 39.3103V42.776Z" fill="white"/>
<path d="M92.8809 32.0419V24H93.4763V24.2019V24H93.7409V32.0419H92.8809Z" fill="white"/>
<path d="M97.3457 43.9191V47.7213L102.936 42.1694V38.3672L97.3457 43.9191Z" fill="#FFCA38"/>
<path d="M97.2461 43.9192V43.8519L103.101 38.0645V42.2031L97.2461 48.0242V43.9192ZM97.4776 47.4186L102.803 42.1022V38.6701L97.4776 43.9528V47.4186Z" fill="white"/>
<path d="M94.7656 33.556V24H95.361V24.2019V24H95.6257V33.556H94.7656Z" fill="white"/>
<path d="M93.4753 24.2021H93.1445V31.8402H93.4753V24.2021Z" fill="#FFCA38"/>
<path d="M95.362 24.2021H95.0312V33.3207H95.362V24.2021Z" fill="#FFCA38"/>
<path d="M96.6523 34.5318V24H97.2478V24.2019V24H97.5124V34.5318H96.6523Z" fill="white"/>
<path d="M97.3457 48.5627V52.3985L102.936 46.813V43.0107L97.3457 48.5627Z" fill="#FFCA38"/>
<path d="M97.2461 48.5627V48.4955L103.101 42.708V46.8467L97.2461 52.6678V48.5627ZM97.4776 52.0958L102.803 46.7794V43.3137L97.4776 48.5964V52.0958Z" fill="white"/>
<path d="M97.2468 24.2021H96.916V34.3302H97.2468V24.2021Z" fill="#FFCA38"/>
<path d="M98.5371 33.7243V24H99.1325V24.2019V24H99.3972V33.7243H98.5371Z" fill="white"/>
<path d="M96.8169 53.2062V57.0421L91.2266 51.4565V47.6543L96.8169 53.2062Z" fill="#FFCA38"/>
<path d="M91.0938 51.5239V47.3516L96.8826 53.1054L96.9156 53.139V57.3113L91.0938 51.5239ZM91.3584 51.3893L96.6841 56.7057V53.2736L91.3584 47.9572V51.3893Z" fill="white"/>
<path d="M100.422 32.2437V24H101.05V24.2019V24H101.315V32.2437H100.422Z" fill="white"/>
<path d="M99.1316 24.2021H98.8008V33.5226H99.1316V24.2021Z" fill="#FFCA38"/>
<path d="M102.209 30.8305V24H102.804V24.2019V24H103.069V30.8305H102.209Z" fill="white"/>
<path d="M101.051 24.2021H100.688V32.0421H101.051V24.2021Z" fill="#FFCA38"/>
<path d="M102.803 24.2021H102.473V30.6289H102.803V24.2021Z" fill="#FFCA38"/>
<path d="M96.8169 39.2765V43.0787L91.2266 37.4932V33.7246L96.8169 39.2765Z" fill="#FFCA38"/>
<path d="M91.0938 37.5606V33.4219L96.8826 39.1757L96.9156 39.2093V43.3817L91.0938 37.5606ZM91.3584 37.4596L96.6841 42.776V39.3103L91.3584 33.9939V37.4596Z" fill="white"/>
<path d="M96.8169 43.9191V47.7213L91.2266 42.1694V38.3672L96.8169 43.9191Z" fill="#FFCA38"/>
<path d="M91.0938 42.2031V38.0645L96.8826 43.8182L96.9487 43.8519V48.0242L91.0938 42.2031ZM91.3584 42.1022L96.6841 47.4186V43.9865L91.3584 38.6701V42.1022Z" fill="white"/>
<path d="M96.8169 48.5627V52.3985L91.2266 46.813V43.0107L96.8169 48.5627Z" fill="#FFCA38"/>
<path d="M91.0938 46.8467V42.708L96.8826 48.4618L96.9156 48.4955V52.6678L91.0938 46.8467ZM91.3584 46.7458L96.6841 52.0621V48.63L91.3584 43.3137V46.7458Z" fill="white"/>
<path d="M91.0938 30.7969V24H91.7222V24.2019V24H91.9538V30.7969H91.0938Z" fill="white"/>
<path d="M91.7232 24.2021H91.3594V30.5953H91.7232V24.2021Z" fill="#FFCA38"/>
<path d="M97.3457 34.633V38.4352L102.936 32.8496V29.0811L97.3457 34.633Z" fill="#FFCA38"/>
<path d="M97.2461 34.6331V34.5658L103.101 28.7783V32.917L97.2461 38.7381V34.6331ZM97.4776 38.1324L102.803 32.8161V29.384L97.4776 34.7004V38.1324Z" fill="white"/>
<path d="M96.8169 34.633V38.4352L91.2266 32.8496V29.0811L96.8169 34.633Z" fill="#FFCA38"/>
<path d="M91.0938 32.917V28.7783L96.8826 34.5321L96.9156 34.5658V38.7381L91.0938 32.917ZM91.3584 32.8161L96.6841 38.1324V34.6667L91.3584 29.384V32.8161Z" fill="white"/>
<path d="M48.9847 105.798H47V93.9199H51.4987C52.7888 93.9199 53.715 94.2564 54.3435 94.963C54.972 95.6696 55.2697 96.4772 55.2697 97.453C55.2697 98.5297 54.9389 99.4045 54.2774 100.077C53.6158 100.75 52.7557 101.087 51.7303 101.087H48.9847V105.798ZM48.9847 99.2699H51.3333C51.9288 99.2699 52.4249 99.1017 52.7226 98.7989C53.0534 98.4624 53.2188 98.025 53.2188 97.4866C53.2188 97.0155 53.0865 96.5781 52.7888 96.2416C52.4911 95.9051 51.9618 95.7369 51.1679 95.7369H48.9847V99.2699ZM59.7023 106C58.5115 106 57.5852 105.528 56.9567 104.586C56.3282 103.644 55.9975 102.567 55.9975 101.39C55.9975 100.077 56.3613 99.0008 57.056 98.1596C57.7506 97.2847 58.6768 96.8473 59.8346 96.8473C60.9262 96.8473 61.8193 97.2847 62.514 98.1259C63.2087 98.9671 63.5725 100.077 63.5725 101.423C63.5725 102.803 63.2087 103.913 62.4809 104.755C61.7532 105.562 60.827 106 59.7023 106ZM59.7684 104.351C60.9924 104.351 61.6209 103.341 61.6209 101.356C61.6209 100.448 61.4885 99.741 61.1908 99.2363C60.8931 98.7316 60.43 98.4624 59.8346 98.4624C59.2061 98.4624 58.743 98.7316 58.4122 99.2699C58.1145 99.8083 57.9491 100.515 57.9491 101.423C57.9491 102.366 58.1145 103.106 58.4453 103.611C58.7761 104.115 59.2061 104.351 59.7684 104.351ZM69.9237 102.567L71.5114 102.736C71.313 103.846 70.916 104.654 70.3206 105.192C69.7252 105.73 69.0305 106 68.2036 106C67.0789 106 66.2188 105.562 65.6234 104.687C65.028 103.812 64.7303 102.702 64.7303 101.423C64.7303 100.111 65.0611 99.0008 65.7226 98.1596C66.3842 97.2847 67.2774 96.8473 68.369 96.8473C70.1552 96.8473 71.1807 97.8567 71.5445 99.8756L69.9567 100.111C69.8244 99.0344 69.3282 98.4624 68.4682 98.4624C67.8397 98.4624 67.4097 98.7652 67.112 99.3372C66.8142 99.9092 66.6819 100.65 66.6819 101.457C66.6819 102.332 66.8142 103.039 67.112 103.51C67.4097 103.981 67.8066 104.25 68.3359 104.25C69.1298 104.25 69.659 103.711 69.9237 102.567ZM77.598 102.567L79.1858 102.736C78.9873 103.846 78.5903 104.654 77.9949 105.192C77.3995 105.73 76.7048 106 75.8779 106C74.7532 106 73.8931 105.562 73.2977 104.687C72.7023 103.812 72.4046 102.702 72.4046 101.423C72.4046 100.111 72.7354 99.0008 73.3969 98.1596C74.0585 97.2847 74.9517 96.8473 76.0433 96.8473C77.8295 96.8473 78.855 97.8567 79.2188 99.8756L77.631 100.111C77.4987 99.0344 77.0025 98.4624 76.1425 98.4624C75.514 98.4624 75.084 98.7652 74.7863 99.3372C74.4885 99.9092 74.3562 100.65 74.3562 101.457C74.3562 102.332 74.4885 103.039 74.7863 103.51C75.084 103.981 75.4809 104.25 76.0102 104.25C76.8041 104.25 77.3333 103.711 77.598 102.567ZM85.7684 103.005L87.4224 103.24C87.2239 104.048 86.7939 104.687 86.1654 105.192C85.5369 105.697 84.7761 105.966 83.8168 105.966C82.6921 105.966 81.799 105.562 81.1043 104.721C80.4097 103.913 80.0789 102.803 80.0789 101.39C80.0789 100.077 80.4097 98.9671 81.1043 98.0923C81.799 97.2174 82.7252 96.78 83.916 96.78C85.0738 96.78 85.9669 97.2174 86.5954 98.0586C87.2239 98.9335 87.5547 100.01 87.5547 101.356V101.592H81.9644C81.9644 102.197 82.0305 102.668 82.1298 103.039C82.229 103.409 82.4275 103.711 82.7583 103.981C83.056 104.25 83.4529 104.384 83.916 104.384C84.8422 104.418 85.4377 103.947 85.7684 103.005ZM85.6361 100.38C85.6361 99.741 85.4707 99.2363 85.1069 98.8325C84.7761 98.4287 84.3461 98.2269 83.8168 98.2269C83.3206 98.2269 82.8906 98.4287 82.5598 98.7989C82.229 99.169 82.0305 99.7074 81.9644 100.38H85.6361ZM87.9847 105.798L90.598 97.0155H92.7481L95.2621 105.798H93.3435L91.5242 98.5633L89.4733 105.798H87.9847ZM96.2875 105.798V97.0155H98.1069V100.212H100.257C101.183 100.212 101.878 100.481 102.308 101.02C102.738 101.558 102.969 102.231 102.969 103.039C102.969 103.913 102.738 104.586 102.275 105.091C101.812 105.562 101.15 105.798 100.29 105.798H96.2875ZM98.1399 104.25H99.9262C100.389 104.25 100.687 104.149 100.885 103.947C101.084 103.745 101.183 103.442 101.183 103.005C101.183 102.096 100.753 101.659 99.9262 101.659H98.1399V104.25ZM110.545 105.798H108.461L106.74 102.601L104.855 105.798H103.267L105.98 101.289L103.631 97.0155H105.715L107.038 99.6064L108.56 97.0155H110.081L107.799 100.818L110.545 105.798ZM114.58 106C113.389 106 112.463 105.528 111.835 104.586C111.206 103.644 110.875 102.567 110.875 101.39C110.875 100.077 111.239 99.0008 111.934 98.1596C112.628 97.2847 113.555 96.8473 114.712 96.8473C115.804 96.8473 116.697 97.2847 117.392 98.1259C118.087 98.9671 118.45 100.077 118.45 101.423C118.45 102.803 118.087 103.913 117.359 104.755C116.631 105.562 115.705 106 114.58 106ZM114.646 104.351C115.87 104.351 116.499 103.341 116.499 101.356C116.499 100.448 116.366 99.741 116.069 99.2363C115.771 98.7316 115.308 98.4624 114.712 98.4624C114.084 98.4624 113.621 98.7316 113.29 99.2699C112.992 99.8083 112.827 100.515 112.827 101.423C112.827 102.366 112.992 103.106 113.323 103.611C113.654 104.115 114.084 104.351 114.646 104.351ZM121.891 101.962V100.582C122.784 100.582 123.313 100.481 123.545 100.212C123.776 99.9765 123.875 99.7074 123.875 99.4045C123.875 99.0681 123.776 98.7989 123.545 98.597C123.346 98.3951 123.015 98.2942 122.651 98.2942C121.824 98.2942 121.295 98.7316 121.163 99.6064L119.476 99.2699C119.84 97.6548 120.931 96.8136 122.784 96.8136C123.776 96.8136 124.537 97.0492 125.066 97.4866C125.595 97.924 125.827 98.496 125.827 99.2026C125.827 100.077 125.331 100.717 124.338 101.121C125.496 101.457 126.092 102.164 126.092 103.24C126.092 104.014 125.827 104.687 125.265 105.192C124.702 105.73 123.908 105.966 122.85 105.966C120.931 105.966 119.74 105.057 119.31 103.274L120.997 102.938C121.229 103.981 121.791 104.519 122.684 104.519C123.148 104.519 123.511 104.384 123.776 104.149C124.041 103.913 124.173 103.577 124.173 103.139C124.173 102.837 124.074 102.567 123.908 102.366C123.743 102.164 123.511 102.029 123.214 101.995C122.883 101.995 122.453 101.962 121.891 101.962ZM127.746 105.798V93.9199H135.089V96.0397H130.26V98.6306H132.112C133.071 98.6306 133.832 98.7316 134.394 98.9335C134.957 99.1353 135.42 99.5055 135.751 100.077C136.114 100.65 136.28 101.322 136.28 102.164C136.28 103.308 135.949 104.183 135.321 104.822C134.659 105.461 133.766 105.764 132.608 105.764H127.746V105.798ZM130.26 103.577H132.244C132.707 103.577 133.071 103.442 133.336 103.173C133.601 102.904 133.7 102.567 133.7 102.13C133.7 101.222 133.137 100.75 132.046 100.75H130.26V103.577ZM144.913 105.798H142.598C142.532 105.461 142.499 104.99 142.499 104.418C142.102 105.057 141.672 105.461 141.275 105.663C140.878 105.865 140.415 105.966 139.885 105.966C139.125 105.966 138.496 105.73 138.033 105.293C137.57 104.855 137.338 104.25 137.338 103.476C137.338 102.938 137.471 102.433 137.735 101.962C138 101.491 138.463 101.121 139.059 100.885C139.654 100.616 140.779 100.414 142.366 100.313V99.8083C142.366 98.9671 141.969 98.5297 141.176 98.5297C140.349 98.5297 139.852 98.9671 139.753 99.8083L137.537 99.5728C137.669 98.5633 138.132 97.8567 138.86 97.453C139.588 97.0492 140.415 96.8136 141.341 96.8136C141.903 96.8136 142.399 96.8809 142.896 97.0155C143.392 97.1501 143.756 97.352 144.053 97.6548C144.318 97.924 144.517 98.2269 144.616 98.5297C144.715 98.8325 144.748 99.3709 144.748 100.145V104.115C144.748 104.923 144.814 105.461 144.913 105.798ZM142.366 101.592C140.679 101.76 139.852 102.332 139.852 103.24C139.852 103.543 139.952 103.812 140.117 104.048C140.282 104.283 140.547 104.384 140.878 104.384C141.308 104.384 141.639 104.183 141.936 103.812C142.234 103.442 142.366 102.971 142.366 102.399V101.592ZM146.733 105.798V97.0155H149.115V100.178H151.595V97.0155H153.977V105.798H151.595V102.063H149.115V105.798H146.733ZM161.221 100.044L164.033 105.798H161.519L159.634 101.861L158.41 103.274V105.798H156.028V97.0155H158.41V99.2026C158.41 99.5728 158.41 100.077 158.377 100.75C158.575 100.448 158.807 100.145 159.071 99.842L161.519 97.0155H163.735L161.221 100.044Z" fill="#008952"/>
</g>
<defs>
<clipPath id="clip0_404_10506">
<rect width="117" height="82" fill="white" transform="translate(47 24)"/>
</clipPath>
</defs>
</svg>
