<svg width="210" height="130" viewBox="0 0 210 130" fill="none" xmlns="http://www.w3.org/2000/svg">
<g clip-path="url(#clip0_404_10505)">
<path fill-rule="evenodd" clip-rule="evenodd" d="M30 101H103.159V29H30V101Z" fill="#001689"/>
<path fill-rule="evenodd" clip-rule="evenodd" d="M52.2159 52.2607C52.7683 53.4266 53.6407 54.6494 56.0541 56.2702C56.5775 56.6399 57.1881 57.3792 56.7229 58.4598C56.2576 59.5119 55.4144 61.0475 55.9087 61.6162C56.4321 62.2133 58.2349 62.4977 59.7179 61.929C59.7179 61.929 60.0377 62.8389 60.5611 63.4361C60.5611 63.4361 60.2994 63.9479 59.4562 63.692C59.4562 63.692 59.776 64.4598 59.3399 65.256C59.3399 65.256 58.3512 65.0854 57.9151 64.2039C57.9151 64.2039 57.508 64.9148 56.7229 65.1423C56.7229 65.1423 56.0541 64.801 56.2286 63.5214C56.2286 63.5214 55.7342 64.6588 54.2513 64.8579C54.2513 64.8579 53.408 63.8058 54.513 62.3555C54.513 62.3555 53.7279 63.0664 52.274 62.7252C52.274 62.7252 52.0414 61.9859 53.3499 60.9906C53.3499 60.9906 51.8669 60.9337 51.3145 59.711C51.3145 59.711 51.9542 58.9432 53.4662 59.1138C53.4662 59.1138 52.0414 58.801 51.7215 57.1233C51.7215 57.1233 52.7393 56.4693 54.3676 57.5214C54.3676 57.5214 54.0768 56.9811 53.408 56.4693C52.7393 55.929 51.9251 54.4503 52.2159 52.2607Z" fill="white"/>
<path fill-rule="evenodd" clip-rule="evenodd" d="M58.176 69.1518C57.9433 68.8674 57.798 68.5831 57.6816 68.3271C57.9433 70.3745 58.0306 71.7395 59.1355 73.0475C59.1355 73.0475 59.8043 72.166 59.3681 70.0333C59.1937 69.9764 58.9611 69.8911 58.7575 69.7489C58.7575 69.7489 59.0192 70.6305 58.8447 71.4835C58.8447 71.4835 58.4667 71.1992 58.176 69.1518Z" fill="white"/>
<path fill-rule="evenodd" clip-rule="evenodd" d="M56.2278 68.924C56.0824 68.7534 55.8498 68.4122 55.7044 68.1562C55.6171 69.3506 55.2973 72.4501 56.3441 73.4169C56.3441 73.4169 57.071 72.9051 57.3327 68.3553C57.1873 68.6112 56.8966 68.8672 56.7802 69.0378C56.7802 69.0378 56.9547 70.488 56.4313 71.4833C56.4313 71.5117 55.9079 71.1136 56.2278 68.924Z" fill="white"/>
<path fill-rule="evenodd" clip-rule="evenodd" d="M53.6984 71.3125C54.5998 70.2603 54.8615 67.1324 54.8615 67.1324C54.9778 67.0471 55.0942 66.9617 55.2395 66.8764C55.2977 66.848 55.3268 66.7911 55.3849 66.7627C55.3849 66.8764 55.3849 66.9902 55.414 67.1039C55.2977 69.0091 55.1232 70.9428 54.5417 71.9096C53.9601 72.848 52.8843 73.3599 52.8843 73.3599C51.8665 71.5968 53.0878 69.2082 54.1346 67.5589C54.2509 67.502 54.3963 67.4452 54.5126 67.3883C54.1055 68.6395 53.4077 70.1466 53.6984 71.3125Z" fill="white"/>
<path fill-rule="evenodd" clip-rule="evenodd" d="M51.1979 65.8535C51.1979 66.0526 51.227 66.2232 51.256 66.3085C51.256 66.337 51.2851 66.3938 51.3142 66.4507C50.471 67.2753 49.8312 68.0431 48.5809 69.7777C47.3306 71.5123 45.3242 71.5692 45.3242 71.5692C45.5278 70.1758 45.9058 69.0668 46.9816 67.8725C48.0575 66.6782 49.4242 65.5976 50.4128 64.8867C50.6745 65.0005 50.9944 65.0858 51.4305 65.0289C51.4596 65.0289 51.4887 65.0289 51.5177 65.0289C51.3724 65.1995 51.3142 65.3701 51.256 65.5407C50.5 65.9673 48.2901 67.0763 47.3887 68.8393C47.3887 68.8109 48.7845 68.3844 51.1979 65.8535Z" fill="white"/>
<path fill-rule="evenodd" clip-rule="evenodd" d="M49.5992 64.1183L49.6865 63.9762C49.7155 63.9193 49.7446 63.8909 49.7737 63.834C48.9595 64.1468 46.0227 65.2274 45.0922 65.7108C44.1327 66.1942 42.766 67.2747 42.0391 69.5212C42.0391 69.5212 44.0163 69.6918 45.6447 68.3837C47.273 67.0473 49.1631 65.1989 49.9772 64.6302C49.89 64.5449 49.8319 64.488 49.8028 64.4311C49.8028 64.4311 47.5929 66.3364 45.2667 67.1894C45.2667 67.1894 45.761 66.3079 46.6915 65.6539C47.7964 64.8292 48.6397 64.5733 49.5992 64.1183Z" fill="white"/>
<path fill-rule="evenodd" clip-rule="evenodd" d="M47.9414 62.8105C47.9705 62.7252 47.9995 62.6683 48.0286 62.583C47.0691 62.7821 44.6556 63.0664 43.5798 63.3792C42.5039 63.7204 40.5557 64.4882 39.3926 66.6494C39.3926 66.6494 41.0791 67.1612 44.2776 65.6825C47.4762 64.2039 48.4939 63.8911 49.0754 63.7204C48.5811 63.692 48.2322 63.5214 48.0577 63.4077C46.7783 63.9764 45.0627 64.6304 43.3762 64.6588C43.3762 64.6588 44.2195 64.0901 45.0918 63.7204C46.0804 63.3792 47.1272 63.0095 47.9414 62.8105Z" fill="white"/>
<path fill-rule="evenodd" clip-rule="evenodd" d="M48.0285 61.2466C48.3483 61.3888 48.5809 61.4741 48.988 61.5025C48.7554 61.6447 48.5519 61.8153 48.3774 62.0712C47.2434 62.384 45.3242 62.7537 42.1548 62.9527C38.9853 63.1802 37.2988 62.6115 37.2988 62.6115C38.4038 61.9575 40.1775 61.275 41.3697 61.0475C42.5619 60.82 45.7023 60.8485 47.0689 60.6494C47.098 60.6779 47.2434 60.7916 47.5341 60.9622C46.371 61.076 43.9285 61.1897 42.6491 61.8153C42.591 61.8153 44.9462 62.1281 48.0285 61.2466Z" fill="white"/>
<path fill-rule="evenodd" clip-rule="evenodd" d="M47.7658 59.4554C47.9403 59.3701 48.1147 59.2563 48.3474 59.171C46.7481 58.6876 44.5382 57.9198 41.2233 57.7208C38.7808 57.5502 37.0362 57.6923 36.1348 57.9198C36.1348 57.9198 38.3447 59.4554 40.8744 59.9957C43.4042 60.536 45.4687 60.1947 46.9807 60.2232C47.0679 60.081 47.1843 59.9104 47.3587 59.7397C45.6141 59.7397 42.6772 59.3132 41.6304 58.972C41.6595 58.972 44.1893 58.4601 47.7658 59.4554Z" fill="white"/>
<path fill-rule="evenodd" clip-rule="evenodd" d="M47.7658 57.6067C47.7658 57.6636 47.9694 58.5451 49.0161 59.0285C46.7481 58.0617 42.3283 57.493 39.9439 56.5261C36.7163 55.2181 36.1348 53.5688 36.1348 53.5688C38.9262 53.4835 41.1943 54.166 42.9098 54.7062C44.9453 55.3318 48.0566 56.4693 49.1325 56.9242C48.7254 56.9527 48.2892 57.0664 47.9112 57.2939C46.3992 56.7252 45.7013 56.4693 44.3056 56.0996C43.2297 55.7868 42.4155 55.7299 41.7467 55.6731C41.7467 55.6731 42.7063 56.2987 44.2765 56.7821C45.8176 57.2655 46.5155 57.3508 47.7658 57.6067Z" fill="white"/>
<path fill-rule="evenodd" clip-rule="evenodd" d="M47.5927 55.19C47.68 55.3607 47.9417 55.7303 48.058 55.8725C44.4814 55.2753 40.585 52.6308 39.3638 50.9815C38.1425 49.3322 38.4915 46.8867 38.4915 46.8867C39.6546 47.1142 42.2134 49.2753 42.8822 49.9294C43.551 50.5834 45.5282 52.4886 46.924 53.5692L47.3601 54.7919C46.1679 53.8535 44.7722 52.8014 43.8999 52.1474C43.2311 51.6355 42.2134 50.9246 41.2247 50.6118C41.2247 50.6118 42.1552 51.8061 42.8822 52.3749C43.7545 53.0573 44.6268 53.6261 45.3247 54.0242C45.9644 54.3654 46.3133 54.5644 47.5927 55.19Z" fill="white"/>
<path fill-rule="evenodd" clip-rule="evenodd" d="M57.6529 65.0001C57.7692 64.9148 57.8564 64.801 57.9437 64.7441C58.1181 64.9432 58.6706 65.6257 58.9323 66.3081C59.1358 66.8768 59.3685 67.6731 59.4557 68.128C59.572 68.583 59.8919 69.5214 60.0954 69.8342C60.0954 69.8342 59.2231 69.9479 58.5834 69.2086C57.9437 68.4977 57.7401 67.7584 57.6529 67.019C57.5366 66.365 57.5657 65.5403 57.6529 65.0001Z" fill="white"/>
<path fill-rule="evenodd" clip-rule="evenodd" d="M56.2855 65.1133C56.46 65.3123 56.6054 65.3976 56.6054 65.4261L56.7217 65.483L56.838 65.4545C56.9543 65.4261 57.0415 65.3976 57.1288 65.3408C57.2451 65.682 57.3032 65.8526 57.3323 66.137C57.3614 66.5351 57.4486 67.1322 57.3032 67.6441C57.1288 68.2697 56.7507 68.6393 56.5472 68.8668C56.5472 68.8668 55.9657 68.2412 55.8203 67.7578C55.6458 67.2175 55.5876 66.6204 55.7912 65.9664C55.9366 65.5967 56.111 65.2839 56.2855 65.1133Z" fill="white"/>
<path fill-rule="evenodd" clip-rule="evenodd" d="M54.3375 65.171C54.919 65.0857 55.3552 64.8867 55.675 64.6592C55.7623 64.8582 55.8495 65.1426 55.7913 65.5123C55.7041 65.9104 55.4424 66.3085 55.0353 66.6213C54.4538 67.0762 53.6687 67.5028 52.7963 67.389C52.7963 67.389 52.5928 66.735 54.3375 65.171Z" fill="white"/>
<path fill-rule="evenodd" clip-rule="evenodd" d="M53.6684 64.0898C53.7556 64.6586 54.0173 65.0282 54.0464 65.0567C53.8428 65.2842 53.1159 66.5353 51.6038 66.3363C51.6038 66.3363 51.1968 65.4832 52.2145 64.8292C52.8542 64.3458 53.2031 64.2605 53.6684 64.0898Z" fill="white"/>
<path fill-rule="evenodd" clip-rule="evenodd" d="M53.8148 63.0379C53.4077 63.1517 52.8843 63.1801 52.2446 63.0379L52.0702 63.0095L52.012 62.8389C51.2269 63.4645 50.2964 63.5782 49.9766 64.1469C49.9766 64.1469 50.3546 64.8578 51.3723 64.7441C52.39 64.6303 53.146 64.1469 53.6985 63.4929C53.6985 63.3507 53.7567 63.1801 53.8148 63.0379Z" fill="white"/>
<path fill-rule="evenodd" clip-rule="evenodd" d="M52.0412 62.1559C52.1865 61.9569 52.2738 61.6157 52.5936 61.2744C51.9248 61.1607 51.3142 61.1607 50.5291 61.3029C49.5986 61.4735 48.6391 61.701 48.1738 63.0943C48.1738 63.0943 48.7845 63.6062 49.8603 63.3787C50.7908 63.2081 51.5759 62.81 52.0412 62.1559Z" fill="white"/>
<path fill-rule="evenodd" clip-rule="evenodd" d="M51.6637 60.6496C51.4311 60.4505 51.1985 60.1946 51.0531 59.8534L50.9659 59.6827C50.1517 59.3699 49.3084 59.1993 48.4652 59.4837C47.651 59.7965 47.4184 60.1377 47.2148 60.4505C47.2148 60.4505 48.1453 61.2183 49.1921 61.2467C50.2389 61.2467 51.2276 60.9339 51.6637 60.6496Z" fill="white"/>
<path fill-rule="evenodd" clip-rule="evenodd" d="M51.8951 59.0002C52.0405 58.9434 52.1859 58.8865 52.3603 58.8581C52.0114 58.5453 51.6625 58.0618 51.488 57.3509C51.11 57.4362 50.2377 57.4362 49.8306 57.2941C49.4235 57.1519 48.6675 57.1519 48.0859 57.5216C48.0859 57.5216 48.2895 58.5453 49.6271 58.9149C50.9065 59.2562 51.3717 59.1708 51.8951 59.0002Z" fill="white"/>
<path fill-rule="evenodd" clip-rule="evenodd" d="M51.4014 56.9811L51.5758 56.8674C51.6049 56.839 51.8957 56.6683 52.4191 56.6399C51.9829 56.3271 50.9361 55.474 50.2092 55.0475C49.395 54.5925 48.0865 54.0238 47.3887 53.9385C47.3887 53.9385 48.0284 55.5878 48.7553 56.2418C49.5404 56.9243 50.0929 57.1802 51.4014 56.9811Z" fill="white"/>
<path fill-rule="evenodd" clip-rule="evenodd" d="M52.7683 56.2417C52.4484 55.8152 52.1867 55.2465 52.0123 54.5924C51.8669 54.0522 51.518 52.6872 51.3144 52.3176C51.1109 51.9763 50.3549 50.7251 48.901 50.3555C48.901 50.3555 48.523 51.9763 49.2499 53.2275C49.8605 54.3081 51.169 55.474 52.7683 56.2417Z" fill="white"/>
<path fill-rule="evenodd" clip-rule="evenodd" d="M60.88 63.72C61.0545 63.8906 61.1999 64.0043 61.5197 64.1749C61.5197 64.1749 61.985 65.0565 61.4325 66.1086C60.88 67.1607 60.3857 68.2413 60.1531 68.8384C60.1531 68.8384 59.8623 68.7816 59.5134 67.1323C59.2808 66.0233 58.99 65.7389 58.6992 65.3408C59.0191 65.5114 59.2808 65.5399 59.3099 65.5683L59.5425 65.5967L59.6588 65.3977C59.8623 65.028 59.9205 64.6583 59.9205 64.3456C59.9205 64.2318 59.9205 64.1465 59.8914 64.0612C60.4148 64.0612 60.7056 63.8053 60.7928 63.6915L60.8219 63.6631L60.88 63.72Z" fill="white"/>
<path fill-rule="evenodd" clip-rule="evenodd" d="M48.4649 51.0093C48.4649 51.1515 48.4649 51.3221 48.4649 51.5211L48.494 51.9192C47.6217 50.8387 46.6039 49.5306 45.6153 48.3363C44.9465 47.5116 44.365 46.9998 43.7253 46.6017C44.2487 48.1372 45.2082 49.36 45.9061 49.9571C46.5749 50.5543 47.5635 51.6064 48.5231 52.232L48.6103 52.5448C48.6975 52.8292 48.8138 53.1135 48.9592 53.3979C49.1918 53.796 49.4826 54.1657 49.8316 54.5353C49.5408 54.3932 49.25 54.251 48.9011 54.1088L48.6103 53.9951C45.9642 52.6017 43.3763 49.7581 42.3005 47.7676C41.2537 45.777 41.6898 43.5022 41.9515 42.251C43.1437 43.2462 44.8593 45.2083 45.6153 46.2889C46.5458 47.5969 47.7089 49.4453 48.4649 50.9524V51.0093Z" fill="white"/>
<path fill-rule="evenodd" clip-rule="evenodd" d="M85.3628 59.4554C85.2174 59.3701 85.0139 59.2563 84.7812 59.171C86.3805 58.6876 88.5904 57.9198 91.9053 57.7208C94.3478 57.5502 96.0924 57.6923 96.9938 57.9198C96.9938 57.9198 94.7839 59.4554 92.2542 59.9957C89.7244 60.536 87.6599 60.1947 86.177 60.2232C86.0897 60.081 85.9734 59.9104 85.799 59.7397C87.5436 59.7397 90.4805 59.3132 91.5273 58.972C91.4982 58.972 88.9684 58.4601 85.3628 59.4554Z" fill="white"/>
<path fill-rule="evenodd" clip-rule="evenodd" d="M85.392 57.6067C85.392 57.6636 85.1885 58.5451 84.1417 59.0285C86.4098 58.0617 90.8295 57.493 93.2139 56.5261C96.4415 55.2181 97.0231 53.5688 97.0231 53.5688C94.2316 53.4835 91.9636 54.166 90.248 54.7062C88.2126 55.3318 85.1013 56.4693 84.0254 56.9242C84.4325 56.9527 84.8686 57.0664 85.2466 57.2939C86.7587 56.7252 87.4565 56.4693 88.8523 56.0996C89.9281 55.7868 90.7423 55.7299 91.4111 55.6731C91.4111 55.6731 90.4515 56.2987 88.8813 56.7821C87.3112 57.2655 86.6424 57.3508 85.392 57.6067Z" fill="white"/>
<path fill-rule="evenodd" clip-rule="evenodd" d="M85.5668 55.19C85.4796 55.3607 85.2179 55.7303 85.1016 55.8725C88.6781 55.2753 92.5745 52.6308 93.7958 50.9815C95.017 49.3322 94.6681 46.8867 94.6681 46.8867C93.4759 47.1142 90.9462 49.2753 90.2774 49.9294C89.6086 50.5834 87.6313 52.4886 86.2356 53.5692L85.7994 54.7919C86.9916 53.8535 88.3873 52.8014 89.2597 52.1474C89.9284 51.6355 90.9462 50.9246 91.9348 50.6118C91.9348 50.6118 91.0043 51.8061 90.2774 52.3749C89.4341 53.0573 88.5327 53.6261 87.8349 54.0242C87.1661 54.3654 86.8462 54.5644 85.5668 55.19Z" fill="white"/>
<path fill-rule="evenodd" clip-rule="evenodd" d="M84.6948 51.0092C84.6948 51.1513 84.6948 51.322 84.6948 51.521L84.6657 51.9191C85.538 50.8385 86.5557 49.5305 87.5444 48.3362C88.2132 47.5115 88.7947 46.9997 89.4344 46.6016C88.911 48.1371 87.9515 49.3599 87.2536 49.957C86.5848 50.5542 85.5962 51.6063 84.6366 52.2319L84.5494 52.5447C84.4622 52.8291 84.3749 53.1134 84.2005 53.3978C83.9678 53.7959 83.6771 54.1656 83.3281 54.5352C83.6189 54.393 83.9097 54.2509 84.2586 54.1087L84.5494 53.9949C87.1954 52.63 89.7834 49.7864 90.8592 47.7959C91.906 45.8054 91.4699 43.5305 91.2082 42.2793C90.016 43.2746 88.3004 45.2366 87.5444 46.3172C86.6139 47.6253 85.4508 49.4736 84.7239 50.9807V51.0092H84.6948Z" fill="white"/>
<path fill-rule="evenodd" clip-rule="evenodd" d="M51.8364 66.649C50.7606 67.7296 48.4634 70.1182 48.667 72.7059C48.667 72.7059 50.7897 72.0519 51.662 70.5163C52.5343 68.9808 53.0868 68.0139 53.4357 67.6727C53.2031 67.7012 52.9705 67.7012 52.7379 67.6727L52.5343 67.6443C51.9818 68.6111 50.935 70.2035 49.9755 70.7438C49.9755 70.7438 49.7429 69.4642 52.5634 66.8765C52.5925 66.7628 52.6506 66.649 52.7379 66.5068C52.4762 66.5921 52.1854 66.649 51.8655 66.649H51.8364Z" fill="white"/>
<path fill-rule="evenodd" clip-rule="evenodd" d="M80.9444 52.2607C80.392 53.4266 79.5196 54.6494 77.1062 56.2702C76.5537 56.6399 75.9722 57.3792 76.4083 58.4598C76.8736 59.5119 77.7168 61.0475 77.1934 61.6162C76.67 62.2133 74.8672 62.4977 73.3843 61.929C73.3843 61.929 73.0644 62.8389 72.541 63.4361C72.541 63.4361 72.8027 63.9479 73.646 63.692C73.646 63.692 73.3261 64.4598 73.7623 65.256C73.7623 65.256 74.7509 65.0854 75.1871 64.2039C75.1871 64.2039 75.5942 64.9148 76.3793 65.1423C76.3793 65.1423 77.048 64.801 76.9027 63.5214C76.9027 63.5214 77.397 64.6588 78.8799 64.8579C78.8799 64.8579 79.7232 63.8058 78.6182 62.3555C78.6182 62.3555 79.4033 63.0664 80.8572 62.7252C80.8572 62.7252 81.0898 61.9859 79.7813 60.9906C79.7813 60.9906 81.2643 60.9337 81.8458 59.711C81.8458 59.711 81.2061 58.9432 79.6941 59.1138C79.6941 59.1138 81.1189 58.801 81.4388 57.1233C81.4388 57.1233 80.421 56.4693 78.7927 57.5214C78.7927 57.5214 79.0835 56.9811 79.7523 56.4693C80.392 55.929 81.2352 54.4503 80.9444 52.2607Z" fill="white"/>
<path fill-rule="evenodd" clip-rule="evenodd" d="M74.9825 69.1518C75.186 68.8674 75.3605 68.5831 75.4768 68.3271C75.2151 70.3745 75.1278 71.7395 74.0229 73.0475C74.0229 73.0475 73.3541 72.166 73.7903 70.0333C73.9938 69.9764 74.1974 69.8911 74.4009 69.7489C74.4009 69.7489 74.1392 70.6305 74.3137 71.4835C74.2846 71.4835 74.6917 71.1992 74.9825 69.1518Z" fill="white"/>
<path fill-rule="evenodd" clip-rule="evenodd" d="M76.9311 68.924C77.0765 68.7534 77.3382 68.4122 77.4545 68.1562C77.5417 69.3506 77.8616 72.4501 76.8148 73.4169C76.8148 73.4169 76.0879 72.9051 75.8262 68.3553C75.9716 68.6112 76.2623 68.8672 76.3786 69.0378C76.3786 69.0378 76.2042 70.488 76.7276 71.4833C76.7276 71.5117 77.251 71.1136 76.9311 68.924Z" fill="white"/>
<path fill-rule="evenodd" clip-rule="evenodd" d="M79.4619 71.3125C78.5605 70.2603 78.2988 67.1324 78.2988 67.1324C78.1825 67.0471 78.0371 66.9617 77.9208 66.8764C77.8626 66.848 77.8335 66.7911 77.7754 66.7627C77.7754 66.8764 77.7754 66.9902 77.7754 67.1039C77.8917 69.0091 78.0662 70.9428 78.6477 71.9096C79.2293 72.848 80.3051 73.3599 80.3051 73.3599C81.3229 71.5968 80.1016 69.2082 79.0548 67.5589C78.9385 67.502 78.7931 67.4452 78.6768 67.3883C79.0548 68.6395 79.7236 70.1466 79.4619 71.3125Z" fill="white"/>
<path fill-rule="evenodd" clip-rule="evenodd" d="M81.9624 65.8535C81.9624 66.0526 81.9334 66.2232 81.9043 66.3085C81.9043 66.337 81.8752 66.3938 81.8461 66.4507C82.6894 67.2753 83.3291 68.0431 84.5794 69.7777C85.8298 71.5123 87.8361 71.5692 87.8361 71.5692C87.6326 70.1758 87.2546 69.0668 86.1787 67.8725C85.1028 66.6782 83.7362 65.5976 82.7475 64.8867C82.4858 65.0005 82.166 65.0858 81.7298 65.0289C81.7007 65.0289 81.6717 65.0289 81.6426 65.0289C81.788 65.1995 81.8461 65.3701 81.9043 65.5407C82.6603 65.9673 84.8702 67.0763 85.7716 68.8393C85.7716 68.8109 84.3759 68.3844 81.9624 65.8535Z" fill="white"/>
<path fill-rule="evenodd" clip-rule="evenodd" d="M83.5616 64.1183L83.4744 63.9762C83.4453 63.9193 83.4162 63.8909 83.3871 63.834C84.2013 64.1468 87.1381 65.2274 88.0686 65.7108C88.9991 66.1942 90.3658 67.2747 91.1218 69.5212C91.1218 69.5212 89.1445 69.6918 87.5162 68.3837C85.8878 67.0473 83.9978 65.1989 83.1836 64.6302C83.2708 64.5449 83.329 64.488 83.3871 64.4311C83.3871 64.4311 85.597 66.3364 87.9232 67.1894C87.9232 67.1894 87.4289 66.3079 86.4984 65.6539C85.3644 64.8292 84.5212 64.5733 83.5616 64.1183Z" fill="white"/>
<path fill-rule="evenodd" clip-rule="evenodd" d="M85.218 62.8105C85.1889 62.7252 85.1599 62.6683 85.1308 62.583C86.0903 62.7821 88.5038 63.0664 89.5797 63.3792C90.6555 63.7204 92.6037 64.4882 93.7668 66.6494C93.7668 66.6494 92.0803 67.1612 88.8818 65.6825C85.6833 64.2039 84.6946 63.8911 84.084 63.7204C84.5783 63.692 84.9272 63.5214 85.1017 63.4077C86.3811 63.9764 88.0967 64.6304 89.7832 64.6588C89.7832 64.6588 88.9399 64.0901 88.0676 63.7204C87.0499 63.3792 86.0031 63.0095 85.218 62.8105Z" fill="white"/>
<path fill-rule="evenodd" clip-rule="evenodd" d="M85.1314 61.2466C84.8116 61.3888 84.579 61.4741 84.1719 61.5025C84.4045 61.6447 84.608 61.8153 84.8116 62.0712C85.9456 62.384 87.8647 62.7537 91.0342 62.9527C94.2036 63.1802 95.8902 62.6115 95.8902 62.6115C94.7852 61.9575 93.0405 61.275 91.8484 61.0475C90.6562 60.82 87.5158 60.8485 86.1492 60.6494C86.1201 60.6779 85.9747 60.7916 85.6839 60.9622C86.847 61.076 89.2895 61.1897 90.5689 61.8153C90.5689 61.8153 88.2137 62.1281 85.1314 61.2466Z" fill="white"/>
<path fill-rule="evenodd" clip-rule="evenodd" d="M75.507 65.0001C75.3907 64.9148 75.3034 64.801 75.2162 64.7441C75.0417 64.9432 74.5183 65.6257 74.2276 66.3081C74.024 66.8768 73.7914 67.6731 73.7042 68.128C73.5878 68.583 73.268 69.5214 73.0645 69.8342C73.0645 69.8342 73.9368 69.9479 74.5765 69.2086C75.2162 68.4977 75.4197 67.7584 75.536 67.019C75.5942 66.365 75.5942 65.5403 75.507 65.0001Z" fill="white"/>
<path fill-rule="evenodd" clip-rule="evenodd" d="M76.8728 65.1133C76.7274 65.3123 76.5529 65.3976 76.5529 65.4261L76.4366 65.483L76.3203 65.4545C76.204 65.4261 76.1168 65.3976 76.0295 65.3408C75.9132 65.682 75.8551 65.8526 75.826 66.137C75.7969 66.5351 75.7097 67.1322 75.8551 67.6441C76.0295 68.2697 76.4076 68.6393 76.6111 68.8668C76.6111 68.8668 77.1926 68.2412 77.338 67.7578C77.5125 67.2175 77.5707 66.6204 77.3671 65.9664C77.2217 65.5967 77.0182 65.2839 76.8728 65.1133Z" fill="white"/>
<path fill-rule="evenodd" clip-rule="evenodd" d="M78.8212 65.171C78.2396 65.0857 77.8035 64.8867 77.4545 64.6592C77.3964 64.8582 77.2801 65.1426 77.3673 65.5123C77.4545 65.9104 77.7162 66.3085 78.1233 66.6213C78.7049 67.0762 79.49 67.5028 80.3623 67.389C80.3623 67.389 80.5658 66.735 78.8212 65.171Z" fill="white"/>
<path fill-rule="evenodd" clip-rule="evenodd" d="M79.4893 64.0898C79.4312 64.6586 79.1404 65.0282 79.1113 65.0567C79.3149 65.2842 80.0418 66.5353 81.5829 66.3363C81.5829 66.3363 81.99 65.4832 80.9723 64.8292C80.2744 64.3458 79.9546 64.2605 79.4893 64.0898Z" fill="white"/>
<path fill-rule="evenodd" clip-rule="evenodd" d="M79.3438 63.0379C79.7508 63.1517 80.2742 63.1801 80.9139 63.0379L81.0884 63.0095L81.1466 62.8389C81.9317 63.4645 82.8621 63.5782 83.182 64.1469C83.182 64.1469 82.804 64.8578 81.7863 64.7441C80.7686 64.6303 80.0125 64.1469 79.4601 63.4929C79.431 63.3507 79.4019 63.1801 79.3438 63.0379Z" fill="white"/>
<path fill-rule="evenodd" clip-rule="evenodd" d="M81.1189 62.1559C80.9735 61.9569 80.8572 61.6157 80.5664 61.2744C81.2352 61.1607 81.8458 61.1607 82.6309 61.3029C83.5614 61.4735 84.521 61.701 85.0153 63.0943C85.0153 63.0943 84.4047 63.6062 83.3288 63.3787C82.3692 63.2081 81.5841 62.81 81.1189 62.1559Z" fill="white"/>
<path fill-rule="evenodd" clip-rule="evenodd" d="M81.4961 60.6496C81.7287 60.4505 81.9613 60.1946 82.1067 59.8534L82.194 59.6827C83.0081 59.3699 83.8514 59.1993 84.6656 59.4837C85.5088 59.7965 85.7123 60.1377 85.9159 60.4505C85.9159 60.4505 84.9854 61.2183 83.9386 61.2467C82.8918 61.2467 81.9323 60.9339 81.4961 60.6496Z" fill="white"/>
<path fill-rule="evenodd" clip-rule="evenodd" d="M81.2641 59.0002C81.1187 58.9434 80.9733 58.8865 80.7988 58.8581C81.1478 58.5453 81.5258 58.0618 81.6712 57.3509C82.0492 57.4362 82.9215 57.4362 83.3286 57.2941C83.7066 57.1519 84.4917 57.1519 85.0732 57.5216C85.0732 57.5216 84.8697 58.5453 83.5321 58.9149C82.2527 59.2562 81.7875 59.1708 81.2641 59.0002Z" fill="white"/>
<path fill-rule="evenodd" clip-rule="evenodd" d="M81.758 56.9811L81.5835 56.8674C81.5544 56.839 81.2636 56.6683 80.7402 56.6399C81.1764 56.3271 82.2232 55.474 82.9501 55.0475C83.7643 54.5925 85.0728 54.0238 85.7707 53.9385C85.7707 53.9385 85.131 55.5878 84.404 56.2418C83.5898 56.9243 83.0664 57.1802 81.758 56.9811Z" fill="white"/>
<path fill-rule="evenodd" clip-rule="evenodd" d="M80.3633 56.2417C80.6831 55.8152 80.9448 55.2465 81.1193 54.5924C81.2647 54.0522 81.6136 52.6872 81.8462 52.3176C82.0498 51.9763 82.8058 50.7251 84.2597 50.3555C84.2597 50.3555 84.6377 51.9763 83.9107 53.2275C83.3001 54.3081 81.9916 55.474 80.3633 56.2417Z" fill="white"/>
<path fill-rule="evenodd" clip-rule="evenodd" d="M72.2779 63.72C72.1035 63.8906 71.9581 64.0043 71.6382 64.1749C71.6382 64.1749 71.173 65.0565 71.7255 66.1086C72.2779 67.1607 72.7723 68.2413 73.0049 68.8384C73.0049 68.8384 73.2957 68.7816 73.6446 67.1323C73.8772 66.0233 74.168 65.7389 74.4588 65.3408C74.1389 65.5114 73.8772 65.5399 73.8481 65.5683L73.6155 65.5967L73.4992 65.3977C73.2957 65.028 73.2375 64.6583 73.2375 64.3456C73.2375 64.2318 73.2375 64.1465 73.2666 64.0612C72.7432 64.0612 72.4524 63.8053 72.3652 63.6915L72.3361 63.6631L72.2779 63.72Z" fill="white"/>
<path fill-rule="evenodd" clip-rule="evenodd" d="M81.3217 66.649C82.3976 67.7296 84.6947 70.1182 84.4621 72.7059C84.4621 72.7059 82.3394 72.0519 81.4671 70.5163C80.5948 68.9808 80.0423 68.0139 79.6934 67.6727C79.926 67.7012 80.1586 67.7012 80.3912 67.6727L80.5948 67.6443C81.1182 68.6111 82.194 70.2035 83.1536 70.7438C83.1536 70.7438 83.3862 69.4642 80.5657 66.8765C80.5366 66.7628 80.4785 66.649 80.3912 66.5068C80.6529 66.5921 80.9437 66.649 81.2636 66.649H81.3217Z" fill="white"/>
<path fill-rule="evenodd" clip-rule="evenodd" d="M64.9219 45.9194C64.9219 45.7203 65.6779 45.5781 66.5793 45.5781C67.5098 45.5781 68.2367 45.7487 68.2367 45.9194C68.2367 46.1184 67.4807 46.2606 66.5793 46.2606C65.6488 46.2606 64.9219 46.1184 64.9219 45.9194Z" fill="white"/>
<path fill-rule="evenodd" clip-rule="evenodd" d="M66.8995 46.6868C66.8995 46.8574 66.7541 46.9996 66.5796 46.9996C66.4052 46.9996 66.2598 46.8574 66.2598 46.6868C66.2598 46.5162 66.4052 46.374 66.5796 46.374C66.7541 46.374 66.8995 46.5162 66.8995 46.6868Z" fill="white"/>
<path fill-rule="evenodd" clip-rule="evenodd" d="M64.8053 45.5784C64.2528 44.2703 63.8748 43.332 63.9039 43.0192C63.9039 42.8201 64.1365 42.6779 64.3692 42.6211C64.5727 42.5642 64.7762 42.5357 64.9216 42.6495C65.2124 42.877 65.4741 44.6116 65.5613 45.3509C65.2996 45.3793 65.1252 45.4078 64.8053 45.5784Z" fill="white"/>
<path fill-rule="evenodd" clip-rule="evenodd" d="M65.7938 45.2943C65.9392 45.2659 66.0846 45.2659 66.2299 45.2659C66.1427 44.5834 65.9101 43.4175 65.7647 42.9626C65.6193 42.5076 65.4449 42.1664 65.125 42.0811C65.125 42.0811 65.3576 42.7066 65.503 43.3607C65.6193 44.0431 65.7356 44.6687 65.7938 45.2943Z" fill="white"/>
<path fill-rule="evenodd" clip-rule="evenodd" d="M64.0501 47.6256C64.6607 47.4835 65.2713 46.8294 65.2713 46.8294C64.3118 46.9716 64.0501 47.6256 64.0501 47.6256ZM64.9805 47.5688C64.1373 48.0522 63.1777 47.9953 63.1777 47.9953C63.3522 47.6541 63.5267 47.3697 64.0791 46.9716C64.6025 46.6019 65.4749 46.5166 65.8238 46.5451C65.7075 46.801 65.3876 47.3413 64.9805 47.5688Z" fill="white"/>
<path fill-rule="evenodd" clip-rule="evenodd" d="M61.8112 48.9334V48.8765C60.968 48.9903 59.9793 48.9334 59.9793 48.9334C60.0375 49.2462 60.1538 49.4737 60.3864 49.6159C60.4446 48.9334 61.8112 48.9334 61.8112 48.9334ZM59.0488 48.0519C59.0488 48.0519 60.0956 48.45 61.1715 48.3931C62.2183 48.3362 64.1665 48.3078 64.8062 48.0234C64.8062 48.0234 64.719 48.4215 64.1956 48.649C64.1956 48.649 64.4573 48.649 64.719 48.8765C64.719 48.8765 64.5736 49.1893 64.1083 49.3599C64.1083 49.3599 64.9225 50.1846 65.7658 50.1277C65.7658 50.1277 65.3587 50.6111 64.4863 50.4405C63.614 50.2414 63.3232 49.758 63.1778 49.5874C63.1778 49.5874 63.2942 50.0424 63.236 50.2414C63.236 50.2414 62.858 50.213 62.5381 49.8433C62.5381 49.8433 62.7708 50.213 62.7998 50.5258C62.7998 50.5258 62.5672 50.5542 62.1311 50.2983C62.1311 50.2983 62.2183 50.5258 62.2474 50.8102C62.2474 50.8102 61.2296 50.4974 60.7353 50.0424C60.7353 50.0424 60.7353 50.3552 60.7644 50.5258C60.7353 50.4974 59.1651 50.3268 59.0488 48.0519Z" fill="white"/>
<path fill-rule="evenodd" clip-rule="evenodd" d="M58.7873 48.2227C58.8164 48.7061 58.9618 49.1895 59.1362 49.5308C59.1362 49.5308 58.5256 49.0758 58.3511 48.6777C58.2058 48.308 58.1767 48.0237 58.7873 48.2227Z" fill="white"/>
<path fill-rule="evenodd" clip-rule="evenodd" d="M57.5371 50.0708C57.6825 50.0708 57.7988 49.957 57.7988 49.8148C57.7988 49.6727 57.6825 49.5589 57.5371 49.5589C57.3918 49.5589 57.2754 49.6727 57.2754 49.8148C57.2754 49.957 57.3918 50.0708 57.5371 50.0708ZM59.0783 49.7864C59.4853 49.9855 59.8634 50.412 59.8634 50.412C59.2236 50.5542 58.9619 50.7248 58.9619 50.7248C57.7407 49.9002 56.7521 50.7248 56.7521 50.7248C56.1123 50.3551 55.967 49.4736 56.2868 48.9902C56.6067 48.5068 57.3627 48.5921 57.7116 48.6774C57.9152 49.3883 58.7003 49.6158 59.0783 49.7864Z" fill="white"/>
<path fill-rule="evenodd" clip-rule="evenodd" d="M59.9787 50.5547C59.9787 50.5547 60.4149 51.1234 60.7348 51.3793C60.7348 51.3793 59.1064 51.3509 58.6993 52.7443C58.6993 52.7443 58.1469 51.8912 58.5539 51.3509C59.0192 50.7822 59.4263 50.6969 59.9787 50.5547Z" fill="white"/>
<path fill-rule="evenodd" clip-rule="evenodd" d="M61.7812 50.9239C61.7812 50.9239 62.3046 51.0661 62.4791 51.1229C62.4791 51.1229 62.4791 50.8101 62.4791 50.668C62.6245 50.6964 62.828 50.7533 63.0025 50.7817C63.0025 50.7817 63.5259 51.9192 63.933 52.4026C63.933 52.4026 63.9621 52.6585 63.7294 53.0566C63.7294 53.0566 63.4387 52.3741 62.8862 51.8338C62.5954 51.4926 62.3919 51.3504 61.7812 50.9239Z" fill="white"/>
<path fill-rule="evenodd" clip-rule="evenodd" d="M60.3867 50.668C60.5612 50.7248 61.4044 50.9808 61.8115 51.2651C62.3349 51.6348 62.6838 52.0329 62.6257 52.7438C62.6257 52.7438 62.2186 52.1751 61.7534 51.9192C61.3754 51.7201 60.7357 51.1514 60.3867 50.668Z" fill="white"/>
<path fill-rule="evenodd" clip-rule="evenodd" d="M60.416 45.4648C60.5614 45.4648 60.8812 45.5502 60.8812 45.7776C60.8812 46.0336 60.5032 46.6307 60.3869 46.8866C60.2706 46.6307 59.8926 46.0336 59.8926 45.7776C59.8926 45.5217 60.1834 45.4648 60.3578 45.4648H60.416Z" fill="white"/>
<path fill-rule="evenodd" clip-rule="evenodd" d="M60.0656 47.37C60.0075 47.0288 59.8621 46.1188 59.6295 45.9198C59.4259 45.7207 59.1061 45.7207 58.9607 45.7207C58.8153 45.7207 58.6408 45.8913 58.699 46.0904C58.7571 46.2894 59.4259 47.2847 59.5132 47.4269C59.7167 47.3984 59.6876 47.3984 60.0656 47.37Z" fill="white"/>
<path fill-rule="evenodd" clip-rule="evenodd" d="M60.6484 47.37C60.7357 47.0288 60.852 46.1188 61.0846 45.9198C61.2881 45.7207 61.608 45.7207 61.7534 45.7207C61.8988 45.7207 62.0732 45.8913 62.0151 46.0904C61.9569 46.2894 61.2881 47.2847 61.2009 47.4269C61.0264 47.3984 61.0555 47.3984 60.6484 47.37Z" fill="white"/>
<path fill-rule="evenodd" clip-rule="evenodd" d="M61.0847 44.2699H60.5613V43.7012H60.1543V44.2699H59.6309V44.6111H60.1543V45.2936H60.5613V44.6111H61.0847V44.2699Z" fill="white"/>
<path fill-rule="evenodd" clip-rule="evenodd" d="M54.7454 47.9389C54.7454 47.8251 54.7454 47.7114 54.7744 47.5976C54.8035 47.3133 54.8035 47.0858 54.7744 46.8867C54.3964 47.0289 54.1347 47.1142 53.6113 47.9389C53.6113 47.9673 54.4546 47.4554 54.7454 47.9389Z" fill="white"/>
<path fill-rule="evenodd" clip-rule="evenodd" d="M55.4717 49.2463C55.4717 49.0472 55.6171 48.3932 55.7915 47.9382C55.9951 47.3695 55.8787 46.5733 55.6171 46.0614C55.3844 45.578 55.239 45.1515 55.2681 44.6396C55.2681 44.6396 54.7738 44.8103 54.483 44.9809C54.4249 45.5496 54.7738 46.1183 54.9483 46.4596C55.1518 46.8577 55.0937 47.3411 55.0646 47.6539C55.0064 48.1657 55.0937 48.7344 55.4717 49.2463Z" fill="white"/>
<path fill-rule="evenodd" clip-rule="evenodd" d="M55.5308 44.8676C55.5017 44.8108 55.5017 44.6117 55.5599 44.5548C55.5599 44.5548 56.345 43.8155 56.9847 43.7018C57.3918 43.6165 57.6535 43.7871 57.7698 43.9008C57.7698 43.9008 57.5372 43.8724 57.1882 44.1567C56.8393 44.4411 56.4031 44.7539 56.0833 44.8392C55.7344 44.9245 55.6762 44.8961 55.5308 44.8676Z" fill="white"/>
<path fill-rule="evenodd" clip-rule="evenodd" d="M57.7979 43.9287C58.0887 44.2131 58.3213 44.5259 58.3213 44.7818C58.3213 45.0662 58.0015 45.7486 57.827 46.0045C57.6525 46.2605 57.4199 46.6017 57.449 47.0282C57.4781 47.2273 57.6234 47.4548 57.7979 47.6254C57.7979 47.6254 56.8384 47.3979 56.722 46.8292C56.6348 46.3173 56.8384 45.9477 57.0128 45.6633C57.1582 45.4074 57.5944 44.7818 57.7107 44.4974C57.7979 44.2699 57.8561 44.0709 57.7979 43.9287Z" fill="white"/>
<path fill-rule="evenodd" clip-rule="evenodd" d="M63.3223 50.4121C63.4967 51.0661 63.8457 51.6917 64.1364 52.1751C64.4272 52.6301 64.6017 53.341 64.5726 53.5969C64.5726 53.5969 65.0088 52.6586 64.7761 52.0045C64.6308 51.4927 64.1946 50.7249 63.3223 50.4121Z" fill="white"/>
<path fill-rule="evenodd" clip-rule="evenodd" d="M64.3984 50.6396C64.3984 50.6396 65.0381 50.6396 65.358 50.8387C65.736 51.0946 66.114 51.6349 66.2594 52.3174C66.2594 52.3174 65.5906 52.2036 65.2708 51.8908C64.9509 51.578 64.5438 51.0946 64.3984 50.6396Z" fill="white"/>
<path fill-rule="evenodd" clip-rule="evenodd" d="M61.0266 51.7773C60.9103 51.7773 60.5614 51.8627 60.416 51.9195C60.416 51.9195 60.9685 52.0901 61.2593 52.3176C61.4919 52.5167 61.6954 52.801 61.7827 53.3129C61.9281 53.9954 62.3351 54.7631 62.4514 54.9906H62.5096C62.4224 54.5072 62.7422 53.5119 62.8295 53.3698C62.8295 53.3698 62.3933 53.1138 62.1897 52.8295C62.0153 52.5736 61.7536 52.2323 61.0266 51.7773Z" fill="white"/>
<path fill-rule="evenodd" clip-rule="evenodd" d="M63.9036 53.2842C64.049 53.6538 64.4852 54.3079 64.2816 54.9619C64.0781 55.6444 63.6419 55.9287 63.3511 56.4974C63.3511 56.4974 63.1476 55.4738 63.1767 54.6775C63.2639 53.8813 63.5547 53.5685 63.9036 53.2842Z" fill="white"/>
<path fill-rule="evenodd" clip-rule="evenodd" d="M65.1553 53.3125C65.1553 53.3125 65.795 54.5352 65.9113 55.0187C66.0276 55.5021 65.9113 55.8149 65.7077 56.0992C65.5042 56.3836 65.1262 56.6964 64.7773 57.322C64.7773 57.322 64.3702 56.8101 64.3411 56.5258C64.2829 56.2414 64.3702 55.6158 64.4574 55.3315C64.5446 55.0755 64.8645 54.194 65.1553 53.3125Z" fill="white"/>
<path fill-rule="evenodd" clip-rule="evenodd" d="M65.5029 57.2373C65.3575 57.3795 64.6015 58.2894 64.5143 58.5454C64.427 58.8013 64.2526 59.2847 64.4852 59.6544C64.7178 59.9956 65.2703 60.5359 65.7355 60.7634C65.7355 60.7634 65.2412 59.9672 65.2703 59.3416C65.2994 58.9435 65.6192 58.5738 65.6774 58.3179C65.7065 58.0619 65.6774 57.6354 65.5029 57.2373Z" fill="white"/>
<path fill-rule="evenodd" clip-rule="evenodd" d="M64.0216 56.7539C64.1379 56.9245 64.3415 57.2942 64.3705 57.6639C64.3996 58.0335 64.3415 58.3179 64.1379 58.8582C63.8762 59.5406 63.4691 60.3084 63.2947 60.6496C63.2947 60.6496 62.9457 60.1378 62.7422 59.7113C62.7422 59.7113 63.2947 58.9719 63.5273 58.4316C63.789 57.806 63.9053 57.2373 64.0216 56.7539Z" fill="white"/>
<path fill-rule="evenodd" clip-rule="evenodd" d="M63.7591 56.4688C63.7591 56.4688 63.5264 58.2318 62.4797 59.5114C61.7818 60.3929 61.2002 60.7057 60.8222 60.7057C60.2407 60.7057 59.6591 60.2223 59.4847 59.682C59.2811 59.1417 59.3393 58.3171 59.7173 58.0043C59.7173 58.0043 60.0662 59.0564 60.7932 59.0849C61.6073 59.1417 62.6832 58.2318 63.7591 56.4688Z" fill="white"/>
<path fill-rule="evenodd" clip-rule="evenodd" d="M62.8876 55.7295C62.9749 56.0423 63.0039 56.5257 62.8876 56.9807C62.8004 57.3219 62.5969 57.7769 62.1898 58.0328C61.8408 58.2603 60.9976 58.2887 60.6777 57.521C60.6777 57.521 62.2188 57.6347 62.8876 55.7295Z" fill="white"/>
<path fill-rule="evenodd" clip-rule="evenodd" d="M65.3879 62.8105C65.5914 63.3508 66.3474 64.0049 66.3474 64.403C66.3474 65.4835 65.8531 66.166 65.7368 66.5072C65.7368 66.5072 64.8354 65.8248 64.69 65.0286C64.6028 64.6305 64.69 63.4077 65.3879 62.8105Z" fill="white"/>
<path fill-rule="evenodd" clip-rule="evenodd" d="M64.3992 63.5781C64.5155 63.2937 64.8353 62.5259 65.2134 62.2416C65.2134 62.2416 65.7077 60.8482 64.1375 59.9951C64.1375 59.9951 63.4978 60.8198 63.3233 61.616C63.1779 62.3837 64.0212 62.8672 64.3992 63.5781Z" fill="white"/>
<path fill-rule="evenodd" clip-rule="evenodd" d="M62.4507 60.0234C62.189 60.3362 61.8401 60.7343 61.5784 60.8481C61.5784 60.8481 61.4911 61.4737 61.5493 61.9002C61.6365 62.5258 62.0436 63.1514 62.2181 63.6064C62.2181 63.6064 62.8869 62.7249 62.9741 62.213C63.0613 61.7012 63.0322 61.2746 63.0613 61.0187C63.0613 61.0471 62.6833 60.45 62.4507 60.0234Z" fill="white"/>
<path fill-rule="evenodd" clip-rule="evenodd" d="M60.6775 63.0379C60.4739 62.7535 59.8633 61.7014 59.8633 60.9336C59.8633 60.9336 60.6193 61.3317 61.259 61.0473C61.259 61.0473 61.3462 62.0426 61.2299 62.3838C61.1136 62.6398 60.9682 62.8104 60.6775 63.0379Z" fill="white"/>
<path fill-rule="evenodd" clip-rule="evenodd" d="M60.8516 63.2366C60.9679 63.1228 61.2877 62.8385 61.404 62.6963C61.404 62.6963 61.8984 63.6062 61.9856 63.8906C61.9856 63.8906 61.7239 63.9475 61.4622 63.7484C61.2005 63.5778 61.1133 63.5209 60.8516 63.2366Z" fill="white"/>
<path fill-rule="evenodd" clip-rule="evenodd" d="M63.2072 62.6963C63.149 62.9238 62.3348 64.0612 62.1895 64.175C62.1895 64.175 62.2476 64.5731 62.5675 65.1702C62.8582 65.7389 63.2944 66.1655 63.527 66.3645C63.527 66.3645 64.0504 65.483 64.1958 65.1134C64.3703 64.6868 64.3412 64.2318 64.283 64.0897C64.0504 63.72 63.4689 63.1797 63.2072 62.6963Z" fill="white"/>
<path fill-rule="evenodd" clip-rule="evenodd" d="M64.4269 65.6543C64.6014 66.024 65.1539 66.6211 65.2411 67.0761C65.2993 67.4458 65.2411 67.7586 65.1539 68.0145C65.0376 68.2704 64.7177 68.7538 64.5142 69.1235C64.5142 69.1235 63.7581 68.4126 63.6128 67.9292C63.4964 67.5595 63.5255 67.0192 63.7 66.7064C63.8745 66.3652 64.2525 65.9955 64.4269 65.6543Z" fill="white"/>
<path fill-rule="evenodd" clip-rule="evenodd" d="M62.3053 65.54C62.5089 65.9666 62.9741 66.3647 63.0613 66.7344C63.1776 67.1609 63.2358 67.4453 63.0032 67.9571C62.7996 68.3836 62.5961 68.668 62.5089 68.9239C62.5089 68.9239 61.8982 68.1562 61.7819 67.8149C61.6947 67.5021 61.6365 66.9618 61.7819 66.6206C61.9273 66.3078 62.1599 65.8528 62.3053 65.54Z" fill="white"/>
<path fill-rule="evenodd" clip-rule="evenodd" d="M65.2996 68.498C65.2996 68.498 64.2528 69.7492 64.2818 70.4033C64.3109 71.2279 64.8634 71.7682 64.9506 72.28C64.9506 72.28 65.5031 71.6544 65.7066 71.2563C65.9393 70.8014 66.1137 70.4033 66.0556 69.8914C65.9974 69.3511 65.852 69.0383 65.2996 68.498Z" fill="white"/>
<path fill-rule="evenodd" clip-rule="evenodd" d="M63.3809 68.3838C63.5554 68.6113 64.0206 69.4359 63.8752 69.9193C63.7298 70.4027 63.2355 71.0852 63.061 71.3696C63.061 71.3696 62.654 70.5449 62.5667 70.1468C62.4504 69.7772 62.5376 69.1516 63.3809 68.3838Z" fill="white"/>
<path fill-rule="evenodd" clip-rule="evenodd" d="M66.5789 44.5826C66.6371 44.1276 67.1896 43.1039 67.1896 42.6773C67.1896 42.3361 66.8988 42.0518 66.5499 42.0518C66.2009 42.0518 65.9102 42.3361 65.9102 42.6773C65.9392 43.1039 66.4917 44.0992 66.5789 44.5826Z" fill="white"/>
<path fill-rule="evenodd" clip-rule="evenodd" d="M68.3537 45.5784C68.9061 44.2703 69.2842 43.332 69.2551 43.0192C69.2551 42.8201 69.0225 42.6779 68.7898 42.6211C68.5572 42.5642 68.3828 42.5357 68.2374 42.6495C67.9466 42.877 67.6849 44.6116 67.5977 45.3509C67.8594 45.3793 68.0338 45.4078 68.3537 45.5784Z" fill="white"/>
<path fill-rule="evenodd" clip-rule="evenodd" d="M67.3366 45.2943C67.1912 45.2659 67.0458 45.2659 66.9004 45.2659C66.9876 44.5834 67.2202 43.4175 67.3656 42.9626C67.511 42.5076 67.6855 42.1664 68.0053 42.0811C68.0053 42.0811 67.7727 42.7066 67.6273 43.3607C67.5401 44.0431 67.4238 44.6687 67.3366 45.2943Z" fill="white"/>
<path fill-rule="evenodd" clip-rule="evenodd" d="M67.8596 46.8295C67.8596 46.8295 68.4702 47.4835 69.0808 47.6257C69.1099 47.6257 68.8482 46.9716 67.8596 46.8295ZM67.3652 46.5451C67.7142 46.4882 68.5865 46.602 69.1099 46.9716C69.6333 47.3413 69.8078 47.6541 69.9822 47.9953C69.9822 47.9953 69.0227 48.0806 68.1794 47.5688C67.7723 47.3413 67.4234 46.801 67.3652 46.5451Z" fill="white"/>
<path fill-rule="evenodd" clip-rule="evenodd" d="M72.7739 49.616C73.0065 49.4738 73.1228 49.2463 73.181 48.9335C73.181 48.9335 72.1923 48.9619 71.3491 48.8766V48.9335C71.3491 48.9335 72.7157 48.9335 72.7739 49.616ZM72.425 50.4975C72.454 50.3269 72.454 50.0141 72.454 50.0141C71.9597 50.4691 70.942 50.7818 70.942 50.7818C70.9711 50.5259 71.0292 50.27 71.0292 50.27C70.5931 50.5259 70.3604 50.4975 70.3604 50.4975C70.4186 50.1847 70.6221 49.815 70.6221 49.815C70.3314 50.1847 69.9243 50.2131 69.9243 50.2131C69.8661 50.0141 69.9824 49.5591 69.9824 49.5591C69.837 49.7582 69.5463 50.2416 68.6739 50.4122C67.8016 50.6112 67.3945 50.0994 67.3945 50.0994C68.2669 50.1563 69.052 49.3316 69.052 49.3316C68.6158 49.161 68.4413 48.8482 68.4413 48.8482C68.703 48.6207 68.9647 48.6207 68.9647 48.6207C68.4704 48.3932 68.3541 47.9951 68.3541 47.9951C68.9938 48.3079 70.942 48.3079 71.9888 48.3648C73.0356 48.4217 74.0824 48.0236 74.0824 48.0236C73.9951 50.3269 72.425 50.4975 72.425 50.4975Z" fill="white"/>
<path fill-rule="evenodd" clip-rule="evenodd" d="M74.3724 48.2227C74.3433 48.7061 74.1979 49.1895 74.0234 49.5308C74.0234 49.5308 74.6341 49.0758 74.8085 48.6777C74.9539 48.308 74.983 48.0237 74.3724 48.2227Z" fill="white"/>
<path fill-rule="evenodd" clip-rule="evenodd" d="M75.8557 49.8147C75.8557 49.6726 75.7394 49.5588 75.594 49.5588C75.4486 49.5588 75.3323 49.6726 75.3323 49.8147C75.3323 49.9569 75.4486 50.0707 75.594 50.0707C75.7394 50.0707 75.8557 49.9569 75.8557 49.8147ZM75.4486 48.7057C75.7976 48.6204 76.5245 48.5351 76.8734 49.0185C77.1933 49.5019 77.077 50.3835 76.4082 50.7531C76.4082 50.7531 75.4195 49.9 74.1983 50.7531C74.1983 50.7531 73.9075 50.5825 73.2969 50.4403C73.2969 50.4403 73.6749 49.9853 74.082 49.8147C74.46 49.6157 75.2451 49.3882 75.4486 48.7057Z" fill="white"/>
<path fill-rule="evenodd" clip-rule="evenodd" d="M73.1505 50.5547C73.1505 50.5547 72.7144 51.1234 72.3945 51.3793C72.3945 51.3793 74.0229 51.3509 74.43 52.7443C74.43 52.7443 74.9824 51.8912 74.5754 51.3509C74.1392 50.7822 73.7321 50.6969 73.1505 50.5547Z" fill="white"/>
<path fill-rule="evenodd" clip-rule="evenodd" d="M71.3775 50.9239C71.3775 50.9239 70.8541 51.0661 70.6797 51.1229C70.6797 51.1229 70.6797 50.8101 70.6797 50.668C70.5343 50.6964 70.3307 50.7533 70.1563 50.7817C70.1563 50.7817 69.6329 51.9192 69.2258 52.4026C69.2258 52.4026 69.1967 52.6585 69.4293 53.0566C69.4293 53.0566 69.7201 52.3741 70.2435 51.8338C70.5633 51.4926 70.7669 51.3504 71.3775 50.9239Z" fill="white"/>
<path fill-rule="evenodd" clip-rule="evenodd" d="M72.7739 50.668C72.5994 50.7248 71.7562 50.9808 71.3491 51.2651C70.8547 51.6348 70.5058 52.0329 70.5349 52.7438C70.5349 52.7438 70.942 52.1751 71.4072 51.9192C71.7852 51.7201 72.4249 51.1514 72.7739 50.668Z" fill="white"/>
<path fill-rule="evenodd" clip-rule="evenodd" d="M72.7445 45.4648C72.5992 45.4648 72.2793 45.5502 72.2793 45.7776C72.2793 46.0336 72.6573 46.6307 72.7736 46.8866C72.8899 46.6307 73.2679 46.0336 73.2679 45.7776C73.2679 45.5217 72.9772 45.4648 72.8027 45.4648H72.7445Z" fill="white"/>
<path fill-rule="evenodd" clip-rule="evenodd" d="M73.0938 47.37C73.1519 47.0288 73.2973 46.1188 73.5299 45.9198C73.7335 45.7207 74.0242 45.7207 74.1987 45.7207C74.3441 45.7207 74.5186 45.8913 74.4313 46.0904C74.3732 46.2894 73.7044 47.2847 73.6171 47.4269C73.4427 47.3984 73.4718 47.3984 73.0938 47.37Z" fill="white"/>
<path fill-rule="evenodd" clip-rule="evenodd" d="M72.4821 47.37C72.3948 47.0288 72.2785 46.1188 72.0459 45.9198C71.8423 45.7207 71.5225 45.7207 71.3771 45.7207C71.2317 45.7207 71.0572 45.8913 71.1445 46.0904C71.2026 46.2894 71.8714 47.2847 71.9587 47.4269C72.1331 47.3984 72.104 47.3984 72.4821 47.37Z" fill="white"/>
<path fill-rule="evenodd" clip-rule="evenodd" d="M72.0762 44.2699H72.5996V43.7012H73.0067V44.2699H73.5301V44.6111H73.0067V45.2936H72.5996V44.6111H72.0762V44.2699Z" fill="white"/>
<path fill-rule="evenodd" clip-rule="evenodd" d="M65.8535 40.8861H66.3478V40.3174H66.784V40.8861H67.3074V41.2273H66.784V41.9098H66.3478V41.2273H65.8535V40.8861Z" fill="white"/>
<path fill-rule="evenodd" clip-rule="evenodd" d="M78.4142 47.9389C78.4142 47.8251 78.4142 47.7114 78.3851 47.5976C78.3561 47.3133 78.327 47.0858 78.3851 46.8867C78.7631 47.0289 79.0248 47.1142 79.5482 47.9389C79.5482 47.9673 78.705 47.4554 78.4142 47.9389Z" fill="white"/>
<path fill-rule="evenodd" clip-rule="evenodd" d="M77.6872 49.2463C77.6872 49.0472 77.5418 48.3932 77.3673 47.9382C77.1638 47.3695 77.2801 46.5733 77.5418 46.0614C77.7744 45.578 77.9198 45.1515 77.8907 44.6396C77.8907 44.6396 78.385 44.8103 78.6758 44.9809C78.734 45.5496 78.385 46.1183 78.2106 46.4596C78.007 46.8577 78.0652 47.3411 78.0943 47.6539C78.1524 48.1657 78.0361 48.7344 77.6872 49.2463Z" fill="white"/>
<path fill-rule="evenodd" clip-rule="evenodd" d="M77.6296 44.8676C77.6587 44.8108 77.6296 44.6117 77.6005 44.5548C77.6005 44.5548 76.8445 43.8155 76.1757 43.7018C75.7686 43.6165 75.5069 43.7871 75.3906 43.9008C75.3906 43.9008 75.6232 43.8724 75.9722 44.1567C76.3211 44.4411 76.7573 44.7539 77.0771 44.8392C77.4261 44.9245 77.4842 44.8961 77.6296 44.8676Z" fill="white"/>
<path fill-rule="evenodd" clip-rule="evenodd" d="M75.3613 43.9287C75.0705 44.2131 74.8379 44.5259 74.8379 44.7818C74.8379 45.0662 75.1577 45.7486 75.3322 46.0045C75.5067 46.2605 75.7393 46.6017 75.7102 47.0282C75.7102 47.2273 75.5648 47.4548 75.3904 47.6254C75.3904 47.6254 76.3499 47.3979 76.4372 46.8292C76.5535 46.3173 76.3209 45.9477 76.1755 45.6633C76.0301 45.4074 75.5939 44.7818 75.4776 44.4974C75.3613 44.2699 75.3031 44.0709 75.3613 43.9287Z" fill="white"/>
<path fill-rule="evenodd" clip-rule="evenodd" d="M69.8073 50.4121C69.6038 51.0661 69.2839 51.6917 68.9932 52.1751C68.7024 52.6301 68.5279 53.341 68.557 53.5969C68.557 53.5969 68.1208 52.6586 68.3535 52.0045C68.5279 51.4927 68.9641 50.7249 69.8073 50.4121Z" fill="white"/>
<path fill-rule="evenodd" clip-rule="evenodd" d="M68.7614 50.6396C68.7614 50.6396 68.1216 50.6396 67.8018 50.8387C67.4238 51.0946 67.0458 51.6349 66.9004 52.3174C66.9004 52.3174 67.5692 52.2036 67.889 51.8908C68.2089 51.578 68.616 51.0946 68.7614 50.6396Z" fill="white"/>
<path fill-rule="evenodd" clip-rule="evenodd" d="M72.1038 51.7773C72.2201 51.7773 72.5691 51.8627 72.7144 51.9195C72.7144 51.9195 72.162 52.0901 71.9003 52.3176C71.6677 52.5167 71.4641 52.801 71.3769 53.3129C71.2315 53.9954 70.8244 54.7631 70.7081 54.9906H70.6499C70.7372 54.5072 70.4173 53.5119 70.3301 53.3698C70.3301 53.3698 70.7662 53.1138 70.9698 52.8295C71.1152 52.5736 71.406 52.2323 72.1038 51.7773Z" fill="white"/>
<path fill-rule="evenodd" clip-rule="evenodd" d="M69.2261 53.2842C69.0807 53.6538 68.6446 54.3079 68.8481 54.9619C69.0516 55.6444 69.4878 55.9287 69.7786 56.4974C69.7786 56.4974 70.0112 55.4738 69.953 54.6775C69.8949 53.8813 69.6041 53.5685 69.2261 53.2842Z" fill="white"/>
<path fill-rule="evenodd" clip-rule="evenodd" d="M66.5787 55.161C66.6078 54.7629 67.5383 53.8245 67.4801 53.2842C67.422 52.7724 66.7241 52.4027 66.5496 52.3174C66.3752 52.4027 65.6773 52.7439 65.6191 53.2842C65.6191 53.8245 66.5496 54.7629 66.5787 55.161Z" fill="white"/>
<path fill-rule="evenodd" clip-rule="evenodd" d="M68.0053 53.3125C68.0053 53.3125 67.3656 54.5352 67.2493 55.0187C67.133 55.5021 67.2493 55.8149 67.4529 56.0992C67.6564 56.3836 68.0344 56.6964 68.3834 57.322C68.3834 57.322 68.7904 56.8101 68.8195 56.5258C68.8777 56.2414 68.7904 55.6158 68.7032 55.3315C68.616 55.0755 68.267 54.194 68.0053 53.3125Z" fill="white"/>
<path fill-rule="evenodd" clip-rule="evenodd" d="M66.5791 58.0621C66.8698 57.8061 67.1315 57.4365 67.2188 57.209C67.306 56.9815 67.306 56.6687 67.1315 56.4128C66.8989 56.1284 66.6082 55.7872 66.5791 55.5312H66.55C66.5209 55.7872 66.2301 56.1284 65.9975 56.4128C65.794 56.6687 65.8231 56.9815 65.9103 57.209C65.9975 57.4649 66.2883 57.8346 66.5791 58.0621Z" fill="white"/>
<path fill-rule="evenodd" clip-rule="evenodd" d="M67.6564 57.2373C67.8018 57.3795 68.5579 58.2894 68.6451 58.5454C68.7614 58.8013 68.9068 59.2847 68.6742 59.6544C68.4415 59.9956 67.8891 60.5359 67.4238 60.7634C67.4238 60.7634 67.9472 59.9672 67.8891 59.3416C67.86 58.9435 67.5401 58.5738 67.482 58.3179C67.4529 58.0619 67.482 57.6354 67.6564 57.2373Z" fill="white"/>
<path fill-rule="evenodd" clip-rule="evenodd" d="M69.1392 56.7539C69.0228 56.9245 68.8193 57.2942 68.7902 57.6639C68.7611 58.0335 68.8193 58.3179 69.0228 58.8582C69.2845 59.5406 69.6916 60.3084 69.8661 60.6496C69.8661 60.6496 70.215 60.1378 70.4186 59.7113C70.4186 59.7113 69.8661 58.9719 69.6335 58.4316C69.3718 57.806 69.2555 57.2373 69.1392 56.7539Z" fill="white"/>
<path fill-rule="evenodd" clip-rule="evenodd" d="M69.4004 56.4688C69.4004 56.4688 69.633 58.2318 70.6798 59.5114C71.3777 60.3929 71.9592 60.7057 72.3372 60.7057C72.9188 60.7057 73.5003 60.2223 73.6748 59.682C73.8783 59.1417 73.8202 58.3171 73.4422 58.0043C73.4422 58.0043 73.0932 59.0564 72.3663 59.0849C71.5521 59.1417 70.4763 58.2318 69.4004 56.4688Z" fill="white"/>
<path fill-rule="evenodd" clip-rule="evenodd" d="M70.2427 55.7295C70.1555 56.0423 70.1264 56.5257 70.2427 56.9807C70.33 57.3219 70.5335 57.7769 70.9406 58.0328C71.2895 58.2603 72.1328 58.2887 72.4526 57.521C72.4817 57.521 70.9406 57.6347 70.2427 55.7295Z" fill="white"/>
<path fill-rule="evenodd" clip-rule="evenodd" d="M66.5804 60.934C66.784 60.8202 66.9875 60.7633 67.2201 60.3937C67.4237 60.1093 67.5981 59.569 67.4818 59.1709C67.3655 58.6875 67.1038 58.5169 66.9294 58.2041C66.813 58.3178 66.7258 58.4032 66.5513 58.5169C66.3769 58.4316 66.3187 58.3463 66.1733 58.2041C65.9989 58.4885 65.7662 58.6875 65.6209 59.1709C65.5336 59.569 65.7081 60.1093 65.8826 60.3937C66.1733 60.7633 66.3478 60.8202 66.5804 60.934Z" fill="white"/>
<path fill-rule="evenodd" clip-rule="evenodd" d="M66.5798 63.891C66.6961 63.436 67.6847 62.5261 67.5684 62.0426C67.423 61.3033 66.9578 61.4739 66.5798 61.1611C66.2018 61.4739 65.7075 61.3033 65.5621 62.0426C65.4749 62.5261 66.4635 63.436 66.5798 63.891Z" fill="white"/>
<path fill-rule="evenodd" clip-rule="evenodd" d="M67.7721 62.8105C67.5685 63.3508 66.8125 64.0049 66.8125 64.403C66.8125 65.4835 67.3068 66.166 67.4231 66.5072C67.4231 66.5072 68.3245 65.8248 68.4699 65.0286C68.5572 64.6305 68.4408 63.4077 67.7721 62.8105Z" fill="white"/>
<path fill-rule="evenodd" clip-rule="evenodd" d="M68.761 63.5781C68.6738 63.2937 68.3248 62.5259 67.9468 62.2416C67.9468 62.2416 67.4525 60.8482 69.0227 59.9951C69.0227 59.9951 69.6624 60.8198 69.8369 61.616C69.9823 62.3837 69.139 62.8672 68.761 63.5781Z" fill="white"/>
<path fill-rule="evenodd" clip-rule="evenodd" d="M70.7081 60.0234C70.9408 60.3362 71.3188 60.7343 71.5805 60.8481C71.5805 60.8481 71.6677 61.4737 71.6095 61.9002C71.5223 62.5258 71.1152 63.1514 70.9698 63.6064C70.9698 63.6064 70.3011 62.7249 70.2138 62.213C70.1266 61.7012 70.1557 61.2746 70.1266 61.0187C70.0975 61.0471 70.4755 60.45 70.7081 60.0234Z" fill="white"/>
<path fill-rule="evenodd" clip-rule="evenodd" d="M72.4821 63.0379C72.6856 62.7535 73.2963 61.7014 73.2963 60.9336C73.2963 60.9336 72.5403 61.3317 71.9005 61.0473C71.9005 61.0473 71.8133 62.0426 71.9296 62.3838C72.0459 62.6398 72.1622 62.8104 72.4821 63.0379Z" fill="white"/>
<path fill-rule="evenodd" clip-rule="evenodd" d="M72.3079 63.2366C72.1915 63.1228 71.8717 62.8385 71.7554 62.6963C71.7554 62.6963 71.232 63.6062 71.1738 63.8906C71.1738 63.8906 71.4355 63.9475 71.6972 63.7484C71.9589 63.5778 72.0171 63.5209 72.3079 63.2366Z" fill="white"/>
<path fill-rule="evenodd" clip-rule="evenodd" d="M69.9529 62.6963C70.0111 62.9238 70.8253 64.0612 70.9706 64.175C70.9706 64.175 70.9125 64.5731 70.5926 65.1702C70.3019 65.7389 69.8657 66.1655 69.6331 66.3645C69.6331 66.3645 69.1388 65.483 68.9643 65.1134C68.7898 64.6868 68.8189 64.2318 68.8771 64.0897C69.0806 63.72 69.6912 63.1797 69.9529 62.6963Z" fill="white"/>
<path fill-rule="evenodd" clip-rule="evenodd" d="M66.5798 69.3507C66.6671 69.0379 67.1323 68.6682 67.3359 68.1279C67.4522 67.8151 67.4522 67.4455 67.3359 67.1895C67.1905 66.9052 66.6671 66.1658 66.5798 65.9668C66.5217 66.1658 65.9983 66.9052 65.8238 67.1895C65.7075 67.4455 65.6784 67.8151 65.7947 68.1279C66.0274 68.6967 66.4926 69.0379 66.5798 69.3507Z" fill="white"/>
<path fill-rule="evenodd" clip-rule="evenodd" d="M68.7321 65.6543C68.5576 66.024 68.0052 66.6211 67.9179 67.0761C67.8598 67.4458 67.9179 67.7586 68.0052 68.0145C68.1215 68.2704 68.4413 68.7538 68.6449 69.1235C68.6449 69.1235 69.4009 68.4126 69.5463 67.9292C69.6626 67.5595 69.6335 67.0192 69.43 66.7064C69.2846 66.3652 68.8775 65.9955 68.7321 65.6543Z" fill="white"/>
<path fill-rule="evenodd" clip-rule="evenodd" d="M70.8539 65.54C70.6503 65.9666 70.1851 66.3647 70.0979 66.7344C69.9816 67.1609 69.9234 67.4453 70.156 67.9571C70.3596 68.3836 70.5631 68.668 70.6503 68.9239C70.6503 68.9239 71.261 68.1562 71.3482 67.8149C71.4645 67.5021 71.4936 66.9618 71.3482 66.6206C71.2028 66.3078 70.9993 65.8528 70.8539 65.54Z" fill="white"/>
<path fill-rule="evenodd" clip-rule="evenodd" d="M66.5791 75.3221C66.6082 74.9524 67.4224 73.7581 67.4515 72.5353C67.4805 71.9097 66.899 70.9429 66.5791 70.5732H66.5501C66.2302 70.9429 65.6777 71.9097 65.6777 72.5353C65.7359 73.7581 66.521 74.924 66.5791 75.3221Z" fill="white"/>
<path fill-rule="evenodd" clip-rule="evenodd" d="M67.8591 68.498C67.8591 68.498 68.9059 69.7492 68.8768 70.4033C68.8477 71.2279 68.2952 71.7682 68.208 72.28C68.208 72.28 67.6555 71.6544 67.452 71.2563C67.2194 70.8014 67.0449 70.4033 67.1031 69.8914C67.1612 69.3511 67.2775 69.0383 67.8591 68.498Z" fill="white"/>
<path fill-rule="evenodd" clip-rule="evenodd" d="M69.7779 68.3838C69.6034 68.6113 69.1382 69.4359 69.2836 69.9193C69.429 70.4027 69.9233 71.0852 70.0978 71.3696C70.0978 71.3696 70.5048 70.5449 70.5921 70.1468C70.7084 69.7772 70.5921 69.1516 69.7779 68.3838Z" fill="white"/>
<path fill-rule="evenodd" clip-rule="evenodd" d="M67.2782 77.3132C67.3364 76.3464 67.8889 75.7777 68.0052 75.2658C68.1215 74.6971 68.0924 74.1853 67.6562 73.5312C67.3073 74.7256 66.9002 75.6071 66.6095 76.2042C66.6095 76.2327 66.5804 76.2327 66.5804 76.2611C66.5804 76.2327 66.5804 76.2327 66.5513 76.2042C66.2605 75.6071 65.8534 74.7256 65.5045 73.5312C65.0683 74.1568 65.0393 74.6971 65.1265 75.2658C65.2137 75.7777 65.7953 76.3464 65.8534 77.3132C65.9116 78.2801 64.8066 78.6497 64.8066 78.6497C65.1846 78.7919 65.5917 78.8488 66.2896 78.2232C66.4059 78.1094 66.4931 77.9957 66.5804 77.8535C66.6385 77.9957 66.7548 78.1094 66.8712 78.2232C67.5399 78.8488 67.9761 78.7919 68.3541 78.6497C68.3541 78.6497 67.2201 78.2801 67.2782 77.3132Z" fill="white"/>
<path fill-rule="evenodd" clip-rule="evenodd" d="M63.8178 70.8574C63.9341 71.2271 64.283 71.8811 64.3121 72.1086C64.3993 72.4783 64.283 72.9617 63.5561 73.4451C63.5561 73.4451 63.0908 73.1323 62.9164 72.7058C62.7419 72.3077 62.8582 72.0233 63.0327 71.8242C63.2072 71.6536 63.6142 71.1702 63.8178 70.8574Z" fill="white"/>
<path fill-rule="evenodd" clip-rule="evenodd" d="M65.2992 72.3076C65.2992 72.5067 65.1539 73.5872 64.834 74.156C64.3978 74.9237 63.7291 75.4925 63.1475 75.4925C62.6241 75.4925 62.5078 75.1797 62.2461 75.0659C62.2461 75.0659 62.3915 74.4119 62.973 74.2413C63.7291 73.9853 64.834 73.1038 65.2992 72.3076Z" fill="white"/>
<path fill-rule="evenodd" clip-rule="evenodd" d="M63.3811 73.7015C63.2648 73.6162 63.1485 73.5593 63.0031 73.3887C63.0031 73.3887 62.4506 73.5877 61.9854 73.9005C61.5201 74.2133 61.0549 74.7252 60.8223 75.0095C60.8223 75.0095 61.5201 75.1801 61.9563 74.9811C61.9563 74.9811 62.1017 74.3271 62.6251 74.0427C62.7123 73.9574 63.0612 73.8721 63.3811 73.7015Z" fill="white"/>
<path fill-rule="evenodd" clip-rule="evenodd" d="M62.7986 73.1327C62.6823 72.9621 62.4788 72.6493 62.5078 72.1943C62.5078 72.1943 61.5192 72.8199 61.2284 73.0474C60.9377 73.2749 60.327 73.9005 60.1816 74.0996C60.1816 74.0996 60.9377 73.9289 61.4901 73.7583C62.1589 73.5593 62.566 73.2749 62.7986 73.1327Z" fill="white"/>
<path fill-rule="evenodd" clip-rule="evenodd" d="M61.1412 74.1846C60.6178 74.3836 59.4256 74.5542 58.9313 74.6964C58.437 74.8386 58.0881 75.0945 57.5938 75.6064C57.5938 75.6064 58.3207 75.8054 58.6987 75.9192C58.6987 75.9192 59.3093 75.4926 60.0072 75.2367C60.4724 75.0945 60.676 74.6395 61.1412 74.1846Z" fill="white"/>
<path fill-rule="evenodd" clip-rule="evenodd" d="M60.037 77.6253C60.1533 77.5116 60.2987 77.3694 60.1824 77.0566C60.0951 76.8291 59.6881 76.6016 59.4264 76.4879C58.9902 76.2888 57.8271 75.976 57.42 75.8623C57.42 75.8623 57.2165 76.0898 57.1292 76.3173C57.0711 76.4026 57.1292 76.4879 57.3037 76.5163C57.6235 76.5732 58.4086 76.431 58.6122 76.5448C58.8157 76.6869 58.7285 76.8576 58.7285 77.0282C58.7285 77.0282 59.0774 76.8007 59.3101 76.8576C59.6881 76.9713 59.8625 77.1135 60.037 77.6253Z" fill="white"/>
<path fill-rule="evenodd" clip-rule="evenodd" d="M58.9902 76.0048C59.0775 76.0333 59.5427 76.1755 59.9789 76.4598C59.9789 76.4598 60.1824 76.3745 60.2696 76.2039C60.3569 76.0333 60.764 75.4361 61.142 75.3793C61.142 75.3793 60.8221 75.3508 60.6477 75.2939C60.6477 75.2939 60.2696 75.3793 60.008 75.493C59.7463 75.5783 59.3973 75.7489 58.9902 76.0048Z" fill="white"/>
<path fill-rule="evenodd" clip-rule="evenodd" d="M62.0436 75.2656C61.9854 75.2941 61.84 75.3509 61.5783 75.3794C61.5783 75.3794 60.5315 76.0903 60.4152 76.8012C60.328 77.3983 60.6478 77.6827 60.7932 77.768C60.9386 77.8533 61.6656 78.1377 62.1599 77.1708C62.1599 77.1708 61.3457 77.4268 61.1422 77.0571C60.9386 76.6874 61.2876 76.1187 61.4911 75.9765C61.7819 75.7775 62.3053 75.6353 62.596 75.6637C62.596 75.6637 62.3343 75.4078 62.0436 75.2656Z" fill="white"/>
<path fill-rule="evenodd" clip-rule="evenodd" d="M55.2391 83.3694C55.3554 82.8575 55.5008 82.3173 55.7334 81.8054C56.1986 80.8386 57.3617 78.2225 59.7461 77.7675C59.9787 77.7391 59.4844 77.1703 59.2808 77.1988C59.0773 77.2272 58.6411 77.4831 58.4376 77.6253C58.4376 77.6253 58.4376 77.0566 58.4376 76.9713C58.4376 76.8575 58.3504 76.8291 58.2631 76.8291C58.1759 76.8291 57.5943 76.8291 57.4199 77.0282C56.8674 77.6537 55.9369 79.3315 55.4426 80.5827C54.9192 81.8338 54.5703 82.2035 54.0178 82.0329C53.4653 81.8338 53.1455 81.2083 52.1859 81.4073C51.8661 81.4642 51.488 81.6917 51.1973 82.0329C51.2845 82.1751 51.3717 82.3741 51.837 82.3741C52.2731 82.3741 53.1455 82.5447 53.6107 82.886C54.0469 83.1988 54.5703 83.3125 55.2391 83.3694Z" fill="white"/>
<path fill-rule="evenodd" clip-rule="evenodd" d="M64.8055 75.3223C64.8637 75.7204 65.0672 76.09 65.2708 76.4881C65.2708 76.4881 64.5438 79.8152 61.8978 80.0711C61.8978 80.0711 61.9559 79.3886 62.741 78.8483C63.5261 78.3365 64.6892 77.5118 64.602 76.2891C64.602 76.2891 64.3984 76.3175 64.0204 76.8009C63.6424 77.2559 62.8282 78.5924 61.5488 78.5924C61.5488 78.5924 61.7524 77.9668 62.3048 77.5971C62.8573 77.2275 63.5843 76.7725 63.9041 76.2322C64.253 75.6635 64.602 75.4076 64.8055 75.3223Z" fill="white"/>
<path fill-rule="evenodd" clip-rule="evenodd" d="M63.584 87.3788L65.1833 89.5968L66.4045 87.4641L65.9683 86.6963C65.6485 87.265 65.2996 87.8622 65.1251 88.2034C64.9797 88.0043 64.5726 87.4356 64.0492 86.6963L63.584 87.3788Z" fill="white"/>
<path fill-rule="evenodd" clip-rule="evenodd" d="M63.1771 85.5019C61.6069 83.3408 59.6878 80.6678 59.4843 80.4119L60.0949 79.9853L58.1758 79.2744L58.2049 81.3218L58.8446 80.8668L62.7119 86.2128L63.1771 85.5019Z" fill="white"/>
<path fill-rule="evenodd" clip-rule="evenodd" d="M49.9472 73.3888C50.4124 72.8769 51.2266 73.3319 52.0117 74.0428C52.8259 74.7821 53.3202 75.5215 52.8549 76.0333C52.4188 76.5167 51.5755 76.0902 50.7613 75.3793C50.0053 74.6399 49.4819 73.9006 49.9472 73.3888Z" fill="white"/>
<path fill-rule="evenodd" clip-rule="evenodd" d="M51.2565 82.4028C51.2274 82.3743 51.1983 82.3743 51.1692 82.3459C50.7331 81.9762 50.5005 81.4075 50.5005 80.7819C50.5005 79.5876 51.4891 78.6208 52.7104 78.6208C53.9316 78.6208 54.9202 79.5876 54.9202 80.7819C54.9202 80.9525 54.8912 81.2085 54.8912 81.2085C54.9784 81.0094 55.3564 80.1848 55.4146 80.0426C55.0947 78.8767 53.9898 78.0236 52.7104 78.0236C51.6054 78.0236 50.6458 78.6492 50.1806 79.5876C50.3551 78.4786 50.9075 77.5118 51.3146 77.1421C51.7799 76.7156 52.594 76.5734 52.594 76.5734C52.0706 76.6587 51.3728 76.3459 50.6168 75.635C49.8898 74.981 49.5118 74.3838 49.4827 73.9004C49.5409 74.5829 49.5118 74.9525 49.3083 75.5212C49.0466 76.289 48.3196 77.6824 48.5813 79.2464C48.7267 80.0994 49.3664 81.4075 50.4423 82.4596C50.6749 82.6871 50.7622 83.0568 50.7912 83.2274C50.7912 83.2274 52.3614 83.2274 52.7394 83.2558C52.7394 83.2558 53.1174 83.2274 53.1174 82.9999C53.1174 82.7724 52.9139 82.7156 52.7104 82.7156C52.4777 82.6871 51.6926 82.7156 51.2565 82.4028Z" fill="white"/>
<path fill-rule="evenodd" clip-rule="evenodd" d="M59.9497 82.9434C58.932 83.313 57.9143 83.4836 56.9838 83.6258C56.3441 83.7111 55.7625 83.7396 55.1519 83.7111C55.1519 83.7964 55.1519 83.9386 55.0938 84.0239C55.0938 84.0239 55.2101 84.1661 55.2101 84.3083C55.7916 84.3367 56.4313 84.3083 57.0419 84.1945C58.0887 84.0239 59.1937 83.8249 60.2986 83.4268L59.9497 82.9434Z" fill="white"/>
<path fill-rule="evenodd" clip-rule="evenodd" d="M61.6067 82.8579C62.9443 82.147 64.2528 81.0095 65.445 79.2465L65.6485 78.9053C65.3287 79.0475 64.9216 78.9337 64.9216 78.9337C64.8925 78.9621 64.8344 79.0475 64.8344 79.1043C63.7294 80.6967 62.5081 81.7204 61.2578 82.3745L61.6067 82.8579Z" fill="white"/>
<path fill-rule="evenodd" clip-rule="evenodd" d="M52.7686 83.4268C52.5941 83.3984 51.9835 83.4268 51.6346 83.4553C51.2566 83.5121 50.8204 83.5974 50.7622 83.7965C50.7332 83.9955 50.8495 84.1946 51.053 84.5074C51.1693 84.7064 51.4601 84.5927 51.6346 84.5358C51.78 84.479 52.7104 83.9955 52.8558 83.8534C53.0012 83.6827 53.0594 83.4553 52.7686 83.4268Z" fill="white"/>
<path fill-rule="evenodd" clip-rule="evenodd" d="M53.6992 83.9953C53.612 83.9384 53.3793 83.8531 53.1176 83.9384C52.885 84.0237 51.9836 84.5356 51.9254 84.7915C51.8673 85.0474 51.9836 85.1612 52.129 85.2181C52.2744 85.2749 52.4198 85.3318 52.5652 85.3318C52.7978 85.3602 53.0013 85.2181 53.1176 85.0759C53.2339 84.9337 53.641 84.4503 53.6992 84.3365C53.7573 84.2228 53.7864 84.0806 53.6992 83.9953Z" fill="white"/>
<path fill-rule="evenodd" clip-rule="evenodd" d="M53.814 84.5644C53.6686 84.7066 53.3197 85.1331 53.2906 85.2184C53.2615 85.2753 53.3197 85.3891 53.436 85.3891C53.5523 85.3891 54.1629 85.3037 54.5119 85.0763C54.8608 84.8488 55.0934 84.3654 54.8608 84.2232C54.5991 84.0241 54.2211 84.1094 53.814 84.5644Z" fill="white"/>
<path fill-rule="evenodd" clip-rule="evenodd" d="M54.0181 83.2272C53.9018 83.1988 53.4366 83.085 53.3493 83.2272C53.233 83.4263 53.3203 83.6253 53.6692 83.7959C54.0181 83.9666 54.716 84.1087 54.8614 83.9097C54.9486 83.7391 54.7742 83.4263 54.0181 83.2272Z" fill="white"/>
<path fill-rule="evenodd" clip-rule="evenodd" d="M69.3415 70.8574C69.2252 71.2271 68.8763 71.8811 68.8472 72.1086C68.76 72.4783 68.8763 72.9617 69.6032 73.4451C69.6032 73.4451 70.0685 73.1323 70.2429 72.7058C70.4174 72.3077 70.3302 72.0233 70.1266 71.8242C69.9522 71.6536 69.516 71.1702 69.3415 70.8574Z" fill="white"/>
<path fill-rule="evenodd" clip-rule="evenodd" d="M67.8594 72.3076C67.8594 72.5067 68.0048 73.5872 68.3246 74.156C68.7608 74.9237 69.4296 75.4925 69.982 75.4925C70.5054 75.4925 70.6217 75.1797 70.8834 75.0659C70.8834 75.0659 70.7381 74.4119 70.1565 74.2413C69.4296 73.9853 68.2955 73.1038 67.8594 72.3076Z" fill="white"/>
<path fill-rule="evenodd" clip-rule="evenodd" d="M69.7773 73.7015C69.8937 73.6162 70.01 73.5593 70.1554 73.3887C70.1554 73.3887 70.7369 73.5877 71.2021 73.9005C71.6674 74.2133 72.1036 74.7252 72.3652 75.0095C72.3652 75.0095 71.6674 75.1801 71.2312 74.9811C71.2312 74.9811 71.0568 74.3271 70.5624 74.0427C70.4461 73.9574 70.0972 73.8721 69.7773 73.7015Z" fill="white"/>
<path fill-rule="evenodd" clip-rule="evenodd" d="M70.3301 73.1327C70.4464 72.9621 70.6499 72.6493 70.6209 72.1943C70.6209 72.1943 71.6095 72.8199 71.9003 73.0474C72.191 73.2749 72.8017 73.9005 72.9471 74.0996C72.9471 74.0996 72.191 73.9289 71.6386 73.7583C70.9989 73.5593 70.5627 73.2749 70.3301 73.1327Z" fill="white"/>
<path fill-rule="evenodd" clip-rule="evenodd" d="M71.9883 74.1846C72.5117 74.3836 73.7039 74.5542 74.1982 74.6964C74.6925 74.8386 75.0705 75.0945 75.5358 75.6064C75.5358 75.6064 74.8088 75.8054 74.4308 75.9192C74.4308 75.9192 73.8202 75.4926 73.1223 75.2367C72.6861 75.0945 72.4535 74.6395 71.9883 74.1846Z" fill="white"/>
<path fill-rule="evenodd" clip-rule="evenodd" d="M73.0924 77.6253C72.9761 77.5116 72.8307 77.3694 72.9471 77.0566C73.0343 76.8291 73.4705 76.6016 73.7031 76.4879C74.1392 76.2888 75.3023 75.976 75.6804 75.8623C75.6804 75.8623 75.8839 76.0898 75.9711 76.3173C76.0002 76.4026 75.9421 76.4879 75.7967 76.5163C75.4768 76.5732 74.6626 76.431 74.4882 76.5448C74.2846 76.6869 74.3428 76.8576 74.3428 77.0282C74.3428 77.0282 73.9939 76.8007 73.7612 76.8576C73.4705 76.9713 73.2669 77.1135 73.0924 77.6253Z" fill="white"/>
<path fill-rule="evenodd" clip-rule="evenodd" d="M74.14 76.0048C74.0528 76.0333 73.5875 76.1755 73.1514 76.4598C73.1514 76.4598 72.9478 76.3745 72.8606 76.2039C72.7734 76.0333 72.3663 75.4361 71.9883 75.3793C71.9883 75.3793 72.3081 75.3508 72.4826 75.2939C72.4826 75.2939 72.8606 75.3793 73.1514 75.493C73.4131 75.5783 73.762 75.7489 74.14 76.0048Z" fill="white"/>
<path fill-rule="evenodd" clip-rule="evenodd" d="M71.1157 75.2656C71.1738 75.2941 71.3192 75.3509 71.5809 75.3794C71.5809 75.3794 72.6277 76.0903 72.744 76.8012C72.8603 77.3983 72.5405 77.6827 72.366 77.768C72.2206 77.8533 71.4937 78.1377 71.0285 77.1708C71.0285 77.1708 71.8426 77.4268 72.0462 77.0571C72.2497 76.6874 71.9008 76.1187 71.6972 75.9765C71.4065 75.7775 70.8831 75.6353 70.5923 75.6637C70.5632 75.6637 70.7958 75.4078 71.1157 75.2656Z" fill="white"/>
<path fill-rule="evenodd" clip-rule="evenodd" d="M77.8902 83.3694C77.7739 82.8575 77.6285 82.3173 77.3959 81.8054C76.9306 80.8386 75.7675 78.2225 73.3832 77.7675C73.1506 77.7391 73.6449 77.1703 73.8484 77.1988C74.052 77.2272 74.4881 77.4831 74.6917 77.6253C74.6917 77.6253 74.6917 77.0566 74.6917 76.9713C74.6917 76.8575 74.7789 76.8291 74.8661 76.8291C74.9534 76.8291 75.5349 76.8291 75.7094 77.0282C76.2619 77.6537 77.1923 79.3315 77.7157 80.5827C78.2391 81.8338 78.5881 82.2035 79.1405 82.0329C79.693 81.8338 80.042 81.2083 80.9724 81.4073C81.3214 81.4642 81.6703 81.6917 81.9611 82.0329C81.8738 82.1751 81.7866 82.3741 81.3214 82.3741C80.8561 82.3741 80.0129 82.5447 79.5476 82.886C79.0824 83.1988 78.5881 83.3125 77.8902 83.3694Z" fill="white"/>
<path fill-rule="evenodd" clip-rule="evenodd" d="M68.3246 75.3223C68.2665 75.7204 68.0629 76.09 67.8594 76.4881C67.8594 76.4881 68.5863 79.8152 71.2324 80.0711C71.2324 80.0711 71.1742 79.3886 70.3891 78.8483C69.604 78.3365 68.4409 77.5118 68.5282 76.2891C68.5282 76.2891 68.7317 76.3175 69.1097 76.8009C69.4877 77.2559 70.3019 78.5924 71.5813 78.5924C71.5813 78.5924 71.4068 77.9668 70.8253 77.5971C70.2728 77.2275 69.5459 76.7725 69.226 76.2322C68.9062 75.6635 68.5572 75.4076 68.3246 75.3223Z" fill="white"/>
<path fill-rule="evenodd" clip-rule="evenodd" d="M66.5796 78.5352C66.725 78.9617 67.7427 80.3551 68.1788 80.7532C68.615 81.1513 69.6909 82.2034 70.2434 82.7153C70.2434 82.7153 68.615 82.3171 67.7136 81.4925C67.7136 81.4925 67.0739 81.8622 66.5796 81.8622H66.5505C66.0853 81.8622 65.4165 81.4925 65.4165 81.4925C64.5151 82.3171 62.8867 82.7153 62.8867 82.7153C63.4392 82.2034 64.5151 81.1513 64.9512 80.7532C65.4165 80.3551 66.4051 78.9617 66.5796 78.5352Z" fill="white"/>
<path fill-rule="evenodd" clip-rule="evenodd" d="M66.5791 82.2041C66.9281 82.2041 67.277 82.0619 67.4805 81.9766C67.277 82.3747 66.9281 83.0003 66.5791 83.2562C66.2302 83.0003 65.8813 82.3747 65.6777 81.9766C65.8522 82.0619 66.2011 82.2041 66.5791 82.2041Z" fill="white"/>
<path fill-rule="evenodd" clip-rule="evenodd" d="M67.9754 89.5967L74.3143 80.8668L74.954 81.3218L74.9831 79.2744L73.064 79.9853L73.6746 80.4119C73.3548 80.8384 68.6151 87.3787 68.0336 88.2033L65.1549 83.0848L64.806 83.6251L62.2471 87.4356L61.6074 87.009V89.028L63.5556 88.2602L62.9159 87.8337C63.2648 87.3218 64.6606 85.246 65.1258 84.5635L67.9754 89.5967Z" fill="white"/>
<path fill-rule="evenodd" clip-rule="evenodd" d="M69.1383 86.1561C68.7021 85.5305 68.295 84.8764 68.0624 84.5636C67.917 84.848 67.5681 85.4452 67.2191 86.0707L66.7539 85.2745L67.9752 83.085L68.3241 83.6252L69.6035 85.502L69.1383 86.1561Z" fill="white"/>
<path fill-rule="evenodd" clip-rule="evenodd" d="M70.4468 86.7256L70.912 87.408L71.5517 86.9815V89.0005L69.6035 88.2327L70.2432 87.8062C70.1851 87.6924 70.0688 87.5502 69.9524 87.3512L70.4468 86.7256Z" fill="white"/>
<path fill-rule="evenodd" clip-rule="evenodd" d="M83.1829 73.3888C82.7176 72.8769 81.9034 73.3319 81.0893 74.0428C80.2751 74.7821 79.7808 75.5215 80.246 76.0333C80.6822 76.5167 81.5254 76.0902 82.3396 75.3793C83.1538 74.6399 83.6772 73.9006 83.1829 73.3888Z" fill="white"/>
<path fill-rule="evenodd" clip-rule="evenodd" d="M81.9042 82.4028C81.9333 82.3743 81.9623 82.3743 81.9914 82.3459C82.4276 81.9762 82.6602 81.4075 82.6602 80.7819C82.6602 79.5876 81.6716 78.6208 80.4503 78.6208C79.2291 78.6208 78.2404 79.5876 78.2404 80.7819C78.2404 80.9525 78.2695 81.2085 78.2695 81.2085C78.1823 81.0094 77.8042 80.1848 77.7461 80.0426C78.0659 78.8767 79.1709 78.0236 80.4503 78.0236C81.5553 78.0236 82.5148 78.6492 82.9801 79.5876C82.8056 78.4786 82.2531 77.5118 81.8751 77.1421C81.4099 76.7156 80.5957 76.5734 80.5957 76.5734C81.1191 76.6587 81.817 76.3459 82.573 75.635C83.2999 74.981 83.6779 74.3838 83.707 73.9004C83.6488 74.5829 83.6779 74.9525 83.8815 75.5212C84.1432 76.289 84.8701 77.6824 84.6084 79.2464C84.463 80.0994 83.8233 81.4075 82.7765 82.4596C82.5439 82.6871 82.4567 83.0568 82.4276 83.2274C82.4276 83.2274 80.8574 83.2274 80.4794 83.2558C80.4794 83.2558 80.1014 83.2274 80.1014 82.9999C80.1014 82.7724 80.3049 82.7156 80.5085 82.7156C80.6829 82.6871 81.468 82.7156 81.9042 82.4028Z" fill="white"/>
<path fill-rule="evenodd" clip-rule="evenodd" d="M71.5223 82.8579C70.1847 82.147 68.8762 81.038 67.684 79.2465L67.4805 78.9053C67.8003 79.0475 68.2074 78.9337 68.2074 78.9337C68.2365 78.9621 68.2656 79.0475 68.2946 79.1043C69.3996 80.6967 70.6209 81.7204 71.8712 82.3745L71.5223 82.8579Z" fill="white"/>
<path fill-rule="evenodd" clip-rule="evenodd" d="M73.181 82.915C74.1987 83.2847 75.2164 83.4553 76.1469 83.6259C76.7866 83.7112 77.3972 83.7397 77.9788 83.7112C77.9788 83.7966 77.9788 83.9387 78.0369 84.024C78.0369 84.024 77.9206 84.1662 77.9206 84.3084C77.31 84.3368 76.6994 84.3084 76.0887 84.1947C75.0419 84.024 73.937 83.825 72.832 83.4269L73.181 82.915Z" fill="white"/>
<path fill-rule="evenodd" clip-rule="evenodd" d="M80.391 83.4268C80.5654 83.3984 81.176 83.4268 81.525 83.4553C81.903 83.5121 82.3392 83.5974 82.3973 83.7965C82.4264 83.9955 82.3101 84.1946 82.1065 84.5074C81.9902 84.7064 81.6994 84.5927 81.525 84.5358C81.3505 84.479 80.4491 83.9955 80.3037 83.8534C80.1583 83.6827 80.1002 83.4553 80.391 83.4268Z" fill="white"/>
<path fill-rule="evenodd" clip-rule="evenodd" d="M79.4605 83.9953C79.5477 83.9384 79.8094 83.8531 80.0421 83.9384C80.2747 84.0237 81.1761 84.5356 81.2342 84.7915C81.2924 85.0474 81.1761 85.1612 81.0307 85.2181C80.8853 85.2749 80.7108 85.3318 80.5945 85.3318C80.3619 85.3602 80.1584 85.2181 80.0421 85.0759C79.9257 84.9337 79.5187 84.4503 79.4314 84.3365C79.4023 84.2228 79.3733 84.0806 79.4605 83.9953Z" fill="white"/>
<path fill-rule="evenodd" clip-rule="evenodd" d="M79.3455 84.5644C79.4618 84.7066 79.8398 85.1331 79.8689 85.2184C79.9271 85.2753 79.8398 85.3891 79.7235 85.3891C79.6072 85.3891 78.9966 85.3037 78.6476 85.0763C78.2987 84.8488 78.0661 84.3654 78.2987 84.2232C78.5604 84.0241 78.9384 84.1094 79.3455 84.5644Z" fill="white"/>
<path fill-rule="evenodd" clip-rule="evenodd" d="M79.1405 83.2272C79.2569 83.1988 79.7221 83.085 79.8384 83.2272C79.9547 83.4263 79.8675 83.6253 79.5186 83.7959C79.1696 83.9666 78.4718 84.1087 78.3554 83.9097C78.2101 83.7391 78.3845 83.4263 79.1405 83.2272Z" fill="white"/>
<path fill-rule="evenodd" clip-rule="evenodd" d="M107.869 101H180.999V29H107.869V101Z" fill="#CC003D"/>
<path fill-rule="evenodd" clip-rule="evenodd" d="M166.78 51.8337C166.78 51.5209 166.838 49.2745 166.838 48.9901H167.391C169.542 48.9901 169.891 49.3598 170.095 51.8337H166.78ZM172.857 50.611C172.508 47.8243 171.2 46.374 168.06 46.374H164.076L163.523 62.0707H166.431C166.431 62.0707 166.693 54.7911 166.722 54.4499C167.042 54.4499 170.095 54.4499 170.386 54.4499C170.415 54.7626 170.967 62.0707 170.967 62.0707H173.962C173.991 62.0707 172.945 51.2935 172.857 50.611Z" fill="white"/>
<path fill-rule="evenodd" clip-rule="evenodd" d="M131.567 73.4169C131.567 73.1041 131.625 70.8576 131.625 70.5733L132.149 70.5448C134.301 70.5448 134.679 70.9429 134.882 73.4453H131.567V73.4169ZM137.644 72.1657C137.296 69.379 135.987 67.9287 132.847 67.9287H128.863L128.311 83.6254H131.218C131.218 83.6254 131.48 76.3458 131.509 76.0045C131.829 76.0045 134.882 76.0045 135.173 76.0045C135.202 76.3173 135.754 83.6254 135.754 83.6254H138.749C138.749 83.6538 137.732 72.8481 137.644 72.1657Z" fill="white"/>
<path fill-rule="evenodd" clip-rule="evenodd" d="M115.865 46.374V62.0707H118.802V48.9901H122.437V62.0707H125.374V46.374H115.865Z" fill="white"/>
<path fill-rule="evenodd" clip-rule="evenodd" d="M146.892 51.8337H145.293C144.624 51.8337 144.13 51.6916 143.839 51.4072C143.606 51.2081 143.519 50.9238 143.519 50.5541V46.374H140.582V50.8669C140.582 51.8906 140.989 52.7721 141.803 53.4546C142.617 54.1371 143.606 54.4783 144.74 54.4783H146.892V62.0707H149.829V46.374H146.892V51.8337Z" fill="white"/>
<path fill-rule="evenodd" clip-rule="evenodd" d="M153.086 46.374V48.9901H155.528V62.0707H155.558H158.465H158.494V48.9901H160.937V46.374H153.086Z" fill="white"/>
<path fill-rule="evenodd" clip-rule="evenodd" d="M148.782 67.9287V72.9619H144.74V67.9287H141.832V83.6538H144.74V75.578H148.782V83.6538H151.718V67.9287H148.782Z" fill="white"/>
<path fill-rule="evenodd" clip-rule="evenodd" d="M119.791 81.2083C119.5 81.2083 118.802 81.1515 118.802 81.1515V78.0804V77.7676V75.6349C118.802 75.6349 119.035 75.578 119.296 75.578C120.779 75.578 122.553 75.4927 122.553 78.3932C122.524 81.0377 120.605 81.2083 119.791 81.2083ZM120.169 73.0756C119.674 73.0756 119.209 73.0756 118.802 73.1041V70.5448H124.065V67.9287H115.865V70.5448V83.6254H116.069H120.314C124.763 83.6254 125.432 79.7297 125.432 78.3079C125.461 76.6017 124.763 73.0756 120.169 73.0756Z" fill="white"/>
<path fill-rule="evenodd" clip-rule="evenodd" d="M131.074 54.2516C131.103 50.0146 132.179 48.5928 133.284 48.5928C134.418 48.6212 135.465 50.0146 135.494 54.2516C135.465 58.4032 134.389 59.825 133.284 59.8535C132.15 59.825 131.074 58.4032 131.074 54.2516ZM138.431 53.6544C138.372 51.408 137.994 49.7871 137.384 48.6497C136.424 46.6876 134.912 45.9767 133.342 45.9482H133.313H133.284C131.714 45.9767 130.202 46.6876 129.242 48.6497C128.631 49.7871 128.253 51.408 128.195 53.6544V54.1663C128.195 55.5596 128.341 56.9245 128.661 58.0051C129.475 61.2184 131.336 62.3558 133.284 62.3843H133.313H133.342H133.371H133.4C135.348 62.3558 137.209 61.2184 138.024 58.0051C138.343 56.9245 138.489 55.5596 138.489 54.1663C138.431 54.1663 138.431 53.6828 138.431 53.6544Z" fill="white"/>
<path fill-rule="evenodd" clip-rule="evenodd" d="M166.316 83.6255L162.797 74.4122C163.524 73.872 164.106 72.8483 164.367 71.8246C164.6 70.8293 164.949 67.9288 164.949 67.9288H162.07C162.041 68.2132 161.983 69.2084 161.896 70.2321C161.75 71.7393 161.314 73.1042 159.744 73.1042H158.523C158.523 72.9904 158.523 67.9004 158.523 67.9004H155.586V83.5971H158.523V75.635C158.523 75.635 160.064 75.635 160.297 75.635L163.175 83.5971H166.316V83.6255Z" fill="white"/>
</g>
<defs>
<clipPath id="clip0_404_10505">
<rect width="151" height="72" fill="white" transform="translate(30 29)"/>
</clipPath>
</defs>
</svg>
