<svg width="210" height="130" viewBox="0 0 210 130" fill="none" xmlns="http://www.w3.org/2000/svg">
<g clip-path="url(#clip0_404_10499)">
<path d="M77.5478 56.6593C77.3528 56.4601 77.2414 56.2893 77.1021 56.0331C77.0185 55.9192 76.935 55.7769 76.8514 55.6345C77.1299 55.3214 77.3528 54.9513 77.5199 54.5528L78.1884 52.9587L76.5171 52.7025C76.2386 52.674 75.7651 52.5317 75.2358 52.3893C74.2052 52.1047 72.896 51.7631 71.4476 51.5923C71.949 51.3646 72.3389 50.966 72.6453 50.4536L72.9239 49.9412C72.9239 49.9412 72.8403 49.2296 72.5896 49.0018C72.701 48.7741 72.7846 48.5464 72.8125 48.2617L73.0353 47.123L71.9768 46.753C71.8097 46.6961 71.6426 46.6391 71.4754 46.6107C71.4197 46.4114 71.3362 46.1837 71.1969 45.9559L70.5562 44.7603L69.4142 45.4435C69.1356 45.6143 68.8849 45.8136 68.69 46.0413C68.5228 46.0129 68.3278 45.9844 68.1329 45.9844C68.1329 45.9844 67.4922 45.899 66.768 46.1837L65.8488 45.2158L64.7624 44.0202C63.7318 42.91 62.3669 42.5684 60.9463 43.1093C60.4171 42.5684 59.5536 42.1129 58.2723 42.1129C57.8266 42.1129 57.4366 42.1699 57.2138 42.1983C57.2138 42.1983 55.4032 42.5399 54.4005 43.5078L53.1749 42.91C52.3392 44.2195 50.9465 44.6465 50.9465 44.6465C50.8629 44.2479 50.6958 43.9063 50.4451 43.5647L50.5287 43.1093C50.5287 43.0808 50.8072 41.5152 51.6429 40.1772L53.1192 37.843L51.0579 38.0707C51.0579 37.8714 51.0579 37.6152 51.03 37.3306L50.8351 35.5087L49.2195 36.2489C48.9967 36.3912 48.8574 36.4766 48.7181 36.562L48.3838 35.8503L47.6318 36.2489C47.5482 36.0496 47.4646 35.8503 47.3254 35.5941L46.4897 34L45.2641 35.3379C45.1527 35.4803 45.0413 35.5941 44.9299 35.7365L44.2056 34.9963L43.4536 35.7365C43.37 35.6226 43.2586 35.4803 43.1193 35.3379L41.9215 34L41.058 35.6226C40.9188 35.8788 40.8352 36.0781 40.7516 36.2773L39.9996 35.8788L39.6932 36.562C39.5539 36.4766 39.4146 36.3912 39.2196 36.3058L37.5762 35.5657L37.4091 37.3875C37.3812 37.6722 37.3812 37.9284 37.3812 38.1276L35.2921 37.8999L36.7684 40.2342C37.6041 41.5721 37.8826 43.1377 37.8826 43.1662L37.9662 43.6217C37.7433 43.9633 37.5762 44.3049 37.4648 44.7034C37.4648 44.7034 36.1278 44.1341 35.2364 42.9669L33.9829 43.5647C32.5623 42.5684 31.671 42.1983 30.139 42.1414C28.8298 42.1129 27.9942 42.5969 27.4649 43.1377C26.0443 42.5969 24.6795 42.91 23.6488 44.0487C23.6488 44.0487 22.9803 44.7888 22.5625 45.2443C22.1447 45.6997 21.504 46.0698 21.504 46.0698C21.504 46.0698 20.6127 45.8705 19.6935 46.0698C19.4985 45.8421 19.2478 45.6428 18.9692 45.472L17.8272 44.8173L17.1865 46.0129C17.0751 46.2406 16.9915 46.4683 16.908 46.6676C16.7408 46.6961 16.5737 46.7245 16.4066 46.8099L15.3481 47.18L15.5709 48.3186C15.6267 48.6033 15.7102 48.831 15.8216 49.0588C15.7659 49.1726 15.7102 49.315 15.6545 49.4288L15.4874 49.9697L15.7659 50.4821C16.0445 51.023 16.4623 51.4215 16.9637 51.6492C15.5152 51.7916 14.2061 52.1616 13.1754 52.4463C12.6462 52.5886 12.2005 52.7025 11.8941 52.7594L10.2228 53.0156L10.6128 53.8981L10.9192 54.6097C11.0863 55.0083 11.3092 55.3783 11.5877 55.6915C11.4763 55.8338 11.0585 56.517 10.8635 56.7163L10 57.5418L10.8078 58.4527C10.9192 58.5666 11.8106 59.5344 13.3147 59.5344C13.7325 59.5344 14.1225 59.449 14.5125 59.3067C14.9024 59.933 15.376 60.5877 15.7938 60.9008C15.0139 61.8402 14.1225 62.6657 12.8412 63.292L11.7827 63.8044L12.2284 65.0569C12.5348 65.7971 13.1197 66.6226 14.2339 66.9357C13.9832 67.6758 13.8718 68.359 13.7882 68.9853C13.5376 70.4656 13.454 71.0634 12.1727 71.5188L11.0306 71.9174L11.3649 73.1129C11.6156 74.0808 12.0334 74.7071 12.4512 75.1341L11.6991 75.9881C11.6991 75.9881 13.5097 77.3545 15.2645 77.5253C15.2924 77.5253 16.7966 77.6391 17.4651 76.7567C17.7436 77.753 18.1614 78.6639 18.5514 79.5179C19.3592 81.2259 19.777 82.2507 19.2478 83.1616L18.05 85.2397L20.4177 85.1258C21.4483 85.0689 22.4232 85.0119 23.231 84.8127C23.231 84.8696 23.231 84.8981 23.231 84.955L23.036 86.7484L25.0973 86.2929C25.3201 86.236 25.5151 86.1506 25.7101 86.0367C26.9914 87.5739 29.1641 88.7695 32.1167 88.7695H32.2838L28.9134 90.1928L31.3646 91.5023C32.9802 92.3563 34.7907 93.0964 36.852 93.6942L36.5734 94.6905L37.799 95.0606C38.4954 95.2599 41.0023 95.9431 44.0385 95.9715H44.4006C47.4646 95.9431 49.9437 95.2599 50.6401 95.0606L51.8657 94.6905L51.5871 93.6942C53.6484 93.068 55.459 92.3563 57.0745 91.5023L59.5257 90.1928L56.1553 88.7695H56.3224C59.2751 88.7695 61.4477 87.5739 62.729 86.0367C62.924 86.1506 63.119 86.236 63.3418 86.2929L65.4031 86.7484L65.2081 84.955C65.2081 84.9265 65.2081 84.8696 65.2081 84.8127C66.0438 85.0119 66.9908 85.0973 68.0214 85.1258L70.3891 85.2397L69.1913 83.1616C68.6621 82.2507 69.0799 81.2259 69.8877 79.5179C70.2777 78.6924 70.6955 77.753 70.974 76.7567C71.4197 77.0983 71.9211 77.326 72.4225 77.4399C72.4225 77.4399 72.8125 77.5537 73.1746 77.5537C74.2331 77.5822 74.7344 77.2691 75.4587 76.8136L76.7678 75.9881L76.0158 75.1341C76.4336 74.7071 76.8235 74.0808 77.1021 73.1129L77.4364 71.9174L76.2943 71.5188C75.013 71.0634 74.9294 70.4656 74.6787 68.9853C74.5673 68.359 74.4559 67.6758 74.2331 66.9357C75.3472 66.6226 75.9322 65.7971 76.2386 65.0569L76.6843 63.8044L75.6258 63.292C74.3445 62.6657 73.4531 61.8687 72.6732 60.9008C73.1189 60.5877 73.5645 59.9614 73.9824 59.3067C74.3723 59.449 74.7901 59.5344 75.1801 59.5344C76.6564 59.5344 77.5756 58.5666 77.687 58.4527L78.4948 57.5418L77.5478 56.6593Z" fill="white"/>
<path d="M94.2606 74.2227H93.1185L89.4974 78.3218L89.4417 78.2934V74.2227H88.4668V83.0188H89.4417V78.7773L89.4974 78.7488L93.0628 83.0188H94.2884L90.4445 78.4926L94.2606 74.2227Z" fill="black"/>
<path d="M99.1355 81.624C98.8291 82.0795 98.3834 82.3072 97.7985 82.3072C97.4921 82.3072 97.1856 82.2218 96.8792 82.0225C96.6007 81.8517 96.35 81.624 96.1829 81.3678V78.0088C96.3779 77.7526 96.6007 77.5533 96.8792 77.354C97.1578 77.1548 97.492 77.0694 97.8542 77.0694C98.3555 77.0694 98.7734 77.2971 99.0798 77.7526C99.3862 78.208 99.5533 78.8343 99.5533 79.6314C99.609 80.5138 99.4419 81.1685 99.1355 81.624ZM99.7761 77.0978C99.5533 76.8132 99.2748 76.6139 98.9962 76.5C98.6898 76.3577 98.4113 76.3008 98.077 76.3008C97.7706 76.3008 97.4642 76.3577 97.1578 76.4716C96.8514 76.5854 96.545 76.7847 96.2386 77.0694H96.2107V76.4146H95.2637V85.6378L96.2107 85.1823V82.3926H96.2386C96.5171 82.6773 96.7957 82.8765 97.0464 82.9619C97.3249 83.0758 97.6035 83.1327 97.9099 83.1327C98.2163 83.1327 98.5505 83.0758 98.8569 82.9335C99.1633 82.7911 99.4419 82.5919 99.6926 82.3357C99.9433 82.051 100.138 81.7094 100.305 81.2539C100.473 80.7985 100.528 80.2861 100.528 79.6598C100.528 79.062 100.445 78.5496 100.333 78.1226C100.194 77.7241 99.999 77.3825 99.7761 77.0978Z" fill="black"/>
<path d="M102.785 79.3182C102.813 79.0051 102.869 78.692 102.952 78.4358C103.063 78.1796 103.175 77.9518 103.342 77.7526C103.509 77.5533 103.676 77.411 103.899 77.2971C104.094 77.1832 104.317 77.1263 104.54 77.1263C104.846 77.1263 105.125 77.1832 105.348 77.2971C105.57 77.411 105.738 77.5818 105.905 77.7526C106.044 77.9518 106.155 78.1796 106.239 78.4358C106.323 78.692 106.35 78.9766 106.35 79.2898H102.785V79.3182ZM106.573 77.2117C106.35 76.927 106.072 76.6993 105.738 76.5285C105.403 76.3577 105.013 76.3008 104.596 76.3008C104.206 76.3008 103.843 76.3862 103.509 76.5285C103.175 76.6708 102.896 76.8986 102.646 77.2117C102.395 77.5248 102.2 77.8664 102.061 78.2934C101.921 78.7204 101.838 79.2044 101.838 79.7168C101.838 80.2861 101.921 80.77 102.061 81.197C102.2 81.624 102.395 81.9941 102.646 82.2787C102.896 82.5634 103.175 82.7911 103.509 82.9335C103.843 83.0758 104.178 83.1612 104.54 83.1612C105.403 83.1612 106.128 82.8765 106.712 82.3072L106.155 81.7094C105.96 81.9087 105.71 82.051 105.459 82.1649C105.208 82.2787 104.93 82.3357 104.651 82.3357C104.15 82.3357 103.732 82.1364 103.37 81.7663C103.008 81.3963 102.813 80.8269 102.785 80.1153H107.27V79.6598C107.27 79.1474 107.214 78.692 107.102 78.2934C106.963 77.8664 106.796 77.5248 106.573 77.2117Z" fill="black"/>
<path d="M112.978 82.2505H109.524C109.775 81.7381 109.942 81.1973 110.026 80.571C110.109 79.9732 110.165 79.3754 110.221 78.8061L110.304 77.2404H112.978V82.2505ZM113.925 76.4434H109.441C109.413 77.2689 109.385 77.9805 109.357 78.5783C109.329 79.2046 109.274 79.7455 109.19 80.2009C109.134 80.6564 109.023 81.0834 108.939 81.3965C108.828 81.7381 108.689 81.9943 108.494 82.2221H107.881V84.9264H108.772V83.0191H113.619V84.9264H114.51V82.2221H113.925V76.4434Z" fill="black"/>
<path d="M117.881 80.0018L116.962 81.4821H116.906V76.415H115.959V83.0193H116.906L119.274 79.404L120.165 78.0376H120.221V83.0193H121.168V76.415H120.221L117.881 80.0018Z" fill="black"/>
<path d="M122.365 77.2404H124.399V83.0191H125.346V77.2404H127.407V76.4434H122.365V77.2404Z" fill="black"/>
<path d="M132.923 79.1478H129.525V76.415H128.578V83.0193H129.525V79.9733H132.923V83.0193H133.843V76.415H132.923V79.1478Z" fill="black"/>
<path d="M141.613 83.0193H142.56V76.415H141.613V83.0193Z" fill="black"/>
<path d="M139.581 81.9375C139.358 82.1368 139.024 82.2222 138.634 82.2222H136.767V79.8595H138.634C139.051 79.8595 139.386 79.9733 139.609 80.1726C139.831 80.3719 139.943 80.6565 139.943 81.0551C139.943 81.4251 139.831 81.7383 139.581 81.9375ZM138.634 79.034H136.767V76.415H135.82V83.0193H138.661C139.358 83.0193 139.887 82.8485 140.305 82.5353C140.723 82.2222 140.918 81.7098 140.918 81.0266C140.918 80.3719 140.723 79.8879 140.305 79.5464C139.887 79.2048 139.33 79.034 138.634 79.034Z" fill="black"/>
<path d="M145.123 79.3182C145.151 79.0051 145.207 78.692 145.29 78.4358C145.402 78.1796 145.513 77.9518 145.68 77.7526C145.848 77.5533 146.015 77.411 146.238 77.2971C146.433 77.1832 146.655 77.1263 146.878 77.1263C147.185 77.1263 147.463 77.1832 147.658 77.2971C147.881 77.411 148.048 77.5818 148.215 77.7526C148.355 77.9518 148.466 78.1796 148.549 78.4358C148.633 78.692 148.661 78.9766 148.661 79.2898H145.123V79.3182ZM148.884 77.2117C148.661 76.927 148.382 76.6993 148.048 76.5285C147.714 76.3577 147.324 76.3008 146.906 76.3008C146.516 76.3008 146.154 76.3862 145.82 76.5285C145.485 76.6708 145.207 76.8986 144.956 77.2117C144.706 77.5248 144.511 77.8664 144.371 78.2934C144.232 78.7204 144.148 79.2044 144.148 79.7168C144.148 80.2861 144.232 80.77 144.371 81.197C144.511 81.624 144.706 81.9941 144.956 82.2787C145.207 82.5634 145.485 82.7911 145.82 82.9335C146.154 83.0758 146.488 83.1612 146.85 83.1612C147.714 83.1612 148.438 82.8765 149.023 82.3072L148.466 81.7094C148.271 81.9087 148.02 82.051 147.77 82.1649C147.491 82.2787 147.24 82.3357 146.962 82.3357C146.46 82.3357 146.043 82.1364 145.68 81.7663C145.318 81.3963 145.123 80.8269 145.095 80.1153H149.552V79.6598C149.552 79.1474 149.497 78.692 149.385 78.2934C149.274 77.8664 149.107 77.5248 148.884 77.2117Z" fill="black"/>
<path d="M157.073 82.2223C156.628 82.2223 156.266 82.1369 155.931 81.9377C155.597 81.7669 155.346 81.5107 155.123 81.1691C154.901 80.8559 154.734 80.4574 154.622 80.0304C154.511 79.6034 154.455 79.1195 154.455 78.6071C154.455 78.0947 154.511 77.6108 154.622 77.1838C154.734 76.7568 154.901 76.3582 155.123 76.0451C155.346 75.732 155.625 75.4758 155.931 75.305C156.238 75.1342 156.6 75.0488 157.018 75.0488C157.435 75.0488 157.798 75.1342 158.104 75.2765C158.438 75.4188 158.745 75.675 159.023 76.0166L159.72 75.305C159.385 74.9064 158.995 74.5933 158.55 74.394C158.104 74.1948 157.603 74.1094 157.018 74.1094C156.488 74.1094 156.015 74.2232 155.569 74.4225C155.123 74.6218 154.734 74.9349 154.427 75.3334C154.093 75.732 153.842 76.1874 153.675 76.7568C153.508 77.3261 153.396 77.9524 153.396 78.6355C153.396 79.3472 153.48 79.9735 153.675 80.5428C153.842 81.1121 154.093 81.5676 154.427 81.9661C154.734 82.3647 155.123 82.6493 155.569 82.8771C156.015 83.0763 156.516 83.1902 157.045 83.1902C157.658 83.1902 158.215 83.0763 158.633 82.8486C159.079 82.6209 159.469 82.3077 159.803 81.9092L159.107 81.2545C158.522 81.8807 157.853 82.2223 157.073 82.2223Z" fill="black"/>
<path d="M163.117 80.0018L162.17 81.4821H162.115V76.415H161.195V83.0193H162.115L164.51 79.404L165.401 78.0376H165.457V83.0193H166.376V76.415H165.457L163.117 80.0018Z" fill="black"/>
<path d="M171.362 82.1372C171.139 82.2511 170.86 82.308 170.582 82.308C170.303 82.308 170.025 82.2511 169.802 82.1088C169.579 81.9664 169.384 81.7956 169.245 81.5679C169.078 81.3402 168.966 81.0555 168.911 80.7424C168.827 80.4293 168.799 80.0877 168.799 79.7176C168.799 79.3475 168.827 79.0059 168.911 78.6928C168.994 78.3797 169.106 78.1235 169.245 77.8957C169.384 77.668 169.579 77.4972 169.802 77.3549C170.025 77.2125 170.275 77.1556 170.526 77.1556C170.805 77.1556 171.083 77.2125 171.306 77.3264C171.557 77.4403 171.807 77.6111 172.03 77.8957L172.643 77.2695C172.086 76.6432 171.39 76.3301 170.526 76.3301C170.136 76.3301 169.774 76.4155 169.468 76.5578C169.133 76.7001 168.855 76.9279 168.604 77.2125C168.353 77.4972 168.158 77.8673 168.019 78.2943C167.88 78.7213 167.824 79.2052 167.824 79.7461C167.824 80.3154 167.88 80.8278 168.047 81.2548C168.186 81.6818 168.381 82.0518 168.632 82.3365C168.883 82.6212 169.161 82.8204 169.496 82.9628C169.83 83.1051 170.164 83.162 170.554 83.162C171.055 83.162 171.473 83.0766 171.807 82.9058C172.142 82.735 172.448 82.4788 172.699 82.1657L172.086 81.5964C171.835 81.8241 171.585 82.0234 171.362 82.1372Z" fill="black"/>
<path d="M173.34 77.2404H175.373V83.0191H176.32V77.2404H178.382V76.4434H173.34V77.2404Z" fill="black"/>
<path d="M180.164 79.3182C180.192 79.0051 180.248 78.692 180.331 78.4358C180.443 78.1796 180.554 77.9518 180.721 77.7526C180.889 77.5533 181.056 77.411 181.251 77.2971C181.446 77.1832 181.669 77.1263 181.891 77.1263C182.198 77.1263 182.476 77.1832 182.699 77.2971C182.922 77.411 183.089 77.5818 183.256 77.7526C183.396 77.9518 183.507 78.1796 183.59 78.4358C183.674 78.692 183.702 78.9766 183.702 79.2898H180.164V79.3182ZM183.925 77.2117C183.702 76.927 183.423 76.6993 183.089 76.5285C182.755 76.3577 182.365 76.3008 181.947 76.3008C181.557 76.3008 181.195 76.3862 180.861 76.5285C180.526 76.6708 180.248 76.8986 179.997 77.2117C179.747 77.5248 179.552 77.8664 179.412 78.2934C179.273 78.7204 179.189 79.2044 179.189 79.7168C179.189 80.2861 179.273 80.77 179.412 81.197C179.552 81.624 179.747 81.9941 179.997 82.2787C180.248 82.5634 180.554 82.7911 180.861 82.9335C181.195 83.0758 181.529 83.1612 181.891 83.1612C182.755 83.1612 183.479 82.8765 184.064 82.3072L183.507 81.7094C183.312 81.9087 183.061 82.051 182.811 82.1649C182.532 82.2787 182.281 82.3357 182.003 82.3357C181.501 82.3357 181.084 82.1364 180.721 81.7663C180.359 81.3963 180.164 80.8269 180.137 80.1153H184.593V79.6598C184.593 79.1474 184.538 78.692 184.426 78.2934C184.343 77.8664 184.175 77.5248 183.925 77.2117Z" fill="black"/>
<path d="M189.997 79.5177L189.3 80.998H189.245L188.576 79.5747L187.072 76.4434H186.125V83.0191H187.072V78.5214H187.1L187.741 79.8593L189.217 82.9906L190.749 79.8309L191.362 78.5499H191.417V83.0191H192.364V76.4434H191.417L189.997 79.5177Z" fill="black"/>
<path d="M200.08 83.0193H200.999V76.415H200.08V83.0193Z" fill="black"/>
<path d="M198.048 81.9375C197.825 82.1368 197.491 82.2222 197.101 82.2222H195.235V79.8595H197.101C197.519 79.8595 197.853 79.9733 198.076 80.1726C198.299 80.3719 198.41 80.6565 198.41 81.0551C198.382 81.4251 198.271 81.7383 198.048 81.9375ZM197.073 79.034H195.207V76.415H194.26V83.0193H197.101C197.797 83.0193 198.327 82.8485 198.744 82.5353C199.162 82.2222 199.357 81.7098 199.357 81.0266C199.357 80.3719 199.162 79.8879 198.744 79.5464C198.354 79.2048 197.797 79.034 197.073 79.034Z" fill="black"/>
<path d="M102.951 62.381C103.146 62.0679 103.341 61.7832 103.536 61.4986H103.647V68.1597H106.6V56.8301H103.647L100.333 61.9825C100.138 62.2672 99.9704 62.5518 99.7754 62.8365C99.5804 63.1212 99.4133 63.4058 99.2183 63.719H99.1069V56.8301H96.1543V68.1313H99.1069C99.664 67.3342 100.221 66.5372 100.75 65.7116C101.28 64.8861 101.809 64.0606 102.366 63.2635C102.561 62.9788 102.784 62.6657 102.951 62.381Z" fill="black"/>
<path d="M112.367 63.4343H116.768V68.1313H119.72V56.8301H116.768V61.1285H112.367V56.8301H109.414V68.1313H112.367V63.4343Z" fill="black"/>
<path d="M128.55 65.5408C128.243 65.7686 127.881 65.854 127.38 65.854H125.458V63.0927H127.352C127.853 63.0927 128.243 63.2066 128.522 63.4343C128.801 63.662 128.968 64.0036 128.968 64.4876C128.996 64.9715 128.828 65.3416 128.55 65.5408ZM131.948 64.516C131.948 63.3489 131.558 62.4664 130.778 61.8117C129.998 61.1854 128.94 60.8439 127.631 60.8439H125.486V56.8301H122.533V68.1313H127.742C129.023 68.1313 130.026 67.8466 130.806 67.2773C131.558 66.6795 131.948 65.7686 131.948 64.516Z" fill="black"/>
<path d="M167.017 65.8829C166.655 66.0537 166.265 66.1391 165.875 66.1676V58.8517C166.85 58.9371 167.602 59.3071 168.103 59.9619C168.632 60.6451 168.883 61.4706 168.883 62.4385C168.883 63.0363 168.8 63.5487 168.632 63.9757C168.465 64.4311 168.242 64.8012 167.964 65.1143C167.685 65.4559 167.379 65.7121 167.017 65.8829ZM163.089 66.1391C162.671 66.1106 162.282 65.9968 161.892 65.826C161.529 65.6552 161.195 65.4274 160.917 65.1143C160.638 64.8012 160.415 64.4311 160.248 64.0041C160.081 63.5771 159.997 63.0647 159.997 62.4669C159.997 61.4706 160.276 60.6451 160.805 59.9903C161.334 59.3072 162.087 58.9371 163.061 58.8802V66.1391H163.089ZM170.025 66.6515C170.554 66.1391 170.944 65.5413 171.251 64.8296C171.557 64.118 171.696 63.3209 171.696 62.41C171.696 61.556 171.557 60.7874 171.251 60.1042C170.944 59.421 170.554 58.8232 170.025 58.3108C169.496 57.7984 168.883 57.4284 168.159 57.1437C167.435 56.859 166.655 56.6882 165.819 56.6598V52.3613L163.034 53.4431V56.6028C162.226 56.6598 161.446 56.8306 160.722 57.1152C159.997 57.4284 159.385 57.8269 158.855 58.3108C158.326 58.8232 157.908 59.3925 157.602 60.1042C157.296 60.7874 157.156 61.556 157.156 62.3815C157.156 63.2925 157.296 64.118 157.574 64.8296C157.853 65.5413 158.243 66.1676 158.772 66.68C159.301 67.1924 159.914 67.5909 160.638 67.8756C161.362 68.1602 162.17 68.331 163.061 68.3595V73.1419L165.875 72.0601V68.331C166.683 68.2741 167.463 68.1033 168.159 67.8186C168.883 67.5624 169.496 67.1639 170.025 66.6515Z" fill="black"/>
<path d="M184.705 64.0326C184.538 64.488 184.315 64.8581 184.036 65.1712C183.758 65.4844 183.423 65.7121 183.089 65.8829C182.727 66.0537 182.337 66.1391 181.947 66.196V58.8517C182.922 58.9371 183.674 59.3071 184.203 59.9619C184.733 60.6451 184.983 61.4706 184.983 62.4385C184.955 63.0647 184.9 63.5771 184.705 64.0326ZM179.162 66.1391C178.744 66.1106 178.354 65.9968 177.964 65.826C177.602 65.6552 177.267 65.4274 176.989 65.1143C176.71 64.8012 176.488 64.4311 176.32 64.0041C176.153 63.5771 176.07 63.0647 176.07 62.4669C176.07 61.4706 176.348 60.6451 176.877 59.9903C177.407 59.3072 178.159 58.9371 179.162 58.8802V66.1391ZM187.323 64.8296C187.629 64.118 187.769 63.3209 187.769 62.41C187.769 61.556 187.629 60.7874 187.323 60.1042C187.017 59.421 186.627 58.8232 186.097 58.3108C185.568 57.7984 184.955 57.4284 184.231 57.1437C183.507 56.859 182.727 56.6882 181.891 56.6598V52.3613L179.106 53.4431V56.6028C178.27 56.6598 177.518 56.8306 176.794 57.1152C176.07 57.4284 175.457 57.8269 174.928 58.3108C174.398 58.8232 173.981 59.3925 173.674 60.1042C173.368 60.7874 173.229 61.556 173.229 62.3815C173.229 63.2925 173.368 64.118 173.646 64.8296C173.925 65.5413 174.315 66.1676 174.844 66.68C175.373 67.1924 175.986 67.5909 176.71 67.8756C177.435 68.1602 178.242 68.331 179.134 68.3595V73.1419L181.947 72.0601V68.331C182.755 68.2741 183.535 68.1033 184.231 67.8186C184.955 67.534 185.568 67.1354 186.07 66.623C186.627 66.1391 187.044 65.5413 187.323 64.8296Z" fill="black"/>
<path d="M84.1484 54.6669H88.4659V68.16H91.5578V54.6669H95.7082V52.0195H84.1484V54.6669Z" fill="black"/>
<path d="M144.261 56.887H140.89L136.935 61.6978V56.8301H133.982V68.1597H136.935V62.6372L140.807 68.1597H144.289L139.943 62.0964L144.261 56.887Z" fill="black"/>
<path d="M152.505 63.8613C152.394 64.2883 152.227 64.6299 152.032 64.9715C151.837 65.2847 151.586 65.5409 151.28 65.7117C150.973 65.8825 150.639 65.9679 150.249 65.9679C149.441 65.9679 148.856 65.6547 148.411 65.0569C147.993 64.4591 147.77 63.5767 147.77 62.4665C147.77 61.4702 147.965 60.6731 148.383 60.0184C148.801 59.3636 149.386 59.0505 150.165 59.0505C151.001 59.0505 151.614 59.3636 152.032 60.0184C152.45 60.6731 152.672 61.4986 152.672 62.5234C152.672 63.0074 152.617 63.4628 152.505 63.8613ZM154.149 58.1965C153.675 57.6841 153.118 57.2856 152.45 57.0294C151.781 56.7732 151.057 56.6309 150.277 56.6309C149.497 56.6309 148.745 56.7732 148.104 57.0294C147.436 57.2856 146.879 57.6841 146.377 58.1965C145.904 58.7089 145.514 59.3067 145.263 60.0468C145.012 60.787 144.873 61.6125 144.873 62.5234C144.873 63.4059 145.012 64.2314 145.263 64.9431C145.514 65.6832 145.876 66.281 146.349 66.7934C146.823 67.3058 147.38 67.7043 148.048 67.9605C148.717 68.2452 149.441 68.3875 150.277 68.3875C151.057 68.3875 151.809 68.2452 152.477 67.989C153.146 67.7328 153.703 67.3343 154.204 66.8219C154.678 66.3095 155.068 65.6832 155.319 64.9715C155.597 64.2314 155.736 63.4059 155.736 62.495C155.736 61.6125 155.597 60.787 155.346 60.0753C154.984 59.3352 154.622 58.7089 154.149 58.1965Z" fill="black"/>
<path fill-rule="evenodd" clip-rule="evenodd" d="M44.2057 86.4921C43.1473 85.4104 42.3952 85.2965 39.5262 85.2965C36.1 85.2965 33.7881 83.2469 33.7881 79.9733V73.426H54.6513V79.9733C54.6513 83.2469 52.3393 85.2965 48.9132 85.2965C46.0163 85.2965 45.2642 85.4104 44.2057 86.4921ZM33.7881 72.7997V62.808C33.7881 61.8686 33.5374 60.9577 33.2031 60.0752H40.8075C41.5038 61.0431 42.7573 61.6978 44.2336 61.6978C45.682 61.6978 46.9355 61.0431 47.6319 60.0752H55.2362C54.902 60.9292 54.6513 61.8686 54.6513 62.808V72.7997H33.7881Z" fill="#FFFF00"/>
<path d="M34.9862 87.7158V89.7085L33.2871 90.4201C34.7356 91.0749 36.4904 91.7581 38.6074 92.242L39.5823 89.0253C37.4932 88.5983 36.0726 88.1428 34.9862 87.7158Z" fill="white"/>
<path d="M44.2066 90.4208C42.201 90.4208 40.5019 90.2216 39.8334 90.0508L38.8027 93.4098C40.3905 93.8084 42.2846 94.093 44.1787 94.093C46.1007 94.093 47.9669 93.8084 49.5547 93.4098L48.524 90.0508C47.8834 90.2216 46.2121 90.4208 44.2066 90.4208Z" fill="white"/>
<path d="M53.4256 87.7158C52.3393 88.1428 50.8908 88.5983 48.8574 89.0253L49.8323 92.242C51.9214 91.7581 53.7041 91.0749 55.1247 90.4201L53.4256 89.7085V87.7158Z" fill="white"/>
<path d="M28.2447 55.7772C25.9049 58.3107 26.9356 59.8479 27.3812 60.3034C26.5178 60.1041 25.2364 58.9939 25.515 57.8837C25.2364 58.2253 24.9579 58.5954 24.6793 58.9655C24.0944 59.7625 23.593 60.5311 23.1195 61.2713C22.4231 63.4062 23.7044 65.6266 25.9049 66.6229C23.4537 66.2529 22.3674 64.0325 22.3674 62.6092C21.1975 64.858 20.6404 66.9361 20.6961 68.6441C20.724 69.2988 20.7797 69.8966 20.8632 70.4659C21.4203 71.5477 22.3395 71.9462 23.9273 72.1454C22.451 72.2308 21.6989 72.1739 21.0582 71.4907C22.061 75.8746 26.7127 79.6606 28.6069 82.8773C26.7127 80.3438 22.7852 76.6147 21.4203 73.8819C21.3089 74.8782 21.5596 77.3833 22.7574 78.9205C21.0025 77.1555 20.8632 74.4797 20.9747 72.914C20.529 71.7754 20.2504 70.5229 20.1947 69.0995C20.1669 67.7901 20.2504 66.6514 20.4454 65.5982C19.3312 67.2207 17.7157 67.847 16.9357 70.2951C17.075 67.1353 19.4148 67.0784 21.1418 63.2354C21.8103 61.5559 22.7852 60.1041 23.8716 58.4531C22.5067 58.9085 21.476 59.2501 19.8883 61.0151C21.0025 58.2823 27.5205 55.2364 30.501 52.2758C29.6096 52.4751 25.9607 52.5605 24.4286 51.5357C27.1863 52.3043 33.2865 51.4218 35.5984 49.7993C34.0107 52.1335 30.5288 52.2758 26.2949 56.9443C26.8799 56.5173 27.6041 56.0903 28.2447 55.7772ZM31.4202 55.4926C34.0942 54.0408 40.5844 50.7956 36.1833 47.3227C35.5705 46.8387 34.9299 46.4117 34.3728 45.8993C33.6764 46.4402 34.6235 47.7781 34.8742 48.2621C34.8742 48.2621 33.3979 48.4044 33.0636 48.4044C30.8074 48.4044 28.4119 47.038 29.6375 44.3906C28.7461 44.5899 28.6347 45.4724 28.3562 46.2125C27.7712 45.8139 26.7684 44.96 25.9885 45.0738C26.6292 47.1234 29.2754 48.9737 31.3088 49.4007C29.2197 50.5679 25.3757 51.4218 23.3423 48.9168C21.9217 51.735 23.8994 52.9021 25.8492 54.3824C18.4677 57.8268 19.5541 61.6982 14.7073 64.7442C15.348 65.0573 18.1335 64.431 18.3842 64.4026C17.3257 65.7974 16.8522 66.3952 16.5458 67.0784C16.2393 67.7047 16.1279 68.4448 15.8215 69.982C15.5987 71.2061 15.1809 72.4301 13.7324 73.2272C14.2895 74.2804 15.5708 73.4549 16.1001 73.3126C16.0165 73.4264 15.8494 74.7074 15.3759 75.3052C17.8549 75.1344 16.7129 69.7827 19.2198 71.0637C19.9162 71.4338 20.139 72.2593 19.8048 72.971C18.1613 76.4154 21.8939 79.4613 21.6989 82.4788C22.6181 82.4788 23.5651 82.4503 24.1501 81.1978C24.4565 81.8241 24.93 82.7065 25.2086 83.5605L25.9607 82.251C26.4063 84.386 28.384 86.3787 31.0302 86.5495C29.7768 84.4999 31.2809 81.7102 28.2169 78.7497C28.6069 78.4365 29.4704 77.8387 29.8046 77.4117C26.0442 77.8672 22.1167 74.8213 23.8994 73.3695C25.0693 72.4301 25.5707 74.3943 27.3812 74.0527L26.6849 73.4264C26.9356 73.1702 27.2141 72.8571 27.4927 72.6009C26.7406 72.5155 25.9049 72.0031 25.9049 72.0031L26.3506 71.2345C21.9496 71.2345 21.8382 67.7901 23.6209 67.6477C24.4565 67.5908 25.5428 69.1565 28.2726 68.8433C27.9383 68.4163 27.7991 67.7616 27.6319 67.3061C28.3005 67.2492 29.0525 67.2492 29.6653 66.9361C28.3283 66.7653 27.9941 66.3098 26.9077 65.4558L28.189 64.9719C26.3228 64.0325 26.4342 62.3814 26.3785 60.645C27.3534 61.2143 28.4954 62.0968 29.721 61.6982C29.9996 61.6128 30.1946 61.4705 30.1946 61.1574C28.384 60.5311 27.2698 57.7983 31.4202 55.4926Z" fill="white"/>
<path d="M67.937 65.6265C68.132 66.6513 68.2434 67.7899 68.1877 69.1279C68.132 70.5512 67.8535 71.8322 67.4356 72.9424C67.5471 74.508 67.4078 77.1839 65.6529 78.9488C66.8507 77.4116 67.1014 74.8781 66.99 73.9102C65.6251 76.6145 61.6976 80.3721 59.8034 82.9056C61.6976 79.6605 66.3493 75.8744 67.3521 71.519C66.7114 72.2022 65.9315 72.2592 64.483 72.1738C66.0986 71.9745 66.99 71.576 67.5471 70.4942C67.6306 69.9249 67.6863 69.3271 67.7142 68.6724C67.7699 66.9359 67.2128 64.8863 66.0429 62.6375C66.0429 64.0608 64.9566 66.2812 62.5054 66.6513C64.7059 65.6549 65.9872 63.463 65.2908 61.2996C64.8451 60.5594 64.3159 59.7908 63.731 58.9938C63.4524 58.6237 63.1739 58.2537 62.8953 57.9121C63.2017 58.9938 61.8925 60.1324 61.029 60.3317C61.5026 59.8762 62.5054 58.3391 60.1934 55.8055C60.8341 56.1187 61.5583 56.5741 62.1154 57.0011C57.8815 52.3326 54.4275 52.1903 52.8119 49.856C55.1238 51.4786 61.2519 52.3326 63.9817 51.5925C62.4775 52.6173 58.8007 52.5319 57.9093 52.3326C60.8619 55.2362 67.3799 58.3106 68.4941 61.0149C66.9064 59.25 65.8758 58.9084 64.5109 58.4529C65.5972 60.104 66.5721 61.5558 67.2407 63.2353C68.9677 67.0783 71.2796 67.1352 71.4467 70.295C70.6389 67.8469 69.0512 67.2206 67.937 65.6265ZM72.5888 70.0103C72.2824 68.4731 72.1709 67.733 71.8645 67.1067C71.5581 66.4235 71.0568 65.8257 69.9983 64.4309C70.249 64.4593 73.0623 65.0856 73.6751 64.7725C68.8284 61.7266 69.9147 57.8551 62.5332 54.4107C64.483 52.9304 66.4607 51.7633 65.0401 48.9451C63.0067 51.4217 59.1628 50.5677 57.1015 49.429C59.1628 49.002 61.809 47.1517 62.4218 45.1021C61.6419 44.9883 60.6391 45.8423 60.0541 46.2408C59.7756 45.4722 59.6642 44.5897 58.7728 44.4189C59.9706 47.0379 57.6029 48.4327 55.3188 48.4327C54.9567 48.4327 53.5083 48.2904 53.5083 48.2904C53.7311 47.8065 54.6782 46.4685 54.0097 45.8992C53.4526 46.4401 52.8119 46.8671 52.1991 47.3225C47.798 50.7954 54.2882 54.0406 56.9623 55.4924C61.1126 57.7982 60.0263 60.531 58.2714 61.2426C58.2714 61.5558 58.4664 61.6981 58.745 61.7835C59.9706 62.2105 61.1126 61.2996 62.0597 60.7302C62.004 62.4382 62.1154 64.1178 60.2491 65.0571L61.5304 65.5411C60.4162 66.3951 60.082 66.8505 58.7728 67.0213C59.3856 67.3345 60.1656 67.3345 60.8062 67.3914C60.6391 67.8753 60.4998 68.5016 60.1656 68.9286C62.8675 69.2702 63.9817 67.6761 64.8173 67.733C66.6 67.8753 66.4886 71.3198 62.0875 71.3198L62.5332 72.0884C62.5332 72.0884 61.6976 72.6008 60.9455 72.6862C61.224 72.9424 61.5304 73.2555 61.7811 73.5117L61.0848 74.138C62.8675 74.4795 63.3967 72.5154 64.5666 73.4548C66.3493 74.9065 62.4218 77.9525 58.6614 77.497C58.9678 77.924 59.8591 78.5218 60.2491 78.8349C57.1851 81.7954 58.6893 84.5851 57.4358 86.6347C60.082 86.4639 62.0318 84.4713 62.5054 82.3363L63.2574 83.6458C63.536 82.7918 64.0095 81.9093 64.3159 81.283C64.9009 82.5356 65.8758 82.564 66.795 82.564C66.6 79.5466 70.3047 76.5007 68.6613 73.0562C68.327 72.373 68.5498 71.519 69.2462 71.149C71.7531 69.868 70.5832 75.2197 73.0623 75.3905C72.5888 74.7927 72.3938 73.5117 72.3381 73.3978C72.8673 73.5402 74.1208 74.3657 74.7057 73.3124C73.2573 72.4584 72.8395 71.2344 72.5888 70.0103Z" fill="white"/>
<path d="M47.6044 60.0756C46.908 61.0435 45.6545 61.6982 44.2061 61.6982C43.8718 61.6982 43.5376 61.6698 43.2312 61.6128C43.3147 62.0114 43.5097 62.4384 43.9275 62.7799C43.7604 63.9471 44.2618 65.0573 45.4874 65.3419C45.6267 65.9397 45.9888 66.3952 46.6016 66.5945L45.7381 67.5908C45.4038 67.9893 44.986 68.1032 44.6239 68.0462L40.8078 67.5908C40.9749 67.1638 40.5292 66.6514 39.3315 66.8791L40.8356 62.5807L39.9164 60.588L38.1894 62.0968L38.0502 66.5945L37.2981 66.2244C36.3232 65.7974 36.0446 67.5908 36.9638 67.5908H37.326C37.2981 67.7616 37.3538 67.9893 37.4931 68.0462C37.326 68.1032 37.2702 68.4448 37.4931 68.5586C37.2702 68.6725 37.2424 69.0141 37.4095 69.1564C37.2145 69.498 37.1867 70.2097 37.8552 70.3805C38.4123 70.5228 38.7465 69.925 38.858 69.5834L44.8189 71.4622C45.6545 71.7184 46.2673 71.5761 46.9637 70.9498L48.5236 69.555C48.3286 70.4659 48.635 71.2914 49.3313 71.5476C49.3313 71.5476 49.2199 72.3732 49.2756 72.7148H51.3647H54.6516V62.723C54.6516 61.7836 54.9023 60.8727 55.2366 59.9902H51.3647H47.6044V60.0756Z" fill="white"/>
<path d="M38.6896 76.927L38.801 77.0693C38.9681 77.2686 39.0517 77.2116 39.2467 77.1262L39.5252 76.9839C39.6924 76.8416 40.8066 77.297 40.8623 76.3576C40.9737 77.0693 40.1659 78.5496 40.6673 79.3751L41.3358 80.4853L39.1631 80.5137C38.9124 80.5137 38.801 80.6561 38.7453 80.7984L38.1882 81.994C38.0489 82.3071 38.0489 82.6487 38.2439 82.848L38.6339 83.3035C38.6339 83.3035 38.9403 83.0188 39.0517 82.6772L38.8846 82.5064C38.7453 82.3641 38.7453 82.2502 38.8289 82.0794L39.191 81.3393C39.3303 81.0546 39.4695 80.9977 39.7759 81.0546L41.5308 81.4531C41.6701 81.4816 41.865 81.5385 42.0043 81.3393C42.2271 80.9407 42.5893 80.9123 42.9792 80.9692C43.9541 81.1115 46.1547 81.3393 46.9625 80.3999C47.8817 81.6524 49.7201 81.6524 49.5808 82.3356L49.1908 84.4991H49.7758L50.1379 82.2787C50.1658 82.0225 50.3329 81.6524 50.0543 81.4816C49.9429 81.3962 49.8872 81.3393 49.6365 80.9123C49.3023 80.3145 49.3301 79.432 48.9959 78.6634C49.3023 78.2934 49.6365 78.1795 49.9151 78.2364C50.5557 78.4072 50.7228 79.5174 51.6421 80.4568C51.5306 80.0583 51.5028 79.6028 51.2799 79.2043C51.2799 79.2043 51.9206 79.7167 52.0877 80.286C52.1991 80.6561 52.2827 80.9123 52.617 81.0831C52.8398 81.1685 53.0905 81.0546 53.3412 80.7415C53.3412 80.7415 52.7284 79.859 52.3106 79.2897C51.6978 78.4926 50.89 77.724 49.8036 77.8094C49.4694 77.8379 49.1351 78.0087 48.8009 78.208C47.5474 77.4963 46.5725 78.2364 46.2104 78.2364L43.8706 78.0941C43.397 78.0656 43.0628 77.5248 43.0628 77.5248C43.0071 75.5036 41.4194 74.7066 40.8623 74.7066C40.8623 74.7066 40.918 74.3365 40.7787 74.2227L40.2773 74.8489L38.9124 74.3365L39.9709 75.219L38.8289 76.5854C38.606 76.6708 38.6339 76.8416 38.6896 76.927Z" fill="white"/>
<path d="M37.1578 79.7461C36.8235 80.0023 36.8514 80.3723 37.0463 80.7709L37.2413 81.1409L37.7427 80.7424L37.6313 80.4862C37.5477 80.3154 37.5477 80.1161 37.687 80.0023L38.4112 79.4329C38.6062 79.2906 38.6898 79.2621 38.9126 79.2906L40.4446 79.6322C40.4446 79.6322 40.2218 79.2906 40.1382 78.9205L38.6898 78.7213C38.4948 78.6928 38.3555 78.7782 38.1884 78.9205L37.1578 79.7461Z" fill="white"/>
<path d="M47.0469 84.4422H47.6318L48.5789 82.0795C48.6067 81.9941 48.6624 81.9657 48.6903 81.9087C48.2725 81.7379 48.0218 81.6241 47.6597 81.4248C47.8825 81.7379 48.0775 81.8803 47.9939 82.1934L47.0469 84.4422Z" fill="white"/>
<path d="M45.2081 51.4214L47.4086 50.5674C47.4086 50.5674 47.4086 50.8521 46.768 51.2791C46.2109 51.6776 45.2081 52.1046 45.2081 52.1046V51.4214ZM45.2081 49.7988L47.6872 48.8879C47.6872 48.8879 47.3808 49.201 46.768 49.6565C46.2109 50.055 45.2081 50.482 45.2081 50.482V49.7988ZM45.2081 48.2616L47.9379 47.2369C47.9379 47.2369 47.4086 47.6923 46.768 48.1193C46.2109 48.5178 45.2081 48.9448 45.2081 48.9448V48.2616ZM47.52 52.5316L48.6064 46.1836L44.5117 47.6069V54.1542L47.52 52.5316Z" fill="white"/>
<path d="M40.25 58.1685L40.3336 58.3108H41.1692V58.4532C41.1692 58.5955 41.2249 58.7378 41.2528 58.9086C41.392 59.3072 41.6427 59.7342 42.0605 60.1042C42.5341 60.5028 43.2304 60.7874 44.1775 60.7874C46.183 60.7874 47.1023 59.4495 47.1858 58.4816V58.3393H48.0215L48.105 58.197C48.9128 56.916 49.8599 55.5211 51.0019 55.3219L47.91 53.5L44.1218 55.6065L40.3336 53.5L37.2695 55.3219C38.4673 55.4642 39.4422 56.8875 40.25 58.1685Z" fill="white"/>
<path d="M43.2035 49.7988V50.482C43.2035 50.482 42.2007 50.055 41.6436 49.6565C41.003 49.201 40.7244 48.8879 40.7244 48.8879L43.2035 49.7988ZM43.2035 48.2616V48.9448C43.2035 48.9448 42.2007 48.5178 41.6436 48.1193C41.003 47.6639 40.4737 47.2369 40.4737 47.2369L43.2035 48.2616ZM43.2035 52.1046C43.2035 52.1046 42.2007 51.6776 41.6436 51.2791C41.003 50.8521 41.003 50.5674 41.003 50.5674L43.2035 51.4214V52.1046ZM43.872 54.1542V47.6069L39.7773 46.1836L40.8637 52.5316L43.872 54.1542Z" fill="white"/>
<path d="M44.2053 43.3936C41.8655 43.3936 40.1107 44.1906 39.7207 45.1015L44.2053 46.8949L48.6899 45.1015C48.3 44.1621 46.5451 43.3936 44.2053 43.3936Z" fill="white"/>
<path d="M44.2054 40.7753C45.9324 40.7753 47.6594 41.3161 48.8293 41.9993C49.0243 41.3731 49.2193 40.9176 49.4978 40.3767L48.4394 40.5475L47.5759 38.6687L45.9881 39.5512L44.2333 37.7578L42.4784 39.5512L40.8907 38.6687L40.0272 40.5475L38.9688 40.3767C39.2473 40.8891 39.4423 41.3446 39.6373 41.9993C40.7515 41.2877 42.4784 40.7753 44.2054 40.7753Z" fill="white"/>
<path d="M73.3982 55.1505C73.9831 55.0651 74.4288 54.8943 75.0137 54.4388C73.7881 54.0972 71.2255 53.1578 69.0528 53.5848C68.3286 53.6702 67.9386 53.9833 68.1893 54.1541C69.3592 54.9512 70.8077 56.8015 71.8662 58.965C72.7854 57.7978 72.3954 56.2322 72.2004 55.8052C74.0388 56.9439 74.5402 57.5132 75.4037 57.2855C74.9302 56.5738 74.2895 55.9191 73.3982 55.1505Z" fill="white"/>
<path d="M16.5459 58.965C17.6044 56.8015 19.0528 54.9512 20.2227 54.1541C20.4734 53.9833 20.0834 53.6987 19.3592 53.5848C17.1587 53.1578 14.596 54.0972 13.3704 54.4388C13.9554 54.8658 14.4011 55.0651 14.986 55.1505C14.0947 55.9191 13.454 56.5453 12.9805 57.257C13.844 57.4847 14.3175 56.9154 16.1838 55.7767C16.0166 56.2607 15.6267 57.7978 16.5459 58.965Z" fill="white"/>
<path fill-rule="evenodd" clip-rule="evenodd" d="M25.9059 82.308L25.1538 83.6175C24.8752 82.7635 24.4017 81.881 24.0953 81.2547C23.5103 82.5073 22.5633 82.5357 21.6441 82.5357C21.8391 79.5183 18.1344 76.4724 19.75 73.0279C20.0842 72.3447 19.8614 71.4907 19.165 71.1207C16.6581 69.8397 17.828 75.1914 15.3211 75.3622C15.7946 74.7359 15.9896 73.4834 16.0453 73.3695C15.516 73.5119 14.2347 74.3374 13.6776 73.2841C15.1261 72.4871 15.5439 71.263 15.7667 70.0389C16.0453 68.5018 16.1845 67.7616 16.4909 67.1354C16.7974 66.4522 17.2987 65.8544 18.3294 64.4595C18.0787 64.488 15.2653 65.1142 14.6525 64.8011C19.4993 61.7552 18.4129 57.8838 25.7944 54.4393C23.8446 52.9591 21.8669 51.7919 23.2875 48.9737C25.3209 51.4503 29.1649 50.5963 31.2261 49.4577C29.1649 49.0307 26.5187 47.1804 25.9059 45.1308C26.6858 45.0169 27.6886 45.8709 28.2735 46.2694C28.5521 45.5008 28.6635 44.6184 29.5548 44.4476C28.3571 47.0665 30.7247 48.4329 32.981 48.4613C33.3431 48.4613 34.7915 48.319 34.7915 48.319C34.5687 47.8351 33.6216 46.4972 34.2901 45.9278C34.8472 46.4687 35.5157 46.8957 36.1007 47.3512C40.5017 50.8241 34.0116 54.0692 31.3375 55.521C27.1593 57.8268 28.2735 60.5596 30.0284 61.2713C30.0284 61.5844 29.8334 61.7267 29.5548 61.8121C28.3292 62.2391 27.1872 61.3282 26.2123 60.7589C26.268 62.4669 26.1565 64.1179 28.0228 65.0858L26.7415 65.5697C27.8557 66.4237 28.1899 66.8792 29.4991 67.05C28.8863 67.3631 28.1064 67.3631 27.4657 67.42C27.6328 67.904 27.7721 68.5302 28.1064 68.9572C25.4045 69.2988 24.3181 67.7047 23.4546 67.7616C21.6719 67.904 21.7834 71.3484 26.1844 71.3484L25.7387 72.117C25.7387 72.117 26.5744 72.6294 27.3264 72.7148C27.02 72.971 26.7415 73.2841 26.4908 73.5403L27.1872 74.1666C25.3766 74.5082 24.8752 72.544 23.7053 73.4834C21.9226 74.9352 25.8501 77.9811 29.6105 77.5256C29.3041 77.9526 28.4128 78.5504 28.0228 78.8636C31.0868 81.8241 29.5827 84.6138 30.8361 86.6634C28.3292 86.4356 26.3794 84.443 25.9059 82.308ZM29.3598 78.9774C30.2233 78.2942 30.9197 77.9526 30.8919 76.2731C29.6105 76.9278 25.9894 76.8994 24.4853 74.7644C24.0674 74.1666 24.5131 73.8535 24.9309 74.3374C25.9616 75.533 27.8835 74.9921 28.5799 74.6505C28.4685 74.252 28.1621 73.7111 27.8835 73.4834C28.1342 73.2272 28.8863 72.8287 29.0256 72.1455C28.6356 71.9177 27.1036 71.7754 27.1036 71.7754C27.3543 71.5192 27.6607 71.2061 27.4657 70.2951C25.9059 70.7791 23.956 70.1243 23.5103 69.5265C23.0647 68.9572 23.5103 68.3879 23.8725 68.7864C24.6524 69.6119 28.5242 70.5798 29.9448 69.128C29.4156 68.9857 28.8306 68.5018 28.7192 68.1886C30.0562 68.0463 31.1147 67.2492 31.1983 66.2529C30.474 66.2529 29.0813 66.196 28.6078 65.8259C29.2484 65.5982 29.6384 65.342 29.8612 64.6303C27.4379 64.488 27.2429 62.6377 27.215 62.3245C28.8027 63.2639 31.5882 62.8369 30.864 60.5596C29.5548 60.4742 28.2178 58.3108 31.8389 56.3181C35.1258 54.4962 38.8583 52.5321 38.5519 49.3153C38.3291 47.2373 35.0144 45.8424 34.5965 44.7892C33.2038 45.4724 32.9252 46.241 33.5659 47.5504C33.5659 47.5504 30.474 47.8636 30.2233 45.9278C30.1119 45.0454 30.6969 44.2483 31.3097 43.622C30.9476 43.622 28.6356 42.9958 27.9114 44.9315C26.6022 44.0206 25.488 44.049 24.5967 45.0169C25.9894 45.8709 26.8808 48.8029 29.1927 49.6569C27.5493 50.5679 24.8752 50.1978 23.3154 47.3796C21.8391 49.6569 21.0034 51.9058 24.151 54.297C18.3851 56.9728 18.4408 62.0968 13.4269 64.5449C13.9283 65.9398 15.0146 65.9398 16.3795 65.712C14.2069 68.5872 16.0731 71.6046 12.6191 72.8287C12.9534 73.9958 13.5941 74.9352 14.8475 74.5936C14.4854 75.1629 14.2626 75.1629 13.6776 75.7892C15.5439 76.9848 17.7723 76.1308 18.2737 72.2593C18.3572 71.5761 19.3043 72.0031 18.97 72.6863C16.8252 77.2125 22.229 80.6 20.3349 83.9021C22.034 83.8452 23.3154 83.7029 24.0117 83.1051C24.346 83.7883 24.5688 84.4999 24.4853 85.1546C25.4045 84.9554 25.7666 84.3861 25.8223 83.7598C26.4351 85.5816 28.6078 87.5174 32.1175 87.5174C30.2512 84.7846 31.9782 82.0518 29.3598 78.9774Z" fill="black"/>
<path fill-rule="evenodd" clip-rule="evenodd" d="M21.0854 71.4903C21.7261 72.1735 22.506 72.2304 23.9544 72.145C22.3389 71.9458 21.4475 71.5472 20.8904 70.4655C20.8068 69.8962 20.7511 69.2984 20.7233 68.6436C20.6676 66.9072 21.2247 64.8576 22.3946 62.6087C22.3946 64.0321 23.4809 66.2525 25.9321 66.6225C23.7316 65.6262 22.4503 63.4343 23.1466 61.2708C23.5923 60.5307 24.1216 59.7621 24.7065 58.965C24.9851 58.595 25.2915 58.2249 25.5422 57.8833C25.2358 58.965 26.5449 60.1037 27.4084 60.303C26.9349 59.8475 25.9321 58.3103 28.2719 55.7768C27.6313 56.0899 26.907 56.5454 26.3499 56.9724C30.556 52.2754 34.0379 52.1615 35.6256 49.7988C33.3136 51.4214 27.1856 52.2754 24.4558 51.5353C25.96 52.5601 29.6368 52.4747 30.5282 52.2754C27.5477 55.2359 21.0297 58.3103 19.9155 61.0146C21.5032 59.2497 22.5338 58.9081 23.8987 58.4526C22.8124 60.1037 21.8375 61.5555 21.169 63.235C19.442 67.078 17.13 67.1349 16.9629 70.2947C17.7428 67.8466 19.3584 67.2203 20.4726 65.5977C20.2776 66.6225 20.194 67.7612 20.2219 69.0991C20.2498 70.5224 20.5562 71.8034 21.0018 72.9136C20.8904 74.4793 21.0297 77.1551 22.7845 78.92C21.5868 77.3829 21.3361 74.8493 21.4475 73.8815C22.8124 76.5858 26.7399 80.3434 28.634 82.8769C26.7121 79.6602 22.0603 75.8741 21.0854 71.4903Z" fill="black"/>
<path fill-rule="evenodd" clip-rule="evenodd" d="M64.512 58.4526C65.8769 58.9081 66.9075 59.2497 68.4952 61.0146C67.381 58.2818 60.863 55.2359 57.8826 52.2754C58.7739 52.4747 62.4229 52.5601 63.9549 51.5353C61.1973 52.3039 55.0971 51.4214 52.7852 49.7988C54.3729 52.1331 57.8547 52.2754 62.0886 56.9439C61.5594 56.5169 60.8352 56.0615 60.1667 55.7483C62.4786 58.2818 61.4758 59.819 61.0023 60.2745C61.8658 60.0752 63.175 58.965 62.8686 57.8548C63.1471 58.1964 63.4257 58.5665 63.7042 58.9366C64.2892 59.7336 64.7905 60.5022 65.2641 61.2424C65.9604 63.3773 64.6791 65.5977 62.4786 66.5941C64.9298 66.224 66.0162 64.0036 66.0162 62.5803C67.1861 64.8291 67.7432 66.9072 67.6874 68.6152C67.6596 69.2699 67.6039 69.8677 67.5203 70.437C66.9632 71.5188 66.044 71.9173 64.4563 72.1165C65.9326 72.2019 66.6847 72.145 67.3253 71.4618C66.3226 75.8457 61.6708 79.6032 59.7767 82.8484C61.6708 80.3149 65.5983 76.5858 66.9632 73.853C67.0746 74.8209 66.8239 77.3544 65.6262 78.8916C67.381 77.1266 67.5203 74.4508 67.4089 72.8851C67.8546 71.7465 68.1331 70.494 68.161 69.0706C68.1888 67.7612 68.1053 66.6225 67.9103 65.5693C69.0245 67.1918 70.6122 67.8181 71.42 70.2662C71.2807 67.1064 68.9409 67.0495 67.2139 63.2065C66.5733 61.5555 65.5983 60.1037 64.512 58.4526Z" fill="black"/>
<path fill-rule="evenodd" clip-rule="evenodd" d="M72.339 73.3404C72.3948 73.4542 72.5897 74.7352 73.0633 75.333C70.5563 75.1622 71.7262 69.8105 69.2193 71.0915C68.5229 71.4616 68.3001 72.2871 68.6344 72.9988C70.2778 76.4432 66.5453 79.4891 66.7681 82.5066C65.8489 82.5066 64.9018 82.4781 64.289 81.2256C63.9826 81.8518 63.4812 82.7343 63.2305 83.5883L62.4785 82.3073C62.0049 84.4423 60.0551 86.435 57.4089 86.6058C58.6624 84.5562 57.1582 81.7664 60.2222 78.8059C59.8323 78.4928 58.9688 77.895 58.6345 77.468C62.3949 77.9235 66.3224 74.8776 64.5397 73.4258C63.3698 72.4864 62.8684 74.4506 61.0579 74.109L61.7542 73.4827C61.5035 73.2265 61.225 72.9134 60.9186 72.6572C61.6707 72.5718 62.5063 72.0594 62.5063 72.0594L62.0606 71.2908C66.4617 71.2908 66.5731 67.8463 64.7904 67.704C63.9548 67.6471 62.8684 69.2127 60.1387 68.8996C60.4729 68.4726 60.6122 67.8179 60.7793 67.3624C60.1387 67.3055 59.3587 67.3055 58.7459 66.9923C60.083 66.8215 60.4172 66.3661 61.5035 65.5121L60.2222 65.0282C62.0885 64.0888 61.9771 62.4377 62.0049 60.7013C61.03 61.2706 59.888 62.153 58.6624 61.7545C58.3838 61.6691 58.1888 61.5268 58.1888 61.2136C59.9437 60.502 61.03 57.7692 56.8797 55.4634C54.2335 54.0116 47.7154 50.7664 52.1165 47.2935C52.7293 46.8096 53.37 46.3826 53.9271 45.8702C54.6234 46.4111 53.6764 47.749 53.4257 48.2614C53.4257 48.2614 54.902 48.4037 55.2362 48.4037C57.4925 48.4037 59.888 47.0089 58.6902 44.39C59.5816 44.5892 59.693 45.4717 59.9715 46.2118C60.5565 45.8133 61.5593 44.9593 62.3392 45.0732C61.6985 47.1227 59.0523 48.9731 57.0189 49.4001C59.108 50.5672 62.952 51.4212 64.9575 48.9161C66.3781 51.7343 64.4004 52.9014 62.4506 54.3817C69.8321 57.8261 68.7458 61.6976 73.5925 64.7435C72.9518 65.0566 70.1664 64.4304 69.9157 64.4019C70.9742 65.7968 71.4755 66.3945 71.7819 67.0777C72.0884 67.704 72.1998 68.4441 72.5062 69.9813C72.729 71.2054 73.1468 72.4294 74.5953 73.2265C74.1217 74.3082 72.8683 73.4827 72.339 73.3404ZM72.0605 65.6544C73.4254 65.8821 74.4839 65.8821 75.0131 64.4873C69.9992 62.0392 70.055 56.9152 64.289 54.2394C67.4645 51.8482 66.601 49.5993 65.1247 47.322C63.5648 50.1402 60.8907 50.5103 59.2473 49.5993C61.5593 48.7453 62.4506 45.8133 63.8433 44.9593C62.952 43.9914 61.8378 43.963 60.5286 44.8739C59.8323 42.9382 57.4925 43.5644 57.1304 43.5644C57.7432 44.1907 58.3281 45.0162 58.2167 45.8702C57.966 47.8059 54.8741 47.4928 54.8741 47.4928C55.4869 46.1833 55.2084 45.3863 53.8435 44.7031C53.4257 45.7563 50.0831 47.1512 49.8881 49.2293C49.5539 52.446 53.2864 54.4102 56.5733 56.232C60.1944 58.2247 58.8573 60.4166 57.5482 60.4735C56.8239 62.7793 59.6094 63.1778 61.1971 62.2384C61.1971 62.5516 61.0022 64.3734 58.5509 64.5442C58.7459 65.2844 59.1637 65.5121 59.8044 65.7398C59.3309 66.1099 57.9381 66.1668 57.2139 66.1668C57.2975 67.1631 58.356 67.9602 59.693 68.1025C59.5816 68.4157 58.9966 68.8996 58.4674 69.0419C59.9158 70.4937 63.7598 69.5543 64.5397 68.7003C64.9018 68.3018 65.3475 68.8711 64.9018 69.4405C64.4562 70.0383 62.5342 70.693 60.9465 70.2091C60.7793 71.12 61.0579 71.4616 61.3086 71.6893C61.3086 71.6893 59.7766 71.8601 59.3866 72.0594C59.5259 72.7426 60.2779 73.1126 60.5565 73.3973C60.3058 73.625 59.9715 74.1659 59.8601 74.5644C60.5565 74.906 62.4785 75.4469 63.5091 74.2513C63.9269 73.7674 64.3726 74.0805 63.9548 74.6783C62.4506 76.8133 58.8295 76.8417 57.5482 76.187C57.5203 77.8665 58.2167 78.2081 59.0802 78.8913C56.4618 81.9657 58.1888 84.6985 56.3504 87.4028C59.8323 87.4028 62.0328 85.4671 62.6456 83.6452C62.7013 84.3 63.0356 84.8693 63.9826 85.0401C63.8991 84.3569 64.1219 83.6737 64.4562 82.9905C65.1525 83.5598 66.4617 83.7022 68.133 83.7876C66.211 80.4855 71.6427 77.0695 69.4979 72.5718C69.1915 71.8886 70.1107 71.4616 70.1942 72.1448C70.6956 76.0162 72.924 76.8987 74.7903 75.6746C74.2332 75.0484 73.9825 75.0484 73.6204 74.479C74.8738 74.8206 75.5145 73.8812 75.8487 72.7141C72.3669 71.547 74.2332 68.5295 72.0605 65.6544Z" fill="black"/>
<path fill-rule="evenodd" clip-rule="evenodd" d="M37.1579 79.7453L38.1886 78.9483C38.3835 78.8059 38.495 78.7205 38.6899 78.749L40.1384 78.9483C40.2219 79.2899 40.4448 79.6599 40.4448 79.6599L38.9128 79.3183C38.6899 79.2899 38.6342 79.2899 38.4114 79.4607L37.6872 80.03C37.5479 80.1439 37.5479 80.3431 37.6315 80.5139L37.7429 80.7701L37.2415 81.1687L37.0465 80.7986C36.8515 80.3716 36.8237 80.0015 37.1579 79.7453ZM39.5256 76.9556L39.247 77.098C39.0521 77.2118 38.9685 77.2688 38.8014 77.041L38.6899 76.8987C38.6342 76.8133 38.6064 76.6425 38.7456 76.5286L39.8877 75.1622L38.8292 74.2798L40.1662 74.7922L40.6676 74.1659C40.8069 74.2798 40.7512 74.6498 40.7512 74.6498C41.3083 74.6498 42.896 75.4469 42.9517 77.468C42.9517 77.468 43.3138 78.0089 43.7595 78.0373L46.0993 78.1797C46.4893 78.1797 47.4642 77.4111 48.6898 78.1512C48.9962 77.952 49.3305 77.8096 49.6926 77.7527C50.7789 77.6673 51.5867 78.4643 52.1995 79.2329C52.6452 79.8023 53.2301 80.6847 53.2301 80.6847C52.9794 80.9979 52.7287 81.1117 52.5059 81.0263C52.1716 80.8555 52.0881 80.5993 51.9767 80.2293C51.8095 79.6315 51.1689 79.1475 51.1689 79.1475C51.3917 79.5461 51.4196 80.0015 51.531 80.4001C50.6118 79.4891 50.4446 78.3505 49.804 78.1797C49.5254 78.0943 49.1912 78.2366 48.8848 78.6067C49.219 79.3753 49.1912 80.2577 49.5254 80.8555C49.7761 81.311 49.8318 81.3395 49.9433 81.4249C50.2218 81.6241 50.0547 81.9657 50.0268 82.2219L49.6926 84.4423H49.1076L49.4976 82.2789C49.609 81.6241 47.7984 81.6241 46.8792 80.3431C46.0714 81.2825 43.8709 81.0548 42.896 80.9125C42.506 80.8555 42.1161 80.884 41.9211 81.2825C41.8097 81.5103 41.5868 81.4249 41.4476 81.3964L39.6927 80.9979C39.3863 80.9125 39.247 80.9979 39.1078 81.2825L38.7456 82.0227C38.6621 82.1935 38.6621 82.3358 38.8014 82.4497L38.9685 82.6205C38.8571 82.9905 38.5507 83.2467 38.5507 83.2467L38.1607 82.7913C37.9657 82.5635 37.9657 82.2504 38.105 81.9373L38.6621 80.7132C38.7178 80.5709 38.8571 80.4285 39.0799 80.4285L41.2526 80.4001L40.5841 79.2899C40.0827 78.4643 40.9183 76.9841 40.779 76.2724C40.8069 77.2688 39.6927 76.8418 39.5256 76.9556ZM48.5505 82.0796L47.6035 84.4423H47.0464L47.9934 82.165C48.077 81.8803 47.9099 81.738 47.6592 81.3964C48.0213 81.5957 48.2441 81.738 48.6898 81.8803C48.6341 81.9657 48.5784 81.9942 48.5505 82.0796ZM37.1301 81.8234L38.1886 80.9125L38.0214 80.5709C37.91 80.3431 37.9657 80.3147 38.0771 80.2293L38.6342 79.8023C38.7735 79.6884 38.8849 79.7169 39.0521 79.7453L40.7233 80.1439H38.9685C38.5507 80.1723 38.4392 80.3431 38.3 80.6278L38.1886 80.884L37.7429 81.8234C37.5757 82.1365 37.52 82.592 37.91 83.0759L38.2164 83.4744L37.5757 84.8124H38.1328L38.5785 83.873C38.6064 83.8445 39.2749 83.2182 39.4142 82.592C39.2192 82.4212 39.0799 82.3358 39.1913 82.1081L39.3863 81.6526C39.442 81.5103 39.4699 81.4533 39.6649 81.4818L41.4197 81.8803C41.6425 81.9373 41.9489 82.0511 42.1996 81.6811C42.4503 81.311 42.4782 81.3395 43.0353 81.3964L43.9266 81.4818C45.1522 81.5957 46.3779 81.2825 46.8514 80.9125C47.0185 81.311 47.3528 81.5957 47.492 81.9088C47.5478 82.0227 47.4642 82.1935 47.3806 82.3643L46.3779 84.8124H47.9377L48.8012 82.5635C48.8848 82.3643 48.9962 82.165 49.0798 82.0796L48.5784 84.7839H50.0825L50.4725 82.1081C50.5561 81.5103 50.5004 81.311 50.2218 81.0833C49.609 80.5424 49.609 79.4037 49.414 78.7205C49.5254 78.6636 49.6369 78.6351 49.804 78.6351C50.1382 78.6636 50.3889 79.5176 50.751 80.0585C51.531 81.1687 52.5616 82.3927 53.7872 80.6563C53.6758 80.457 53.5365 80.2862 53.3972 80.1154L53.063 79.7169C52.868 79.4891 51.9488 78.4074 51.5588 78.0089C50.6675 77.098 49.3305 77.2403 48.7734 77.6673C47.5477 77.0126 46.2664 77.6958 45.96 77.6673L43.8431 77.525C43.7595 77.525 43.5924 77.4965 43.5088 77.3257L43.8988 77.1834C43.5367 75.6177 42.6175 74.3082 41.0019 74.109C41.0019 74.109 40.9183 73.625 40.6676 73.5112L40.1941 74.0805C40.0548 74.109 39.9155 74.1374 39.7763 74.1944L37.715 73.4258L39.247 75.0199C39.247 75.0199 38.4392 76.187 38.2164 76.4148C38.0771 76.6425 38.0771 76.8133 38.2443 77.0126L38.5507 77.4111C38.7178 77.6104 38.8849 77.6104 39.1356 77.468L39.4699 77.2972C39.6091 77.1834 40.1105 77.4111 40.3334 77.2118C40.1941 77.6673 40.1384 78.0943 40.1105 78.4359L38.7178 78.2651C38.4114 78.2366 38.2721 78.2651 38.105 78.4074L36.9351 79.3468C36.5451 79.6599 36.4337 80.1723 36.6565 80.6847L37.1301 81.8234Z" fill="black"/>
<path fill-rule="evenodd" clip-rule="evenodd" d="M41.6426 51.279C42.1997 51.6776 43.2025 52.1046 43.2025 52.1046V51.4214L41.002 50.5674C41.002 50.5674 41.002 50.852 41.6426 51.279Z" fill="black"/>
<path fill-rule="evenodd" clip-rule="evenodd" d="M43.2037 50.4818V49.7986L40.7246 48.8877C40.7246 48.8877 41.031 49.2008 41.6438 49.6563C42.2009 50.0548 43.2037 50.4818 43.2037 50.4818Z" fill="black"/>
<path fill-rule="evenodd" clip-rule="evenodd" d="M43.2024 48.9453V48.2621L40.4727 47.2373C40.4727 47.2373 41.0019 47.6928 41.6426 48.1198C42.1996 48.5183 43.2024 48.9453 43.2024 48.9453Z" fill="black"/>
<path fill-rule="evenodd" clip-rule="evenodd" d="M50.8359 58.1683H53.6214C53.51 57.7413 53.0643 57.3428 52.2565 57.3428C51.5044 57.3428 51.0309 57.7982 50.8359 58.1683Z" fill="black"/>
<path fill-rule="evenodd" clip-rule="evenodd" d="M47.9387 47.2373L45.209 48.2621V48.9453C45.209 48.9453 46.2118 48.5183 46.7688 48.1198C47.4095 47.6643 47.9387 47.2373 47.9387 47.2373Z" fill="black"/>
<path fill-rule="evenodd" clip-rule="evenodd" d="M47.4095 50.5674L45.209 51.4214V52.1046C45.209 52.1046 46.2118 51.6776 46.7688 51.279C47.4095 50.852 47.4095 50.5674 47.4095 50.5674Z" fill="black"/>
<path fill-rule="evenodd" clip-rule="evenodd" d="M47.6881 48.8877L45.209 49.7986V50.4818C45.209 50.4818 46.2118 50.0548 46.7688 49.6563C47.4095 49.2008 47.6881 48.8877 47.6881 48.8877Z" fill="black"/>
<path fill-rule="evenodd" clip-rule="evenodd" d="M36.1286 57.3428C35.3208 57.3428 34.8751 57.7698 34.7637 58.1683H37.5491C37.3542 57.7698 36.9085 57.3428 36.1286 57.3428Z" fill="black"/>
<path fill-rule="evenodd" clip-rule="evenodd" d="M44.2047 46.8953L39.7201 45.1019C40.1101 44.191 41.8649 43.3939 44.2047 43.3939C46.5445 43.3939 48.2994 44.191 48.6894 45.1019L44.2047 46.8953ZM47.5195 52.5317L44.5111 54.1543V47.607L48.6058 46.1836L47.5195 52.5317ZM51.057 55.2645C49.915 55.4637 48.94 56.887 48.1601 58.1396L48.0765 58.2819H47.2409V58.4242C47.1573 59.4206 46.2381 60.73 44.2326 60.73C43.3134 60.73 42.5892 60.4454 42.1156 60.0468C41.6978 59.7052 41.4471 59.2782 41.3078 58.8512C41.2521 58.7089 41.2243 58.5666 41.2243 58.3958V58.2534H40.3886L40.3051 58.1111C39.4973 56.8301 38.5224 55.4353 37.4082 55.236L40.4722 53.4141L44.2604 55.5207L48.0487 53.4141L51.057 55.2645ZM55.2074 60.0753C54.8731 60.9293 54.6224 61.8687 54.6224 62.8081V72.7998H53.4804C52.9511 72.2874 52.5333 70.5794 52.5333 70.5794C52.2548 71.2057 52.5612 72.4297 52.8676 72.7998H51.3913C51.0292 72.2874 50.7227 70.5225 50.7227 70.5225C50.2771 71.0349 50.5556 72.4297 50.8342 72.7998H49.8593C49.8035 72.0882 49.9985 71.3196 49.9985 71.3196C49.4971 71.2342 48.94 70.9495 48.94 70.3802C49.1907 70.6364 49.3022 70.6364 49.6643 70.6079L50.0821 70.2663C48.7172 70.3232 48.6336 68.786 49.7478 68.0459C48.6615 68.0744 47.8537 67.4196 48.2437 66.2241C47.4637 65.8255 47.1852 64.4876 47.7701 63.8898C47.3523 63.4343 47.2966 62.5234 47.5473 61.9256C46.9902 61.9256 46.3774 61.6979 46.0432 61.3278C46.0153 61.3563 45.9874 61.3563 45.9596 61.3563C46.656 61.0716 47.2131 60.6162 47.6309 60.0753H55.2074ZM54.6224 79.9449C54.6224 82.023 53.6754 83.6171 52.1155 84.4995L52.6726 83.3324H52.1155L51.3913 84.8411C50.6392 85.1258 49.8035 85.2966 48.8565 85.2966C45.9874 85.2966 45.2354 85.4105 44.1769 86.4922C43.1184 85.4105 42.3663 85.2966 39.4973 85.2966C38.5781 85.2966 37.7146 85.1543 36.9904 84.8411H37.0182L37.7424 83.3324H37.1853L36.5447 84.6419C36.4054 84.5565 36.2383 84.4995 36.099 84.4141L36.6282 83.3324H36.099L35.709 84.1295C34.4834 83.2185 33.7592 81.7668 33.7592 79.9449V73.3976H54.6224V79.9449ZM40.4443 67.989L41.3357 68.1028C41.3914 68.5868 41.28 69.4408 40.9736 69.8962L40.1101 69.64C40.3051 69.0707 40.3608 68.5583 40.4443 67.989ZM39.163 67.3058C39.163 67.3058 39.9708 67.2773 40.1937 67.3627C40.3608 67.4481 40.2494 67.7328 40.0265 67.7043C39.8037 67.6758 39.163 67.3058 39.163 67.3058ZM39.1073 64.0606L38.3831 66.7649L38.6338 62.4095L39.748 61.4417L40.3329 62.7227L38.8845 66.9642L39.2744 64.1175C39.3023 63.8898 39.1352 63.8613 39.1073 64.0606ZM38.5502 68.5583C38.1603 68.7006 37.7703 68.5014 37.9096 68.2452C38.0767 68.416 38.5781 68.3306 38.5781 68.3306L38.5502 68.5583ZM37.8539 68.8999C38.021 69.0707 38.5502 69.0138 38.5502 69.0138L38.5781 69.1276C38.3274 69.4408 37.6867 69.2984 37.8539 68.8999ZM37.0182 67.1634C36.8232 67.0211 36.9068 66.7365 37.1296 66.7365C37.3803 66.7365 37.7146 67.0211 38.021 67.1634C38.021 67.1634 37.1853 67.2773 37.0182 67.1634ZM37.826 69.5546C37.826 69.5546 38.0767 69.6685 38.3831 69.697C38.3552 69.8678 38.216 70.0386 38.021 69.9816C37.826 69.9532 37.7424 69.7254 37.826 69.5546ZM38.3831 67.932C37.9653 68.0744 37.7981 67.7612 37.826 67.505C38.6338 67.2204 38.968 67.3912 39.2187 67.562C39.4416 67.7043 39.6087 68.1028 39.9151 68.3306C39.8594 68.6722 39.7758 69.1561 39.6366 69.4692C38.8288 69.2415 38.7731 68.5298 39.0795 68.0744C38.9123 67.8751 38.7174 67.8182 38.3831 67.932ZM41.9485 68.1598L42.812 68.2736C42.8956 68.7576 42.7284 69.8108 42.3942 70.2948L41.5028 70.0386C41.8649 69.5831 42.0042 68.7291 41.9485 68.1598ZM43.4527 68.359L44.1769 68.4444C44.2883 69.0707 44.2047 70.124 43.8426 70.7218L43.007 70.4656C43.3412 69.9816 43.5084 68.9284 43.4527 68.359ZM44.734 68.5298C44.929 68.5583 45.1239 68.5298 45.3189 68.4444C45.7089 69.0138 46.0153 70.3232 45.5418 71.1203C45.2632 71.1203 45.0125 71.0918 44.7618 71.0064L44.5669 70.9495C44.9847 70.3232 44.929 69.213 44.734 68.5298ZM45.8482 68.1028L46.3496 67.5904C46.8788 68.0459 47.5473 69.0992 47.3523 70.0955L46.7952 70.6079C46.6838 70.7218 46.5724 70.8072 46.4331 70.8926C46.7674 69.9816 46.3217 68.6152 45.8482 68.1028ZM48.8565 68.3875C48.7451 68.5298 48.6615 68.7291 48.6058 68.8999L47.993 69.4977C48.1044 68.5583 47.5195 67.4766 46.9345 67.0211L47.603 66.3664L47.7423 66.5087C47.4916 67.078 47.9094 68.2452 48.8565 68.3875ZM47.1852 63.8898C46.8509 64.5161 46.8788 65.2562 47.2688 65.9394L47.0181 66.1956C45.9039 66.0533 45.4582 64.3453 45.4582 64.3453C45.4303 64.4876 45.4303 64.6584 45.4303 64.8007C44.7897 64.5445 44.3719 63.9752 44.3997 63.1497C44.6504 63.292 44.929 63.3774 45.2075 63.4343L45.2911 62.9219C44.5111 62.7796 44.0655 62.2957 43.8705 61.6979C43.8426 61.6979 43.8148 61.6979 43.7591 61.6694C43.8983 61.6694 44.0376 61.6979 44.1769 61.6979C44.6504 61.6979 45.0682 61.6125 45.4861 61.4986C45.8203 61.9825 46.3774 62.2957 46.9624 62.3811C46.9066 62.7796 46.9345 63.2635 47.1852 63.8898ZM40.7786 60.0753C41.3078 60.8154 42.1992 61.3848 43.2298 61.6125C43.3134 62.011 43.5362 62.438 43.954 62.8081C43.7869 63.9752 44.2883 65.0854 45.5139 65.3701C45.6532 65.9679 46.0153 66.4233 46.6002 66.6226L45.7368 67.6189C45.4025 68.0174 44.9847 68.1313 44.6226 68.0744L40.8065 67.6189C40.9736 67.1919 40.5279 66.6795 39.3302 66.9072L40.8343 62.6088L39.9151 60.6162L38.1881 62.1249L38.0488 66.6226L37.3246 66.2525C36.3497 65.8255 36.0712 67.6189 36.9904 67.6189H37.3525C37.3246 67.7897 37.3803 68.0174 37.5196 68.0744C37.3525 68.1598 37.2968 68.4729 37.5196 68.6152C37.2968 68.7291 37.2689 69.0707 37.436 69.213C37.2411 69.5546 37.2132 70.2663 37.8817 70.4371C38.4388 70.5794 38.7731 69.9816 38.8845 69.64L44.8454 71.5188C45.681 71.775 46.2938 71.6327 46.9902 71.0064L48.5501 69.6116C48.3551 70.5225 48.6615 71.348 49.3579 71.6042C49.3579 71.6042 49.2465 72.4297 49.3022 72.7998H33.7871V62.8081C33.7871 61.8687 33.5364 60.9578 33.2021 60.0753H40.7786ZM39.7758 46.1836L43.8705 47.607V54.1543L40.8622 52.5317L39.7758 46.1836ZM49.7478 45.4151C49.7478 43.8209 47.1016 42.3691 44.2047 42.3691C41.3078 42.3691 38.6616 43.7925 38.6616 45.4151L38.7174 45.8136L39.8594 52.6171L34.3999 55.8623C33.8149 56.2039 33.0907 57.1717 32.9793 58.1396H33.982C34.1492 57.1717 34.9013 56.09 36.294 56.1469C37.5753 56.2039 38.2995 57.0009 39.0516 58.1396L39.2466 58.4242L39.5251 58.8797H31.4473C32.0322 60.1038 32.6172 61.3848 32.6172 62.7796V79.9164C32.6172 84.3287 35.9319 86.4353 39.5251 86.4353C42.3106 86.4353 42.6727 86.3214 44.2047 87.8586C45.7368 86.2929 46.0989 86.4353 48.8843 86.4353C52.4776 86.4353 55.7923 84.3287 55.7923 79.9164V62.7796C55.7923 61.3848 56.3494 60.0753 56.9344 58.8797H48.8565L49.135 58.4242L49.33 58.1396C50.0821 57.0009 50.8342 56.2323 52.0876 56.1469C53.4804 56.09 54.2324 57.1717 54.3996 58.1396H55.4023C55.3188 57.1717 54.5667 56.2039 53.9818 55.8623L48.4944 52.5886L49.6643 45.7851L49.7478 45.4151Z" fill="black"/>
<path fill-rule="evenodd" clip-rule="evenodd" d="M54.1501 66.5375V66.0251C52.6459 65.9967 52.3116 64.1748 52.3116 64.1748C51.866 65.5412 53.008 66.5375 54.1501 66.5375Z" fill="black"/>
<path fill-rule="evenodd" clip-rule="evenodd" d="M52.2557 69.612L52.1164 69.1281C50.8351 69.4697 50.1666 67.3916 50.1666 67.3916C49.7488 68.9288 51.1693 69.9821 52.2557 69.612Z" fill="black"/>
<path fill-rule="evenodd" clip-rule="evenodd" d="M53.1473 67.7043C51.6152 67.9605 50.9746 66.1387 50.9746 66.1387C50.8075 67.135 51.4203 68.1313 52.4509 68.2452C52.228 69.5546 53.398 70.2094 54.4286 69.7539L54.2893 69.2985C53.398 69.5831 52.5623 68.6722 53.1473 67.7043Z" fill="black"/>
<path fill-rule="evenodd" clip-rule="evenodd" d="M52.2278 62.4946V61.9822C50.1944 61.5552 50.3616 60.1318 50.3616 60.1318C49.9437 61.4698 51.0858 62.4661 52.2278 62.4946Z" fill="black"/>
<path fill-rule="evenodd" clip-rule="evenodd" d="M39.3863 83.332L38.6621 84.8408H39.2192L39.9434 83.332H39.3863Z" fill="black"/>
<path fill-rule="evenodd" clip-rule="evenodd" d="M40.5016 83.332L39.7773 84.8408H40.3066L41.0308 83.332H40.5016Z" fill="black"/>
<path fill-rule="evenodd" clip-rule="evenodd" d="M44.8746 83.332L44.1504 84.8408H44.7075L45.4317 83.332H44.8746Z" fill="black"/>
<path fill-rule="evenodd" clip-rule="evenodd" d="M45.9606 83.332L45.2363 84.8408H45.7934L46.5176 83.332H45.9606Z" fill="black"/>
<path fill-rule="evenodd" clip-rule="evenodd" d="M43.7887 83.332L43.0645 84.8408H43.5937L44.3179 83.332H43.7887Z" fill="black"/>
<path fill-rule="evenodd" clip-rule="evenodd" d="M50.1953 84.8408H50.7246L51.4488 83.332H50.9195L50.1953 84.8408Z" fill="black"/>
<path fill-rule="evenodd" clip-rule="evenodd" d="M41.5875 83.332L40.8633 84.8408H41.4204L42.1446 83.332H41.5875Z" fill="black"/>
<path fill-rule="evenodd" clip-rule="evenodd" d="M42.6734 83.332L41.9492 84.8408H42.5063L43.2305 83.332H42.6734Z" fill="black"/>
<path fill-rule="evenodd" clip-rule="evenodd" d="M40.195 75.2764C40.0836 75.2764 40 75.3618 40 75.5041C40 75.618 40.0836 75.7318 40.195 75.7318C40.3064 75.7318 40.39 75.618 40.39 75.5041C40.39 75.3618 40.3064 75.2764 40.195 75.2764Z" fill="black"/>
<path fill-rule="evenodd" clip-rule="evenodd" d="M39.9719 40.5473L40.8354 38.6685L42.4231 39.551L44.178 37.7576L45.9328 39.551L47.5206 38.6685L48.3841 40.5473L49.4425 40.3765C49.164 40.8889 48.969 41.3444 48.774 41.9991C47.6041 41.3159 45.8771 40.7751 44.1501 40.7751C42.4231 40.7751 40.6961 41.3159 39.5262 41.9991C39.3313 41.3729 39.1363 40.9174 38.8577 40.3765L39.9719 40.5473ZM44.2058 41.3729C46.4621 41.3729 48.2448 42.1414 49.2475 42.9385C49.2475 42.9385 49.554 41.1167 50.5567 39.5225L48.7462 39.7218L47.7991 37.6722L45.9885 38.6401L44.2337 36.8467L42.4788 38.6401L40.6404 37.6722L39.6934 39.7218L37.8828 39.5225C38.8856 41.1167 39.192 42.9385 39.192 42.9385C40.1669 42.113 41.9496 41.3729 44.2058 41.3729Z" fill="black"/>
<path fill-rule="evenodd" clip-rule="evenodd" d="M46.0435 37.6725C46.2942 37.701 46.5449 37.5017 46.5728 37.217C46.6006 36.9608 46.2106 36.2207 46.2106 36.2207C46.2106 36.2207 45.6257 36.847 45.6257 37.1316C45.5978 37.4163 45.7928 37.644 46.0435 37.6725Z" fill="black"/>
<path fill-rule="evenodd" clip-rule="evenodd" d="M49.0238 38.7828C49.2466 38.9251 49.553 38.8113 49.6645 38.5835C49.8037 38.3558 49.7202 37.5303 49.7202 37.5303C49.7202 37.5303 48.9681 37.8719 48.8288 38.1281C48.6895 38.3558 48.7731 38.6405 49.0238 38.7828Z" fill="black"/>
<path fill-rule="evenodd" clip-rule="evenodd" d="M42.3387 37.6725C42.6173 37.644 42.8123 37.4163 42.7844 37.1316C42.7566 36.847 42.1995 36.2207 42.1995 36.2207C42.1995 36.2207 41.8095 36.9324 41.8374 37.217C41.8652 37.5017 42.0881 37.701 42.3387 37.6725Z" fill="black"/>
<path fill-rule="evenodd" clip-rule="evenodd" d="M39.3872 38.7828C39.6101 38.6405 39.7215 38.3558 39.5822 38.1281C39.4708 37.9003 38.6909 37.5303 38.6909 37.5303C38.6909 37.5303 38.6073 38.3558 38.7466 38.5835C38.858 38.8113 39.1644 38.8967 39.3872 38.7828Z" fill="black"/>
<path fill-rule="evenodd" clip-rule="evenodd" d="M72.1999 55.805C72.3949 56.2605 72.7848 57.7977 71.8656 58.9648C70.8072 56.8014 69.3587 54.951 68.1888 54.154C67.9381 53.9832 68.3281 53.67 69.0523 53.5846C71.2528 53.1576 73.8155 54.097 75.0132 54.4386C74.4561 54.8656 73.9826 55.0649 73.3976 55.1503C74.289 55.9189 74.9297 56.5452 75.3753 57.2568C74.5397 57.4845 74.0662 56.9437 72.1999 55.805ZM74.9575 55.435C75.5982 55.2072 76.0717 54.581 76.3224 54.0116C74.7068 53.7839 70.445 51.9336 66.9353 53.4423C68.2445 52.1613 69.4423 51.9905 69.5537 50.1687C70.1108 50.5672 71.03 50.7949 71.5314 49.8271C71.1693 48.7453 70.2501 49.6278 70.1386 49.3147C69.9715 48.8877 71.2807 49.457 71.5871 48.0337C70.5565 47.6636 70.2501 48.5461 70.0551 48.3183C69.8879 48.1191 70.7236 47.7775 70.1108 46.6104C69.0244 47.2651 69.5815 47.9767 69.3587 48.0621C69.0802 48.176 69.303 47.2935 68.1052 47.322C67.9938 48.6315 69.2194 48.6599 69.0244 48.8877C68.7738 49.1439 68.4674 48.1475 67.5481 48.6315C67.576 49.6847 68.4116 50.2825 69.2751 50.0263C69.1359 52.0474 67.3253 51.6489 65.9883 53.9262C68.8295 55.4065 70.1108 58.0254 71.8656 59.8188C72.4506 59.3918 73.4255 57.5415 73.4255 57.5415C75.3196 59.0502 76.6567 57.5415 76.6567 57.5415C75.9881 56.8868 75.9603 56.3744 74.9575 55.435Z" fill="black"/>
<path fill-rule="evenodd" clip-rule="evenodd" d="M43.6754 91.0755L42.4498 91.0186L42.3105 91.531H42.4777C42.5334 91.531 42.5334 91.4456 42.5612 91.3886C42.5891 91.3602 42.8119 91.3317 42.9791 91.3602L43.5083 91.3886C43.2019 92.0433 42.422 92.6411 42.422 93.0681C42.422 93.2959 42.6727 93.3528 42.7841 93.3243C43.0348 93.3243 43.1183 93.1251 43.174 92.8689C43.3133 92.2426 43.6197 91.7587 43.8426 91.0186H43.6754V91.0755Z" fill="black"/>
<path fill-rule="evenodd" clip-rule="evenodd" d="M44.5111 91.8158L44.5389 91.4172H45.5974L45.5417 90.9902C45.2353 90.9902 44.8175 91.1041 44.4275 91.1041L44.3439 91.9581C44.8453 91.9296 45.1517 92.1574 45.1517 92.6982C45.1517 92.8975 45.0124 93.2676 44.7896 93.296C44.7339 93.296 44.6782 93.296 44.6503 93.2676C44.5389 93.1822 44.6782 93.0968 44.6782 92.9544C44.6782 92.7836 44.5111 92.7267 44.3718 92.7267C44.1768 92.7267 44.1211 92.869 44.1211 93.0114C44.1211 93.3245 44.5668 93.4099 44.7618 93.4099C45.2074 93.4099 45.7088 93.1537 45.7088 92.6413C45.7645 91.9866 45.0403 91.8442 44.5111 91.8158Z" fill="black"/>
<path fill-rule="evenodd" clip-rule="evenodd" d="M47.0755 92.1575C46.6855 92.1575 46.6298 91.5597 46.6298 91.2466C46.6298 91.1612 46.7133 91.0473 46.7969 91.0473C47.1312 91.0473 47.2426 91.8728 47.2704 92.1006C47.2147 92.1575 47.159 92.1575 47.0755 92.1575ZM46.8526 90.9619C46.4627 90.9619 46.1562 91.2466 46.1562 91.6451C46.1562 92.2714 46.8248 92.4706 47.2983 92.2429C47.354 92.7268 47.2704 93.0969 47.0755 93.0969C46.9083 93.0969 46.9362 92.983 46.9083 92.8692C46.8805 92.6699 46.7133 92.613 46.5741 92.6699C46.4069 92.7268 46.3791 92.8692 46.4069 92.983C46.4905 93.2392 46.7691 93.2392 46.9083 93.2108C47.549 93.1254 47.7997 92.6699 47.7997 92.129C47.8275 91.5312 47.4933 90.9619 46.8526 90.9619Z" fill="black"/>
<path fill-rule="evenodd" clip-rule="evenodd" d="M41.5869 90.8193C41.5312 90.9047 41.2805 91.2179 40.6956 91.6733L40.7513 91.7587C40.807 91.7303 40.9184 91.6733 41.0856 91.5595L40.7513 92.7551C40.7234 92.812 40.6677 92.8405 40.612 92.812L40.417 92.7835L40.3613 92.9259L41.4477 93.1251L41.4755 92.9828L41.2805 92.9543C41.2248 92.9259 41.197 92.8974 41.197 92.8405L41.6984 90.8478L41.5869 90.8193Z" fill="black"/>
<path fill-rule="evenodd" clip-rule="evenodd" d="M49.805 92.2425L48.8301 89.0258C50.8914 88.5988 52.312 88.1433 53.3983 87.7163V89.709L55.0974 90.3922C53.6769 91.0753 51.922 91.7585 49.805 92.2425ZM44.2062 94.1213C42.2843 94.1213 40.418 93.8366 38.8303 93.4381L39.8609 90.079C40.5294 90.2498 42.2286 90.4491 44.2341 90.4491C46.2396 90.4491 47.9109 90.2498 48.6073 90.079L49.6379 93.4381C47.9945 93.8081 46.1282 94.1213 44.2062 94.1213ZM33.2872 90.4206L34.9863 89.7374V87.7448C36.0727 88.1718 37.5211 88.6272 39.5545 89.0542L38.5796 92.2709C36.4905 91.7585 34.7356 91.0753 33.2872 90.4206ZM53.9554 89.3104V86.8623C52.0891 87.7448 49.7493 88.428 46.7132 88.7126L46.5739 89.5951C46.8246 89.6236 47.1588 89.652 47.6045 89.6805C46.4903 89.8513 45.014 89.9082 44.2341 89.9082C43.4263 89.9082 41.9779 89.8228 40.8637 89.6805C41.3093 89.652 41.6157 89.6236 41.8943 89.5951L41.755 88.7126C38.7189 88.428 36.3512 87.7163 34.5128 86.8623V89.3104L32.0059 90.3637C33.8721 91.36 36.0169 92.1571 38.496 92.8118L38.1896 93.8366C39.6102 94.2636 41.8664 94.6906 44.2619 94.6906C46.6296 94.6906 48.9137 94.2636 50.3343 93.8366L50.0279 92.8118C52.507 92.1571 54.6518 91.36 56.518 90.3637L53.9554 89.3104Z" fill="black"/>
<path fill-rule="evenodd" clip-rule="evenodd" d="M13.0088 57.2851C13.4545 56.5735 14.123 55.9187 15.0144 55.1786C14.4294 55.0932 13.9837 54.9224 13.3988 54.467C14.6244 54.1254 17.187 53.186 19.3876 53.613C20.1118 53.6984 20.5017 54.0115 20.251 54.1823C19.0811 54.9794 17.6327 56.8297 16.5742 58.9931C15.655 57.826 16.045 56.2603 16.24 55.8333C14.3458 56.9435 13.8723 57.4844 13.0088 57.2851ZM14.9865 57.5698C14.9865 57.5698 15.9614 59.4201 16.5464 59.8471C18.3012 58.0537 19.5825 55.4633 22.4237 53.9546C21.0867 51.7057 19.2761 52.0758 19.1369 50.0546C20.0004 50.3108 20.836 49.7131 20.8639 48.6598C19.9725 48.1474 19.6382 49.1722 19.3876 48.916C19.1926 48.7167 20.4182 48.6598 20.3068 47.3503C19.109 47.3219 19.3318 48.2043 19.0533 48.0905C18.8305 48.0051 19.3875 47.2934 18.3012 46.6387C17.6884 47.7773 18.5241 48.1474 18.3569 48.3467C18.1619 48.5459 17.8555 47.6919 16.8249 48.0335C17.1035 49.4569 18.4405 48.916 18.2734 49.3145C18.1341 49.6277 17.2427 48.7452 16.8806 49.8269C17.382 50.7948 18.3291 50.567 18.8583 50.1685C18.9697 52.0188 20.1396 52.1612 21.4767 53.4422C17.967 51.9619 13.7052 53.7838 12.0896 54.0115C12.3403 54.5808 12.8138 55.2071 13.4545 55.4063C12.4517 56.3457 12.4239 56.8581 11.7832 57.5413C11.7832 57.5698 13.0924 59.0501 14.9865 57.5698Z" fill="black"/>
<path fill-rule="evenodd" clip-rule="evenodd" d="M42.6738 56.2041V57.2858C43.0359 56.8304 43.7323 56.9158 43.7323 56.9158V58.4814C43.7323 58.4814 43.7045 59.25 43.4538 59.5916H44.2058H44.9579C44.6794 59.25 44.6794 58.4814 44.6794 58.4814V56.9158C44.6794 56.9158 45.3757 56.8304 45.7379 57.2858V56.2041H44.2058H42.6738Z" fill="black"/>
</g>
<defs>
<clipPath id="clip0_404_10499">
<rect width="191" height="62" fill="white" transform="translate(10 34)"/>
</clipPath>
</defs>
</svg>
