<svg width="210" height="130" viewBox="0 0 210 130" fill="none" xmlns="http://www.w3.org/2000/svg">
<g clip-path="url(#clip0_404_10507)">
<path d="M37.1351 79.7149L36.973 79.8807C34.8649 82.0361 32.4324 83.1967 29.9189 83.1967C24.7297 83.1138 21 79.1346 21 73.6631C21 68.1916 24.8108 64.1294 30 64.1294C32.5135 64.1294 34.9459 65.29 37.0541 67.4454L37.2162 67.6113L40.5405 63.4662L40.4595 63.3833C37.7027 59.9843 34.2973 58.4092 30.2432 58.4092C26.1081 58.4092 22.2973 59.8185 19.6216 62.3885C16.5405 65.0413 15 69.0206 15 73.6631C15 78.2227 16.5405 82.2019 19.5405 84.9377C22.2973 87.5076 26.027 88.917 30.1622 88.917C34.2973 88.917 37.6216 87.2589 40.3784 83.9429L40.4595 83.86L37.1351 79.7149Z" fill="#003B70"/>
<path d="M43.8652 88.4201H49.7842V58.8242H43.8652V88.4201Z" fill="#003B70"/>
<path d="M73.0547 81.9537C71.4331 82.9485 69.9736 83.4459 68.6763 83.4459C66.7304 83.4459 65.9196 82.4511 65.9196 80.1298V64.3785H71.9195V58.8241H65.9196V49.6221L60.0817 52.7723V58.8241H55.0547V64.3785H60.0817V81.0418C60.0817 85.6013 62.7574 88.6687 66.6493 88.7516C69.325 88.8345 70.9466 88.0055 71.9195 87.4252L72.0006 87.3423L73.4601 81.6221L73.0547 81.9537Z" fill="#003B70"/>
<path d="M77.918 88.4201H83.8369V58.8242H77.918V88.4201Z" fill="#003B70"/>
<path d="M178.379 47.5488V75.7354L180.244 72.8338C180.244 72.8338 188.514 60.5644 189.568 58.9892H193.298C192.487 60.067 186 69.269 186 69.269C186 69.269 194.514 87.3416 195 88.4193H191.352C191.19 88.0048 183.811 72.1706 183.811 72.1706L178.379 79.9633V88.4193H174.973V49.5385C175.298 49.3727 177.649 47.9633 178.379 47.5488ZM150.649 62.4711C152.433 59.8183 155.109 58.326 158.352 58.326C164.757 58.326 168.082 62.4711 168.082 70.3468V88.3364H164.676V71.0929C164.676 64.3778 162.406 61.3105 157.46 61.3105C152.757 61.3105 149.919 64.9582 149.919 71.0929V88.3364H146.514V58.9892H149.919V63.5488L150.649 62.4711ZM129.811 58.326C136.379 58.326 139.541 61.3934 139.541 67.6939V88.3364H136.136V84.1084L135.487 84.8545C132.973 87.6732 130.136 88.9996 126.73 88.9996C124.054 88.9996 117.892 88.0877 117.892 79.7146C117.892 72.8338 123.406 70.4297 128.595 70.4297C131.19 70.4297 133.784 71.01 135.649 72.0877L136.217 72.4193V68.1913C136.217 63.5488 133.946 61.1447 129.568 61.1447C126.811 61.1447 124.379 61.8079 121.865 63.3001C121.622 62.8027 120.892 60.9789 120.649 60.4815C123.244 59.155 126.487 58.326 129.811 58.326ZM121.217 79.4659C121.217 83.8597 123.406 86.2638 127.46 86.2638C130.865 86.2638 133.946 84.6058 136.054 81.5385L136.136 81.4556V74.9892L135.973 74.9063C133.784 73.6628 131.595 73.1654 128.352 73.1654C123.892 73.1654 121.217 75.4866 121.217 79.4659ZM95.1085 47.5488V63.3001L95.7572 62.554C98.2707 59.7354 101.027 58.4089 104.19 58.4089C110.514 58.4089 114.163 63.7975 114.163 73.2483C114.163 82.8649 110.027 89.0825 103.622 89.0825C100.541 89.0825 98.0274 87.839 95.7572 85.1861L95.1085 84.44V88.5022H91.7031V49.5385C92.0274 49.3727 94.2977 47.9633 95.1085 47.5488ZM95.1896 65.7872L95.1085 65.8701V81.2069L95.1896 81.2898C97.0545 84.2742 100.136 86.0151 103.298 86.0151C108.325 86.0151 110.838 81.7043 110.838 73.2483C110.838 65.6214 108 61.3105 103.136 61.3105C100.217 61.3105 97.541 62.8027 95.1896 65.7872Z" fill="#003B70"/>
<path fill-rule="evenodd" clip-rule="evenodd" d="M87.4051 53.5181C81.9727 45.7254 72.9727 41 63.8105 41C54.6483 41 45.6483 45.7254 40.2159 53.5181L39.9727 53.9326H46.7835L46.8645 53.8497C51.4862 48.9585 57.5673 46.3886 63.8105 46.3886C70.0537 46.3886 76.1348 48.9585 80.7564 53.9326L80.8375 54.0155H87.6483L87.4051 53.5181Z" fill="#D9261C"/>
</g>
<defs>
<clipPath id="clip0_404_10507">
<rect width="180" height="48" fill="white" transform="translate(15 41)"/>
</clipPath>
</defs>
</svg>
