<svg width="210" height="130" viewBox="0 0 210 130" fill="none" xmlns="http://www.w3.org/2000/svg">
<path fill-rule="evenodd" clip-rule="evenodd" d="M70.1885 57.707C71.6116 57.5358 72.8569 58.0496 73.9242 58.7346C74.9915 59.591 75.7031 60.7899 75.881 62.1601V62.3313V63.0164C75.881 66.2706 73.7463 68.1545 70.0106 68.1545H62.8951V73.4639H60.0488V57.707H70.1885ZM70.3664 65.4142C71.078 65.4142 71.6116 65.2429 72.1453 64.9004C72.679 64.5579 72.8569 63.8728 73.0348 63.359V63.0164C73.0348 62.3313 72.8569 61.6462 72.5011 61.1324C72.1453 60.6186 71.4338 60.2761 70.7222 60.2761H63.0729V65.4142H70.3664Z" fill="black"/>
<path fill-rule="evenodd" clip-rule="evenodd" d="M86.9106 73.8062C81.7518 73.8062 77.4824 70.3808 77.4824 65.5853C77.4824 60.6184 81.7518 57.3643 86.9106 57.3643C92.0694 57.3643 96.3387 60.7897 96.3387 65.5853C96.5166 70.3808 92.0694 73.8062 86.9106 73.8062ZM86.9106 59.762C85.3096 59.5908 83.7086 60.1046 82.6412 61.1322C81.396 62.1598 80.6844 63.53 80.5065 65.0714V65.414C80.5065 68.6681 82.997 71.0659 86.9106 71.0659C90.8241 71.0659 93.3146 68.6681 93.3146 65.414C93.3146 62.1598 90.8241 59.762 86.9106 59.762Z" fill="black"/>
<path fill-rule="evenodd" clip-rule="evenodd" d="M108.614 73.8063C103.099 73.8063 99.1855 70.3809 99.1855 65.5853C99.1855 60.6184 103.277 57.3643 108.614 57.3643C111.282 57.193 113.95 58.0494 116.085 59.7621L114.484 61.9886C112.883 60.7897 110.748 59.9333 108.614 59.9333C104.522 59.9333 102.032 62.3311 102.032 65.414C102.032 68.4969 104.522 71.0659 108.614 71.0659C110.748 71.0659 112.883 70.3809 114.662 69.182L116.263 71.4085C114.128 72.9499 111.46 73.635 108.614 73.8063Z" fill="black"/>
<path fill-rule="evenodd" clip-rule="evenodd" d="M141.344 69.5247L139.565 73.2927H136.186L144.191 57.707H147.393L155.398 73.2927H152.196L150.417 69.5247H141.344ZM142.59 66.9556H148.816L145.614 60.6186L142.59 66.9556Z" fill="black"/>
<path fill-rule="evenodd" clip-rule="evenodd" d="M171.231 73.2927V66.6131H160.557V73.2927H157.533V57.707H160.557V64.044H171.231V57.707H174.077V73.2927H171.231Z" fill="black"/>
<path fill-rule="evenodd" clip-rule="evenodd" d="M178.701 73.2927V57.707H181.725V65.0717L189.908 57.707H193.644L185.283 65.2429L194 73.4639H189.908L181.725 65.7568V73.2927H178.701Z" fill="black"/>
<path fill-rule="evenodd" clip-rule="evenodd" d="M129.427 63.3593H122.311V60.1052H133.874V57.5361H119.109V73.293H129.071C132.629 73.293 135.119 71.4091 135.119 68.3262C135.119 65.2433 133.163 63.3593 129.427 63.3593ZM129.783 70.5527H122.489V65.9284H129.783C131.562 65.9284 132.807 66.956 132.807 68.3262C132.807 69.6964 131.917 70.724 129.783 70.5527Z" fill="black"/>
<path fill-rule="evenodd" clip-rule="evenodd" d="M49.7317 50H17V66.0994H49.7317V50Z" fill="#E9041E"/>
<path fill-rule="evenodd" clip-rule="evenodd" d="M49.7317 65.2432H17V81.0001H49.7317V65.2432Z" fill="black"/>
<path fill-rule="evenodd" clip-rule="evenodd" d="M43.8622 64.3867H22.6934V66.2707H43.8622V64.3867Z" fill="white"/>
</svg>
