<svg width="210" height="130" viewBox="0 0 210 130" fill="none" xmlns="http://www.w3.org/2000/svg">
<g clip-path="url(#clip0_404_10508)">
<path fill-rule="evenodd" clip-rule="evenodd" d="M73.7051 67.5488H82.6081V70.3403H77.0325V73.1913H78.891C80.15 73.1913 81.7388 73.3397 82.9678 74.5276C83.4774 75.0325 84.1369 75.9828 84.1369 77.4973C84.1369 78.7149 83.7172 79.8137 82.9678 80.5561C81.9186 81.5955 80.3598 81.8331 78.6212 81.8331H73.7051V67.5488ZM78.3814 79.19C78.831 79.19 79.6404 79.1603 80.18 78.7446C80.3598 78.5961 80.7495 78.21 80.7495 77.4973C80.7495 76.8143 80.3898 76.3688 80.12 76.1609C79.6104 75.8046 78.7711 75.7749 78.4114 75.7749H77.0924V79.2197L78.3814 79.19Z" fill="black"/>
<path fill-rule="evenodd" clip-rule="evenodd" d="M93.1292 72.2706H96.2468V81.833H93.1292V80.6748C92.2899 81.9518 91.0908 82.1597 90.2815 82.1597C88.9025 82.1597 87.7335 81.8033 86.6843 80.7045C85.6651 79.6354 85.2754 78.3882 85.2754 77.1409C85.2754 75.5373 85.8749 74.1712 86.7742 73.2803C87.6136 72.4488 88.7826 71.9736 90.1316 71.9736C90.9409 71.9736 92.2599 72.1815 93.1592 73.3694V72.2706H93.1292ZM89.1723 75.2997C88.8426 75.6264 88.4529 76.1906 88.4529 77.0518C88.4529 77.913 88.8126 78.4476 89.0824 78.7742C89.5021 79.2197 90.1915 79.5167 90.911 79.5167C91.5405 79.5167 92.11 79.2494 92.5297 78.8633C92.9494 78.4773 93.2791 77.8833 93.2791 77.0518C93.2791 76.3688 93.0093 75.7154 92.5597 75.2997C92.08 74.8542 91.3906 74.6464 90.821 74.6464C90.1915 74.6167 89.562 74.9136 89.1723 75.2997Z" fill="black"/>
<path fill-rule="evenodd" clip-rule="evenodd" d="M98.1055 72.2705H101.223V75.5966H104.73V72.2705H107.848V81.8329H104.73V78.0911H101.223V81.8329H98.1055V72.2705Z" fill="black"/>
<path fill-rule="evenodd" clip-rule="evenodd" d="M109.707 72.2705H112.825V76.0717L115.972 72.2705H119.839L115.732 76.7251L120.139 81.8329H116.122L112.825 77.5863V81.8329H109.707V72.2705Z" fill="black"/>
<path fill-rule="evenodd" clip-rule="evenodd" d="M78.8011 49.167C80.0601 49.167 81.439 49.3452 82.5781 50.3549C83.8071 51.424 83.987 52.8494 83.987 53.8294C83.987 55.6409 83.2975 56.6209 82.758 57.1852C81.6189 58.3434 80.0901 58.4324 79.0709 58.4324H77.0325V63.4512H73.7051V49.167H78.8011ZM77.0325 55.7597H78.2315C78.6812 55.7597 79.4905 55.73 80.0301 55.2252C80.3299 54.9282 80.5697 54.4234 80.5697 53.8294C80.5697 53.2355 80.3598 52.7306 80.0301 52.4337C79.5205 51.9585 78.831 51.8991 78.1716 51.8991H77.0325V55.7597Z" fill="black"/>
<path fill-rule="evenodd" clip-rule="evenodd" d="M92.1097 53.8888H95.2272V63.4512H92.1097V62.293C91.2703 63.57 90.0713 63.7779 89.2619 63.7779C87.883 63.7779 86.7139 63.4215 85.6648 62.3227C84.6456 61.2536 84.2559 60.0063 84.2559 58.7591C84.2559 57.1554 84.8554 55.7894 85.7547 54.8985C86.594 54.0669 87.7631 53.5918 89.112 53.5918C89.9214 53.5918 91.2404 53.7997 92.1397 54.9876V53.8888H92.1097ZM88.1528 56.9179C87.8231 57.2445 87.4334 57.8088 87.4334 58.67C87.4334 59.5312 87.7931 60.0657 88.0629 60.3924C88.4825 60.8379 89.172 61.1348 89.8914 61.1348C90.5209 61.1348 91.0905 60.8676 91.5102 60.4815C91.9298 60.0954 92.2596 59.5015 92.2596 58.67C92.2596 57.9869 91.9898 57.3336 91.5401 56.9179C91.0605 56.4724 90.371 56.2645 89.8015 56.2645C89.202 56.2348 88.5725 56.5318 88.1528 56.9179Z" fill="black"/>
<path fill-rule="evenodd" clip-rule="evenodd" d="M100.235 53.8884V59.3527L104.342 53.8884H107.249V63.4508H104.132V57.8975L100.025 63.4508H97.1172V53.8884H100.235ZM106.11 50.0278C105.84 50.7999 105.331 51.4533 104.731 51.8393C103.922 52.3739 102.903 52.4333 102.183 52.4333C101.464 52.4333 100.475 52.3739 99.6352 51.8393C99.0357 51.4533 98.4961 50.7999 98.2563 50.0278L100.415 49.1963C100.505 49.612 100.714 49.9684 100.984 50.1763C101.254 50.4139 101.614 50.5623 102.183 50.5623C102.753 50.5623 103.082 50.4139 103.382 50.1763C103.652 49.9684 103.862 49.612 103.952 49.1963L106.11 50.0278Z" fill="black"/>
<path fill-rule="evenodd" clip-rule="evenodd" d="M114.112 68.2324V63.5997H113.992C111.804 63.5997 110.605 62.7088 110.035 62.1743C109.346 61.5209 108.656 60.3628 108.656 58.6403C108.656 56.7397 109.526 55.5518 110.335 54.9282C111.294 54.1858 112.703 53.77 113.992 53.77H114.142V49.167H117.259V53.7403H117.409C118.668 53.7403 120.107 54.1561 121.066 54.8985C121.876 55.5221 122.745 56.7397 122.745 58.6106C122.745 60.3628 122.056 61.4912 121.366 62.1446C120.797 62.6791 119.598 63.57 117.409 63.57H117.289V68.2028H114.112V68.2324ZM114.262 56.2349C113.542 56.2052 112.763 56.4428 112.313 56.8882C111.954 57.2446 111.684 57.8682 111.684 58.6403C111.684 59.3828 111.954 60.0064 112.313 60.3924C112.733 60.8379 113.452 61.1349 114.262 61.1052V56.2349ZM117.08 61.1349C117.889 61.1646 118.608 60.8676 119.028 60.4221C119.388 60.0361 119.658 59.4124 119.658 58.67C119.658 57.9276 119.388 57.304 119.028 56.9179C118.578 56.4724 117.829 56.2052 117.08 56.2646V61.1349Z" fill="black"/>
<path fill-rule="evenodd" clip-rule="evenodd" d="M129.1 68.2324V63.5997H128.98C126.792 63.5997 125.593 62.7088 125.023 62.1743C124.334 61.5209 123.645 60.3628 123.645 58.6403C123.645 56.7397 124.514 55.5518 125.323 54.9282C126.282 54.1858 127.691 53.77 128.98 53.77H129.13V49.167H132.248V53.7403H132.398C133.657 53.7403 135.096 54.1561 136.055 54.8985C136.864 55.5221 137.733 56.7397 137.733 58.6106C137.733 60.3628 137.044 61.4912 136.355 62.1446C135.785 62.6791 134.586 63.57 132.398 63.57H132.278V68.2028H129.1V68.2324ZM129.25 56.2349C128.531 56.2052 127.751 56.4428 127.302 56.8882C126.942 57.2446 126.672 57.8682 126.672 58.6403C126.672 59.3828 126.942 60.0064 127.302 60.3924C127.721 60.8379 128.441 61.1349 129.25 61.1052V56.2349ZM132.068 61.1349C132.877 61.1646 133.597 60.8676 134.016 60.4221C134.376 60.0361 134.646 59.4124 134.646 58.67C134.646 57.9276 134.376 57.304 134.016 56.9179C133.567 56.4724 132.817 56.2052 132.068 56.2646V61.1349Z" fill="black"/>
<path fill-rule="evenodd" clip-rule="evenodd" d="M146.487 53.8888H149.604V63.4512H146.487V62.293C145.647 63.57 144.448 63.7779 143.639 63.7779C142.26 63.7779 141.091 63.4215 140.042 62.3227C139.023 61.2536 138.633 60.0063 138.633 58.7591C138.633 57.1554 139.232 55.7894 140.132 54.8985C140.971 54.0669 142.14 53.5918 143.489 53.5918C144.298 53.5918 145.617 53.7997 146.517 54.9876V53.8888H146.487ZM142.53 56.9179C142.2 57.2445 141.81 57.8088 141.81 58.67C141.81 59.5312 142.17 60.0657 142.44 60.3924C142.859 60.8379 143.549 61.1348 144.268 61.1348C144.898 61.1348 145.467 60.8676 145.887 60.4815C146.307 60.0954 146.637 59.5015 146.637 58.67C146.637 57.9869 146.367 57.3336 145.917 56.9179C145.437 56.4724 144.748 56.2645 144.178 56.2645C143.579 56.2348 142.949 56.5318 142.53 56.9179Z" fill="black"/>
<path fill-rule="evenodd" clip-rule="evenodd" d="M154.612 53.8884V59.3527L158.718 53.8884H161.626V63.4508H158.509V57.8975L154.402 63.4508H151.494V53.8884H154.612ZM160.487 50.0278C160.217 50.7999 159.708 51.4533 159.108 51.8393C158.299 52.3739 157.28 52.4333 156.56 52.4333C155.841 52.4333 154.851 52.3739 154.012 51.8393C153.413 51.4533 152.873 50.7999 152.633 50.0278L154.792 49.1963C154.881 49.612 155.091 49.9684 155.361 50.1763C155.631 50.4139 155.991 50.5623 156.56 50.5623C157.1 50.5623 157.459 50.4139 157.759 50.1763C158.029 49.9684 158.239 49.612 158.329 49.1963L160.487 50.0278Z" fill="black"/>
<path fill-rule="evenodd" clip-rule="evenodd" d="M163.184 54.7197C163.604 54.4524 164.263 54.1258 164.773 53.9179C165.492 53.6506 166.301 53.5615 167.051 53.5615C167.56 53.5615 169.329 53.5912 170.318 54.5415C170.858 55.0464 171.038 55.67 171.038 56.2936C171.038 56.8876 170.918 57.4221 170.468 57.927C170.228 58.1646 169.959 58.3427 169.659 58.4615C170.378 58.6397 170.828 59.0258 170.948 59.1446C171.427 59.59 171.577 60.1246 171.577 60.7185C171.577 61.3718 171.368 62.0846 170.738 62.7082C169.929 63.51 168.79 63.7476 167.201 63.7476C166.331 63.7476 165.432 63.6288 164.563 63.3318C163.724 63.0052 163.094 62.53 162.824 62.3221L164.143 60.3027C164.503 60.5997 164.953 60.8967 165.342 61.0749C165.762 61.253 166.331 61.3718 166.841 61.3718C167.201 61.3718 167.65 61.3124 167.98 61.1343C168.34 60.9264 168.4 60.6294 168.4 60.4215C168.4 60.0949 168.22 59.9167 167.95 59.7979C167.68 59.6791 167.171 59.6197 166.811 59.6197H165.642V57.5112H166.541C166.811 57.5112 167.411 57.4815 167.71 57.333C168.07 57.1549 168.16 56.8876 168.16 56.7094C168.16 56.5312 168.07 56.2639 167.68 56.0858C167.531 56.0264 167.231 55.9076 166.691 55.9076C166.182 55.9076 165.822 55.9967 165.432 56.1749C165.013 56.353 164.713 56.5312 164.383 56.7985L163.184 54.7197Z" fill="black"/>
<path fill-rule="evenodd" clip-rule="evenodd" d="M182.848 59.2045H175.654C175.654 59.7094 175.864 60.3924 176.224 60.8379C176.703 61.3427 177.363 61.4318 177.812 61.4318C178.262 61.4318 178.742 61.3427 179.071 61.1645C179.101 61.1348 179.491 60.8972 179.731 60.3627L182.669 60.6597C182.249 61.996 181.38 62.7088 180.81 63.0651C179.881 63.6294 178.832 63.7779 177.752 63.7779C176.314 63.7779 175.025 63.5106 173.915 62.4118C173.076 61.5803 172.477 60.3033 172.477 58.7294C172.477 57.3633 172.986 55.9379 173.945 54.9579C175.114 53.7997 176.553 53.5918 177.633 53.5918C178.712 53.5918 180.27 53.7997 181.469 55.0173C182.609 56.2051 182.818 57.7197 182.818 58.9076V59.2045H182.848ZM180.001 57.393C179.971 57.3039 179.821 56.71 179.371 56.2645C179.011 55.9379 178.532 55.73 177.902 55.73C177.093 55.73 176.643 56.0566 176.314 56.3536C176.074 56.6209 175.864 56.9476 175.774 57.393H180.001Z" fill="black"/>
<path fill-rule="evenodd" clip-rule="evenodd" d="M184.258 53.8887H187.375V57.2147H190.883V53.8887H194V63.4511H190.883V59.7093H187.375V63.4511H184.258V53.8887Z" fill="black"/>
<path fill-rule="evenodd" clip-rule="evenodd" d="M65.4611 80.7345C65.4611 86.7036 62.1337 90 56.1085 90H25.3526C19.3274 90 16 86.7036 16 80.7345V50.2655C16 44.2964 19.3274 41 25.3526 41H56.1384C62.1337 41 65.4611 44.2964 65.4611 50.2655V80.7345Z" fill="#FEE600"/>
<path fill-rule="evenodd" clip-rule="evenodd" d="M47.8042 63.1243V58.4322L49.5128 56.7394V60.8079L51.0116 62.2928L56.977 56.3831L58.4458 57.8382C58.4458 56.7394 58.206 53.5322 55.4781 50.8891C52.5404 48.0679 49.333 49.3449 48.2538 50.414L42.2885 56.294L43.8173 57.8085L40.7297 60.8673L37.6422 57.8085L39.171 56.294L33.2057 50.414C32.1265 49.3449 28.919 48.0679 25.9813 50.8891C23.2535 53.5619 23.0137 56.7394 23.0137 57.8382L24.4825 56.3831L30.4478 62.2928L31.9466 60.8079V56.7691L33.6553 58.4619V63.154L36.0534 65.5297L24.2427 77.2303L28.919 81.8631L40.7297 70.1625L52.5404 81.8631L57.2168 77.2303L45.4061 65.5L47.8042 63.1243Z" fill="#2B2D33"/>
</g>
<defs>
<clipPath id="clip0_404_10508">
<rect width="178" height="49" fill="white" transform="translate(16 41)"/>
</clipPath>
</defs>
</svg>
