<svg width="210" height="130" viewBox="0 0 210 130" fill="none" xmlns="http://www.w3.org/2000/svg">
<g clip-path="url(#clip0_404_10515)">
<path d="M55.9931 39L39.0039 56.3385H55.9931V91L72.9975 73.7078V39H55.9931Z" fill="#EA5616"/>
<path d="M39.0044 91L55.9936 73.6615H39.0044V39L22 56.2922V91H39.0044Z" fill="#2C2D84"/>
<path d="M89.9863 82.323H98.92V55.4584H112.517V82.323H121.436V47.6615H89.9863V82.323ZM176.674 60.646H169.057V55.4584H186.031V47.6615H160.124V82.323C160.124 82.323 172.858 82.323 177.098 82.323C183.896 82.323 188.999 78.8491 188.999 71.4845C188.999 64.1199 183.896 60.646 176.674 60.646ZM175.826 74.9584H169.057V68.0261H175.826C177.93 68.0261 180.065 68.8753 180.065 71.4845C180.065 74.0938 177.93 74.9584 175.826 74.9584ZM143.271 74.943C137.32 74.943 133.974 70.4964 133.974 64.9845C133.974 60.5688 136.411 55.0261 143.104 55.0261C147.283 55.0261 149.979 57.6354 150.932 58.8396L156.353 53.3123C153.083 49.3289 148.161 46.7969 142.665 46.7969C132.808 46.7969 125.025 54.2387 125.025 65C125.025 75.051 132.808 83.2031 142.665 83.2031C148.57 83.2031 153.794 80.285 157.05 75.7767L151.599 70.1876C149.873 72.9513 147.056 74.943 143.271 74.943Z" fill="#2C2D84"/>
</g>
<defs>
<clipPath id="clip0_404_10515">
<rect width="167" height="52" fill="white" transform="translate(22 39)"/>
</clipPath>
</defs>
</svg>
