<svg width="210" height="130" viewBox="0 0 210 130" fill="none" xmlns="http://www.w3.org/2000/svg">
<g clip-path="url(#clip0_404_10516)">
<path d="M187.063 81.4683H190.66L190.68 86.6041L193.167 81.4683H196.887L193.701 88.1376L197.01 95.8361H193.29L191.667 92.0074L190.69 89.7946L190.67 95.8361H187.073L187.063 81.4683ZM174.536 81.4683H178.164V86.9231L180.866 86.9334V81.4786H184.473V95.8464L180.877 95.8567V90.5562H178.174V95.8567H174.536V81.4683ZM167.034 87.4068L166.109 90.8444H167.908L167.034 87.4068ZM164.979 81.4786L169.12 81.4683L172.697 95.8361L169.131 95.8464L168.596 93.8189L165.493 93.788L164.969 95.8464H161.413L164.763 82.3225L164.979 81.4786ZM154.436 90.3092C154.446 90.9885 154.436 91.6678 154.436 92.3471C154.949 92.3059 155.587 92.5015 156.008 92.1104C156.316 91.6884 156.337 91.04 156.039 90.6077C155.648 90.1343 154.97 90.3401 154.436 90.3092ZM150.798 81.4683C153.593 81.4683 156.388 81.4683 159.183 81.4683C159.173 82.4769 159.183 83.4855 159.183 84.4839C157.601 84.4839 156.018 84.4942 154.446 84.4839C154.425 85.2558 154.446 86.0277 154.436 86.7893C155.422 86.8408 156.419 86.7173 157.395 86.8717C158.454 87.0672 159.317 87.87 159.79 88.8066C160.242 89.7432 160.303 90.8033 160.221 91.8222C160.129 92.9646 159.728 94.1482 158.865 94.9407C158.279 95.5068 157.477 95.8258 156.666 95.8155C154.713 95.8258 152.761 95.8155 150.798 95.8155C150.798 91.0503 150.798 86.2644 150.798 81.4683ZM140.614 81.4683H148.578V85.3793H146.41V95.8464H142.772V85.3793H140.604L140.614 81.4683ZM121.654 81.4683H128.899V85.0808H125.251L125.261 86.9334H128.858L128.848 90.5357H125.251V92.2545L128.899 92.2647V95.8361H121.654V81.4683ZM113.844 90.0416C113.834 90.7415 113.844 91.4414 113.834 92.1412C114.379 92.0898 115.077 92.3162 115.478 91.8428C115.756 91.4002 115.776 90.7415 115.427 90.3298C115.016 89.8975 114.368 90.0828 113.844 90.0416ZM113.844 84.5765C113.844 85.2661 113.844 85.9454 113.844 86.6349C114.266 86.6246 114.821 86.7481 115.098 86.3365C115.345 85.9042 115.334 85.3278 115.108 84.8956C114.831 84.4736 114.266 84.5971 113.844 84.5765ZM110.207 81.4683C112.087 81.4786 113.968 81.458 115.858 81.4786C116.804 81.4888 117.729 81.9829 118.243 82.7857C118.89 83.7428 118.993 84.9573 118.869 86.0792C118.798 86.9334 118.448 87.8494 117.636 88.2405C118.253 88.4875 118.828 88.8786 119.198 89.455C119.835 90.4636 119.856 91.7398 119.681 92.8926C119.537 93.8497 119.065 94.8069 118.222 95.3421C117.534 95.8052 116.681 95.8876 115.879 95.867C113.988 95.867 112.097 95.867 110.207 95.867C110.196 91.0503 110.196 86.2644 110.207 81.4683ZM97.762 81.4683H101.359V86.9334H104.102V81.4786H107.709V95.8361H104.102L104.113 90.546H101.359V95.8361H97.762V81.4683ZM84.5364 81.4683H88.1331L88.1536 88.3743L91.7401 81.4683H95.1312V95.8361H91.4934L91.4832 89.2594L88.1228 95.8464H84.5261L84.5364 81.4683ZM75.1336 81.4683H80.0765L82.9847 95.8361H79.3469L77.8054 85.2455H77.4766L75.894 95.8361H72.2973L75.1336 81.4683ZM63.3775 81.4683H68.4026L71.2697 95.8361H67.6319L66.0596 85.122L65.8027 85.1323L64.1894 95.8361H60.5927L63.3775 81.4683ZM53.9542 87.2936L53.0293 90.9268H54.8277L53.9542 87.2936ZM51.8373 81.4683H56.0505L59.6061 95.8464H56.0505L55.4751 93.788L52.4025 93.7983L51.8681 95.8567L48.2714 95.8464L51.8373 81.4683ZM38.9919 81.4683H46.9252V85.3793H44.7672L44.7569 95.8464H41.1191V85.3793H38.9919V81.4683ZM29.7741 81.4683H37.0189V85.0705L33.3708 85.0808V86.9231L35.9604 86.9334V90.5357H33.3811V92.2545L37.0291 92.2647V95.8361H29.7844L29.7741 81.4683ZM16.0758 81.4683H19.7958L21.1626 87.7568L22.5807 81.4683H26.1774L28.2224 95.8361H24.6257L23.7419 88.6419L22.2519 95.8361H20.2069L18.5832 88.6522L17.5761 95.8464H14L14.596 91.6266L16.0758 81.4683ZM134.469 81.9829C135.435 81.458 136.565 81.3036 137.654 81.3551C138.004 81.3653 138.353 81.4683 138.692 81.5609C138.692 83.1871 138.692 84.8132 138.692 86.4291C138.014 86.11 137.213 85.9968 136.483 86.2232C135.784 86.4497 135.363 87.1392 135.25 87.8391C135.065 88.8477 135.178 90.0313 135.949 90.7827C136.37 91.2047 136.997 91.2458 137.562 91.2252C137.952 91.2252 138.333 91.0914 138.692 90.9473C138.692 92.5838 138.703 94.2203 138.692 95.8567C138.23 96.0111 136.945 96.042 136.411 95.9802C135.394 95.8464 134.387 95.4656 133.606 94.7863C132.218 93.5924 131.417 91.8119 131.211 90.0108C130.995 88.1273 131.191 86.1306 132.126 84.4427C132.66 83.4341 133.441 82.5284 134.469 81.9829Z" fill="#00337F"/>
<path d="M102.016 44.2104C101.646 44.3339 101.574 44.8999 101.893 45.1161C102.222 45.394 102.818 45.1572 102.818 44.7147C102.838 44.303 102.355 44.0354 102.016 44.2104ZM103.969 34.0005H104.647C104.647 35.6267 104.678 37.2529 104.657 38.8687C101.317 39.0643 98.1009 40.711 95.9532 43.2841C94.4939 45.0234 93.5177 47.1745 93.1786 49.4182C92.6545 52.8249 93.641 56.4272 95.8401 59.0825C96.3951 59.7721 97.0322 60.3896 97.7104 60.9454C99.2827 56.8183 100.845 52.7014 102.407 48.5742C101.204 48.5742 100.012 48.6051 98.81 48.5845C98.1626 48.5331 97.8029 49.1506 97.3713 49.5211C97.3713 48.6051 97.2583 47.6582 97.5152 46.7628C97.7413 45.7542 98.0084 44.6838 98.7072 43.881C99.519 43.037 100.742 42.6871 101.883 42.7694C105.068 42.7489 108.254 42.718 111.44 42.7077C110.957 43.2429 110.443 43.7575 109.949 44.2721C111.152 49.727 112.364 55.1921 113.567 60.6469C116.156 58.4341 117.77 55.1098 117.872 51.6928C118.016 48.3478 116.701 44.9823 114.358 42.5945C112.221 40.3817 109.24 39.0231 106.178 38.8481C106.199 37.2323 106.209 35.6061 106.229 33.9902H107.103C110.391 34.2887 113.577 35.5444 116.177 37.6028C118.808 39.6715 120.822 42.5121 121.88 45.6821C123.072 49.2021 123.093 53.1028 121.921 56.6227C120.966 59.5457 119.198 62.1908 116.886 64.2183C114.574 66.2562 111.717 67.6559 108.685 68.222C104.914 68.9424 100.917 68.3558 97.5152 66.5649C94.1137 64.7947 91.3391 61.8717 89.7463 58.3827C88.0713 54.7392 87.7424 50.5092 88.8112 46.6496C89.7463 43.212 91.7913 40.0935 94.5453 37.8498C97.2069 35.6679 100.536 34.3093 103.969 34.0005Z" fill="#00337F"/>
</g>
<defs>
<clipPath id="clip0_404_10516">
<rect width="183" height="62" fill="white" transform="translate(14 34)"/>
</clipPath>
</defs>
</svg>
