<svg width="210" height="130" viewBox="0 0 210 130" fill="none" xmlns="http://www.w3.org/2000/svg">
<g clip-path="url(#clip0_404_10500)">
<path d="M60.685 54.6122C63.7276 54.6122 66.756 54.6122 69.7985 54.6122C69.7985 55.5286 69.7985 56.4305 69.7985 57.347C69.2183 57.056 68.6098 56.7942 67.9447 56.7796C66.6569 56.7796 65.3691 56.7796 64.0955 56.7796C64.0672 60.8527 64.0814 64.9257 64.0814 68.9988C64.421 68.9988 64.7606 68.9988 65.1002 69.0715C67.0107 69.2897 68.6947 70.5989 69.5579 72.3445C70.0532 73.2464 70.2938 74.221 70.5344 75.2247C70.8315 77.0285 70.9023 78.8614 70.7325 80.6797C70.5768 82.2216 70.4919 83.3126 69.9542 84.8254C69.3739 86.3819 68.1711 87.7202 66.6286 88.273C65.3974 88.6221 64.1097 88.6367 62.836 88.5639C62.1002 88.4621 61.3643 88.5203 60.6426 88.4912C60.685 88.3894 60.7275 88.2875 60.7699 88.1857C60.9539 87.6329 61.0388 87.0656 61.0813 86.4838C61.1803 86.0474 61.1379 85.5964 61.1379 85.1455C61.1379 75.9084 61.1379 66.6713 61.1379 57.4197C61.2086 56.4742 60.9681 55.5286 60.685 54.6122ZM64.0955 71.1371C64.0955 76.243 64.0955 81.3634 64.0955 86.4692C64.5625 86.4692 65.0436 86.4256 65.4965 86.2947C65.8503 86.1201 66.2323 85.9164 66.4305 85.5382C67.1805 84.2145 67.3503 81.4943 67.3645 79.9669C67.3786 77.2758 67.0248 73.9737 66.1899 72.4463C65.7795 71.6608 64.9729 71.0789 64.0955 71.1371ZM115.436 54.6122C116.696 54.6122 117.955 54.6122 119.215 54.6122C119.272 54.874 119.342 55.1359 119.399 55.3977C119.597 56.1978 119.809 56.9978 119.979 57.8125C120.63 60.4599 121.253 63.122 121.904 65.7694C122.017 66.2495 122.13 66.7441 122.257 67.2241C122.342 67.5587 122.427 67.9078 122.47 68.2423L122.555 68.2278C123.206 64.853 124.281 60.9254 125.088 57.5652C125.3 56.576 125.555 55.5577 125.753 54.5977C126.97 54.5977 128.413 54.6122 129.644 54.5977C129.475 54.9613 129.376 55.3395 129.291 55.7323C129.093 56.8524 129.163 57.987 129.149 59.1216C129.149 66.424 129.149 73.7264 129.149 81.0288C129.163 82.8035 129.121 84.5782 129.163 86.3674C129.291 87.022 129.404 87.6911 129.616 88.3312C128.343 88.3312 127.069 88.3312 125.781 88.3312C125.824 87.9821 125.908 87.6475 125.993 87.3129C126.135 86.7601 126.22 86.1928 126.192 85.6255C126.177 78.5413 126.206 71.4571 126.177 64.373C126.107 64.4748 126.05 64.5766 126.022 64.7075C125.201 68.7369 124.366 72.7663 123.545 76.7957C123.489 77.0285 123.446 77.2758 123.39 77.5085C123.319 77.8431 123.248 78.1777 123.191 78.5122L123.149 78.585C122.993 79.5305 122.753 80.4615 122.597 81.407C122.569 81.5088 122.484 81.6979 122.456 81.7852C122.286 80.8106 122.073 79.836 121.847 78.8614C121.819 78.6868 121.79 78.5122 121.762 78.3522C121.706 78.1631 121.677 77.9595 121.635 77.7558C121.338 76.3884 121.083 75.0211 120.786 73.6537C120.503 72.1554 120.163 70.6571 119.866 69.1588C119.625 68.0241 119.399 66.8895 119.172 65.7549C119.059 65.2458 118.974 64.7366 118.889 64.2275C118.819 67.4859 118.875 70.7444 118.861 74.0028C118.861 77.3921 118.861 80.7815 118.861 84.1709C118.875 85.1746 118.79 86.2074 119.045 87.1965C119.13 87.5748 119.229 87.953 119.342 88.3312C118.069 88.3312 116.795 88.3312 115.521 88.3312C115.663 87.4729 115.946 86.6292 115.946 85.7564C115.946 76.1557 115.946 66.5549 115.946 56.9687C115.861 56.1687 115.819 55.325 115.436 54.6122ZM76.0392 60.78C76.3505 60.6927 76.676 60.6345 77.0015 60.5618C77.2845 60.5472 77.5676 60.5472 77.8506 60.5618C78.5723 60.6927 79.3223 60.8963 79.8884 61.3909C81.0629 62.3801 81.5299 64.0238 81.5441 65.5367C81.5441 71.7481 81.5441 77.9595 81.5441 84.1854C81.5582 84.9564 81.8413 85.771 82.4215 86.2801C82.5064 86.3528 82.5347 86.4547 82.5347 86.5856C81.8696 87.342 81.2469 88.1712 80.6667 88.9858C80.0582 88.7385 79.6195 88.2148 79.2516 87.6766C78.8836 88.433 78.077 88.8694 77.2704 88.8549C76.5628 88.8985 75.8836 88.7239 75.2326 88.4475C74.3835 88.0257 73.6759 87.3275 73.2231 86.4838C73.1523 86.3237 73.0674 86.1637 72.9967 86.0037C72.2184 83.9963 72.4448 81.7561 72.9259 79.7051C73.0816 79.0941 73.2797 78.4831 73.5203 77.8867C73.6618 77.5085 73.8316 77.1594 74.0014 76.8103C75.1052 74.6138 76.7468 72.7081 78.7563 71.3408C78.7846 69.2897 78.7563 67.2241 78.7704 65.173C78.7563 64.3584 78.7704 63.4711 78.3034 62.7728C77.9355 62.2346 77.1572 62.1764 76.6194 62.4674C76.2798 62.6419 76.11 63.0201 75.9402 63.3402C75.7137 64.0675 75.7137 64.5621 75.6005 65.2894C75.5015 67.0059 75.5015 67.9223 75.827 69.6097C74.9496 69.5952 74.058 69.6097 73.1807 69.5952C73.0816 69.4497 72.9967 69.3042 72.9118 69.1588C72.6004 67.7478 72.8269 66.2931 73.124 64.9112C73.209 64.5912 73.2939 64.2711 73.4071 63.9657C73.5627 63.5438 73.7326 63.122 73.9307 62.7292C74.426 61.9146 75.1194 61.1436 76.0392 60.78ZM78.728 73.77C78.2468 74.3083 77.7374 74.832 77.3977 75.4865C77.0581 76.0539 76.8741 76.5484 76.6336 77.1449C75.9119 79.2396 75.6996 81.5088 75.8836 83.7054C75.8977 84.4181 76.0392 85.1309 76.2515 85.8146C76.4072 86.2219 76.6336 86.6438 77.0298 86.862C77.6383 87.0802 78.5157 86.9202 78.7138 86.1928C78.7987 85.5237 78.7421 84.8545 78.7563 84.1999C78.728 80.7233 78.7846 77.2467 78.728 73.77ZM135.008 60.8963C135.715 60.5036 136.55 60.5181 137.329 60.5618C138.899 60.8236 139.89 62.2928 140.414 63.7184C140.796 64.8966 141.008 65.9003 141.234 67.1223C141.432 68.6497 141.503 70.1916 141.574 71.719C141.659 74.1337 141.546 76.563 141.489 78.9777C141.291 81.567 141.093 84.2581 139.918 86.6147C139.522 87.3566 138.984 88.0839 138.22 88.4766C136.975 89.1603 135.291 88.9421 134.3 87.8948C133.692 87.3129 133.31 86.5419 132.984 85.771C132.942 85.6401 132.899 85.5237 132.857 85.4073C132.8 85.2473 132.758 85.1018 132.701 84.9418C132.645 84.6509 132.56 84.3745 132.475 84.0836C132.319 83.1962 132.107 82.3089 132.036 81.407C131.923 80.9706 131.994 80.5197 131.88 80.0978C131.682 77.1594 131.696 74.2064 131.739 71.2535C131.838 69.057 132.008 66.8313 132.574 64.7075C132.645 64.4602 132.729 64.2129 132.8 63.9802C132.857 63.8202 132.913 63.6747 132.984 63.5293C133.409 62.4674 134.003 61.42 135.008 60.8963ZM135.56 63.1365C135.517 63.2965 135.475 63.4565 135.432 63.6311C135.305 64.3439 135.277 65.0712 135.248 65.784C135.079 69.1297 135.135 72.49 135.135 75.8357C135.192 77.2467 135.093 78.6577 135.206 80.0687C135.248 81.0724 135.234 82.0907 135.291 83.109C135.404 83.6617 135.319 84.2436 135.432 84.7964C135.461 85.0873 135.489 85.3782 135.517 85.6692C135.588 85.9601 135.645 86.2656 135.744 86.5419C135.857 86.8183 136.112 86.9783 136.338 87.1529C136.862 87.2693 137.414 86.9492 137.569 86.411C137.767 85.7273 137.824 85.0146 137.866 84.3163C137.994 83.7199 137.923 83.109 137.98 82.498C138.064 81.8579 138.036 81.2179 138.05 80.5779C138.107 77.7558 138.149 74.9192 138.149 72.0972C138.121 69.4352 138.135 66.7586 137.909 64.0966C137.838 63.5583 137.725 62.9765 137.343 62.5837C137.06 62.2928 136.593 62.2637 136.211 62.3801C135.913 62.4965 135.701 62.8165 135.56 63.1365ZM146.598 61.3036C147.489 60.4745 148.834 60.3581 149.937 60.7945C150.263 60.9545 150.588 61.1727 150.871 61.4055C151.593 62.0891 152.088 63.0056 152.428 63.9511C152.923 65.493 153.164 67.1223 153.037 68.7369C153.008 69.0424 152.881 69.3333 152.782 69.6243C151.848 69.7843 150.886 69.6534 149.937 69.697C150.32 68.3151 150.447 67.675 150.39 65.9731C150.362 65.2748 150.291 64.5766 150.121 63.8929C149.98 63.3402 149.753 62.7583 149.272 62.4383C149.003 62.2492 148.664 62.3219 148.367 62.351C147.942 62.6274 147.702 63.1074 147.631 63.602C147.263 65.9585 147.433 68.3733 147.305 70.7444C147.291 73.6973 147.263 76.9848 147.39 79.9378C147.376 81.2324 147.503 82.5271 147.532 83.8217C147.673 84.7964 147.631 85.8146 148.027 86.7311C148.282 86.9929 148.607 87.2402 149.003 87.1529C149.683 87.0511 150.051 86.3383 150.22 85.7273C150.673 83.9672 150.588 82.1198 150.687 80.316C150.687 78.7304 150.772 77.0867 150.136 75.6175C150.121 75.5593 150.121 75.4575 150.107 75.3993C151.126 75.4138 152.131 75.3847 153.15 75.4284C153.235 75.6029 153.32 75.7775 153.404 75.9375C153.447 76.9267 153.447 77.9158 153.419 78.905C153.39 80.2578 153.221 81.9598 152.98 83.269C152.853 83.9963 152.654 84.7236 152.428 85.4364C152.074 86.411 151.636 87.3856 150.871 88.0839C150.079 88.8549 148.876 89.0585 147.857 88.7385C146.937 88.4766 146.216 87.7493 145.734 86.9347C144.999 85.6546 144.645 84.1854 144.404 82.7307C144.277 82.1052 144.249 81.4506 144.15 80.8251C143.966 78.6141 143.895 76.2284 143.881 74.0028C143.867 72.1117 143.951 69.9734 144.15 68.1114C144.305 66.8022 144.517 65.5076 144.914 64.2566C145.253 63.151 145.734 62.0601 146.598 61.3036ZM169.919 61.1582C170.712 60.6927 171.631 60.5036 172.537 60.5618C173.315 60.6636 174.108 60.9254 174.688 61.5073C175.537 62.3801 175.919 63.6165 176.047 64.8239C176.174 65.944 176.188 67.0786 176.047 68.1987C175.976 68.8388 175.764 69.4643 175.509 70.0461C175.113 70.788 174.589 71.4862 173.896 71.9372C173.896 71.9663 173.896 72.039 173.881 72.0826C174.348 72.2572 174.731 72.5918 175.098 72.9263C175.636 73.5082 176.018 74.2064 176.301 74.9483C176.514 75.5884 176.655 76.2284 176.768 76.8976C176.882 78.1486 176.981 79.4141 176.853 80.6651C176.797 82.0616 176.613 83.4726 176.146 84.7818C175.806 85.771 175.198 86.6729 174.377 87.2984C173.825 87.7348 173.202 88.0548 172.509 88.1712C170.839 88.4766 169.141 88.273 167.471 88.3457C167.683 87.6184 167.995 86.9056 167.98 86.1201C167.98 79.2541 167.98 72.4027 167.98 65.5512C167.952 63.9075 168.546 62.1328 169.919 61.1582ZM171.787 62.3655C171.221 62.5692 170.952 63.1801 170.853 63.7475C170.683 64.8675 170.74 65.9876 170.74 67.1223C170.74 68.5624 170.74 70.0025 170.74 71.4426C171.66 71.5153 172.537 70.948 172.99 70.1334C173.414 69.3624 173.627 68.4751 173.697 67.6023C173.867 66.5259 173.754 65.4203 173.74 64.3293C173.655 63.6311 173.627 62.7292 172.891 62.3946C172.523 62.3073 172.141 62.2637 171.787 62.3655ZM170.726 73.45C170.754 77.7558 170.712 82.0761 170.74 86.3819C171.561 86.4256 172.58 86.1928 172.962 85.3491C173.372 84.4618 173.499 83.4581 173.57 82.4834C173.754 80.8833 173.683 78.6722 173.499 77.043C173.414 76.1993 173.259 75.3847 172.905 74.6138C172.48 73.8137 171.617 73.3337 170.726 73.45ZM84.1196 60.9982C85.2234 60.9836 86.3414 60.9982 87.4452 60.9982C87.4452 65.1148 87.4452 69.2461 87.4452 73.3627C88.4641 73.3627 89.4971 73.3627 90.516 73.3627C90.5302 70.1043 90.516 66.8604 90.516 63.602C90.5726 62.7001 90.3037 61.8128 89.9641 60.9836C91.0679 60.9836 92.1859 60.9836 93.2897 60.9836C93.2897 68.6351 93.2897 76.2866 93.2897 83.9381C93.318 84.9418 93.2189 85.9601 93.3604 86.9638C93.4736 87.4293 93.6576 87.8802 93.8133 88.3457C92.5397 88.3457 91.2519 88.3457 89.9783 88.3457C90.0066 88.2439 90.0773 88.0548 90.1056 87.953C90.6575 86.7311 90.4877 85.3637 90.516 84.0545C90.5019 81.0142 90.5302 77.9886 90.5019 74.9483C89.483 74.9629 88.4641 74.9629 87.4452 74.9483C87.4452 78.8759 87.4169 82.8035 87.4593 86.7311C87.5725 87.1384 87.6433 87.5602 87.8273 87.9384C87.8697 88.0693 87.9122 88.2003 87.9405 88.3457C86.6669 88.3312 85.3932 88.3312 84.1055 88.3312C84.3036 87.7202 84.5866 87.1384 84.6149 86.4838C84.6574 83.3272 84.6008 80.1851 84.6432 77.0285C84.6149 76.5048 84.6291 75.9811 84.6432 75.4575C84.6008 73.7555 84.6715 72.0681 84.6432 70.3661C84.6291 69.1151 84.6291 67.8641 84.6432 66.6131C84.6149 65.6822 84.6291 64.7512 84.6432 63.8347C84.6715 62.9619 84.6008 62.0746 84.2187 61.2745C84.1904 61.2018 84.1479 61.1 84.1196 60.9982ZM95.8794 60.9982C96.9832 60.9982 98.087 60.9982 99.1908 60.9982C99.1766 63.442 99.1908 65.8858 99.1908 68.3442C99.2191 69.5079 99.1342 70.6862 99.2332 71.8354C99.3606 71.2971 99.5729 70.788 99.771 70.2789C99.9125 69.9152 100.054 69.537 100.181 69.1733C100.266 68.9697 100.337 68.766 100.408 68.5769C100.691 67.8496 100.96 67.1223 101.229 66.3949C101.483 65.6676 101.766 64.9257 102.049 64.2129C102.134 64.0093 102.205 63.8056 102.276 63.5874C102.417 63.2965 102.488 62.9765 102.559 62.6565C102.601 62.1037 102.601 61.5509 102.488 60.9982C103.479 60.9982 104.469 60.9691 105.46 61.0127C105.233 61.5509 105.021 62.1037 104.795 62.6565C104.71 62.8892 104.611 63.122 104.512 63.3547C104.229 64.0384 103.974 64.7366 103.691 65.4203C103.408 66.104 103.153 66.8022 102.87 67.4859C102.714 67.9369 102.474 68.3587 102.361 68.8242C102.559 69.8716 102.799 70.9189 103.026 71.9663C103.281 73.2609 103.564 74.5556 103.847 75.8502C104.342 78.2504 104.851 80.6506 105.375 83.0362C105.757 84.7964 106.111 86.5856 106.493 88.3603C105.417 88.3603 104.342 88.3603 103.252 88.3603C103.295 87.6766 103.464 86.9929 103.337 86.3092C103.153 85.3346 102.913 84.3745 102.714 83.3999C102.021 80.0833 101.257 76.7376 100.535 73.4064C100.04 74.2501 99.6719 75.5156 99.2615 76.4612C99.1342 76.6794 99.1625 76.9412 99.1483 77.1885C99.1483 80.156 99.1483 83.138 99.1483 86.1056C99.1342 86.7456 99.3181 87.3856 99.5587 87.9675C99.6153 88.0984 99.6436 88.2294 99.6719 88.3603C98.3983 88.3457 97.1105 88.3603 95.8369 88.3603C95.9077 88.1421 95.9926 87.9384 96.0916 87.7348C96.2332 87.2547 96.3888 86.7747 96.3747 86.2801C96.3747 78.8468 96.3747 71.4135 96.3747 63.9802C96.3747 63.4565 96.403 62.9183 96.3181 62.3946C96.219 62.0891 96.1483 61.7691 96.0209 61.4636C96.0067 61.3036 95.936 61.1436 95.8794 60.9982ZM155.471 60.9982C156.574 60.9982 157.678 60.9982 158.782 60.9982C158.782 64.4166 158.782 67.835 158.782 71.2535C158.782 71.4571 158.81 71.6608 158.824 71.8644C158.909 71.4862 159.051 71.1226 159.192 70.7589C159.391 70.2352 159.603 69.7116 159.787 69.1879C160.084 68.4315 160.367 67.6605 160.65 66.9041C160.707 66.7295 160.777 66.5695 160.834 66.3949C161.202 65.464 161.542 64.533 161.881 63.602C161.938 63.4565 161.994 63.2965 162.065 63.151C162.235 62.4528 162.249 61.7109 162.093 60.9982C163.07 60.9836 164.06 60.9982 165.037 60.9982C165.023 61.0563 165.009 61.1582 165.009 61.2018C164.796 61.6673 164.612 62.1619 164.414 62.6419C164.315 62.8747 164.216 63.1074 164.117 63.3547C163.593 64.7075 163.042 66.0458 162.518 67.3841C162.334 67.8205 162.178 68.2714 161.98 68.6933C161.994 68.7806 162.008 68.9697 162.008 69.0715C162.235 70.0316 162.433 70.9917 162.645 71.9663C162.716 72.3299 162.787 72.6936 162.872 73.0573C163.056 73.9882 163.268 74.9192 163.466 75.8357C163.707 77.1303 164.018 78.425 164.287 79.7196C164.386 80.2869 164.513 80.8397 164.641 81.407C164.768 82.1052 164.924 82.8035 165.079 83.4872C165.122 83.6763 165.164 83.8799 165.193 84.0836C165.377 84.84 165.518 85.611 165.688 86.3674C165.815 87.0365 165.985 87.6911 166.098 88.3603C165.023 88.3603 163.947 88.3457 162.872 88.3603C162.928 87.6329 163.112 86.8765 162.928 86.1492C162.164 82.5998 161.386 79.0359 160.593 75.4865C160.452 74.7592 160.268 74.0464 160.141 73.3191C159.716 74.3083 159.334 75.312 158.924 76.3157C158.711 76.6939 158.768 77.1303 158.768 77.5376C158.768 80.316 158.768 83.0944 158.768 85.8874C158.74 86.6292 158.909 87.3856 159.235 88.0548C159.249 88.1566 159.263 88.2584 159.277 88.3603C158.004 88.3457 156.73 88.3457 155.471 88.3603C155.612 87.9384 155.796 87.5311 155.895 87.0947C156.022 86.6292 155.994 86.1346 155.994 85.6546C155.994 78.1486 155.994 70.6425 155.994 63.1365C156.008 62.7146 155.909 62.3073 155.81 61.9146C155.711 61.5946 155.598 61.2891 155.471 60.9982ZM178.551 60.9982C179.655 60.9982 180.759 60.9982 181.863 60.9982C181.863 64.1257 181.863 67.2532 181.863 70.3807C182.669 70.4098 183.476 70.5407 184.226 70.8462C185.585 71.4281 186.575 72.65 187.17 74.0028C187.24 74.2064 187.311 74.4101 187.396 74.6138C187.849 76.0684 188.047 77.5958 188.033 79.1086C188.061 80.7815 187.92 82.4689 187.509 84.0836C186.816 85.9601 186.122 87.4002 184.085 88.0839C183.646 88.1857 183.207 88.2584 182.768 88.273C181.382 88.4039 179.967 88.2875 178.566 88.3312C178.622 88.1421 178.679 87.9675 178.75 87.793C179.217 86.7747 179.089 85.6255 179.103 84.5345C179.103 77.4358 179.103 70.3225 179.103 63.2238C179.103 62.4528 178.806 61.7109 178.551 60.9982ZM181.849 72.3445C181.849 77.043 181.835 81.727 181.863 86.4256C182.599 86.3674 183.448 86.2801 183.929 85.6255C184.269 85.0873 184.424 84.4618 184.537 83.8217C184.806 82.1634 184.778 80.0542 184.721 78.3668C184.679 76.9703 184.523 75.5593 184.085 74.2355C183.759 73.2609 182.952 72.2863 181.849 72.3445ZM189.151 60.9982C190.255 60.9836 191.372 60.9982 192.476 60.9836C192.462 69.3624 192.476 77.7413 192.476 86.1201C192.462 86.8911 192.773 87.6038 193 88.3312C191.726 88.3457 190.439 88.3312 189.165 88.3312C189.434 87.7057 189.632 87.0365 189.731 86.3674C189.745 78.5704 189.745 70.788 189.731 62.991C189.646 62.3073 189.462 61.6237 189.151 60.9982Z" fill="#211F20"/>
<path d="M17 42C18.6416 42 20.2831 42 21.9247 42C23.0992 42.0582 24.2313 42.3637 25.321 42.8292C27.4861 43.7892 29.3117 45.4912 30.6277 47.4986C31.0664 48.1677 31.4485 48.8805 31.774 49.6079C32.2834 50.7279 32.524 51.7171 32.7929 52.8954C32.8636 53.4336 32.9768 53.9718 32.9627 54.5101C32.9627 54.6992 32.9485 54.8737 32.9485 55.0628C33.0476 55.0628 33.1467 55.0628 33.2457 55.0628C33.1608 53.6809 33.4863 52.2117 33.925 50.888C34.8024 48.3278 36.3449 45.9712 38.4534 44.3129C39.2034 43.7019 40.0242 43.2074 40.9016 42.8292C41.9488 42.3637 43.0809 42.0873 44.2271 42C45.897 42 47.5527 42 49.2226 42C49.2226 57.4485 49.2226 72.8824 49.2226 88.3309C44.2696 88.3309 39.3025 88.3309 34.3495 88.3309C34.3495 79.6902 34.3495 71.0641 34.3495 62.4234C33.5287 62.4234 32.708 62.4234 31.8872 62.4234C31.8872 71.0641 31.8872 79.6902 31.8872 88.3309C26.9201 88.3309 21.9671 88.3454 17 88.3309C17 72.8969 17 57.4485 17 42Z" fill="#C4112F"/>
</g>
<defs>
<clipPath id="clip0_404_10500">
<rect width="176" height="47" fill="white" transform="translate(17 42)"/>
</clipPath>
</defs>
</svg>
