<svg width="210" height="130" viewBox="0 0 210 130" fill="none" xmlns="http://www.w3.org/2000/svg">
<g clip-path="url(#clip0_404_10524)">
<path fill-rule="evenodd" clip-rule="evenodd" d="M123.456 86.9508C124.096 86.9508 124.635 86.9508 124.905 86.9508C124.972 86.6704 125.174 85.8292 125.477 84.5324C125.679 83.6911 125.949 82.3943 126.016 81.9386C125.747 81.9386 125.376 81.9386 125.039 81.9386C124.669 81.9386 124.332 81.9386 124.164 81.9386C123.995 82.6747 123.76 83.586 123.557 84.252C123.355 84.8478 123.221 85.2684 122.985 85.654C122.715 86.2148 122.48 86.5653 122.075 86.9158C122.446 86.9508 122.917 86.9508 123.456 86.9508ZM120.796 89.159C120.56 89.159 120.257 89.159 119.954 89.159L119.92 89.0889C119.987 88.8786 120.088 88.3879 120.156 88.0724C120.223 87.7219 120.324 87.2663 120.358 86.9859L120.425 86.9158C121.301 86.7405 121.772 86.0045 122.143 85.1282C122.614 84.0417 123.12 82.0788 123.322 81.1325L123.389 81.0624C123.793 81.0624 124.467 81.0624 125.208 81.0624C125.915 81.0624 126.757 81.0624 127.128 81.0273L127.161 81.0974C127.027 81.7283 126.656 83.3406 126.42 84.3571C126.151 85.5488 125.949 86.6003 125.881 86.8457C126.05 86.8457 126.387 86.8457 126.656 86.8457L126.69 86.9158C126.622 87.1611 126.521 87.5467 126.42 88.0023C126.319 88.493 126.218 88.9837 126.218 89.0188L126.151 89.0889C125.848 89.0889 125.612 89.0889 125.309 89.0889L125.275 89.0188C125.309 88.9136 125.376 88.5631 125.444 88.2477C125.511 88.0374 125.545 87.792 125.578 87.6518C125.174 87.6518 124.096 87.6518 123.322 87.6518C122.547 87.6518 121.57 87.6518 121.132 87.6518C121.099 87.757 121.031 88.0374 120.998 88.2827C120.964 88.458 120.863 88.8435 120.863 88.9837L120.796 89.159Z" fill="#006B55"/>
<path fill-rule="evenodd" clip-rule="evenodd" d="M129.418 87.1606C130.765 87.1606 131.001 84.8823 131.001 84.5318C131.001 83.6205 130.462 83.4102 130.058 83.4102C128.812 83.4102 128.475 85.338 128.475 86.0039C128.475 86.6348 128.744 87.1606 129.418 87.1606ZM130.024 82.7793C131.136 82.7793 131.944 83.3751 131.944 84.6019C131.944 85.5833 131.506 87.8616 129.384 87.8616C128.812 87.8616 127.498 87.7214 127.498 86.0039C127.498 84.4617 128.306 82.7793 130.024 82.7793Z" fill="#006B55"/>
<path fill-rule="evenodd" clip-rule="evenodd" d="M134.336 84.9527C134.943 84.9527 135.65 84.7775 135.65 84.0064C135.65 83.4806 135.178 83.4806 134.774 83.4806H134.269C134.235 83.6559 134.168 83.9363 134.101 84.1816C134.033 84.427 133.966 84.7074 133.932 84.9527C134.033 84.9527 134.235 84.9527 134.336 84.9527ZM133.999 87.1258C134.673 87.1258 135.347 87.0207 135.347 86.2145C135.347 85.6187 134.875 85.5486 134.269 85.5486C134.202 85.5486 133.932 85.5486 133.764 85.5486C133.73 85.7589 133.663 86.0393 133.595 86.2496C133.528 86.565 133.461 86.8454 133.393 87.0908C133.494 87.1258 133.898 87.1258 133.999 87.1258ZM132.383 87.7217C132.551 87.0557 132.787 85.9692 132.989 85.0228C133.191 84.1816 133.292 83.4806 133.427 82.9198L133.494 82.8848C133.629 82.8848 133.865 82.8848 134.101 82.8848C134.303 82.8848 134.808 82.8848 134.976 82.8848C135.347 82.8848 135.785 82.9198 136.02 83.025C136.29 83.1652 136.559 83.4456 136.559 83.9012C136.559 84.427 136.222 85.0579 135.481 85.1981C136.088 85.3032 136.29 85.6888 136.29 86.1795C136.29 86.7403 136.054 87.1959 135.616 87.4413C135.246 87.7217 134.606 87.7567 133.898 87.7567C133.528 87.7567 132.686 87.7567 132.383 87.7567V87.7217Z" fill="#006B55"/>
<path fill-rule="evenodd" clip-rule="evenodd" d="M140.566 84.7421C140.6 84.5318 140.6 84.4267 140.6 84.3215C140.6 83.4803 139.893 83.4102 139.657 83.4102C138.613 83.4102 138.276 84.3916 138.175 84.7421C138.209 84.7772 139.994 84.7421 140.566 84.7421ZM140.701 87.476C140.398 87.6513 139.926 87.8616 139.219 87.8616C137.67 87.8616 137.131 86.9152 137.131 85.8287C137.131 84.1813 138.108 82.7793 139.657 82.7793C140.735 82.7793 141.476 83.27 141.476 84.5318C141.476 84.9174 141.408 85.2328 141.375 85.373L141.307 85.4081C140.836 85.4081 139.994 85.4081 139.185 85.4081C138.781 85.4081 138.478 85.4081 138.074 85.4081C138.074 85.4782 138.04 85.6534 138.04 85.8287C138.04 87.0554 139.084 87.0905 139.387 87.0905C140.128 87.0905 140.533 86.775 140.869 86.5297L140.937 86.5647C140.836 86.8802 140.768 87.0905 140.701 87.4059V87.476Z" fill="#006B55"/>
<path fill-rule="evenodd" clip-rule="evenodd" d="M143.294 87.0906C143.732 87.0906 144.17 86.9854 144.507 86.7751C145.248 86.3195 145.585 85.4783 145.585 84.6371C145.585 83.9711 145.248 83.5505 144.641 83.5505C144.237 83.5505 143.833 83.7608 143.53 84.0412C143.463 84.3567 143.362 84.8824 143.227 85.4783C143.059 86.1793 142.957 86.8452 142.89 87.0205C143.092 87.0906 143.16 87.0906 143.294 87.0906ZM142.52 88.8431C142.419 89.2987 142.351 89.6843 142.318 89.9647L142.25 89.9997C141.981 89.9997 141.644 89.9997 141.307 90.0348L141.273 89.9647C141.442 89.3688 141.88 87.3009 142.216 85.8288C142.52 84.4618 142.688 83.5155 142.755 83.0598L142.823 82.9897C143.126 82.9547 143.429 82.8846 143.766 82.8145L143.833 82.8846C143.799 82.9897 143.766 83.165 143.732 83.2701C144.103 82.9897 144.54 82.8145 145.113 82.8145C146.258 82.8145 146.662 83.7608 146.662 84.602C146.662 85.5834 146.258 86.5648 145.585 87.0906C144.877 87.6163 144.204 87.7916 143.193 87.7916C143.092 87.7916 142.957 87.7916 142.823 87.7565C142.688 88.0369 142.587 88.4926 142.52 88.8431Z" fill="#006B55"/>
<path fill-rule="evenodd" clip-rule="evenodd" d="M149.829 85.2681C149.896 84.9526 150.165 83.9011 150.199 83.5506C150.098 83.5506 149.829 83.5506 149.626 83.5506C149.155 83.5506 148.886 83.5857 148.65 83.7609C148.448 83.9011 148.313 84.2166 148.313 84.497C148.313 85.0578 148.717 85.2681 149.323 85.2681C149.525 85.2681 149.728 85.2681 149.829 85.2681ZM146.663 87.6865C146.932 87.336 147.673 86.3196 148.111 85.7237C147.639 85.5134 147.37 85.0928 147.37 84.4619C147.37 83.7609 147.808 83.2001 148.414 82.9898C148.751 82.8847 149.121 82.8496 149.593 82.8496C150.536 82.8496 151.075 82.8496 151.209 82.8496L151.243 82.9197C151.108 83.4104 150.906 84.3217 150.671 85.3031C150.502 86.1093 150.266 87.1257 150.165 87.6515L150.098 87.7216C149.862 87.7216 149.424 87.7216 149.256 87.7216L149.222 87.6515C149.323 87.301 149.593 86.1443 149.66 85.8639C149.593 85.8639 149.424 85.8639 149.256 85.8639C149.121 85.8639 149.054 85.8639 148.919 85.8639C148.582 86.3897 147.942 87.301 147.707 87.6515L147.606 87.6865H147.303C146.999 87.6865 146.764 87.6865 146.629 87.6865H146.663Z" fill="#006B55"/>
<path fill-rule="evenodd" clip-rule="evenodd" d="M154.309 85.2681C154.376 84.9526 154.645 83.9011 154.679 83.5506C154.578 83.5506 154.309 83.5506 154.106 83.5506C153.635 83.5506 153.365 83.5857 153.13 83.7609C152.928 83.9011 152.793 84.2166 152.793 84.497C152.793 85.0578 153.197 85.2681 153.77 85.2681C154.005 85.2681 154.208 85.2681 154.309 85.2681ZM151.143 87.6865C151.412 87.336 152.153 86.3196 152.591 85.7237C152.119 85.5134 151.85 85.0928 151.85 84.4619C151.85 83.7609 152.288 83.2001 152.894 82.9898C153.231 82.8847 153.601 82.8496 154.073 82.8496C155.016 82.8496 155.555 82.8496 155.689 82.8496L155.723 82.9197C155.588 83.4104 155.386 84.3217 155.151 85.3031C154.982 86.1093 154.746 87.1257 154.645 87.6515L154.578 87.7216C154.342 87.7216 153.904 87.7216 153.736 87.7216L153.702 87.6515C153.803 87.301 154.073 86.1443 154.14 85.8639C154.073 85.8639 153.904 85.8639 153.736 85.8639C153.601 85.8639 153.534 85.8639 153.399 85.8639C153.062 86.3897 152.422 87.301 152.187 87.6515L152.086 87.6865H151.816C151.513 87.6865 151.277 87.6865 151.143 87.6865Z" fill="#006B55"/>
<path fill-rule="evenodd" clip-rule="evenodd" d="M161.617 86.5304C161.988 85.9695 162.156 85.1985 162.156 84.6376C162.156 83.9366 161.819 83.5511 161.213 83.5511C160.809 83.5511 160.506 83.7614 160.236 84.0768C159.866 84.5675 159.664 85.3036 159.664 86.0046C159.664 86.7056 159.967 87.1613 160.573 87.1613C161.045 87.1613 161.381 86.9159 161.617 86.5304ZM158.721 85.9696C158.721 84.4974 159.529 82.9552 161.146 82.9552C161.819 82.9552 162.291 83.2707 162.493 83.6562C162.527 83.481 162.56 83.2006 162.56 82.8851C162.56 82.114 162.223 81.1677 161.247 81.1677C160.876 81.1677 160.506 81.3079 160.304 81.4481L160.236 81.378C160.304 81.2378 160.371 80.8873 160.405 80.712L160.472 80.6419C160.674 80.5368 161.112 80.4316 161.516 80.4316C162.998 80.4316 163.47 81.5532 163.47 82.8851C163.47 84.918 162.729 87.8272 160.64 87.8272C159.495 87.8623 158.721 87.3365 158.721 85.9696Z" fill="#006B55"/>
<path fill-rule="evenodd" clip-rule="evenodd" d="M165.12 87.0906C165.558 87.0906 165.996 86.9854 166.333 86.7751C167.074 86.3195 167.411 85.4783 167.411 84.6371C167.411 83.9711 167.074 83.5505 166.468 83.5505C166.063 83.5505 165.659 83.7608 165.356 84.0412C165.289 84.3567 165.188 84.8824 165.053 85.4783C164.885 86.1793 164.784 86.8452 164.716 87.0205C164.885 87.0906 164.986 87.0906 165.12 87.0906ZM164.346 88.8431C164.245 89.2987 164.177 89.6843 164.144 89.9647L164.076 89.9997C163.807 89.9997 163.47 89.9997 163.133 90.0348L163.1 89.9647C163.268 89.3688 163.706 87.3009 164.043 85.8288C164.346 84.4618 164.514 83.5155 164.582 83.0598L164.649 82.9897C164.952 82.9547 165.255 82.8846 165.592 82.8145L165.659 82.8846C165.626 82.9897 165.592 83.165 165.558 83.2701C165.895 82.9897 166.367 82.8145 166.939 82.8145C168.084 82.8145 168.455 83.7608 168.455 84.602C168.455 85.5834 168.051 86.5648 167.377 87.0906C166.67 87.6163 165.996 87.7916 164.986 87.7916C164.885 87.7916 164.75 87.7916 164.582 87.7565C164.514 88.0369 164.413 88.4926 164.346 88.8431Z" fill="#006B55"/>
<path fill-rule="evenodd" clip-rule="evenodd" d="M169.061 82.8847C169.364 82.8847 169.735 82.8847 170.004 82.8496L170.072 82.9197C170.105 83.2352 170.173 83.9712 170.274 84.7774C170.341 85.4083 170.408 86.0392 170.476 86.5649C170.745 86.0392 171.048 85.4433 171.351 84.8124C171.655 84.2166 172.059 83.3403 172.294 82.8847L172.396 82.8496C172.598 82.8496 173.035 82.8496 173.271 82.8496L173.305 82.9197C173.103 83.2702 172.362 84.6372 171.554 86.0742C171.149 86.7752 170.779 87.5113 170.408 88.1422C170.206 88.4927 170.038 88.8081 169.836 89.0885C169.634 89.3689 169.465 89.5792 169.129 89.7545C168.926 89.8596 168.657 89.8947 168.388 89.8947C168.219 89.8947 168.051 89.8596 167.95 89.7895L167.916 89.7194C167.95 89.5792 168.017 89.2988 168.051 89.0885L168.118 89.0535C168.152 89.0885 168.253 89.1586 168.388 89.1586C168.657 89.1586 168.792 89.0535 168.994 88.8081C169.196 88.5978 169.398 88.2473 169.701 87.6865C169.634 87.2309 169.499 86.2144 169.297 85.1279C169.129 84.1815 169.027 83.3754 168.96 82.9197L169.061 82.8847Z" fill="#006B55"/>
<path fill-rule="evenodd" clip-rule="evenodd" d="M175.965 86.74C175.897 86.9152 175.83 87.2657 175.763 87.5111L175.695 87.5812C175.392 87.7564 174.921 87.8616 174.449 87.8616C173.506 87.8616 172.934 87.4059 172.934 86.5647C172.934 85.9338 173.304 85.4081 174.045 85.0926C174.247 85.0225 174.483 84.9174 174.651 84.8473C175.291 84.6019 175.46 84.3215 175.46 84.006C175.46 83.6555 175.19 83.4452 174.685 83.4452C174.247 83.4452 173.91 83.5855 173.54 83.8659L173.472 83.8308C173.506 83.6555 173.607 83.3401 173.641 83.0947L173.708 83.0246C174.079 82.8494 174.483 82.7793 174.921 82.7793C175.796 82.7793 176.403 83.1298 176.403 83.971C176.403 84.672 175.931 85.1627 175.291 85.4431C175.022 85.5483 174.786 85.6534 174.55 85.7586C174.045 86.0039 173.877 86.2493 173.877 86.5647C173.877 86.9853 174.213 87.1956 174.685 87.1956C175.157 87.1956 175.527 87.0204 175.864 86.7049L175.965 86.74Z" fill="#006B55"/>
<path fill-rule="evenodd" clip-rule="evenodd" d="M182.397 86.5304C182.767 85.9695 182.936 85.1985 182.936 84.6376C182.936 83.9366 182.599 83.5511 181.993 83.5511C181.589 83.5511 181.286 83.7614 181.016 84.0768C180.646 84.5675 180.444 85.3036 180.444 86.0046C180.444 86.7056 180.747 87.1613 181.387 87.1613C181.791 87.1613 182.128 86.9159 182.397 86.5304ZM179.467 85.9696C179.467 84.4974 180.275 82.9552 181.892 82.9552C182.565 82.9552 183.037 83.2707 183.239 83.6562C183.273 83.481 183.306 83.2006 183.306 82.8851C183.306 82.114 182.97 81.1677 181.993 81.1677C181.622 81.1677 181.252 81.3079 181.05 81.4481L180.982 81.378C181.05 81.2378 181.117 80.8873 181.151 80.712L181.218 80.6419C181.42 80.5368 181.824 80.4316 182.262 80.4316C183.744 80.4316 184.216 81.5532 184.216 82.8851C184.216 84.918 183.475 87.8272 181.387 87.8272C180.241 87.8623 179.467 87.3365 179.467 85.9696Z" fill="#006B55"/>
<path fill-rule="evenodd" clip-rule="evenodd" d="M185.9 87.0906C186.338 87.0906 186.775 86.9854 187.112 86.7751C187.887 86.3195 188.19 85.4783 188.19 84.6371C188.19 83.9711 187.853 83.5505 187.247 83.5505C186.843 83.5505 186.439 83.7608 186.136 84.0412C186.034 84.3567 185.967 84.8824 185.832 85.4783C185.664 86.1793 185.563 86.8452 185.496 87.0205C185.664 87.0906 185.731 87.0906 185.9 87.0906ZM185.125 88.8431C185.024 89.2987 184.957 89.6843 184.923 89.9647L184.856 89.9997C184.586 89.9997 184.249 89.9997 183.913 90.0348L183.879 89.9647C184.047 89.3688 184.485 87.3009 184.822 85.8288C185.125 84.4618 185.293 83.5155 185.361 83.0598L185.428 82.9897C185.731 82.9547 186.034 82.8846 186.371 82.8145L186.439 82.8846C186.405 82.9897 186.371 83.165 186.338 83.2701C186.674 82.9897 187.146 82.8145 187.718 82.8145C188.864 82.8145 189.268 83.7608 189.268 84.602C189.268 85.5834 188.864 86.5648 188.19 87.0906C187.483 87.6163 186.809 87.7916 185.799 87.7916C185.698 87.7916 185.563 87.7916 185.395 87.7565C185.293 88.0369 185.192 88.4926 185.125 88.8431Z" fill="#006B55"/>
<path fill-rule="evenodd" clip-rule="evenodd" d="M189.807 82.8847C190.11 82.8847 190.481 82.8847 190.75 82.8496L190.818 82.9197C190.851 83.2352 190.919 83.9712 191.02 84.7774C191.087 85.4083 191.154 86.0392 191.222 86.5649C191.491 86.0392 191.794 85.4433 192.098 84.8124C192.401 84.2166 192.805 83.3403 193.041 82.8847L193.142 82.8496C193.344 82.8496 193.782 82.8496 194.017 82.8496L194.051 82.9197C193.849 83.2702 193.108 84.6372 192.3 86.0742C191.929 86.7752 191.525 87.5113 191.154 88.1422C190.952 88.4927 190.784 88.8081 190.582 89.0885C190.38 89.3689 190.211 89.5792 189.875 89.7545C189.673 89.8596 189.403 89.8947 189.134 89.8947C188.965 89.8947 188.797 89.8596 188.696 89.7895L188.662 89.7194C188.696 89.5792 188.763 89.2988 188.797 89.0885L188.864 89.0535C188.898 89.0885 188.999 89.1586 189.134 89.1586C189.403 89.1586 189.538 89.0535 189.74 88.8081C189.942 88.5978 190.144 88.2473 190.447 87.6865C190.38 87.2309 190.245 86.2144 190.043 85.1279C189.908 84.1815 189.774 83.3754 189.706 82.9197L189.807 82.8847Z" fill="#006B55"/>
<path fill-rule="evenodd" clip-rule="evenodd" d="M196.713 86.74C196.646 86.9152 196.578 87.2657 196.511 87.5111L196.443 87.5812C196.14 87.7564 195.669 87.8616 195.197 87.8616C194.254 87.8616 193.682 87.4059 193.682 86.5647C193.682 85.9338 194.052 85.4081 194.793 85.0926C194.995 85.0225 195.231 84.9174 195.399 84.8473C196.006 84.6019 196.208 84.3215 196.208 84.006C196.208 83.6555 195.938 83.4452 195.433 83.4452C194.995 83.4452 194.658 83.5855 194.288 83.8659L194.221 83.8308C194.254 83.6555 194.355 83.3401 194.389 83.0947L194.456 83.0246C194.827 82.8494 195.231 82.7793 195.669 82.7793C196.544 82.7793 197.151 83.1298 197.151 83.971C197.151 84.672 196.679 85.1627 196.006 85.4431C195.736 85.5483 195.5 85.6534 195.265 85.7586C194.759 86.0039 194.591 86.2493 194.591 86.5647C194.591 86.9853 194.928 87.1956 195.399 87.1956C195.871 87.1956 196.241 87.0204 196.578 86.7049L196.713 86.74Z" fill="#006B55"/>
<path fill-rule="evenodd" clip-rule="evenodd" d="M197.79 82.8847C198.093 82.8847 198.463 82.8847 198.733 82.8496L198.8 82.9197C198.834 83.2352 198.901 83.9712 199.002 84.7774C199.07 85.4083 199.137 86.0392 199.204 86.5649C199.474 86.0392 199.777 85.4433 200.08 84.8124C200.383 84.2166 200.787 83.3403 201.023 82.8847L201.124 82.8496C201.326 82.8496 201.764 82.8496 202 82.8496L202.033 82.9197C201.831 83.2702 201.09 84.6372 200.282 86.0742C199.878 86.7752 199.507 87.5113 199.137 88.1422C198.935 88.4927 198.766 88.8081 198.564 89.0885C198.362 89.3689 198.194 89.5792 197.857 89.7545C197.655 89.8596 197.386 89.8947 197.116 89.8947C196.948 89.8947 196.779 89.8596 196.678 89.7895L196.645 89.7194C196.678 89.5792 196.746 89.2988 196.779 89.0885L196.847 89.0535C196.88 89.0885 196.981 89.1586 197.116 89.1586C197.386 89.1586 197.52 89.0535 197.756 88.8081C197.958 88.5978 198.16 88.2473 198.463 87.6865C198.396 87.2309 198.261 86.2144 198.059 85.1279C197.891 84.1815 197.79 83.3754 197.722 82.9197L197.79 82.8847Z" fill="#006B55"/>
<path fill-rule="evenodd" clip-rule="evenodd" d="M8 60.9435C8 49.9378 16.5885 41 27.1642 41V48.2203C20.3944 48.2203 14.9382 53.9335 14.9382 60.9785C14.9382 68.0236 20.4281 73.7368 27.1979 73.7368C33.934 73.7368 39.4576 68.0937 39.4576 60.9435H46.3958C46.3958 72.0193 37.8073 80.9571 27.2316 80.9571C16.5885 80.922 8 71.9843 8 60.9435Z" fill="#006B55"/>
<path fill-rule="evenodd" clip-rule="evenodd" d="M18.7109 60.9438C18.7109 56.0368 22.5168 52.0762 27.2321 52.0762C31.9137 52.1112 35.7196 56.0719 35.7196 60.9438C35.7196 65.8158 31.9137 69.8115 27.1984 69.8115C22.5168 69.8115 18.7109 65.8508 18.7109 60.9438Z" fill="#5CBE1D"/>
<path fill-rule="evenodd" clip-rule="evenodd" d="M33.125 49.7278C33.125 46.9238 35.3142 44.6455 38.0087 44.6455C40.7031 44.6455 42.8924 46.9238 42.8924 49.7278C42.8924 52.5318 40.7031 54.81 38.0087 54.81C35.3142 54.81 33.125 52.5318 33.125 49.7278Z" fill="#006B55"/>
<path fill-rule="evenodd" clip-rule="evenodd" d="M182.869 54.0733L182.263 57.0876C180.882 63.677 180.343 65.78 179.165 72.3344L178.895 72.5797L175.056 72.6849L174.853 72.4045L176.403 65.6749L176.874 63.4667C175.224 63.4316 173.574 63.3966 171.923 63.3966C170.643 63.3966 169.667 63.4316 168.656 63.4316C168.084 66.0955 167.612 68.4088 166.905 72.3344L166.635 72.5797L162.796 72.6849L162.594 72.4045L164.143 65.6749L164.749 62.7306C165.76 58.104 165.962 57.0876 166.568 52.8115L166.838 52.5311C168.589 52.2857 169.027 52.2156 170.812 51.8301L171.014 52.1105L170.61 54.0382L170.037 57.0525L169.431 59.9266C170.812 59.9617 172.193 59.9967 173.607 59.9967C175.089 59.9967 176.032 59.9617 177.683 59.9266C178.222 57.4381 178.424 56.0361 178.895 52.8115L179.165 52.5311C180.95 52.2857 181.354 52.2156 183.173 51.8301L183.375 52.1105L182.869 54.0733Z" fill="#5CBE1D"/>
<path fill-rule="evenodd" clip-rule="evenodd" d="M140.534 64.098C139.692 67.4978 137.401 73.3512 130.261 73.3512C125.209 73.3512 122.447 70.6173 122.447 65.2897C122.447 64.5887 122.515 63.8176 122.616 63.0114C122.649 62.8011 122.683 62.6259 122.683 62.4156C124.064 53.5479 127.735 45.1359 135.852 45.0307C136.93 45.0307 139.119 44.8905 140.601 44.54L140.062 48.0801C138.547 48.4656 136.189 48.6759 134.808 48.711C133.09 48.746 131.878 49.412 131.069 50.2532C130.665 50.6738 130.329 51.0944 130.093 51.515C129.857 51.9356 129.655 52.2861 129.554 52.5665C130.632 52.216 131.81 52.0057 133.158 52.0057C138.109 52.0057 141.073 54.8798 141.073 59.9621C141.106 61.294 140.871 62.731 140.534 64.098ZM136.593 62.8712C136.863 61.7146 137.031 60.593 137.031 59.4714C137.031 55.5107 134.572 54.8097 133.158 54.8097C127.23 54.8097 126.455 64.4134 126.455 65.8855C126.455 69.04 128.274 70.407 130.329 70.407C134.404 70.442 135.919 66.0958 136.593 62.8712Z" fill="#5CBE1D"/>
<path fill-rule="evenodd" clip-rule="evenodd" d="M189.369 60.4524C190.278 59.6462 190.784 59.1205 192.03 57.8937C193.343 56.5618 196.543 53.1269 197.149 52.461L197.553 52.2156H201.898L201.999 52.5661C201.629 52.9166 201.427 53.0919 199.911 54.4238C199.305 54.9495 198.934 55.3351 198.227 56.001L193.31 60.6977L199.136 72.2643L198.901 72.5797L194.724 72.6849L194.421 72.4395C193.444 70.0211 193.175 69.4603 191.828 66.5862L189.201 61.0132C188.359 64.8687 187.853 67.2872 186.944 72.3344L186.674 72.5797L182.835 72.6849L182.633 72.4045L184.182 65.6749L184.822 62.7306C185.832 58.104 186.035 57.0876 186.641 52.8115L186.91 52.5311C188.695 52.2857 189.099 52.2156 190.918 51.8301L191.12 52.1105L190.716 54.0382L190.144 57.0525L189.369 60.4524Z" fill="#5CBE1D"/>
<path fill-rule="evenodd" clip-rule="evenodd" d="M163.267 52.286L163.065 51.9706L157.844 51.9355C154.375 51.9355 149.492 52.1809 145.955 56.457C144.372 58.4198 142.924 61.7846 142.924 64.9041C142.924 69.8111 146.056 72.6501 149.929 72.6501C153.129 72.6501 154.813 71.178 155.453 70.6523L155.184 72.1945L155.386 72.4749L158.956 72.4048L159.225 72.1244C160 67.4277 160.236 65.9556 161.583 59.8919L163.267 52.286ZM156.026 67.6029C155.621 67.9534 155.184 68.339 154.779 68.6194C153.803 69.2503 152.523 69.5307 151.479 69.5307C148.043 69.5307 147.067 66.5164 147.067 64.6237C147.067 64.4134 147.134 59.3662 151.108 56.5271C153.331 54.9499 155.79 54.8798 157.036 54.8798C157.609 54.8798 158.181 54.9148 158.754 54.9148L156.026 67.6029Z" fill="#5CBE1D"/>
<path fill-rule="evenodd" clip-rule="evenodd" d="M64.853 69.6005C67.7495 69.6005 69.0968 66.4811 69.9725 62.4503C70.5787 59.6112 71.2523 55.4753 67.7832 55.4753C64.8193 55.4753 63.5058 58.4195 62.6301 62.4503C61.8218 66.1656 61.6197 69.6005 64.853 69.6005ZM63.5395 73.9467C59.4304 73.9467 53.5364 72.5798 55.6582 62.7307C56.4666 59.0154 58.9252 51.1992 69.0294 51.1992C78.8641 51.1992 77.3822 59.5762 76.7759 62.5554C74.9572 70.8623 70.0735 73.9467 63.5395 73.9467Z" fill="#006B55"/>
<path fill-rule="evenodd" clip-rule="evenodd" d="M87.5526 73.4564C85.6664 73.4564 82.5342 73.4564 81.2206 73.4915L80.9848 73.2461C81.3553 71.9493 82.231 68.4092 83.1741 64.0981C83.9487 60.593 84.5887 57.5086 84.8581 56.1417C83.2751 56.1767 80.8164 56.1767 79.6376 56.2118L79.4355 55.9314C79.7387 54.8799 80.1765 53.0222 80.4796 51.9006L80.8501 51.6903C81.8942 51.7254 85.9359 51.7604 89.1692 51.7604C93.0762 51.7604 96.8821 51.6903 97.6904 51.6553L97.9599 51.8656C97.6567 52.847 97.1515 54.8799 96.8821 55.8963L96.5116 56.1417C94.9286 56.1066 93.7498 56.1066 91.4932 56.1066C91.2911 57.0179 90.6849 59.6467 89.6744 64.3084C88.8998 67.8484 88.2935 71.073 87.923 73.141L87.5526 73.4564Z" fill="#006B55"/>
<path fill-rule="evenodd" clip-rule="evenodd" d="M109.48 56.5971C108.234 56.5971 106.786 56.6322 106.146 56.6322C105.944 57.5435 105.169 60.9083 104.462 64.203C103.62 68.0585 102.879 71.6687 102.576 73.2109L102.205 73.4562C100.286 73.4562 97.7932 73.4562 95.8061 73.4913L95.5703 73.2459C95.9745 71.5635 97.0186 66.9719 97.9953 62.3804C99.0057 57.7888 99.8477 53.2674 100.151 51.9705L100.488 51.6901C102.61 51.6901 104.765 51.7602 110.053 51.7602C114.196 51.7602 118.204 51.62 120.359 51.585L120.528 51.8303C120.258 52.9519 119.046 58.2445 117.901 63.502C116.991 67.743 116.149 71.9491 115.913 73.1408L115.61 73.3861C113.926 73.3861 110.794 73.3861 109.177 73.4212L109.009 73.1408C109.346 71.7037 110.12 68.3739 111.03 64.2731C111.703 61.1536 112.377 57.8239 112.646 56.5971C112.107 56.6322 110.693 56.5971 109.48 56.5971Z" fill="#006B55"/>
</g>
<defs>
<clipPath id="clip0_404_10524">
<rect width="194" height="49" fill="white" transform="translate(8 41)"/>
</clipPath>
</defs>
</svg>
