<svg width="210" height="130" viewBox="0 0 210 130" fill="none" xmlns="http://www.w3.org/2000/svg">
<g clip-path="url(#clip0_404_10509)">
<path d="M41.9995 21C43.6397 21 45.3068 21 46.947 21C46.947 33.1944 46.947 45.3888 46.947 57.5832C50.1737 57.5832 53.4003 57.5832 56.6269 57.5832C56.7076 57.3659 56.7883 57.1215 56.8689 56.9042C56.9496 56.6597 57.0303 56.4153 57.1109 56.1709C57.1916 55.9265 57.2723 55.682 57.3529 55.4376C57.3529 55.3833 57.3798 55.2746 57.4067 55.2203C57.4874 55.0574 57.5412 54.8673 57.5949 54.6771C57.6756 54.4327 57.7563 54.1883 57.8369 53.9439C57.9714 53.5365 58.1058 53.1019 58.2403 52.6945C58.3209 52.4501 58.4285 52.2057 58.4823 51.9612C58.5629 51.7168 58.6705 51.4724 58.7243 51.228C58.8049 50.9835 58.9125 50.7391 58.9663 50.4947C59.02 50.3317 59.0738 50.1688 59.1545 50.0058C59.2351 49.7614 59.3158 49.5169 59.3965 49.2725C59.4234 49.191 59.4234 49.1096 59.4502 49.0281C59.504 48.8651 59.5847 48.7022 59.6385 48.5392C59.6654 48.4577 59.6654 48.3763 59.6922 48.2948C59.7729 48.1318 59.8267 47.9689 59.8805 47.7788C59.8805 47.7244 59.9074 47.6158 59.9342 47.5343C60.0956 47.1269 60.2031 46.6924 60.3645 46.285C60.4451 46.0406 60.5258 45.7962 60.6065 45.5517C60.6871 45.3073 60.7678 45.0357 60.8485 44.8184C60.8485 44.7641 60.8753 44.6555 60.9022 44.6283C61.0098 44.3567 61.0905 44.058 61.198 43.7592C61.44 42.9445 61.7358 42.1569 61.9778 41.3421C62.0584 41.0977 62.166 40.8532 62.2198 40.6088C62.3004 40.3644 62.408 40.1199 62.4618 39.8755C62.5424 39.6311 62.6231 39.3866 62.7038 39.1422C62.8113 38.8978 62.892 38.6533 62.9458 38.4089C62.9995 38.246 63.0802 38.083 63.134 37.8929C63.1609 37.8114 63.1609 37.7299 63.1878 37.6756C63.2684 37.5127 63.3222 37.3226 63.376 37.1596C63.376 37.1053 63.4029 36.9966 63.4298 36.9152C63.4835 36.7522 63.5642 36.5893 63.618 36.3991C63.6986 36.1547 63.7793 35.9103 63.86 35.6659C63.8869 35.6115 63.9138 35.5029 63.9138 35.4214C63.9675 35.2585 64.0213 35.0955 64.102 34.9054C64.1826 34.661 64.2633 34.4165 64.344 34.1721C64.3709 34.0635 64.3978 33.9548 64.4515 33.8462C64.5322 33.6018 64.6129 33.3573 64.6935 33.1129C64.9355 32.2981 65.2313 31.5105 65.4733 30.6958C65.554 30.4513 65.6615 30.2069 65.7153 29.9625C65.796 29.718 65.9035 29.4736 65.9573 29.2292C66.0111 29.0662 66.0648 28.9033 66.1455 28.7403C66.1724 28.6588 66.1724 28.5774 66.1993 28.4959C66.3068 28.2514 66.3875 27.9799 66.4413 27.7354C68.5386 27.7083 70.6359 27.7354 72.7601 27.7083C74.0239 27.7083 75.2876 27.7083 76.5514 27.7083C76.5783 37.1596 76.5514 46.5838 76.5514 56.0351C72.4374 56.0623 68.2966 56.0351 64.1826 56.0351C64.4784 54.9216 64.9086 53.8352 65.2313 52.7489C65.3926 52.26 65.5808 51.744 65.7153 51.2551C65.7691 51.1736 65.8228 51.0922 65.8766 51.0107C67.7857 51.0107 69.6679 51.0107 71.577 51.0107C71.577 44.9542 71.577 38.8978 71.577 32.8413C71.093 32.7598 70.609 32.7327 70.125 32.8413C70.0712 33.0043 70.0444 33.1401 69.9906 33.303C69.8292 33.7919 69.6679 34.2807 69.5066 34.7968C69.4259 35.0412 69.3453 35.2856 69.2646 35.5301C69.1839 35.7745 69.1033 36.0189 69.0226 36.2634C68.9419 36.5078 68.8613 36.7522 68.7806 36.9966C68.6999 37.2411 68.6193 37.4855 68.5386 37.7571C68.3773 38.246 68.2159 38.762 68.0546 39.2508C67.7588 40.1471 67.4631 41.0705 67.1673 41.9667C67.0866 42.2112 67.0059 42.4556 66.9253 42.7C66.7639 43.1889 66.6026 43.6778 66.4413 44.1938C66.038 45.3345 65.6884 46.5023 65.2851 47.6701C64.7473 49.3268 64.1826 50.9835 63.6449 52.6131C63.5642 52.8575 63.4835 53.1019 63.4029 53.3464C63.3222 53.5908 63.2415 53.8352 63.1609 54.0796C63.1071 54.2426 63.0533 54.4056 62.9727 54.5957C62.9458 54.65 62.9189 54.7858 62.9189 54.8401C62.8651 55.0031 62.7844 55.166 62.7307 55.329C62.7038 55.4104 62.7038 55.4919 62.6769 55.5734C62.6231 55.7363 62.5424 55.8993 62.4887 56.0623C62.4349 56.3067 62.3273 56.5511 62.2467 56.8227C62.0853 57.3116 61.924 57.8276 61.7627 58.3164C61.3056 59.7559 60.8216 61.1681 60.3645 62.5804C60.3376 62.6076 60.2838 62.689 60.2569 62.7162C54.1801 62.689 48.0764 62.7162 41.9995 62.7162C41.9995 48.7565 41.9995 34.8782 41.9995 21ZM48.5604 21C50.2275 21 51.8946 21 53.5616 21C53.5616 28.4416 53.5616 35.9103 53.5616 43.3518C53.5616 44.1666 53.5348 44.9814 53.5885 45.7962C53.6154 45.6875 53.6423 45.5517 53.6692 45.4431C53.7768 45.2801 53.8036 45.1172 53.8843 44.9271C53.9919 44.574 54.0994 44.2209 54.2339 43.8679C54.3952 43.2975 54.6103 42.7543 54.7716 42.184C54.8523 41.9396 54.9599 41.6951 55.0136 41.4507C55.0674 41.3149 55.1212 41.1791 55.175 41.0162C55.2018 40.9075 55.2287 40.7989 55.2825 40.6903C55.3363 40.5002 55.417 40.31 55.4707 40.1199C55.4707 40.0656 55.4976 39.9841 55.4976 39.9298C55.6052 39.6854 55.6858 39.441 55.7665 39.1965C55.9278 38.7077 56.0892 38.2188 56.2505 37.7028C56.3312 37.4583 56.4118 37.2139 56.4925 36.9695C56.6001 36.7251 56.6538 36.4806 56.7345 36.2362C57.3529 34.4165 57.9445 32.5969 58.536 30.7772C58.6974 30.2884 58.8587 29.7995 59.02 29.2835C59.1814 28.8761 59.2889 28.4416 59.4502 28.0613C59.4771 27.9799 59.4771 27.8984 59.504 27.8169C59.6116 27.5725 59.6922 27.328 59.746 27.0836C59.7998 26.9207 59.8536 26.7577 59.9342 26.5948C60.0149 26.3503 60.0956 26.1059 60.1762 25.8615C60.2569 25.617 60.3376 25.3726 60.4182 25.1282C60.4989 24.8837 60.5796 24.6393 60.6602 24.3949C60.8216 23.906 60.9829 23.39 61.1442 22.9011C61.3593 22.2765 61.5476 21.6247 61.7896 21C68.9419 21 76.0943 21 83.2467 21C83.2467 34.8782 83.2467 48.7565 83.2467 62.6347C76.175 62.6347 69.1301 62.6347 62.0584 62.6347C62.1391 62.3631 62.2198 62.1187 62.3004 61.8471C62.3542 61.657 62.408 61.494 62.4887 61.3039C62.4887 61.2496 62.5155 61.141 62.5424 61.0867C62.6231 60.8966 62.6769 60.7336 62.7307 60.5435C62.7307 60.4892 62.7575 60.3805 62.7844 60.3534C62.892 60.1089 62.9727 59.8645 63.0264 59.6201C63.1071 59.3756 63.1878 59.1312 63.2684 58.8868C63.3222 58.7238 63.376 58.5609 63.4567 58.3979C63.5373 58.1263 63.5911 57.8547 63.7255 57.6103C68.4848 57.5832 73.2441 57.6103 78.0034 57.5832C78.0841 57.5832 78.1916 57.556 78.2723 57.556C78.2454 47.0998 78.2723 36.6436 78.2723 26.1874C78.2992 25.9701 78.0572 25.9973 77.9227 25.9973C74.5885 26.0244 71.2812 25.9973 67.947 25.9973C67.3824 25.9973 66.7908 25.9973 66.2262 25.9973C65.9842 25.9973 65.7153 25.9973 65.4733 25.9973C64.9624 27.5453 64.4515 29.0934 63.9406 30.6414C63.86 30.8859 63.7793 31.1303 63.6986 31.3747C63.5911 31.6192 63.5104 31.8636 63.4567 32.108C63.4029 32.271 63.3491 32.4339 63.2684 32.5969C63.2415 32.6512 63.2147 32.787 63.2147 32.8413C63.1609 33.0043 63.0802 33.1672 63.0264 33.3302C62.9458 33.5746 62.8651 33.819 62.7844 34.0635C62.6231 34.5523 62.4618 35.0684 62.3004 35.5572C62.2198 35.8016 62.1391 36.0461 62.0584 36.2905C61.5476 37.8386 61.0367 39.3866 60.5258 40.9347C60.4451 41.2063 60.3376 41.4779 60.23 41.7495C60.2031 41.8309 60.2031 41.9124 60.1762 41.9939C60.0687 42.2383 59.988 42.4828 59.9342 42.7272C59.7729 43.1346 59.6654 43.5691 59.504 43.9765C59.4234 44.2209 59.3427 44.4654 59.262 44.7098C59.1814 44.9542 59.1007 45.1987 59.02 45.4431C58.9394 45.6875 58.8587 45.9319 58.778 46.1764C58.6974 46.4208 58.6167 46.6652 58.536 46.9097C58.1596 48.0775 57.7563 49.2182 57.4067 50.386C57.326 50.6305 57.2454 50.8749 57.1647 51.1193C57.0841 51.3637 57.0034 51.6082 56.9227 51.8526C56.8152 52.097 56.7614 52.3415 56.6807 52.5859C56.6269 52.7489 56.5463 52.9118 56.4925 53.0748C56.4656 53.1291 56.4387 53.2649 56.4387 53.3192C56.3849 53.4821 56.3043 53.6451 56.2505 53.8081C56.1698 54.0525 56.0892 54.2969 56.0085 54.5413C55.9547 54.7858 55.8472 55.0302 55.7665 55.2746C55.7127 55.4648 55.6321 55.6549 55.5783 55.845C53.2659 55.845 50.9534 55.845 48.6141 55.845C48.5604 44.3296 48.5604 32.6784 48.5604 21ZM132.399 66.1382C132.399 66.0568 132.399 65.9481 132.399 65.8666C132.91 65.8666 133.421 65.8666 133.932 65.8666C134.012 66.1382 134.174 66.3827 134.416 66.4913C134.658 66.5456 134.9 66.5185 135.169 66.5185C135.411 66.3555 135.599 66.1382 135.706 65.8666C136.217 65.8666 136.728 65.8666 137.239 65.8666C137.131 66.7357 136.459 67.4419 135.653 67.7135C135.169 67.8221 134.685 67.9036 134.201 67.7678C133.367 67.632 132.614 67.0073 132.399 66.1382ZM57.4336 68.2838C58.294 68.0937 59.1814 68.0937 60.0418 68.2838C61.682 68.6912 63.1071 69.9677 63.6718 71.5972C64.0213 72.5206 63.9675 73.5526 63.8869 74.5032C63.8062 74.7748 63.7255 75.0464 63.6449 75.318C63.5911 75.4538 63.5104 75.5896 63.4567 75.7254C62.9189 76.8389 61.9778 77.7351 60.8485 78.1968C60.8216 78.224 60.7409 78.2511 60.6871 78.2511C60.0418 78.4684 59.3965 78.5771 58.7243 78.6314C58.1596 78.6042 57.5949 78.4956 57.0303 78.3326C56.8958 78.2783 56.7345 78.2511 56.6001 78.1968C55.1481 77.5993 54.0456 76.2685 53.6423 74.7476C53.5079 74.0415 53.3734 73.2811 53.5616 72.5478C53.6154 72.1404 53.7499 71.733 53.8843 71.3528C53.965 71.1898 54.0456 71.0269 54.1263 70.8367C54.6103 69.9677 55.3363 69.2344 56.1967 68.7727C56.6001 68.5554 57.0303 68.4196 57.4336 68.2838ZM57.3798 70.2936C56.6807 70.6195 56.0892 71.217 55.7396 71.9231C55.6321 72.1947 55.5245 72.4663 55.4707 72.765C55.4438 73.1996 55.4438 73.6341 55.4707 74.0958C55.5514 74.2859 55.6052 74.476 55.659 74.6662C56.0892 75.6982 57.0034 76.513 58.1058 76.7031C58.7511 76.7302 59.4234 76.8117 60.0418 76.513C60.956 76.1599 61.682 75.3451 61.9778 74.4217C62.0316 74.1773 62.0853 73.9329 62.1391 73.6884C62.2736 72.3033 61.4669 70.8639 60.1762 70.2936C60.0149 70.2392 59.8536 70.1578 59.6922 70.1035C59.5309 70.0763 59.3696 70.0763 59.2083 70.022C58.5629 69.9405 57.9445 70.0491 57.3798 70.2936ZM65.1775 71.2441C65.8497 69.6689 67.2748 68.4468 68.9688 68.2023C70.3401 67.9579 71.7921 68.2295 72.9214 69.0714C73.6743 69.5874 74.2121 70.375 74.5885 71.1898C73.9163 71.217 73.2441 71.1898 72.5719 71.1898C72.4106 71.217 72.3299 71.0269 72.2223 70.9454C71.6308 70.2936 70.7703 69.9405 69.883 69.9677C69.399 69.9948 68.915 70.1035 68.4848 70.3207C67.8395 70.6466 67.3286 71.1898 67.0059 71.8145C66.7102 72.4663 66.5757 73.1724 66.7102 73.8785C66.9253 75.4538 68.431 76.8389 70.0444 76.6759C70.9586 76.7574 71.819 76.2685 72.3568 75.5624C73.0828 75.5624 73.8088 75.5624 74.5348 75.5624C73.9701 76.9204 72.787 78.0067 71.3619 78.3869C70.7703 78.5227 70.1519 78.6314 69.5335 78.5771C68.5655 78.4684 67.5975 78.1968 66.8446 77.5722C65.9304 76.9204 65.3389 75.9155 64.9893 74.8291C64.7473 74.0958 64.7473 73.3625 64.8011 72.6021C64.8817 72.1947 65.0162 71.7058 65.1775 71.2441ZM85.3171 68.7727C85.828 68.5011 86.3926 68.311 86.9573 68.2295C87.6833 68.0937 88.4362 68.148 89.1622 68.2838C90.6141 68.664 91.9048 69.6689 92.577 71.0269C93.303 72.4934 93.303 74.2588 92.6039 75.6982C91.9586 77.0561 90.6948 78.061 89.2428 78.4413C88.9202 78.5227 88.5975 78.5499 88.2748 78.6314C87.0111 78.6857 85.7204 78.3598 84.7255 77.5993C83.9727 77.029 83.3811 76.2685 83.0316 75.4266C82.7627 74.7205 82.6013 73.96 82.6282 73.1724C82.7089 72.5206 82.8164 71.8688 83.0853 71.2984C83.4887 70.2121 84.3222 69.343 85.3171 68.7727ZM86.5809 70.2392C85.586 70.6195 84.8331 71.5429 84.618 72.5749C84.4029 73.5798 84.618 74.6662 85.2633 75.4538C85.7204 75.9969 86.3389 76.4858 87.0648 76.5944C87.0111 76.5944 86.9573 76.6216 86.9035 76.6216C87.3875 76.6759 87.8715 76.7846 88.3555 76.6759C89.431 76.5401 90.399 75.834 90.883 74.8563C91.2595 74.0415 91.367 73.0638 91.0444 72.1947C90.7217 71.1355 89.8075 70.3479 88.7588 70.0491C88.5975 70.022 88.4093 70.022 88.2479 69.9677C87.9791 69.9405 87.7102 69.9405 87.4413 69.9677C87.1455 70.0763 86.8497 70.1306 86.5809 70.2392ZM105.349 68.2566C105.779 68.2838 106.21 68.1208 106.64 68.148C107.769 68.0937 108.925 68.4196 109.839 69.1257C110.565 69.6417 111.103 70.4022 111.453 71.217C110.754 71.2441 110.028 71.217 109.329 71.217C108.818 70.6466 108.172 70.1306 107.393 70.0491C106.882 69.9133 106.344 69.9948 105.833 70.1578C104.784 70.4837 103.951 71.3799 103.655 72.4391C103.413 73.3625 103.548 74.3674 104.032 75.1822C104.462 75.9155 105.188 76.4315 105.994 76.6759C106.694 76.8117 107.473 76.8117 108.146 76.4858C108.576 76.2957 108.925 75.9698 109.221 75.6167C109.947 75.6167 110.673 75.6167 111.399 75.6167C111.023 76.5401 110.323 77.3277 109.517 77.8709C108.603 78.4413 107.5 78.7128 106.425 78.6314C106.075 78.5499 105.726 78.5499 105.403 78.4413C104.193 78.1154 103.144 77.3277 102.499 76.2414C102.257 75.8883 102.096 75.4809 101.934 75.0735C101.827 74.7476 101.773 74.3946 101.692 74.0687C101.665 73.4712 101.612 72.8737 101.773 72.3033C102.149 70.4294 103.574 68.7455 105.457 68.311C105.376 68.311 105.376 68.2838 105.349 68.2566ZM41.9995 68.3381C42.8331 68.3381 43.6666 68.311 44.5002 68.3381C44.5809 68.4739 44.6346 68.6369 44.6884 68.7998C44.9304 69.5331 45.1993 70.2392 45.4144 70.9454C45.7371 71.8145 46.0059 72.7107 46.3286 73.5798C46.4362 73.8786 46.5437 74.1773 46.6244 74.5032C46.8126 74.9649 46.9202 75.4538 47.1353 75.9155C47.2159 75.671 47.2697 75.3995 47.3504 75.155C47.6462 74.3402 47.8881 73.5526 48.1839 72.7379C48.2377 72.5749 48.2915 72.412 48.3721 72.249C48.399 72.1675 48.399 72.0861 48.4259 72.0046C48.5066 71.8416 48.5604 71.6787 48.6141 71.5157C48.6948 71.217 48.8293 70.9182 48.9099 70.5923C49.1788 69.859 49.4208 69.0986 49.6628 68.3653L49.7166 68.311C50.5501 68.2838 51.4106 68.311 52.2441 68.311C52.2441 71.6787 52.271 75.0192 52.2441 78.3869C51.6257 78.3869 50.9803 78.3869 50.3619 78.3869C50.335 76.0784 50.3619 73.7971 50.3619 71.4886C50.3619 71.3528 50.335 71.217 50.335 71.0812C50.2812 71.2441 50.2275 71.4071 50.1737 71.57C49.8241 72.6564 49.4477 73.7156 49.0981 74.802C48.8561 75.4538 48.6679 76.1056 48.4259 76.7574C48.2646 77.3006 48.0764 77.8438 47.8881 78.3598C47.3773 78.3598 46.8664 78.3598 46.3555 78.3598C46.1942 78.0339 46.1135 77.6808 45.9791 77.3277C45.7639 76.7031 45.5488 76.0513 45.3337 75.4266C45.1724 75.0192 45.0648 74.6118 44.9035 74.2045C44.8766 74.1501 44.8497 74.0415 44.8497 73.96C44.796 73.7971 44.7153 73.6341 44.6615 73.4712C44.6077 73.2267 44.5002 72.9551 44.3926 72.7379C44.3926 72.6836 44.3657 72.6021 44.3657 72.5478C44.1775 72.1404 44.1237 71.6787 43.8817 71.2713C43.828 73.607 43.8817 75.9426 43.8549 78.2511C43.828 78.2783 43.7742 78.3055 43.7742 78.3326C43.1826 78.3598 42.5642 78.3326 41.9727 78.3326C41.9995 75.0464 41.9995 71.6787 41.9995 68.3381ZM94.3517 68.3381C95.1314 68.311 95.9112 68.3381 96.6641 68.3381C97.6858 68.311 98.7883 68.4739 99.5412 69.18C100.213 69.8319 100.348 70.8911 100.106 71.7601C99.9176 72.1947 99.6218 72.6021 99.1916 72.8465C99.9176 73.1724 100.536 73.7699 100.724 74.5847C100.832 75.2365 100.832 75.9426 100.59 76.5673C100.213 77.4364 99.3529 78.0339 98.4387 78.1968C97.0943 78.5227 95.6961 78.3598 94.3248 78.3869C94.3517 75.0464 94.3517 71.6787 94.3517 68.3381ZM96.2876 72.1404C96.7179 72.1404 97.1481 72.1675 97.5783 72.1132C97.9278 72.0046 98.1967 71.7601 98.3581 71.4342C98.4118 71.054 98.3581 70.6195 98.0085 70.4022C97.4976 70.0491 96.8523 70.2936 96.3145 70.1578C96.2607 70.8367 96.2876 71.4886 96.2876 72.1404ZM96.2876 74.0143C96.2607 74.8291 96.3414 75.6439 96.2607 76.4315C96.9061 76.4587 97.5783 76.513 98.2236 76.3772C98.4387 76.2414 98.6807 76.1056 98.8152 75.8612C99.0303 75.5081 98.9765 75.0464 98.8421 74.6662C98.6807 74.4489 98.4925 74.2316 98.2236 74.1501C97.6052 73.9329 96.933 74.0415 96.2876 74.0143ZM112.528 68.3381C113.174 68.3381 113.792 68.3381 114.437 68.3381C114.437 69.7232 114.411 71.1355 114.437 72.5206C115.056 71.7058 115.621 70.8367 116.239 69.9948C116.615 69.4245 117.046 68.9085 117.395 68.3381C118.148 68.311 118.928 68.3381 119.681 68.3381C118.471 69.9948 117.207 71.6244 115.97 73.2539C116.992 74.6933 118.041 76.0784 119.089 77.5179C119.277 77.8166 119.546 78.0882 119.681 78.4141C118.955 78.4141 118.202 78.4141 117.476 78.4141C116.427 77.0018 115.486 75.5352 114.437 74.1501C114.411 75.5624 114.437 77.0018 114.411 78.4141C113.792 78.4141 113.147 78.4141 112.528 78.4141C112.448 78.0339 112.501 77.6265 112.501 77.2191C112.475 76.5673 112.555 75.8883 112.501 75.2365C112.528 72.928 112.475 70.6195 112.528 68.3381ZM75.691 68.3381C76.2825 68.3653 76.8741 68.3653 77.4925 68.3381C77.6001 68.4739 77.6269 68.6369 77.6269 68.7998C77.6269 70.0491 77.6269 71.2984 77.6269 72.5478C77.6538 72.5206 77.6807 72.4934 77.7076 72.4663C78.7025 71.1083 79.6705 69.7232 80.6116 68.3653C81.3645 68.3381 82.1442 68.3381 82.8971 68.3653C81.714 69.9405 80.5309 71.5157 79.3209 73.0638C79.2403 73.1724 79.1596 73.3354 79.2672 73.444C80.2889 74.8291 81.3107 76.2142 82.3325 77.6265C82.5207 77.8981 82.7358 78.1425 82.8702 78.4413C82.1173 78.4413 81.3913 78.4413 80.6385 78.4413C79.6436 77.0833 78.7025 75.6982 77.7345 74.3402C77.6807 74.2859 77.6538 74.2316 77.6001 74.1773C77.5732 75.5896 77.6001 77.029 77.5732 78.4413C76.9547 78.4413 76.3094 78.4413 75.691 78.4413C75.691 75.0464 75.7179 71.6787 75.691 68.3381ZM120.864 68.3381C121.428 68.311 121.993 68.3381 122.531 68.311C122.585 68.3653 122.638 68.4196 122.692 68.4739C122.665 70.2392 122.692 71.9774 122.665 73.7428C122.665 74.2588 122.638 74.7748 122.719 75.2908C122.746 75.2637 122.746 75.2093 122.773 75.1822C124.171 72.8737 125.65 70.6195 127.075 68.311C127.694 68.311 128.285 68.3381 128.904 68.2838C128.984 68.5011 129.011 68.7727 129.011 69.0171C129.011 72.0861 129.011 75.1279 129.011 78.1968C129.038 78.3598 128.85 78.3869 128.742 78.3869C128.204 78.3869 127.667 78.3869 127.156 78.3869C127.048 77.8981 127.129 77.3821 127.129 76.8932C127.102 76.0513 127.102 75.1822 127.129 74.3402C127.156 73.607 127.048 72.8465 127.129 72.1132C127.129 71.9231 127.183 71.7058 127.075 71.5157C126.726 72.1947 126.268 72.8193 125.892 73.4712C124.87 75.1007 123.822 76.7302 122.827 78.3598H122.773C122.181 78.4413 121.563 78.3869 120.944 78.3869C120.864 75.0464 120.891 71.7058 120.864 68.3381ZM130.705 68.3381C131.323 68.311 131.969 68.3381 132.614 68.3381C132.668 68.9085 132.587 69.4788 132.641 70.0491C132.668 70.9182 132.614 71.8145 132.641 72.6836C132.641 73.1996 132.587 73.7428 132.614 74.2588C132.641 74.5847 132.533 74.9106 132.668 75.2093C133.448 73.8514 134.335 72.5478 135.142 71.217C135.733 70.2664 136.352 69.3158 136.916 68.3653C137.562 68.3381 138.18 68.3381 138.825 68.3653C138.825 71.6787 138.825 75.0192 138.825 78.3326C138.799 78.3598 138.772 78.3869 138.745 78.4141C138.153 78.4413 137.562 78.4141 136.97 78.4141C136.943 76.1056 136.997 73.7699 136.943 71.4614C135.545 73.6884 134.147 75.9155 132.749 78.1425C132.695 78.2511 132.614 78.3326 132.56 78.4413C132.023 78.4413 131.512 78.4413 130.974 78.4413C130.839 78.4684 130.651 78.4141 130.705 78.2511C130.705 74.9106 130.705 71.6244 130.705 68.3381ZM161.492 81.8361C161.492 81.7818 161.519 81.7003 161.519 81.646C162.03 81.646 162.541 81.6189 163.025 81.646C163.106 81.7275 163.133 81.8361 163.16 81.9448C163.402 82.2978 163.859 82.3793 164.262 82.2978C164.531 82.162 164.719 81.9448 164.8 81.646C165.311 81.646 165.822 81.646 166.332 81.646C166.306 82.4336 165.687 83.1398 164.988 83.4114C164.612 83.6015 164.154 83.5471 163.751 83.5471C163.509 83.5471 163.24 83.5743 163.025 83.4385C162.971 83.4385 162.891 83.4114 162.864 83.4114C162.299 83.1669 161.869 82.7052 161.6 82.162C161.6 82.1077 161.6 82.0262 161.6 81.9719C161.573 81.9448 161.519 81.8633 161.492 81.8361ZM79.9931 85.231C80.746 84.5249 81.7409 84.0903 82.7627 83.9545C83.65 83.9002 84.5642 83.9002 85.3709 84.2804C85.4246 84.2804 85.5053 84.3076 85.5322 84.3348C86.0431 84.5792 86.554 84.9051 86.9573 85.2853C87.4682 85.7742 87.8446 86.3717 88.1404 86.9963C87.4144 87.0235 86.6884 86.9963 85.9893 86.9963C85.5053 86.3717 84.7793 85.9371 83.9995 85.7742C83.6769 85.747 83.3542 85.747 83.0047 85.7742C82.3593 85.91 81.714 86.1816 81.2569 86.6433C80.9611 86.9149 80.746 87.2408 80.5578 87.5938C80.262 88.2457 80.1276 88.9789 80.262 89.6579C80.4234 90.69 81.0687 91.6134 81.9829 92.1022C82.7089 92.5096 83.6231 92.6182 84.4298 92.3738C84.7793 92.2652 85.0751 92.1022 85.3709 91.9121C85.586 91.7492 85.7473 91.5319 85.9624 91.3689C86.6884 91.3689 87.3875 91.3689 88.1135 91.3689C87.4682 92.9713 85.9086 94.1663 84.2147 94.3293C83.4618 94.3564 82.6551 94.3836 81.9291 94.1392C80.1814 93.6231 78.8638 92.0208 78.4874 90.2283C78.326 89.6851 78.3798 89.0876 78.3798 88.5172C78.5143 87.2679 79.0789 86.0729 79.9931 85.231ZM41.9995 84.0903C42.6449 84.1175 43.2902 84.0088 43.9086 84.1175C43.9086 86.3988 43.8817 88.653 43.9086 90.9344C45.2262 88.8703 46.5437 86.7791 47.8344 84.6878C47.9957 84.4434 48.1033 84.1175 48.4259 84.036C48.6948 84.1175 48.9906 84.036 49.2595 84.0632C49.5552 84.0903 49.8241 84.0903 50.1199 84.0903C50.1199 87.4309 50.093 90.7714 50.1199 94.112C49.5015 94.0848 48.8561 94.112 48.2377 94.0848C48.2377 91.7763 48.2108 89.495 48.2377 87.1865C48.1839 87.2679 48.1033 87.3222 48.0495 87.4037C47.4848 88.3543 46.8933 89.2505 46.3286 90.1739C45.4951 91.4776 44.6884 92.7812 43.8817 94.0848C43.2633 94.112 42.618 94.0848 41.9995 94.0848C41.9995 90.7714 41.9995 87.4309 41.9995 84.0903ZM51.8677 84.1175C52.4861 84.0903 53.1314 84.0089 53.7499 84.0903C53.7768 85.4211 53.7499 86.7519 53.7768 88.0827C54.9599 88.0827 56.1429 88.0827 57.3529 88.0827C57.3529 86.7519 57.3529 85.4483 57.3529 84.1175C57.9176 84.036 58.4823 84.1446 59.0469 84.0632C59.1007 84.0903 59.2082 84.1175 59.262 84.1175C59.262 87.458 59.262 90.7714 59.262 94.112C58.6436 94.112 57.9983 94.112 57.3798 94.112C57.3798 92.7269 57.3798 91.3418 57.3798 89.9567C56.1967 89.9567 54.9867 89.9567 53.8036 89.9567C53.8036 91.3418 53.8036 92.7269 53.8036 94.112C53.1852 94.112 52.5399 94.1392 51.8946 94.112C51.8677 90.7714 51.8677 87.4309 51.8677 84.1175ZM64.7204 84.1175C65.0431 83.9817 65.3657 84.1175 65.6884 84.0632C65.9304 84.0903 66.1724 84.0903 66.4413 84.0903C66.7639 84.8779 67.1404 85.6655 67.4899 86.4532C67.6782 86.8334 67.8395 87.2136 68.0008 87.5938C68.2428 88.137 68.4848 88.7074 68.7268 89.2505C68.8881 89.6036 69.0495 89.9838 69.2108 90.3369C69.2108 90.3912 69.2377 90.4727 69.2646 90.4998C69.3184 90.6356 69.399 90.7714 69.4528 90.9072C69.5335 91.1245 69.641 91.3689 69.7486 91.5862C69.8292 91.7763 69.9099 91.9936 70.0175 92.1837C70.0444 92.2109 70.0712 92.2652 70.0712 92.2923C70.367 92.2923 70.6628 92.2923 70.9317 92.2923C70.9317 93.3244 70.9586 94.3293 70.9317 95.3613C70.3401 95.3613 69.7217 95.307 69.1301 95.3885V95.3342C69.1301 94.9268 69.1301 94.5194 69.1033 94.112C66.7371 94.112 64.344 94.112 61.9778 94.112C61.9778 94.5194 61.9778 94.8996 61.9778 95.307C61.9778 95.3342 61.9778 95.3885 61.9778 95.4156C61.3862 95.4156 60.7678 95.4156 60.1762 95.4156C60.1762 94.3564 60.1494 93.3244 60.1762 92.2923C60.4989 92.2923 60.7947 92.2923 61.1173 92.2923C61.1442 92.2109 61.198 92.1022 61.2249 92.0208C61.3862 91.6677 61.5476 91.3146 61.7089 90.9616C62.0316 90.1739 62.408 89.4135 62.7307 88.6259C63.134 87.7025 63.5373 86.8062 63.9406 85.8828C64.2095 85.2853 64.5053 84.715 64.7204 84.1175ZM65.554 86.7519C65.5002 87.0507 65.3657 87.3222 65.2313 87.621C64.8817 88.3814 64.5591 89.1691 64.2364 89.9295C64.1558 90.1196 64.0751 90.3097 63.9944 90.4998C63.7255 91.0973 63.4835 91.6948 63.2147 92.2652C64.8011 92.2652 66.4144 92.2652 68.0008 92.2652C67.9202 92.0479 67.8395 91.8578 67.7588 91.6677C67.1135 90.1468 66.4413 88.6259 65.796 87.105C65.6884 86.9692 65.6077 86.8605 65.554 86.7519ZM69.5066 84.0903C70.2595 84.0903 71.0392 84.0632 71.7921 84.0903C72.545 85.5298 73.2441 87.0235 73.9701 88.4901C74.1314 88.7888 74.2121 89.1147 74.4541 89.3592C74.481 89.2777 74.5079 89.1419 74.5079 89.0876C74.8574 88.3 75.1801 87.5124 75.5296 86.7247C75.6103 86.5346 75.691 86.3445 75.7716 86.1544C76.0674 85.4754 76.3632 84.7693 76.659 84.0903C77.3312 84.0903 78.0303 84.0903 78.7025 84.0903C78.6487 84.2533 78.5949 84.3891 78.5143 84.552C78.3529 84.9051 78.1916 85.2582 78.0303 85.6384C77.7883 86.1816 77.5463 86.7519 77.3043 87.2951C77.143 87.6482 76.9816 88.0284 76.8203 88.3814C76.6321 88.7888 76.4438 89.1962 76.2825 89.6308C75.8523 90.5542 75.449 91.5047 75.0187 92.4281C74.7499 93.0256 74.481 93.6231 74.2121 94.1935C73.5399 94.1935 72.8677 94.1935 72.1954 94.1935C72.1954 94.112 72.1954 94.0577 72.2223 94.0034C72.4374 93.6231 72.5719 93.2429 72.7601 92.8627C72.9214 92.5096 73.1097 92.1566 73.2441 91.8035C73.2979 91.6948 73.271 91.559 73.271 91.4504C73.1634 91.2875 73.0828 91.1245 73.0021 90.9616C71.819 88.653 70.6897 86.3445 69.5066 84.0903ZM88.4093 84.1175C88.5168 84.0903 88.6244 84.0903 88.7588 84.0632C90.1033 84.1175 91.4208 84.0632 92.7652 84.0903C93.1686 84.1175 93.5719 84.036 93.9752 84.0903V84.1175C93.9752 84.715 93.9752 85.3125 93.9752 85.91C93.3837 85.91 92.7652 85.91 92.1737 85.91C92.1737 88.653 92.1737 91.3961 92.1737 94.1663C91.5552 94.1663 90.9099 94.1663 90.2915 94.1663C90.2646 91.4233 90.2915 88.6802 90.2915 85.9371C89.6999 85.9371 89.0815 85.9371 88.4899 85.9371C88.3555 85.3125 88.4093 84.715 88.4093 84.1175ZM94.8357 84.0903C95.3196 84.0903 95.7768 84.0089 96.2607 84.0632C96.5027 84.0903 96.7447 84.0632 97.0136 84.0632C97.3094 84.0903 97.6052 84.0903 97.901 84.0632C98.3581 84.0903 98.8421 84.1718 99.2992 84.3076C99.4336 84.3619 99.568 84.4434 99.7025 84.4977C100.455 84.8779 101.02 85.6384 101.181 86.4803C101.343 87.0778 101.262 87.7025 101.128 88.3C100.859 89.0604 100.294 89.7122 99.568 90.0381C99.4874 90.0653 99.4067 90.0925 99.326 90.1468C98.5194 90.4184 97.659 90.3641 96.8254 90.3641C96.7716 91.6134 96.8254 92.8898 96.7985 94.1392C96.1532 94.1392 95.5079 94.1663 94.8625 94.1392C94.8357 90.7714 94.8357 87.4309 94.8357 84.0903ZM96.7716 88.4901C97.4707 88.4358 98.2236 88.6259 98.8421 88.2457C99.2185 88.0284 99.3798 87.5395 99.326 87.1321C99.3798 86.6161 98.9765 86.2087 98.5463 86.0186C97.9547 85.91 97.3632 85.9371 96.7716 85.91C96.7716 86.7791 96.7716 87.621 96.7716 88.4901ZM102.338 84.0903C102.956 84.0632 103.601 84.0903 104.22 84.0632C104.3 84.8779 104.247 85.6927 104.274 86.5346C104.274 87.9469 104.274 89.3592 104.274 90.7443C104.274 90.7986 104.3 90.8801 104.3 90.9072C105.699 88.6259 107.178 86.3717 108.576 84.0632H108.603C109.221 84.0632 109.813 84.0632 110.431 84.0632C110.458 87.4037 110.431 90.7171 110.431 94.0577C109.813 94.0577 109.221 94.0577 108.603 94.0577C108.576 91.7492 108.63 89.4406 108.576 87.105C108.522 87.1593 108.495 87.2408 108.441 87.2951C107.043 89.5493 105.618 91.7763 104.22 94.0305C103.574 94.0577 102.929 94.0305 102.311 94.0305C102.338 90.7714 102.338 87.4309 102.338 84.0903ZM115.567 84.0903C116.078 84.0903 116.589 84.0632 117.099 84.0903C117.261 84.552 117.476 85.0137 117.664 85.4483C118.175 86.6433 118.659 87.8654 119.17 89.0604C119.277 89.3049 119.358 89.5764 119.466 89.8209C120.03 91.2331 120.649 92.6454 121.186 94.0848C120.487 94.0848 119.815 94.0848 119.116 94.0848C118.901 93.4873 118.659 92.8898 118.417 92.3195C118.309 92.1022 118.229 91.8578 118.175 91.6134C116.938 91.559 115.728 91.5862 114.491 91.6134C114.222 92.4553 113.846 93.2701 113.523 94.112C112.824 94.112 112.125 94.112 111.453 94.112C111.749 93.3515 112.071 92.5911 112.394 91.8306C112.394 91.7763 112.421 91.6948 112.448 91.6677C112.528 91.4776 112.636 91.2875 112.717 91.0702C113.227 89.8752 113.711 88.653 114.222 87.458C114.384 87.0507 114.518 86.6704 114.706 86.2902C114.733 86.2359 114.733 86.1544 114.76 86.1273C115.029 85.4483 115.271 84.7421 115.567 84.0903ZM115.271 89.6579C115.97 89.6851 116.696 89.6851 117.395 89.6579C117.315 89.495 117.261 89.332 117.18 89.1962C116.911 88.4358 116.535 87.6753 116.347 86.8877C115.97 87.784 115.621 88.7074 115.271 89.6579ZM125.247 84.0903C125.811 84.0632 126.349 84.0632 126.914 84.0903C127.263 84.9594 127.613 85.8285 127.936 86.6976C127.962 86.7791 128.016 86.8877 128.043 86.9692C128.285 87.5124 128.473 88.1099 128.715 88.653C128.877 89.0604 129.038 89.495 129.199 89.9024C129.199 89.9567 129.226 90.0381 129.253 90.0653C129.441 90.4727 129.576 90.8801 129.737 91.3146C129.898 91.722 130.06 92.1294 130.221 92.5639C130.382 92.9713 130.544 93.4059 130.705 93.8132C130.732 93.9219 130.759 94.0577 130.786 94.1663C130.114 94.1663 129.441 94.1663 128.769 94.1663C128.473 93.433 128.231 92.6726 127.936 91.9121C127.855 91.6948 127.774 91.4776 127.694 91.2603C127.344 90.2826 126.994 89.332 126.645 88.3814C126.564 88.1642 126.484 87.9469 126.403 87.7025C126.295 87.458 126.188 87.1865 126.161 86.9149C126.134 86.9149 126.053 86.9149 126.026 86.942C126.026 86.9149 126 86.8605 126 86.8062C125.973 87.105 125.865 87.4037 125.731 87.6753C125.65 87.8926 125.569 88.137 125.489 88.3543C125.408 88.5716 125.327 88.7888 125.247 89.0333C124.816 90.2283 124.386 91.3961 123.956 92.5911C123.741 93.1071 123.58 93.6503 123.364 94.1935C122.692 94.1935 122.02 94.1935 121.321 94.1935C121.348 94.0034 121.402 93.8404 121.455 93.6775C121.617 93.3244 121.724 92.9442 121.886 92.6183C121.886 92.5639 121.912 92.4825 121.939 92.4553C122.854 90.1468 123.741 87.8383 124.682 85.5298C124.682 85.4754 124.709 85.394 124.736 85.3668C124.951 84.9051 125.085 84.4977 125.247 84.0903ZM131.781 84.1175C131.807 84.0903 131.834 84.0632 131.861 84.036C132.345 84.0903 132.856 84.1175 133.367 84.036C133.448 84.0632 133.555 84.0632 133.636 84.0903C133.663 84.1446 133.69 84.2261 133.69 84.2804C133.582 84.7965 133.69 85.3396 133.69 85.8557C133.636 86.4803 133.663 87.1321 133.663 87.7839C133.69 87.8111 133.717 87.8926 133.743 87.9469C134.254 87.9469 134.738 87.9469 135.249 87.9469C135.545 87.9469 135.841 87.9197 136.137 88.0284C136.379 88.0827 136.621 88.1642 136.863 88.2728C137.615 88.653 138.18 89.4135 138.341 90.2554C138.395 90.527 138.449 90.7986 138.449 91.0702C138.395 91.7492 138.207 92.4825 137.75 92.9985C137.158 93.7046 136.244 94.112 135.33 94.0848C134.147 94.0848 132.964 94.0848 131.781 94.0848C131.781 90.7714 131.781 87.458 131.781 84.1175ZM133.663 89.7937C133.663 90.3369 133.663 90.8801 133.69 91.3961C133.69 91.5319 133.69 91.6677 133.69 91.8035C133.69 91.9393 133.717 92.1022 133.743 92.2652C134.443 92.2109 135.169 92.3467 135.841 92.1565C136.163 91.9936 136.379 91.722 136.54 91.4233C136.54 91.1788 136.54 90.9072 136.54 90.6628C136.459 90.4998 136.379 90.3641 136.298 90.2011C136.083 90.0381 135.868 89.9295 135.626 89.8209C134.953 89.7666 134.308 89.7937 133.663 89.7937ZM139.525 84.0903C140.143 84.0903 140.788 84.0903 141.407 84.0903C141.407 85.4211 141.407 86.7247 141.407 88.0555C142.59 88.0555 143.773 88.0555 144.983 88.0555C145.01 86.7247 144.983 85.4211 144.983 84.0903C145.037 84.0903 145.144 84.0632 145.198 84.036C145.763 84.1175 146.327 83.9817 146.865 84.0903C146.865 87.4309 146.865 90.7443 146.865 94.0848C146.247 94.112 145.601 94.0848 144.983 94.112C144.983 92.7269 144.983 91.3418 144.983 89.9567C143.8 89.9567 142.644 89.9567 141.46 89.9567H141.407C141.407 91.3418 141.407 92.7269 141.407 94.0848C140.788 94.0848 140.143 94.0577 139.525 94.112C139.551 90.7714 139.525 87.4309 139.525 84.0903ZM148.613 84.0903C149.258 84.0632 149.904 84.0632 150.549 84.0903C150.549 85.3668 150.522 86.6704 150.549 87.9469C150.979 87.8926 151.409 87.9469 151.813 87.9469C152.189 87.9469 152.592 87.9197 152.969 88.0284C153.211 88.0827 153.453 88.1642 153.695 88.2728C154.286 88.5444 154.743 89.0876 155.012 89.6851C155.174 90.2283 155.335 90.7714 155.254 91.3418C155.227 91.6134 155.147 91.885 155.066 92.1565C154.797 92.9442 154.152 93.596 153.372 93.8676C152.619 94.1663 151.786 94.0848 151.006 94.0848C150.199 94.0848 149.393 94.0577 148.586 94.0848C148.64 90.7714 148.613 87.4309 148.613 84.0903ZM150.549 89.7937C150.549 90.6085 150.549 91.4504 150.549 92.2652C151.248 92.2109 151.974 92.3738 152.646 92.1565C152.969 92.0208 153.238 91.7492 153.345 91.3961C153.372 91.1517 153.372 90.9072 153.345 90.6628C153.211 90.1196 152.619 89.7666 152.081 89.7666C151.571 89.7666 151.06 89.7937 150.549 89.7937ZM156.222 84.0903C156.706 84.0632 157.163 84.1175 157.647 84.0632C157.809 84.0903 157.943 84.0903 158.105 84.0903C158.105 87.4309 158.105 90.7714 158.105 94.112C157.486 94.112 156.841 94.112 156.222 94.112C156.222 90.7714 156.222 87.4309 156.222 84.0903ZM166.117 84.0903C166.736 84.0632 167.381 84.0903 168 84.0903C168.026 87.4309 168 90.7714 168 94.112C167.354 94.112 166.736 94.1392 166.09 94.112C166.09 91.8306 166.09 89.5764 166.09 87.2951C166.064 87.3222 166.01 87.3494 165.983 87.3766C165.687 87.9469 165.311 88.4629 164.988 89.0333C164.074 90.4998 163.133 91.9664 162.218 93.433C162.084 93.6503 161.923 93.8676 161.815 94.112C161.17 94.112 160.551 94.112 159.906 94.112C159.906 90.7714 159.906 87.458 159.906 84.1175C160.498 84.1175 161.116 84.1175 161.708 84.1175C161.734 84.2804 161.761 84.4434 161.761 84.6063C161.708 85.6112 161.761 86.6433 161.761 87.6482C161.734 88.7888 161.788 89.9295 161.734 91.0702C161.815 90.9616 161.896 90.8529 161.976 90.7171C163.348 88.4629 164.719 86.2902 166.117 84.0903ZM59.9342 99.8697C60.5258 99.8697 61.1442 99.8697 61.7358 99.8697C61.8433 100.196 61.7896 100.549 61.7896 100.902C61.7896 101.907 61.7896 102.912 61.7896 103.889C62.9727 103.889 64.1289 103.889 65.312 103.889C65.4464 103.455 65.3389 102.993 65.3389 102.531C65.4195 101.635 65.2582 100.739 65.3926 99.8425C65.9842 99.8697 66.6026 99.8425 67.1942 99.8425C67.1673 102.558 67.1942 105.247 67.1942 107.963C67.1942 108.588 67.1673 109.185 67.2211 109.81C66.6833 110 66.0917 109.891 65.5271 109.919C65.4733 109.919 65.3926 109.919 65.3389 109.919C65.3926 108.506 65.3389 107.094 65.3657 105.709C64.1558 105.682 62.9727 105.709 61.7627 105.682V105.736C61.7627 106.931 61.7627 108.153 61.7627 109.348C61.7627 109.538 61.7358 109.728 61.7089 109.891C61.1173 109.891 60.4989 109.891 59.9074 109.891C59.9342 106.605 59.9342 103.237 59.9342 99.8697ZM41.9995 99.8697C43.9355 99.8697 45.8715 99.8697 47.8075 99.8697C47.8075 100.494 47.8075 101.119 47.8075 101.744C46.4899 101.744 45.1993 101.744 43.9086 101.744C43.9086 102.395 43.9086 103.074 43.9086 103.726C44.9035 103.781 45.9253 103.59 46.8933 103.944C47.6999 104.215 48.3184 104.921 48.5873 105.736C48.8293 106.551 48.8024 107.474 48.4259 108.235C48.0495 109.049 47.2697 109.565 46.4362 109.81C45.6833 109.973 44.9035 109.919 44.1237 109.919C43.4246 109.919 42.7255 109.919 41.9995 109.919C41.9995 106.605 41.9995 103.237 41.9995 99.8697ZM43.9086 105.573C43.9086 106.388 43.9086 107.23 43.9086 108.045C44.6077 108.045 45.3068 108.072 46.0059 108.017C46.1942 107.909 46.4093 107.8 46.5706 107.637C46.7051 107.474 46.7857 107.284 46.8664 107.094C46.8664 106.85 46.8664 106.578 46.7588 106.361C46.5437 105.845 45.9791 105.6 45.4413 105.6C44.9304 105.573 44.4195 105.573 43.9086 105.573ZM52.9432 100.82C53.0776 100.522 53.1852 100.196 53.3465 99.8969C53.8305 99.8969 54.3145 99.8969 54.7985 99.8969C55.2287 100.739 55.5245 101.635 55.901 102.477C55.901 102.504 55.9547 102.586 55.9547 102.64C56.0354 102.83 56.1161 103.02 56.1967 103.237C56.6807 104.432 57.1916 105.6 57.6487 106.795C58.0252 107.691 58.4016 108.615 58.778 109.538C58.8318 109.674 58.9125 109.837 58.9125 110C58.2403 110 57.568 110 56.8958 110C56.6538 109.593 56.5463 109.131 56.3581 108.724C56.2236 108.37 56.0892 107.99 55.9278 107.664C55.9278 107.61 55.901 107.501 55.901 107.447C54.691 107.447 53.481 107.447 52.271 107.447C51.9214 108.289 51.5988 109.158 51.2492 110.027C50.577 110.027 49.8779 110.027 49.2057 110.027C49.3132 109.593 49.5284 109.212 49.6628 108.805C49.7435 108.615 49.8241 108.425 49.9048 108.208C50.2543 107.393 50.577 106.578 50.9266 105.763C51.0072 105.573 51.0879 105.383 51.1686 105.193C51.1686 105.139 51.1954 105.057 51.2223 105.03C51.6257 104.107 52.0021 103.156 52.3785 102.233C52.5668 101.689 52.755 101.255 52.9432 100.82ZM54.0188 102.776C53.9919 102.857 53.9919 102.966 53.965 103.074C53.8305 103.373 53.723 103.672 53.6154 103.971C53.4272 104.487 53.2121 105.003 53.0239 105.492C53.723 105.492 54.449 105.492 55.1481 105.492C55.0136 105.139 54.9061 104.785 54.7447 104.46C54.7447 104.405 54.7179 104.324 54.7179 104.297C54.5565 103.998 54.449 103.672 54.3414 103.346C54.2339 103.129 54.207 102.912 54.0188 102.776ZM69.0226 109.946C68.9957 106.605 69.0226 103.265 68.9957 99.8969C69.6141 99.924 70.2595 99.8969 70.8779 99.924C70.8779 101.336 70.8779 102.749 70.8779 104.161C70.9317 104.079 71.0123 103.998 71.0661 103.916C71.6846 103.02 72.303 102.151 72.9483 101.255C73.2979 100.793 73.5937 100.304 73.9701 99.8697C74.6961 99.8697 75.449 99.8697 76.175 99.8697C76.0405 100.168 75.7985 100.413 75.5834 100.712C74.5348 102.07 73.513 103.455 72.4643 104.813C73.4592 106.225 74.5079 107.61 75.5296 108.995C75.7447 109.321 76.0136 109.593 76.175 109.946C75.4221 109.973 74.6961 109.946 73.9432 109.946C72.9483 108.561 72.0072 107.148 71.0123 105.763C70.9855 105.736 70.9317 105.655 70.9048 105.6C70.9048 107.04 70.9048 108.479 70.9048 109.919C70.2595 109.973 69.641 109.946 69.0226 109.946Z" fill="#910D12"/>
<path d="M53.5614 21C53.5883 21 53.6152 21 53.6421 21.0272C53.6421 28.6588 53.6421 36.3177 53.6421 43.9493C53.669 44.4382 53.5883 44.9542 53.669 45.4431C53.6421 45.5517 53.6152 45.6875 53.5883 45.7962C53.5614 44.9814 53.5883 44.1666 53.5614 43.3518C53.5614 35.9103 53.5614 28.4687 53.5614 21ZM75.6908 68.3381C75.7714 68.311 75.8252 68.2566 75.9059 68.2838C76.4705 68.2566 77.0621 68.311 77.6267 68.2838C77.5461 69.2072 77.5999 70.1306 77.5999 71.054C77.6267 71.5157 77.5461 72.0046 77.6536 72.4663C77.6267 72.4934 77.5999 72.5206 77.573 72.5478C77.573 71.2984 77.573 70.0491 77.573 68.7998C77.573 68.6369 77.5461 68.4739 77.4385 68.3381C76.8739 68.3381 76.2823 68.3381 75.6908 68.3381ZM120.971 68.2838C121.563 68.2566 122.154 68.311 122.746 68.2566C122.692 68.7998 122.719 69.343 122.746 69.8862C122.746 70.6195 122.773 71.3799 122.719 72.1132C122.746 73.1452 122.719 74.1773 122.773 75.2093C122.773 75.2365 122.746 75.2908 122.719 75.318C122.638 74.8019 122.665 74.2859 122.665 73.7699C122.719 72.0046 122.692 70.2664 122.692 68.5011C122.638 68.4467 122.584 68.3924 122.531 68.3381C121.966 68.3653 121.401 68.3381 120.864 68.3653C120.864 71.7058 120.864 75.0735 120.864 78.4141C121.482 78.4141 122.074 78.4684 122.692 78.3869V78.4413C122.1 78.4141 121.509 78.4413 120.917 78.4141C120.81 78.4413 120.729 78.3055 120.756 78.224C120.756 74.9921 120.756 71.7873 120.756 68.5554C120.756 68.4196 120.837 68.2838 120.971 68.2838ZM127.075 68.3381C127.156 68.311 127.236 68.2566 127.317 68.2838C127.882 68.2838 128.473 68.311 129.038 68.2566C128.957 70.3479 129.011 72.412 129.011 74.5032C129.011 75.8068 129.011 77.1105 129.011 78.4413C128.366 78.4141 127.747 78.4413 127.102 78.4413L127.129 78.4141C127.666 78.4413 128.204 78.4413 128.715 78.4141C128.823 78.4141 129.011 78.3869 128.984 78.224C128.984 75.155 128.984 72.1132 128.984 69.0442C128.984 68.7998 128.957 68.5554 128.876 68.311C128.285 68.3653 127.666 68.3381 127.075 68.3381ZM58.7509 78.6314C59.4232 78.577 60.0954 78.4684 60.7138 78.2511C60.176 78.5227 59.5845 78.6042 58.9929 78.6585C58.3207 78.7128 57.6754 78.5499 57.0301 78.4141L57.057 78.3598C57.6216 78.4956 58.1863 78.6042 58.7509 78.6314ZM108.629 84.0903C108.791 83.9817 108.979 84.0088 109.167 84.0088C109.597 84.0088 110.028 84.0088 110.458 84.0088C110.538 84.3348 110.512 84.6878 110.512 85.0409C110.512 87.5938 110.512 90.1468 110.512 92.7269C110.485 93.2157 110.565 93.7046 110.458 94.1663C109.866 94.1391 109.275 94.1935 108.71 94.1663C108.576 94.1663 108.549 94.0033 108.549 93.8947C108.549 91.8578 108.549 89.8209 108.549 87.7839C108.549 87.6481 108.522 87.4852 108.495 87.3494C108.522 87.2951 108.576 87.2136 108.629 87.1593C108.656 89.4678 108.629 91.7763 108.656 94.112C109.248 94.112 109.866 94.112 110.485 94.112C110.485 90.7714 110.485 87.458 110.485 84.1175C109.839 84.0903 109.221 84.0903 108.629 84.0903ZM159.906 84.036C160.524 83.9817 161.143 84.036 161.761 84.0088C161.788 86.2902 161.734 88.5444 161.761 90.8258C161.815 90.7986 161.923 90.7171 161.976 90.6628C161.896 90.7714 161.815 90.9072 161.734 91.0159C161.788 89.8752 161.734 88.7345 161.761 87.5938C161.761 86.5889 161.707 85.5569 161.761 84.552C161.761 84.3891 161.734 84.2261 161.707 84.0632C161.116 84.0903 160.497 84.0632 159.906 84.0632C159.906 87.4037 159.906 90.7171 159.906 94.0577C160.551 94.0577 161.17 94.0577 161.815 94.0577C161.6 94.1663 161.331 94.1391 161.089 94.1391C160.713 94.112 160.309 94.1663 159.933 94.112C159.798 93.8676 159.879 93.596 159.852 93.3515C159.852 90.4727 159.852 87.5667 159.852 84.6878C159.825 84.4977 159.771 84.2533 159.906 84.036ZM93.9481 84.1175C94.0288 84.6878 93.975 85.2853 93.975 85.8828C93.9481 85.91 93.8675 85.9643 93.8406 85.9915C93.2759 85.9915 92.7112 85.9915 92.1197 85.9915C92.0928 88.7073 92.1466 91.4504 92.0928 94.1663C92.1197 91.4232 92.0928 88.6802 92.0928 85.91C92.6844 85.91 93.3028 85.91 93.8943 85.91C93.975 85.3125 93.9481 84.715 93.9481 84.1175ZM48.0762 87.4309C48.1299 87.3494 48.1837 87.2679 48.2644 87.2136C48.2375 89.5221 48.2644 91.8035 48.2644 94.112C48.8828 94.1391 49.5282 94.0848 50.1466 94.1391C49.8777 94.2478 49.5819 94.1935 49.2862 94.1935C48.9097 94.1663 48.5333 94.2478 48.1837 94.1391C48.1837 92.0479 48.1837 89.9838 48.1837 87.8926C48.1568 87.7025 48.2375 87.5124 48.0762 87.4309ZM141.407 89.9567H141.46C141.487 91.3146 141.46 92.6726 141.46 94.0305C141.407 94.0848 141.353 94.1391 141.299 94.1935C140.707 94.1663 140.089 94.2749 139.497 94.1391C140.116 94.0848 140.761 94.1391 141.38 94.112C141.407 92.6997 141.407 91.3418 141.407 89.9567ZM70.0442 92.1837C70.3668 92.238 70.7164 92.1837 71.039 92.2652C71.0659 93.1071 71.039 93.949 71.0659 94.791C71.0659 95.0082 71.0659 95.2255 71.0122 95.4156C70.3668 95.3885 69.7484 95.4428 69.1031 95.3885H69.1568C69.7484 95.307 70.3668 95.3613 70.9584 95.3613C70.9853 94.3293 70.9584 93.3244 70.9584 92.2923C70.6626 92.2923 70.3668 92.2923 70.0979 92.2923C70.0979 92.2652 70.0711 92.2109 70.0442 92.1837ZM151.033 94.0848C151.839 94.0577 152.646 94.1663 153.399 93.8676C153.022 94.112 152.565 94.0848 152.162 94.1663C151.194 94.1935 150.199 94.1663 149.231 94.1663C149.016 94.1663 148.801 94.1935 148.613 94.112C149.419 94.0848 150.226 94.112 151.033 94.0848ZM62.0045 94.112C64.3707 94.0848 66.7638 94.112 69.1299 94.112C69.1568 94.5194 69.1568 94.9268 69.1568 95.3341C69.0224 94.9539 69.1299 94.5737 69.1031 94.1935C66.7638 94.1935 64.3976 94.1935 62.0582 94.1935C62.0851 94.5465 62.1658 94.8996 62.112 95.2255C62.0851 95.2527 62.0314 95.2798 62.0045 95.307C62.0045 94.8996 62.0045 94.4922 62.0045 94.112ZM68.9955 99.924C69.1568 99.8154 69.3719 99.8697 69.5333 99.8425C69.9366 99.8697 70.3399 99.8154 70.7433 99.8425C70.9853 99.8425 70.9315 100.141 70.9315 100.304C70.9046 101.499 70.9853 102.721 70.8777 103.916C70.9046 103.916 70.9853 103.916 71.039 103.916C70.9853 103.998 70.9046 104.079 70.8508 104.161C70.8508 102.749 70.8508 101.336 70.8508 99.924C70.2593 99.924 69.6139 99.9512 68.9955 99.924ZM67.2209 99.8697C67.2477 99.9512 67.2746 100.06 67.2746 100.168C67.2746 102.83 67.2746 105.519 67.2746 108.18C67.3015 108.778 67.2477 109.402 67.3015 110C66.71 109.973 66.1184 110 65.5538 109.973C66.1184 109.946 66.6831 110.054 67.2477 109.864C67.194 109.24 67.2209 108.642 67.2209 108.017C67.2209 105.274 67.194 102.586 67.2209 99.8697ZM61.7894 105.709C62.9993 105.709 64.1824 105.682 65.3924 105.736C65.3655 107.148 65.4193 108.561 65.3655 109.946V110C65.2849 108.588 65.3655 107.203 65.3387 105.79C64.1556 105.763 62.9725 105.818 61.7894 105.763V105.709Z" fill="#71090D"/>
</g>
<defs>
<clipPath id="clip0_404_10509">
<rect width="126" height="89" fill="white" transform="translate(42 21)"/>
</clipPath>
</defs>
</svg>
