<svg width="210" height="130" viewBox="0 0 210 130" fill="none" xmlns="http://www.w3.org/2000/svg">
<g clip-path="url(#clip0_404_10525)">
<path fill-rule="evenodd" clip-rule="evenodd" d="M37.1927 62.8017C38.0583 63.1004 38.8576 63.5504 39.5493 64.1283C40.2049 64.7301 40.7407 65.4395 41.1312 66.2223C41.5103 67.0598 41.6996 67.9638 41.6869 68.8754C41.699 69.7771 41.5096 70.6709 41.1312 71.4978C40.7486 72.2759 40.2114 72.9764 39.5493 73.5609C38.8679 74.1595 38.0663 74.6212 37.1927 74.9184C36.23 75.2528 35.2122 75.4213 34.1871 75.4158H23.3613V54.4951H39.813V58.5597H27.888V62.3312H34.1871C35.2104 62.3172 36.2282 62.4766 37.1927 62.8017ZM36.4505 66.928C35.7817 66.459 34.9647 66.2209 34.1344 66.2531H27.888V71.4669H34.1344C34.9675 71.5009 35.7877 71.2628 36.4586 70.7921C36.7554 70.5607 36.989 70.2645 37.1394 69.9288C37.2898 69.593 37.3527 69.2277 37.3225 68.8639C37.3483 68.5005 37.2835 68.1365 37.1333 67.8015C36.9832 67.4664 36.752 67.1698 36.4586 66.9357L36.4505 66.928Z" fill="#006DF0"/>
<path fill-rule="evenodd" clip-rule="evenodd" d="M50.0798 75.4158H45.752V54.4951H50.0798V63.3647L57.7784 54.4951H63.1609L54.3793 64.5448L64.9942 75.4158H59.34L50.0798 65.9253V75.4158Z" fill="#006DF0"/>
<path fill-rule="evenodd" clip-rule="evenodd" d="M71.6388 74.915C68.9104 73.8422 66.7382 71.7881 65.5952 69.1999C65.0104 67.8553 64.7152 66.4128 64.7272 64.9579C64.7117 63.5326 64.9942 62.1185 65.5582 60.7978C66.1222 59.4771 66.9565 58.2761 68.0126 57.2645C69.0508 56.2754 70.2827 55.4893 71.6388 54.9506C73.1054 54.3856 74.6765 54.1062 76.2587 54.1292C77.4798 54.1243 78.694 54.3026 79.8565 54.6576C80.9803 55.029 82.0439 55.5483 83.0163 56.2001C83.9495 56.864 84.7703 57.6599 85.4499 58.5602C86.1368 59.4869 86.6411 60.5243 86.9385 61.6221H82.0712C81.8598 61.0993 81.5444 60.6201 81.1423 60.2107C80.7323 59.7952 80.2625 59.4369 79.747 59.1464C79.2333 58.8735 78.6891 58.6562 78.1246 58.4985C77.5277 58.3468 76.913 58.2678 76.2953 58.2633C75.3238 58.2557 74.3598 58.4259 73.456 58.7646C72.6163 59.0968 71.8571 59.589 71.2251 60.2107C70.6144 60.8263 70.1314 61.5458 69.8014 62.3317C69.4591 63.167 69.291 64.0577 69.3065 64.954C69.291 65.8504 69.4591 66.741 69.8014 67.5763C70.1299 68.3629 70.6131 69.0828 71.2251 69.6973C71.85 70.3195 72.6118 70.8028 73.456 71.1126C74.3529 71.4766 75.3201 71.6579 76.2953 71.6448C76.913 71.6403 77.5277 71.5612 78.1246 71.4095C78.6946 71.2526 79.2402 71.0244 79.747 70.7308C80.2694 70.4626 80.741 70.1133 81.1423 69.6973C81.5377 69.2845 81.8473 68.8043 82.055 68.282H86.9223C86.6264 69.372 86.1218 70.4009 85.4337 71.317C84.381 72.693 83.0012 73.813 81.4068 74.5857C79.8123 75.3584 78.0484 75.7619 76.2587 75.7634C74.6739 75.7801 73.1021 75.4901 71.6388 74.9111V74.915Z" fill="#006DF0"/>
<path fill-rule="evenodd" clip-rule="evenodd" d="M99.2191 63.4765V56.7394H109.765V54.6377H96.8828V75.3502H104.464C108.698 75.3502 111.797 73.3101 111.797 69.4307C111.797 65.4895 108.698 63.4765 104.464 63.4765H99.2191ZM109.437 69.4384C109.437 71.8872 107.688 73.2947 104.496 73.2947H99.2232V65.5473H104.496C107.688 65.5473 109.437 66.9472 109.437 69.4307V69.4384Z" fill="#006DF0"/>
<path fill-rule="evenodd" clip-rule="evenodd" d="M112.941 75.3502H115.335L118.344 68.9023H128.744L131.782 75.3502H134.24L124.505 54.6377H122.64L112.941 75.3502ZM123.528 57.7575L127.795 66.8315H119.314L123.548 57.7575H123.528Z" fill="#006DF0"/>
<path fill-rule="evenodd" clip-rule="evenodd" d="M137.521 75.3502H139.854V65.7517H152.59V75.3502H154.922V54.6377H152.59V63.6538H139.854V54.6377H137.521V75.3502Z" fill="#006DF0"/>
<path fill-rule="evenodd" clip-rule="evenodd" d="M175.532 75.3502H179L165.651 64.4675L176.481 54.6377H173.321L163.286 63.7117V54.6377H160.986V75.3502H163.286V65.3429L175.532 75.3502Z" fill="#006DF0"/>
</g>
<defs>
<clipPath id="clip0_404_10525">
<rect width="210" height="130" fill="white"/>
</clipPath>
</defs>
</svg>
