<svg width="40" height="57" viewBox="0 0 40 57" fill="none" xmlns="http://www.w3.org/2000/svg">
<path d="M0 17.1671C0 15.17 1.18839 13.3645 3.02268 12.5747L25.2505 3.00418C28.5508 1.5832 32.2278 4.00339 32.2278 7.59659V47.7162C32.2278 50.4776 29.9892 52.7162 27.2278 52.7162H5C2.23858 52.7162 0 50.4776 0 47.7162V17.1671Z" fill="#AEDD9B"/>
<circle cx="31.3171" cy="32.8171" r="8.4109" fill="#35C759"/>
<path d="M28.8242 37.1191C28.8242 36.5669 29.2719 36.1191 29.8242 36.1191H32.8098C33.362 36.1191 33.8098 36.5669 33.8098 37.1191V55.8261C33.8098 56.3783 33.362 56.8261 32.8098 56.8261H29.8242C29.2719 56.8261 28.8242 56.3783 28.8242 55.8261V37.1191Z" fill="#35C759"/>
<path d="M34.6304 54.418C35.1827 54.418 35.6304 54.8657 35.6304 55.418L35.6304 55.8273C35.6304 56.3796 35.1827 56.8273 34.6304 56.8273L29.8243 56.8273C29.272 56.8273 28.8243 56.3796 28.8243 55.8273L28.8243 55.418C28.8243 54.8657 29.272 54.418 29.8243 54.418L34.6304 54.418Z" fill="#35C759"/>
<path d="M34.6304 51.5117C35.1827 51.5117 35.6304 51.9594 35.6304 52.5117L35.6304 52.9211C35.6304 53.4734 35.1827 53.9211 34.6304 53.9211L29.8243 53.9211C29.272 53.9211 28.8243 53.4734 28.8243 52.9211L28.8243 52.5117C28.8243 51.9594 29.272 51.5117 29.8243 51.5117L34.6304 51.5117Z" fill="#35C759"/>
<path d="M34.6304 48.3105C35.1827 48.3105 35.6304 48.7583 35.6304 49.3105L35.6304 49.7199C35.6304 50.2722 35.1827 50.7199 34.6304 50.7199L29.8243 50.7199C29.272 50.7199 28.8243 50.2722 28.8243 49.7199L28.8243 49.3105C28.8243 48.7583 29.272 48.3105 29.8243 48.3105L34.6304 48.3105Z" fill="#35C759"/>
<circle cx="31.3169" cy="32.8179" r="3.30225" fill="#276C55"/>
</svg>
