<svg width="47" height="69" viewBox="0 0 47 69" fill="none" xmlns="http://www.w3.org/2000/svg">
<path d="M23.6664 0C11.0432 0 0.666382 9.84323 0.666382 23.8846C0.666382 28.8951 1.84682 32.3808 4.03929 36.2419L22.1186 68.088V68.0874C22.4302 68.6507 23.0232 69 23.6668 69C24.3104 69 24.9034 68.6507 25.215 68.0874L43.2943 36.2412C45.4867 32.3809 46.6672 28.8952 46.6672 23.8846C46.6672 9.8434 36.2902 1.44623e-05 23.6672 1.44623e-05L23.6664 0ZM23.6664 12.3843C29.529 12.3843 34.2816 17.1369 34.2816 22.9995C34.2816 28.8621 29.529 33.6147 23.6664 33.6147C17.8037 33.6147 13.0511 28.8621 13.0511 22.9995C13.0511 17.1369 17.8037 12.3843 23.6664 12.3843Z" fill="#35C759"/>
</svg>
