<svg width="20" height="17" viewBox="0 0 20 17" fill="none" xmlns="http://www.w3.org/2000/svg">
<path d="M19.6642 1.94682C19.6162 2.61722 19.2332 4.96523 18.85 7.50443L17.65 15.0245C17.65 15.0245 17.554 16.126 16.7396 16.318C15.9252 16.51 14.5795 15.6468 14.3435 15.4556C14.1515 15.3116 10.7499 13.1556 9.50426 12.102C9.37752 12.0161 9.27464 11.8996 9.20504 11.7632C9.13544 11.6268 9.10142 11.475 9.10621 11.322C9.111 11.169 9.15439 11.0197 9.23238 10.8879C9.31038 10.7562 9.42044 10.6462 9.5523 10.5684C11.2771 8.9876 13.3372 7.02279 14.5828 5.77719C15.158 5.20199 15.7331 3.85718 13.3371 5.48998L6.58121 10.042C6.23597 10.1979 5.86266 10.2825 5.48394 10.2908C5.10523 10.299 4.72881 10.2307 4.37711 10.09C2.93711 9.65878 1.26266 9.08363 1.26266 9.08363C1.26266 9.08363 0.113109 8.36359 2.07711 7.59799L13.2412 2.99887C14.3428 2.51887 18.0802 0.986855 18.0802 0.986855C18.0802 0.986855 19.8074 0.317216 19.6642 1.94682Z" fill="#35C759"/>
</svg>
