<svg width="80" height="80" viewBox="0 0 80 80" fill="none" xmlns="http://www.w3.org/2000/svg">
<path fill-rule="evenodd" clip-rule="evenodd" d="M25.5557 18C24.2867 18 23.155 18.7984 22.7294 19.9939L18.3263 32.3631C18.29 32.4651 18.2595 32.5674 18.2347 32.6697C15.8365 33.038 14 35.1103 14 37.6115V53.0076H18.3172V57.7312C18.3172 59.9346 20.1034 61.7207 22.3067 61.7207C24.51 61.7207 26.2962 59.9346 26.2962 57.7312V53.0076H54.0373V57.7312C54.0373 59.9346 55.8234 61.7207 58.0268 61.7207C60.2301 61.7207 62.0162 59.9346 62.0162 57.7312V53.0076H66.2976V37.6115C66.2976 35.125 64.4826 33.0624 62.1051 32.6764C62.0761 32.5557 62.0392 32.4351 61.9941 32.3149L57.3513 19.9458C56.912 18.7753 55.7929 18 54.5427 18H25.5557Z" fill="#AEDD9B"/>
<circle cx="24.5429" cy="43.0019" r="3.44135" fill="#5CBF32"/>
<circle cx="56.0903" cy="43.0019" r="3.44135" fill="#5CBF32"/>
</svg>
