<svg width="80" height="80" viewBox="0 0 80 80" fill="none" xmlns="http://www.w3.org/2000/svg">
<path d="M20 29.1671C20 27.17 21.1884 25.3645 23.0227 24.5747L45.2505 15.0042C48.5508 13.5832 52.2278 16.0034 52.2278 19.5966V59.7162C52.2278 62.4776 49.9892 64.7162 47.2278 64.7162H25C22.2386 64.7162 20 62.4776 20 59.7162V29.1671Z" fill="#AEDD9B"/>
<circle cx="51.3171" cy="44.8171" r="8.4109" fill="#35C759"/>
<path d="M48.8242 49.1191C48.8242 48.5669 49.2719 48.1191 49.8242 48.1191H52.8098C53.362 48.1191 53.8098 48.5669 53.8098 49.1191V67.8261C53.8098 68.3783 53.362 68.8261 52.8098 68.8261H49.8242C49.2719 68.8261 48.8242 68.3783 48.8242 67.8261V49.1191Z" fill="#35C759"/>
<path d="M54.6304 66.418C55.1827 66.418 55.6304 66.8657 55.6304 67.418L55.6304 67.8273C55.6304 68.3796 55.1827 68.8273 54.6304 68.8273L49.8243 68.8273C49.272 68.8273 48.8243 68.3796 48.8243 67.8273L48.8243 67.418C48.8243 66.8657 49.272 66.418 49.8243 66.418L54.6304 66.418Z" fill="#35C759"/>
<path d="M54.6304 63.5117C55.1827 63.5117 55.6304 63.9594 55.6304 64.5117L55.6304 64.9211C55.6304 65.4734 55.1827 65.9211 54.6304 65.9211L49.8243 65.9211C49.272 65.9211 48.8243 65.4734 48.8243 64.9211L48.8243 64.5117C48.8243 63.9594 49.272 63.5117 49.8243 63.5117L54.6304 63.5117Z" fill="#35C759"/>
<path d="M54.6304 60.3105C55.1827 60.3105 55.6304 60.7583 55.6304 61.3105L55.6304 61.7199C55.6304 62.2722 55.1827 62.7199 54.6304 62.7199L49.8243 62.7199C49.272 62.7199 48.8243 62.2722 48.8243 61.7199L48.8243 61.3105C48.8243 60.7583 49.272 60.3105 49.8243 60.3105L54.6304 60.3105Z" fill="#35C759"/>
<circle cx="51.3169" cy="44.8169" r="3.30225" fill="#276C55"/>
</svg>
