<svg width="53" height="44" viewBox="0 0 53 44" fill="none" xmlns="http://www.w3.org/2000/svg">
<path fill-rule="evenodd" clip-rule="evenodd" d="M11.5557 0C10.2867 0 9.15496 0.798425 8.72939 1.99392L4.32631 14.3631C4.28999 14.4651 4.25951 14.5674 4.23467 14.6697C1.83654 15.038 0 17.1103 0 19.6115V35.0076H4.31721V39.7312C4.31721 41.9346 6.10336 43.7207 8.30669 43.7207C10.51 43.7207 12.2962 41.9346 12.2962 39.7312V35.0076H40.0373V39.7312C40.0373 41.9346 41.8234 43.7207 44.0268 43.7207C46.2301 43.7207 48.0162 41.9346 48.0162 39.7312V35.0076H52.2976V19.6115C52.2976 17.125 50.4826 15.0624 48.1051 14.6764C48.0761 14.5557 48.0392 14.4351 47.9941 14.3149L43.3513 1.94577C42.912 0.775308 41.7929 0 40.5427 0H11.5557Z" fill="#AEDD9B"/>
<circle cx="10.5429" cy="25.0019" r="3.44135" fill="#5CBF32"/>
<circle cx="42.0903" cy="25.0019" r="3.44135" fill="#5CBF32"/>
</svg>
