<svg width="158" height="21" viewBox="0 0 158 21" fill="none" xmlns="http://www.w3.org/2000/svg">
<path d="M87.1483 10.8027C87.1483 5.27989 91.6255 0.802734 97.1483 0.802734H147.148C152.671 0.802734 157.148 5.27989 157.148 10.8027C157.148 16.3256 152.671 20.8027 147.148 20.8027H97.1483C91.6255 20.8027 87.1483 16.3256 87.1483 10.8027Z" fill="white"/>
<path d="M97.705 16.0423C96.2383 16.0423 95.0383 15.569 94.105 14.6223C93.1716 13.6623 92.705 12.4423 92.705 10.9623C92.705 9.49568 93.1716 8.28901 94.105 7.34234C95.0383 6.38234 96.2383 5.90234 97.705 5.90234C99.3183 5.90234 100.552 6.47568 101.405 7.62234L100.025 8.90234C99.4916 8.14234 98.7516 7.76234 97.805 7.76234C96.925 7.76234 96.2183 8.06234 95.685 8.66234C95.1516 9.24901 94.885 10.0157 94.885 10.9623C94.885 11.909 95.1516 12.6823 95.685 13.2823C96.2183 13.8823 96.925 14.1823 97.805 14.1823C98.725 14.1823 99.465 13.8023 100.025 13.0423L101.405 14.3223C100.552 15.469 99.3183 16.0423 97.705 16.0423Z" fill="#35C759"/>
<path d="M109.166 15.8023H103.246V6.14234H109.026C109.92 6.14234 110.62 6.37568 111.126 6.84234C111.633 7.30901 111.886 7.90234 111.886 8.62234C111.886 9.18234 111.733 9.65568 111.426 10.0423C111.12 10.429 110.733 10.689 110.266 10.8223C110.786 10.9423 111.22 11.229 111.566 11.6823C111.913 12.1223 112.086 12.6223 112.086 13.1823C112.086 13.9557 111.826 14.589 111.306 15.0823C110.8 15.5623 110.086 15.8023 109.166 15.8023ZM108.726 13.9623C109.1 13.9623 109.393 13.869 109.606 13.6823C109.82 13.4823 109.926 13.2157 109.926 12.8823C109.926 12.5757 109.82 12.3157 109.606 12.1023C109.393 11.889 109.1 11.7823 108.726 11.7823H105.346V13.9623H108.726ZM108.666 9.94234C109 9.94234 109.26 9.85568 109.446 9.68234C109.646 9.49568 109.746 9.26234 109.746 8.98234C109.746 8.67568 109.646 8.43568 109.446 8.26234C109.26 8.07568 109 7.98234 108.666 7.98234H105.346V9.94234H108.666Z" fill="#35C759"/>
<path d="M119.152 16.0423C117.685 16.0423 116.472 15.5757 115.512 14.6423C114.565 13.6957 114.092 12.469 114.092 10.9623C114.092 9.54901 114.552 8.35568 115.472 7.38234C116.405 6.39568 117.578 5.90234 118.992 5.90234C120.418 5.90234 121.565 6.39568 122.432 7.38234C123.312 8.36901 123.752 9.62901 123.752 11.1623V11.6623H116.292C116.372 12.4223 116.685 13.0557 117.232 13.5623C117.778 14.069 118.492 14.3223 119.372 14.3223C119.865 14.3223 120.358 14.229 120.852 14.0423C121.358 13.8557 121.778 13.5957 122.112 13.2623L123.072 14.6423C122.098 15.5757 120.792 16.0423 119.152 16.0423ZM121.712 10.1823C121.685 9.51568 121.438 8.92234 120.972 8.40234C120.518 7.88234 119.858 7.62234 118.992 7.62234C118.165 7.62234 117.518 7.88234 117.052 8.40234C116.585 8.90901 116.325 9.50234 116.272 10.1823H121.712Z" fill="#35C759"/>
<path d="M129.684 15.8023H127.584V7.98234H124.824V6.14234H132.464V7.98234H129.684V15.8023Z" fill="#35C759"/>
<path d="M4.98822 16.0424C3.09488 16.0424 1.61488 15.5224 0.548218 14.4824L1.52822 13.1424C2.40822 13.9291 3.56155 14.3224 4.98822 14.3224C5.72155 14.3224 6.29488 14.2091 6.70822 13.9824C7.13488 13.7424 7.34822 13.4224 7.34822 13.0224C7.34822 12.1824 6.50155 11.7624 4.80822 11.7624H2.74822V10.0824H4.80822C5.54155 10.0824 6.11488 9.97576 6.52822 9.76242C6.95488 9.54909 7.16822 9.23575 7.16822 8.82242C7.16822 8.47575 6.94822 8.18909 6.50822 7.96242C6.06822 7.73576 5.51488 7.62242 4.84822 7.62242C3.55488 7.62242 2.52155 8.00909 1.74822 8.78242L0.708218 7.50242C1.73488 6.44909 3.08155 5.92242 4.74822 5.92242C6.17488 5.90909 7.29488 6.14242 8.10822 6.62242C8.93489 7.08909 9.34822 7.72909 9.34822 8.54242C9.34822 9.15576 9.08822 9.67576 8.56822 10.1024C8.06155 10.5158 7.46822 10.7691 6.78822 10.8624C7.46822 10.9158 8.09488 11.1424 8.66822 11.5424C9.25489 11.9424 9.54822 12.4891 9.54822 13.1824C9.54822 14.0224 9.13488 14.7091 8.30822 15.2424C7.49488 15.7758 6.38822 16.0424 4.98822 16.0424Z" fill="white"/>
<path d="M16.1245 16.0424C14.6578 16.0424 13.4445 15.5758 12.4845 14.6424C11.5378 13.6958 11.0645 12.4691 11.0645 10.9624C11.0645 9.54909 11.5245 8.35575 12.4445 7.38242C13.3778 6.39575 14.5511 5.90242 15.9645 5.90242C17.3911 5.90242 18.5378 6.39575 19.4045 7.38242C20.2845 8.36909 20.7245 9.62909 20.7245 11.1624V11.6624H13.2645C13.3445 12.4224 13.6578 13.0558 14.2045 13.5624C14.7511 14.0691 15.4645 14.3224 16.3445 14.3224C16.8378 14.3224 17.3311 14.2291 17.8245 14.0424C18.3311 13.8558 18.7511 13.5958 19.0845 13.2624L20.0445 14.6424C19.0711 15.5758 17.7645 16.0424 16.1245 16.0424ZM18.6845 10.1824C18.6578 9.51575 18.4111 8.92242 17.9445 8.40242C17.4911 7.88242 16.8311 7.62242 15.9645 7.62242C15.1378 7.62242 14.4911 7.88242 14.0245 8.40242C13.5578 8.90909 13.2978 9.50242 13.2445 10.1824H18.6845Z" fill="white"/>
<path d="M21.7973 16.0424V14.3224C22.2106 14.3224 22.5373 14.0558 22.7773 13.5224C23.0306 12.9891 23.2373 12.0958 23.3973 10.8424L23.9773 6.14242H31.4373V15.8024H29.3373V7.98242H25.8373L25.4973 11.0824C25.3106 12.8158 24.9173 14.0758 24.3173 14.8624C23.7173 15.6491 22.8773 16.0424 21.7973 16.0424Z" fill="white"/>
<path d="M41.7445 3.64242C41.7445 3.97576 41.6245 4.25576 41.3845 4.48242C41.1578 4.70909 40.8845 4.82242 40.5645 4.82242C40.2445 4.82242 39.9645 4.70909 39.7245 4.48242C39.4978 4.25576 39.3845 3.97576 39.3845 3.64242C39.3845 3.32242 39.4978 3.04909 39.7245 2.82242C39.9645 2.59575 40.2445 2.48242 40.5645 2.48242C40.8845 2.48242 41.1578 2.59575 41.3845 2.82242C41.6245 3.04909 41.7445 3.32242 41.7445 3.64242ZM37.5445 3.64242C37.5445 3.97576 37.4311 4.25576 37.2045 4.48242C36.9778 4.70909 36.7045 4.82242 36.3845 4.82242C36.0511 4.82242 35.7711 4.70909 35.5445 4.48242C35.3178 4.25576 35.2045 3.97576 35.2045 3.64242C35.2045 3.32242 35.3178 3.04909 35.5445 2.82242C35.7711 2.59575 36.0511 2.48242 36.3845 2.48242C36.7045 2.48242 36.9778 2.59575 37.2045 2.82242C37.4311 3.04909 37.5445 3.32242 37.5445 3.64242ZM38.6245 16.0424C37.1578 16.0424 35.9445 15.5758 34.9845 14.6424C34.0378 13.6958 33.5645 12.4691 33.5645 10.9624C33.5645 9.54909 34.0245 8.35575 34.9445 7.38242C35.8778 6.39575 37.0511 5.90242 38.4645 5.90242C39.8911 5.90242 41.0378 6.39575 41.9045 7.38242C42.7845 8.36909 43.2245 9.62909 43.2245 11.1624V11.6624H35.7645C35.8445 12.4224 36.1578 13.0558 36.7045 13.5624C37.2511 14.0691 37.9645 14.3224 38.8445 14.3224C39.3378 14.3224 39.8311 14.2291 40.3245 14.0424C40.8311 13.8558 41.2511 13.5958 41.5845 13.2624L42.5445 14.6424C41.5711 15.5758 40.2645 16.0424 38.6245 16.0424ZM41.1845 10.1824C41.1578 9.51575 40.9111 8.92242 40.4445 8.40242C39.9911 7.88242 39.3311 7.62242 38.4645 7.62242C37.6378 7.62242 36.9911 7.88242 36.5245 8.40242C36.0578 8.90909 35.7978 9.50242 35.7445 10.1824H41.1845Z" fill="white"/>
<path d="M47.3973 15.8024H45.2973V6.14242H47.3973V9.94242H51.8373V6.14242H53.9373V15.8024H51.8373V11.7824H47.3973V15.8024Z" fill="white"/>
<path d="M56.6645 6.14242H58.7645V9.64242H62.1845C63.2111 9.64242 63.9978 9.93576 64.5445 10.5224C65.1045 11.1091 65.3845 11.8424 65.3845 12.7224C65.3845 13.5891 65.0978 14.3224 64.5245 14.9224C63.9645 15.5091 63.1845 15.8024 62.1845 15.8024H56.6645V6.14242ZM61.9245 11.4824H58.7645V13.9624H61.9245C62.3378 13.9624 62.6578 13.8491 62.8845 13.6224C63.1245 13.3958 63.2445 13.0958 63.2445 12.7224C63.2445 12.3491 63.1245 12.0491 62.8845 11.8224C62.6578 11.5958 62.3378 11.4824 61.9245 11.4824ZM68.9445 15.8024H66.8445V6.14242H68.9445V15.8024Z" fill="white"/>
<path d="M73.6845 15.8024H71.6645V6.14242H73.7645V12.6424L78.2045 6.14242H80.3045V15.8024H78.2045V9.12242L73.6845 15.8024ZM79.4845 3.36242C78.6178 4.53575 77.4511 5.12242 75.9845 5.12242C74.5311 5.12242 73.3578 4.53575 72.4645 3.36242L73.4245 2.56242C74.0645 3.44242 74.9178 3.88242 75.9845 3.88242C77.0511 3.88242 77.8978 3.44242 78.5245 2.56242L79.4845 3.36242Z" fill="white"/>
<path d="M155.648 10.8027C155.648 15.4972 151.843 19.3027 147.148 19.3027C142.454 19.3027 138.648 15.4972 138.648 10.8027C138.648 6.10831 142.454 2.30273 147.148 2.30273C151.843 2.30273 155.648 6.10831 155.648 10.8027Z" fill="#35C759"/>
</svg>
