<svg width="200" height="48" viewBox="0 0 200 48" fill="none" xmlns="http://www.w3.org/2000/svg">
<g clip-path="url(#clip0_201_2)">
<path d="M176.396 0H23.6041C10.5679 0 0 10.7452 0 24C0 37.2548 10.5679 48 23.6041 48H176.396C189.432 48 200 37.2548 200 24C200 10.7452 189.432 0 176.396 0Z" fill="white"/>
<path d="M169.543 14.4516H118.782C113.175 14.4516 108.629 19.0732 108.629 24.7742C108.629 30.4752 113.175 35.0968 118.782 35.0968H169.543C175.15 35.0968 179.695 30.4752 179.695 24.7742C179.695 19.0732 175.15 14.4516 169.543 14.4516Z" fill="#35C759"/>
<path d="M25.2183 30.1832C23.2961 30.1832 21.7936 29.6464 20.7107 28.5729L21.7056 27.1897C22.599 28.0017 23.7699 28.4077 25.2183 28.4077C25.9628 28.4077 26.5449 28.2907 26.9645 28.0568C27.3976 27.809 27.6142 27.4787 27.6142 27.0658C27.6142 26.1987 26.7547 25.7651 25.0356 25.7651H22.9442V24.031H25.0356C25.7801 24.031 26.3621 23.9209 26.7818 23.7006C27.2149 23.4804 27.4315 23.157 27.4315 22.7303C27.4315 22.3725 27.2082 22.0765 26.7615 21.8426C26.3148 21.6086 25.753 21.4916 25.0762 21.4916C23.7631 21.4916 22.7141 21.8907 21.929 22.689L20.8731 21.3677C21.9154 20.2804 23.2826 19.7368 24.9747 19.7368C26.423 19.723 27.5601 19.9639 28.3858 20.4593C29.2251 20.941 29.6447 21.6017 29.6447 22.4413C29.6447 23.0744 29.3807 23.6112 28.8528 24.0516C28.3385 24.4783 27.7361 24.7398 27.0457 24.8361C27.7361 24.8912 28.3723 25.1251 28.9543 25.538C29.5499 25.951 29.8477 26.5152 29.8477 27.231C29.8477 28.098 29.4281 28.8068 28.5889 29.3574C27.7631 29.908 26.6396 30.1832 25.2183 30.1832ZM36.5241 30.1832C35.0352 30.1832 33.8033 29.7015 32.8287 28.738C31.8676 27.7609 31.3871 26.4946 31.3871 24.9393C31.3871 23.4804 31.8541 22.2486 32.7881 21.2439C33.7357 20.2254 34.9268 19.7161 36.3617 19.7161C37.8101 19.7161 38.9742 20.2254 39.8541 21.2439C40.7475 22.2623 41.1942 23.563 41.1942 25.1458V25.6619H33.6206C33.7018 26.4464 34.0199 27.1002 34.5749 27.6232C35.1299 28.1462 35.8541 28.4077 36.7475 28.4077C37.2484 28.4077 37.7492 28.3114 38.25 28.1187C38.7644 27.926 39.1908 27.6576 39.5292 27.3135L40.5038 28.738C39.5157 29.7015 38.1891 30.1832 36.5241 30.1832ZM39.1231 24.1342C39.0961 23.446 38.8456 22.8335 38.3719 22.2968C37.9116 21.76 37.2416 21.4916 36.3617 21.4916C35.5225 21.4916 34.8659 21.76 34.3922 22.2968C33.9184 22.8198 33.6544 23.4322 33.6003 24.1342H39.1231ZM42.2833 30.1832V28.4077C42.703 28.4077 43.0346 28.1325 43.2783 27.5819C43.5355 27.0314 43.7453 26.1092 43.9077 24.8155L44.4965 19.9639H52.0701V29.9355H49.9382V21.8632H46.3849L46.0397 25.0632C45.8502 26.8525 45.4508 28.1531 44.8417 28.9651C44.2326 29.7772 43.3798 30.1832 42.2833 30.1832ZM62.5346 17.3832C62.5346 17.7273 62.4127 18.0163 62.1691 18.2503C61.9386 18.4843 61.6615 18.6013 61.3366 18.6013C61.0117 18.6013 60.7274 18.4843 60.4838 18.2503C60.2533 18.0163 60.1386 17.7273 60.1386 17.3832C60.1386 17.0529 60.2533 16.7707 60.4838 16.5368C60.7274 16.3028 61.0117 16.1858 61.3366 16.1858C61.6615 16.1858 61.9386 16.3028 62.1691 16.5368C62.4127 16.7707 62.5346 17.0529 62.5346 17.3832ZM58.2706 17.3832C58.2706 17.7273 58.1554 18.0163 57.9254 18.2503C57.695 18.4843 57.4178 18.6013 57.0929 18.6013C56.7544 18.6013 56.4701 18.4843 56.2401 18.2503C56.0097 18.0163 55.895 17.7273 55.895 17.3832C55.895 17.0529 56.0097 16.7707 56.2401 16.5368C56.4701 16.3028 56.7544 16.1858 57.0929 16.1858C57.4178 16.1858 57.695 16.3028 57.9254 16.5368C58.1554 16.7707 58.2706 17.0529 58.2706 17.3832ZM59.367 30.1832C57.8777 30.1832 56.6462 29.7015 55.6716 28.738C54.7102 27.7609 54.23 26.4946 54.23 24.9393C54.23 23.4804 54.697 22.2486 55.631 21.2439C56.5782 20.2254 57.7696 19.7161 59.2046 19.7161C60.6528 19.7161 61.8168 20.2254 62.697 21.2439C63.5904 22.2623 64.0371 23.563 64.0371 25.1458V25.6619H56.4635C56.5447 26.4464 56.8625 27.1002 57.4178 27.6232C57.9726 28.1462 58.697 28.4077 59.5904 28.4077C60.0909 28.4077 60.5919 28.3114 61.0929 28.1187C61.6071 27.926 62.0335 27.6576 62.3721 27.3135L63.3467 28.738C62.3584 29.7015 61.032 30.1832 59.367 30.1832ZM61.966 24.1342C61.9386 23.446 61.6884 22.8335 61.2148 22.2968C60.7544 21.76 60.0843 21.4916 59.2046 21.4916C58.365 21.4916 57.7087 21.76 57.2351 22.2968C56.761 22.8198 56.497 23.4322 56.4427 24.1342H61.966ZM68.2731 29.9355H66.1412V19.9639H68.2731V23.8864H72.7807V19.9639H74.9127V29.9355H72.7807V25.7858H68.2731V29.9355ZM77.6818 19.9639H79.8137V23.5768H83.2858C84.328 23.5768 85.1264 23.8796 85.6818 24.4851C86.2503 25.0907 86.5346 25.8477 86.5346 26.7561C86.5346 27.6507 86.2432 28.4077 85.6615 29.0271C85.0929 29.6327 84.3011 29.9355 83.2858 29.9355H77.6818V19.9639ZM83.0219 25.4761H79.8137V28.0361H83.0219C83.4412 28.0361 83.766 27.9191 83.9965 27.6851C84.2401 27.4512 84.362 27.1415 84.362 26.7561C84.362 26.3707 84.2401 26.061 83.9965 25.8271C83.766 25.5931 83.4412 25.4761 83.0219 25.4761ZM90.1488 29.9355H88.0168V19.9639H90.1488V29.9355ZM94.961 29.9355H92.9102V19.9639H95.0422V26.6735L99.5498 19.9639H101.681V29.9355H99.5498V23.04L94.961 29.9355ZM100.849 17.0942C99.9691 18.3054 98.7848 18.911 97.296 18.911C95.8203 18.911 94.629 18.3054 93.7224 17.0942L94.697 16.2684C95.3467 17.1768 96.2127 17.631 97.296 17.631C98.3787 17.631 99.2381 17.1768 99.8747 16.2684L100.849 17.0942Z" fill="#164629"/>
<path d="M119.347 30.1832C117.858 30.1832 116.64 29.6946 115.692 28.7174C114.745 27.7264 114.271 26.4671 114.271 24.9394C114.271 23.4254 114.745 22.1798 115.692 21.2026C116.64 20.2116 117.858 19.7161 119.347 19.7161C120.985 19.7161 122.237 20.308 123.103 21.4916L121.702 22.8129C121.161 22.0284 120.41 21.6361 119.449 21.6361C118.555 21.6361 117.837 21.9458 117.296 22.5652C116.755 23.1707 116.484 23.9622 116.484 24.9394C116.484 25.9165 116.755 26.7148 117.296 27.3342C117.837 27.9535 118.555 28.2632 119.449 28.2632C120.383 28.2632 121.134 27.871 121.702 27.0864L123.103 28.4077C122.237 29.5914 120.985 30.1832 119.347 30.1832ZM130.983 29.9355H124.973V19.9639H130.841C131.748 19.9639 132.458 20.2047 132.973 20.6864C133.487 21.1682 133.745 21.7806 133.745 22.5239C133.745 23.1019 133.589 23.5906 133.278 23.9897C132.966 24.3888 132.574 24.6572 132.1 24.7948C132.628 24.9187 133.067 25.2146 133.42 25.6826C133.772 26.1368 133.948 26.6529 133.948 27.231C133.948 28.0293 133.684 28.683 133.156 29.1923C132.641 29.6877 131.917 29.9355 130.983 29.9355ZM130.536 28.0361C130.915 28.0361 131.213 27.9398 131.43 27.7471C131.646 27.5406 131.755 27.2654 131.755 26.9213C131.755 26.6047 131.646 26.3364 131.43 26.1161C131.213 25.8959 130.915 25.7858 130.536 25.7858H127.105V28.0361H130.536ZM130.476 23.8864C130.814 23.8864 131.078 23.797 131.267 23.6181C131.47 23.4254 131.572 23.1845 131.572 22.8955C131.572 22.5789 131.47 22.3312 131.267 22.1523C131.078 21.9596 130.814 21.8632 130.476 21.8632H127.105V23.8864H130.476ZM141.12 30.1832C139.631 30.1832 138.399 29.7015 137.425 28.7381C136.464 27.7609 135.983 26.4946 135.983 24.9394C135.983 23.4804 136.45 22.2486 137.384 21.2439C138.332 20.2254 139.523 19.7161 140.958 19.7161C142.407 19.7161 143.57 20.2254 144.45 21.2439C145.344 22.2623 145.79 23.563 145.79 25.1458V25.6619H138.217C138.298 26.4464 138.616 27.1002 139.171 27.6232C139.726 28.1462 140.45 28.4077 141.344 28.4077C141.845 28.4077 142.346 28.3114 142.846 28.1187C143.361 27.926 143.787 27.6576 144.125 27.3135L145.1 28.7381C144.112 29.7015 142.785 30.1832 141.12 30.1832ZM143.719 24.1342C143.692 23.446 143.442 22.8335 142.968 22.2968C142.508 21.76 141.838 21.4916 140.958 21.4916C140.119 21.4916 139.462 21.76 138.988 22.2968C138.515 22.8198 138.251 23.4323 138.196 24.1342H143.719ZM151.814 29.9355H149.682V21.8632H146.88V19.9639H154.636V21.8632H151.814V29.9355Z" fill="white"/>
<path d="M178.173 24.7742C178.173 29.62 174.309 33.5484 169.543 33.5484C164.777 33.5484 160.914 29.62 160.914 24.7742C160.914 19.9284 164.777 16 169.543 16C174.309 16 178.173 19.9284 178.173 24.7742Z" fill="white"/>
</g>
<defs>
<clipPath id="clip0_201_2">
<rect width="200" height="48" fill="white"/>
</clipPath>
</defs>
</svg>
