<svg width="157" height="20" viewBox="0 0 157 20" fill="none" xmlns="http://www.w3.org/2000/svg">
<path d="M86.6001 10C86.6001 4.47715 91.0773 0 96.6001 0H146.6C152.123 0 156.6 4.47715 156.6 10C156.6 15.5228 152.123 20 146.6 20H96.6001C91.0772 20 86.6001 15.5228 86.6001 10Z" fill="#35C759"/>
<path d="M97.1567 15.2396C95.6901 15.2396 94.4901 14.7663 93.5567 13.8196C92.6234 12.8596 92.1567 11.6396 92.1567 10.1596C92.1567 8.69294 92.6234 7.48628 93.5567 6.53961C94.4901 5.57961 95.6901 5.09961 97.1567 5.09961C98.7701 5.09961 100.003 5.67294 100.857 6.81961L99.4767 8.09961C98.9434 7.33961 98.2034 6.95961 97.2567 6.95961C96.3767 6.95961 95.6701 7.25961 95.1367 7.85961C94.6034 8.44628 94.3367 9.21294 94.3367 10.1596C94.3367 11.1063 94.6034 11.8796 95.1367 12.4796C95.6701 13.0796 96.3767 13.3796 97.2567 13.3796C98.1767 13.3796 98.9167 12.9996 99.4767 12.2396L100.857 13.5196C100.003 14.6663 98.7701 15.2396 97.1567 15.2396Z" fill="white"/>
<path d="M108.618 14.9996H102.698V5.33961H108.478C109.371 5.33961 110.071 5.57294 110.578 6.03961C111.085 6.50628 111.338 7.09961 111.338 7.81961C111.338 8.37961 111.185 8.85294 110.878 9.23961C110.571 9.62628 110.185 9.88628 109.718 10.0196C110.238 10.1396 110.671 10.4263 111.018 10.8796C111.365 11.3196 111.538 11.8196 111.538 12.3796C111.538 13.1529 111.278 13.7863 110.758 14.2796C110.251 14.7596 109.538 14.9996 108.618 14.9996ZM108.178 13.1596C108.551 13.1596 108.845 13.0663 109.058 12.8796C109.271 12.6796 109.378 12.4129 109.378 12.0796C109.378 11.7729 109.271 11.5129 109.058 11.2996C108.845 11.0863 108.551 10.9796 108.178 10.9796H104.798V13.1596H108.178ZM108.118 9.13961C108.451 9.13961 108.711 9.05294 108.898 8.87961C109.098 8.69294 109.198 8.45961 109.198 8.17961C109.198 7.87294 109.098 7.63294 108.898 7.45961C108.711 7.27294 108.451 7.17961 108.118 7.17961H104.798V9.13961H108.118Z" fill="white"/>
<path d="M118.603 15.2396C117.137 15.2396 115.923 14.7729 114.963 13.8396C114.017 12.8929 113.543 11.6663 113.543 10.1596C113.543 8.74628 114.003 7.55294 114.923 6.57961C115.857 5.59294 117.03 5.09961 118.443 5.09961C119.87 5.09961 121.017 5.59294 121.883 6.57961C122.763 7.56628 123.203 8.82628 123.203 10.3596V10.8596H115.743C115.823 11.6196 116.137 12.2529 116.683 12.7596C117.23 13.2663 117.943 13.5196 118.823 13.5196C119.317 13.5196 119.81 13.4263 120.303 13.2396C120.81 13.0529 121.23 12.7929 121.563 12.4596L122.523 13.8396C121.55 14.7729 120.243 15.2396 118.603 15.2396ZM121.163 9.37961C121.137 8.71294 120.89 8.11961 120.423 7.59961C119.97 7.07961 119.31 6.81961 118.443 6.81961C117.617 6.81961 116.97 7.07961 116.503 7.59961C116.037 8.10628 115.777 8.69961 115.723 9.37961H121.163Z" fill="white"/>
<path d="M129.136 14.9996H127.036V7.17961H124.276V5.33961H131.916V7.17961H129.136V14.9996Z" fill="white"/>
<path d="M4.44 15.2397C2.54667 15.2397 1.06667 14.7197 0 13.6797L0.98 12.3397C1.86 13.1264 3.01333 13.5197 4.44 13.5197C5.17333 13.5197 5.74667 13.4064 6.16 13.1797C6.58667 12.9397 6.8 12.6197 6.8 12.2197C6.8 11.3797 5.95333 10.9597 4.26 10.9597H2.2V9.27969H4.26C4.99333 9.27969 5.56667 9.17302 5.98 8.95969C6.40667 8.74635 6.62 8.43302 6.62 8.01969C6.62 7.67302 6.4 7.38635 5.96 7.15969C5.52 6.93302 4.96667 6.81969 4.3 6.81969C3.00667 6.81969 1.97333 7.20635 1.2 7.97969L0.16 6.69969C1.18667 5.64635 2.53333 5.11969 4.2 5.11969C5.62667 5.10635 6.74667 5.33969 7.56 5.81969C8.38667 6.28635 8.8 6.92635 8.8 7.73969C8.8 8.35302 8.54 8.87302 8.02 9.29969C7.51333 9.71302 6.92 9.96635 6.24 10.0597C6.92 10.113 7.54667 10.3397 8.12 10.7397C8.70667 11.1397 9 11.6864 9 12.3797C9 13.2197 8.58667 13.9064 7.76 14.4397C6.94667 14.973 5.84 15.2397 4.44 15.2397Z" fill="#35C759"/>
<path d="M15.5763 15.2397C14.1096 15.2397 12.8963 14.773 11.9363 13.8397C10.9896 12.893 10.5163 11.6664 10.5163 10.1597C10.5163 8.74635 10.9763 7.55302 11.8963 6.57969C12.8296 5.59302 14.0029 5.09969 15.4163 5.09969C16.8429 5.09969 17.9896 5.59302 18.8563 6.57969C19.7363 7.56635 20.1763 8.82635 20.1763 10.3597V10.8597H12.7163C12.7963 11.6197 13.1096 12.253 13.6563 12.7597C14.2029 13.2664 14.9163 13.5197 15.7963 13.5197C16.2896 13.5197 16.7829 13.4264 17.2763 13.2397C17.7829 13.053 18.2029 12.793 18.5363 12.4597L19.4963 13.8397C18.5229 14.773 17.2163 15.2397 15.5763 15.2397ZM18.1363 9.37969C18.1096 8.71302 17.8629 8.11969 17.3963 7.59969C16.9429 7.07969 16.2829 6.81969 15.4163 6.81969C14.5896 6.81969 13.9429 7.07969 13.4763 7.59969C13.0096 8.10635 12.7496 8.69969 12.6962 9.37969H18.1363Z" fill="#35C759"/>
<path d="M21.2491 15.2397V13.5197C21.6624 13.5197 21.9891 13.253 22.2291 12.7197C22.4824 12.1864 22.6891 11.293 22.8491 10.0397L23.4291 5.33969H30.8891V14.9997H28.7891V7.17969H25.2891L24.9491 10.2797C24.7624 12.013 24.3691 13.273 23.7691 14.0597C23.1691 14.8464 22.3291 15.2397 21.2491 15.2397Z" fill="#35C759"/>
<path d="M41.1963 2.83969C41.1963 3.17302 41.0763 3.45302 40.8363 3.67969C40.6096 3.90635 40.3363 4.01969 40.0163 4.01969C39.6963 4.01969 39.4163 3.90635 39.1763 3.67969C38.9496 3.45302 38.8363 3.17302 38.8363 2.83969C38.8363 2.51969 38.9496 2.24635 39.1763 2.01969C39.4163 1.79302 39.6963 1.67969 40.0163 1.67969C40.3363 1.67969 40.6096 1.79302 40.8363 2.01969C41.0763 2.24635 41.1963 2.51969 41.1963 2.83969ZM36.9963 2.83969C36.9963 3.17302 36.8829 3.45302 36.6562 3.67969C36.4296 3.90635 36.1562 4.01969 35.8363 4.01969C35.5029 4.01969 35.2229 3.90635 34.9963 3.67969C34.7696 3.45302 34.6562 3.17302 34.6562 2.83969C34.6562 2.51969 34.7696 2.24635 34.9963 2.01969C35.2229 1.79302 35.5029 1.67969 35.8363 1.67969C36.1562 1.67969 36.4296 1.79302 36.6562 2.01969C36.8829 2.24635 36.9963 2.51969 36.9963 2.83969ZM38.0762 15.2397C36.6096 15.2397 35.3962 14.773 34.4362 13.8397C33.4896 12.893 33.0162 11.6664 33.0162 10.1597C33.0162 8.74635 33.4762 7.55302 34.3962 6.57969C35.3296 5.59302 36.5029 5.09969 37.9162 5.09969C39.3429 5.09969 40.4896 5.59302 41.3562 6.57969C42.2362 7.56635 42.6763 8.82635 42.6763 10.3597V10.8597H35.2162C35.2962 11.6197 35.6096 12.253 36.1562 12.7597C36.7029 13.2664 37.4162 13.5197 38.2962 13.5197C38.7896 13.5197 39.2829 13.4264 39.7762 13.2397C40.2829 13.053 40.7029 12.793 41.0362 12.4597L41.9963 13.8397C41.0229 14.773 39.7162 15.2397 38.0762 15.2397ZM40.6362 9.37969C40.6096 8.71302 40.3629 8.11969 39.8962 7.59969C39.4429 7.07969 38.7829 6.81969 37.9162 6.81969C37.0896 6.81969 36.4429 7.07969 35.9762 7.59969C35.5096 8.10635 35.2496 8.69969 35.1962 9.37969H40.6362Z" fill="#35C759"/>
<path d="M46.8491 14.9997H44.7491V5.33969H46.8491V9.13969H51.2891V5.33969H53.3891V14.9997H51.2891V10.9797H46.8491V14.9997Z" fill="#35C759"/>
<path d="M56.1162 5.33969H58.2162V8.83969H61.6362C62.6629 8.83969 63.4496 9.13302 63.9962 9.71969C64.5562 10.3064 64.8363 11.0397 64.8363 11.9197C64.8363 12.7864 64.5496 13.5197 63.9762 14.1197C63.4162 14.7064 62.6362 14.9997 61.6362 14.9997H56.1162V5.33969ZM61.3762 10.6797H58.2162V13.1597H61.3762C61.7896 13.1597 62.1096 13.0464 62.3363 12.8197C62.5763 12.593 62.6962 12.293 62.6962 11.9197C62.6962 11.5464 62.5763 11.2464 62.3363 11.0197C62.1096 10.793 61.7896 10.6797 61.3762 10.6797ZM68.3962 14.9997H66.2962V5.33969H68.3962V14.9997Z" fill="#35C759"/>
<path d="M73.1362 14.9997H71.1162V5.33969H73.2162V11.8397L77.6562 5.33969H79.7562V14.9997H77.6562V8.31969L73.1362 14.9997ZM78.9362 2.55969C78.0696 3.73302 76.9029 4.31969 75.4362 4.31969C73.9829 4.31969 72.8096 3.73302 71.9163 2.55969L72.8763 1.75969C73.5163 2.63969 74.3696 3.07969 75.4362 3.07969C76.5029 3.07969 77.3496 2.63969 77.9762 1.75969L78.9362 2.55969Z" fill="#35C759"/>
<path d="M155.1 10C155.1 14.6944 151.295 18.5 146.6 18.5C141.906 18.5 138.1 14.6944 138.1 10C138.1 5.30558 141.906 1.5 146.6 1.5C151.295 1.5 155.1 5.30558 155.1 10Z" fill="white"/>
</svg>
