<svg preserveAspectRatio='none' viewBox="0 0 737 456" fill="none" xmlns="http://www.w3.org/2000/svg" xmlns:xlink="http://www.w3.org/1999/xlink">
<path fill-rule="evenodd" clip-rule="evenodd" d="M736 0H1V33.3018C0.927535 34.2346 0.890625 35.1775 0.890625 36.1289V419.129C0.890625 420.08 0.927535 421.023 1 421.956V455H33.8225C34.8338 455.085 35.8571 455.129 36.8906 455.129H700.001C701.035 455.129 702.058 455.085 703.069 455H736V419.413C736.001 419.318 736.001 419.224 736.001 419.129V36.1289C736.001 36.0341 736.001 35.9393 736 35.8447V0ZM736 35.8447C735.847 16.0933 719.789 0.128906 700.001 0.128906H36.8906C17.9598 0.128906 2.44184 14.741 1 33.3018V421.956C2.36313 439.504 16.3074 453.522 33.8225 455H703.069C721.423 453.451 735.855 438.133 736 419.413V35.8447Z" fill="url(#pattern0)"/>
<path fill-rule="evenodd" clip-rule="evenodd" d="M736 0H1V33.3018C0.927535 34.2346 0.890625 35.1775 0.890625 36.1289V419.129C0.890625 420.08 0.927535 421.023 1 421.956V455H33.8225C34.8338 455.085 35.8571 455.129 36.8906 455.129H700.001C701.035 455.129 702.058 455.085 703.069 455H736V419.413C736.001 419.318 736.001 419.224 736.001 419.129V36.1289C736.001 36.0341 736.001 35.9393 736 35.8447V0ZM736 35.8447C735.847 16.0933 719.789 0.128906 700.001 0.128906H36.8906C17.9598 0.128906 2.44184 14.741 1 33.3018V421.956C2.36313 439.504 16.3074 453.522 33.8225 455H703.069C721.423 453.451 735.855 438.133 736 419.413V35.8447Z" fill="white"/>
<defs>
<pattern id="pattern0" patternContentUnits="objectBoundingBox" width="1" height="1">
<use xlink:href="#image0_2656_15699" transform="matrix(0.00137741 0 0 0.00222475 0 -0.120706)"/>
</pattern>
</defs>
</svg>
